<svg xmlns="http://www.w3.org/2000/svg" xmlns:xlink="http://www.w3.org/1999/xlink" width="99" height="99" viewBox="0 0 99 99">
  <defs>
    <filter id="Elipse_4720" x="0" y="0" width="99" height="99" filterUnits="userSpaceOnUse">
      <feOffset dy="1" input="SourceAlpha"/>
      <feGaussianBlur stdDeviation="5.5" result="blur"/>
      <feFlood flood-color="#fff" flood-opacity="0.902"/>
      <feComposite operator="in" in2="blur"/>
      <feComposite in="SourceGraphic"/>
    </filter>
    <clipPath id="clip-path">
      <path id="Trazado_818094" data-name="Trazado 818094" d="M22.593,0,11.088.23l3.624,4.026L28.574,6.1l4.315-2.472Z" transform="translate(-11.088 0)" fill="none"/>
    </clipPath>
    <linearGradient id="linear-gradient" x1="-0.459" y1="5.84" x2="-0.418" y2="5.84" gradientUnits="objectBoundingBox">
      <stop offset="0" stop-color="#f5f8a4"/>
      <stop offset="1" stop-color="#f4f9b4"/>
    </linearGradient>
    <clipPath id="clip-path-2">
      <path id="Trazado_818095" data-name="Trazado 818095" d="M8.284,16.738,14.439,4.715,28.3,6.557l2.416,13.69-12.252,6.5Z" transform="translate(-8.284 -4.715)" fill="none"/>
    </clipPath>
    <linearGradient id="linear-gradient-2" x1="-0.13" y1="1.18" x2="-0.099" y2="1.18" gradientUnits="objectBoundingBox">
      <stop offset="0" stop-color="#88ee6b"/>
      <stop offset="1" stop-color="#f6d67e"/>
    </linearGradient>
    <clipPath id="clip-path-3">
      <path id="Trazado_818096" data-name="Trazado 818096" d="M30.46,6.488l2.416,13.691,5.753,5.579,1.208-10.009L34.775,4.015Z" transform="translate(-30.46 -4.015)" fill="none"/>
    </clipPath>
    <linearGradient id="linear-gradient-3" x1="-1.066" y1="1.418" x2="-1.022" y2="1.418" gradientUnits="objectBoundingBox">
      <stop offset="0" stop-color="#f5f8a4"/>
      <stop offset="0.995" stop-color="#ff6a46"/>
      <stop offset="1" stop-color="#ff6a46"/>
    </linearGradient>
    <clipPath id="clip-path-4">
      <path id="Trazado_818097" data-name="Trazado 818097" d="M1.553,9.8,0,19.755,7.479,16.3,13.633,4.281,10.009.255Z" transform="translate(0 -0.255)" fill="none"/>
    </clipPath>
    <linearGradient id="linear-gradient-4" x1="0.213" y1="1.669" x2="0.251" y2="1.669" gradientUnits="objectBoundingBox">
      <stop offset="0" stop-color="#5b79ed"/>
      <stop offset="0.005" stop-color="#5b79ed"/>
      <stop offset="1" stop-color="#01e3e9"/>
    </linearGradient>
    <clipPath id="clip-path-5">
      <path id="Trazado_818098" data-name="Trazado 818098" d="M0,21.485l5.235,12.08,10.757,3.8,1.668-9.319L7.479,18.034Z" transform="translate(0 -18.034)" fill="none"/>
    </clipPath>
    <linearGradient id="linear-gradient-5" x1="0.162" y1="0.869" x2="0.197" y2="0.869" gradientUnits="objectBoundingBox">
      <stop offset="0" stop-color="#6dd2e4"/>
      <stop offset="0.005" stop-color="#6dd2e4"/>
      <stop offset="0.995" stop-color="#5b4bde"/>
      <stop offset="1" stop-color="#5b4bde"/>
    </linearGradient>
    <clipPath id="clip-path-6">
      <path id="Trazado_818099" data-name="Trazado 818099" d="M19.384,28.421,17.716,37.74l11.332-.747L37.389,27.5l-5.753-5.579Z" transform="translate(-17.716 -21.921)" fill="none"/>
    </clipPath>
    <linearGradient id="linear-gradient-6" x1="-0.524" y1="0.823" x2="-0.488" y2="0.823" gradientUnits="objectBoundingBox">
      <stop offset="0" stop-color="#fb80e3"/>
      <stop offset="1" stop-color="#db5271"/>
    </linearGradient>
  </defs>
  <g id="Grupo_1072364" data-name="Grupo 1072364" transform="translate(-868.683 -383.35)">
    <g id="Grupo_1044237" data-name="Grupo 1044237" transform="translate(885.333 399)">
      <g transform="matrix(1, 0, 0, 1, -16.65, -15.65)" filter="url(#Elipse_4720)">
        <g id="Elipse_4720-2" data-name="Elipse 4720" transform="translate(16.5 15.5)" fill="none" stroke="#fff" stroke-width="6">
          <circle cx="33" cy="33" r="33" stroke="none"/>
          <circle cx="33" cy="33" r="30" fill="none"/>
        </g>
      </g>
      <g id="Grupo_1072136" data-name="Grupo 1072136" transform="translate(14.414 15.047)">
        <g id="Grupo_1072137" data-name="Grupo 1072137" transform="translate(10.009 0)">
          <g id="Grupo_1072136-2" data-name="Grupo 1072136" clip-path="url(#clip-path)">
            <rect id="Rectángulo_375856" data-name="Rectángulo 375856" width="21.801" height="6.097" transform="translate(0 0)" fill="url(#linear-gradient)"/>
          </g>
        </g>
        <g id="Grupo_1072139" data-name="Grupo 1072139" transform="translate(7.478 4.256)">
          <g id="Grupo_1072138" data-name="Grupo 1072138" clip-path="url(#clip-path-2)">
            <rect id="Rectángulo_375857" data-name="Rectángulo 375857" width="29.68" height="29.863" transform="translate(-8.737 17.724) rotate(-63.759)" fill="url(#linear-gradient-2)"/>
          </g>
        </g>
        <g id="Grupo_1072141" data-name="Grupo 1072141" transform="translate(27.495 3.624)">
          <g id="Grupo_1072140" data-name="Grupo 1072140" clip-path="url(#clip-path-3)">
            <rect id="Rectángulo_375858" data-name="Rectángulo 375858" width="20.547" height="23.02" transform="matrix(0.8, -0.6, 0.6, 0.8, -10.436, 7.827)" fill="url(#linear-gradient-3)"/>
          </g>
        </g>
        <g id="Grupo_1072143" data-name="Grupo 1072143" transform="translate(0 0.23)">
          <g id="Grupo_1072142" data-name="Grupo 1072142" clip-path="url(#clip-path-4)">
            <rect id="Rectángulo_375859" data-name="Rectángulo 375859" width="23.759" height="21.881" transform="matrix(0.529, -0.849, 0.849, 0.529, -8.751, 14.048)" fill="url(#linear-gradient-4)"/>
          </g>
        </g>
        <g id="Grupo_1072145" data-name="Grupo 1072145" transform="translate(0 16.279)">
          <g id="Grupo_1072144" data-name="Grupo 1072144" clip-path="url(#clip-path-5)">
            <rect id="Rectángulo_375860" data-name="Rectángulo 375860" width="26.16" height="26.147" transform="matrix(0.703, -0.711, 0.711, 0.703, -9.663, 9.766)" fill="url(#linear-gradient-5)"/>
          </g>
        </g>
        <g id="Grupo_1072147" data-name="Grupo 1072147" transform="translate(15.992 19.787)">
          <g id="Grupo_1072146" data-name="Grupo 1072146" clip-path="url(#clip-path-6)">
            <rect id="Rectángulo_375861" data-name="Rectángulo 375861" width="25.23" height="24.465" transform="matrix(0.799, -0.601, 0.601, 0.799, -7.597, 5.709)" fill="url(#linear-gradient-6)"/>
          </g>
        </g>
      </g>
    </g>
  </g>
</svg>
