<svg xmlns="http://www.w3.org/2000/svg" width="450.14" height="241.908" viewBox="0 0 450.14 241.908">
  <g id="Grupo_1072561" data-name="Grupo 1072561" transform="translate(-338.099 -8803.536)">
    <path id="Trazado_818173" data-name="Trazado 818173" d="M0,0H224.07V181.654H0Z" transform="translate(338.099 8803.536)" fill="#ff7bac"/>
    <path id="Trazado_818174" data-name="Trazado 818174" d="M0,0H224.07V238.908H0Z" transform="translate(564.169 8806.536)" fill="#f2f2f2"/>
    <path id="Trazado_818175" data-name="Trazado 818175" d="M0,0H56.014V57.254H0Z" transform="translate(338.099 8985.19)" fill="#ff7bac"/>
    <g id="Grupo_57697" data-name="Grupo 57697" transform="translate(394.112 8985.19)" opacity="0.75">
      <rect id="Rectángulo_5396" data-name="Rectángulo 5396" width="56.014" height="57.254" fill="#ff7bac"/>
    </g>
    <g id="Grupo_57698" data-name="Grupo 57698" transform="translate(450.134 8985.19)" opacity="0.5">
      <rect id="Rectángulo_5397" data-name="Rectángulo 5397" width="56.014" height="57.254" fill="#ff7bac"/>
    </g>
    <g id="Grupo_57699" data-name="Grupo 57699" transform="translate(506.147 8985.19)" opacity="0.25">
      <rect id="Rectángulo_5398" data-name="Rectángulo 5398" width="56.014" height="57.254" fill="#ff7bac"/>
    </g>
    <g id="Grupo_57700" data-name="Grupo 57700" transform="translate(590.7 8846.397)">
      <path id="Trazado_102481" data-name="Trazado 102481" d="M328.944,76.909l-5.566-9.383h-1.288v9.383H317.66V55.59H325.4a8.986,8.986,0,0,1,3.093.493,5.328,5.328,0,0,1,2.147,1.376,5.765,5.765,0,0,1,1.209,2.012,7.368,7.368,0,0,1,.406,2.5,5.177,5.177,0,0,1-1.161,3.5,5.829,5.829,0,0,1-3.348,1.837l6.417,9.606Zm-6.831-17.645v5.089h2.608q3.324,0,3.324-2.537a2.322,2.322,0,0,0-.8-1.877,3.9,3.9,0,0,0-2.513-.676Z" transform="translate(-317.66 -54.246)"/>
      <path id="Trazado_102482" data-name="Trazado 102482" d="M347.427,78.713a9.542,9.542,0,0,1-4.294-.93,6.959,6.959,0,0,1-2.942-2.728,8.1,8.1,0,0,1-1.074-4.23,7.427,7.427,0,0,1,2.306-5.757,9.63,9.63,0,0,1,12.023,0,7.427,7.427,0,0,1,2.306,5.757,7.459,7.459,0,0,1-2.306,5.773A8.516,8.516,0,0,1,347.427,78.713Zm-.04-3.38a3.912,3.912,0,0,0,3-1.209,5.256,5.256,0,0,0,0-6.552,3.9,3.9,0,0,0-3-1.241,3.745,3.745,0,0,0-2.918,1.248,5.3,5.3,0,0,0,0,6.536A3.769,3.769,0,0,0,347.388,75.333Z" transform="translate(-322.053 -55.756)"/>
      <path id="Trazado_102483" data-name="Trazado 102483" d="M369.022,78.719a8.469,8.469,0,0,1-4.421-1.058,4.477,4.477,0,0,1-2.171-3.181l3.554-1.01a2.855,2.855,0,0,0,3.038,2.25,3.18,3.18,0,0,0,1.551-.342,1.209,1.209,0,0,0,.6-1.177,1.233,1.233,0,0,0-.247-.8,2.035,2.035,0,0,0-.8-.565c-.35-.151-.692-.286-1.034-.4s-.8-.239-1.344-.39a14.637,14.637,0,0,1-1.407-.437,9.792,9.792,0,0,1-1.336-.565,5.732,5.732,0,0,1-1.105-.8,3.18,3.18,0,0,1-.8-1.193,4.276,4.276,0,0,1-.286-1.59,3.881,3.881,0,0,1,1.646-3.364A7.379,7.379,0,0,1,368.76,63a7.578,7.578,0,0,1,3.976.97,4.413,4.413,0,0,1,2.028,3.006l-3.292.74a2.568,2.568,0,0,0-2.7-1.916,2.926,2.926,0,0,0-1.495.342,1.089,1.089,0,0,0-.588,1,1.176,1.176,0,0,0,.087.453.976.976,0,0,0,.31.374c.151.1.294.2.429.278a3.433,3.433,0,0,0,.6.246l.668.191.8.2.8.207c.541.143,1.018.294,1.423.437a9.124,9.124,0,0,1,1.312.62,4.58,4.58,0,0,1,1.137.9A3.976,3.976,0,0,1,375,72.293a4.621,4.621,0,0,1,.294,1.694,4.517,4.517,0,0,1-.509,2.195,3.858,3.858,0,0,1-1.392,1.487,6.886,6.886,0,0,1-1.972.8A10.512,10.512,0,0,1,369.022,78.719Z" transform="translate(-326.829 -55.761)"/>
      <path id="Trazado_102484" data-name="Trazado 102484" d="M394.564,74.294a14.091,14.091,0,0,0,.374,3.7V78.4h-3.976l-.342-1.654a4.921,4.921,0,0,1-2.123,1.463,7.785,7.785,0,0,1-2.743.485,7.269,7.269,0,0,1-1.415-.127,4.913,4.913,0,0,1-1.28-.453,4.213,4.213,0,0,1-1.058-.8,3.611,3.611,0,0,1-.708-1.2,4.9,4.9,0,0,1-.262-1.646,4.636,4.636,0,0,1,.278-1.646,3.978,3.978,0,0,1,.74-1.233,4.342,4.342,0,0,1,1.193-.9,8.669,8.669,0,0,1,1.511-.652,16.528,16.528,0,0,1,1.8-.469l2.5-.565a2.711,2.711,0,0,0,1.121-.477.954.954,0,0,0,.334-.8,1.591,1.591,0,0,0-.748-1.455,3.4,3.4,0,0,0-1.805-.445q-2.608,0-2.966,2.314l-3.761-.676a5.089,5.089,0,0,1,2.2-3.459,8.668,8.668,0,0,1,4.771-1.113q6.362,0,6.362,5.471Zm-7.475,1.535a3.419,3.419,0,0,0,2.624-1.105,4.636,4.636,0,0,0,1.018-3.252l-3.6,1.05a4.293,4.293,0,0,0-1.511.62,1.272,1.272,0,0,0-.525,1.089,1.431,1.431,0,0,0,.565,1.209A2.338,2.338,0,0,0,387.089,75.828Z" transform="translate(-330.638 -55.742)"/>
      <path id="Trazado_102485" data-name="Trazado 102485" d="M413.271,53.9h4.246V76.563h-4.024l-.1-1.972a4.422,4.422,0,0,1-1.924,1.718,6.529,6.529,0,0,1-2.847.612,7.355,7.355,0,0,1-2.831-.549,6.854,6.854,0,0,1-3.9-4.04,9.285,9.285,0,0,1-.573-3.324,8.613,8.613,0,0,1,1-4.222,6.854,6.854,0,0,1,2.648-2.751,7.291,7.291,0,0,1,3.65-.9,6.663,6.663,0,0,1,2.751.549,4.35,4.35,0,0,1,1.9,1.59ZM409.6,73.39a3.769,3.769,0,0,0,2.871-1.209A4.414,4.414,0,0,0,413.613,69a4.469,4.469,0,0,0-1.153-3.181,4.024,4.024,0,0,0-5.749,0,5.026,5.026,0,0,0,0,6.362A3.833,3.833,0,0,0,409.6,73.39Z" transform="translate(-334.793 -53.9)"/>
      <path id="Trazado_102486" data-name="Trazado 102486" d="M433.967,78.713a9.542,9.542,0,0,1-4.294-.93,6.958,6.958,0,0,1-2.942-2.728,8.1,8.1,0,0,1-1.074-4.23,7.427,7.427,0,0,1,2.306-5.757,9.63,9.63,0,0,1,12.023,0,7.427,7.427,0,0,1,2.306,5.757,7.459,7.459,0,0,1-2.306,5.773A8.516,8.516,0,0,1,433.967,78.713Zm-.048-3.38a3.92,3.92,0,0,0,3.006-1.209,5.256,5.256,0,0,0,0-6.552,3.9,3.9,0,0,0-3.006-1.241,3.746,3.746,0,0,0-2.91,1.248,5.3,5.3,0,0,0,0,6.536,3.761,3.761,0,0,0,2.91,1.217Z" transform="translate(-339.777 -55.756)"/>
    </g>
    <g id="Grupo_57701" data-name="Grupo 57701" transform="translate(591.854 8923.38)">
      <path id="Trazado_102487" data-name="Trazado 102487" d="M323.988,160.056a4.715,4.715,0,0,1-1.726-.31,4.469,4.469,0,0,1-1.384-.883,3.976,3.976,0,0,1-.914-1.423,5.439,5.439,0,0,1,0-3.753,4.046,4.046,0,0,1,.922-1.423,4.207,4.207,0,0,1,1.376-.883,4.716,4.716,0,0,1,1.726-.31,4.413,4.413,0,0,1,2.322.62,3.832,3.832,0,0,1,1.567,1.71l-1.026.421a2.95,2.95,0,0,0-1.145-1.248,3.276,3.276,0,0,0-1.694-.437,3.554,3.554,0,0,0-1.28.231,3.029,3.029,0,0,0-1.026.66,2.94,2.94,0,0,0-.692,1.081,3.977,3.977,0,0,0-.255,1.447,4.063,4.063,0,0,0,.255,1.463,2.941,2.941,0,0,0,.692,1.081,3.03,3.03,0,0,0,1.026.66,3.4,3.4,0,0,0,1.28.231,3.275,3.275,0,0,0,1.694-.437,2.91,2.91,0,0,0,1.145-1.233l1.026.413a3.817,3.817,0,0,1-1.59,1.71A4.493,4.493,0,0,1,323.988,160.056Z" transform="translate(-319.217 -150.784)"/>
      <path id="Trazado_102488" data-name="Trazado 102488" d="M334.45,160.736a3.181,3.181,0,0,1-1.59-.382,2.688,2.688,0,0,1-1.105-1.105,3.412,3.412,0,0,1-.406-1.686,3.117,3.117,0,0,1,.867-2.306,3.252,3.252,0,0,1,4.421,0,3.181,3.181,0,0,1,.859,2.306,3.109,3.109,0,0,1-.867,2.306,2.966,2.966,0,0,1-2.179.867Zm0-.891a1.909,1.909,0,0,0,1.447-.628,2.386,2.386,0,0,0,.572-1.654,2.33,2.33,0,0,0-.572-1.646,1.877,1.877,0,0,0-1.447-.628,1.836,1.836,0,0,0-1.431.628,2.33,2.33,0,0,0-.573,1.646,2.386,2.386,0,0,0,.573,1.654,1.861,1.861,0,0,0,1.423.628Z" transform="translate(-321.616 -151.464)"/>
      <path id="Trazado_102489" data-name="Trazado 102489" d="M347.472,154.39a1.956,1.956,0,0,1,1.423.525,1.893,1.893,0,0,1,.541,1.455v4.246h-1.074V156.64a1.392,1.392,0,0,0-.334-1.01,1.161,1.161,0,0,0-.851-.342,1.2,1.2,0,0,0-.93.39,1.638,1.638,0,0,0-.358,1.153v3.777H344.8V156.68a1.447,1.447,0,0,0-.342-1.034,1.137,1.137,0,0,0-.867-.358,1.2,1.2,0,0,0-.93.4,1.718,1.718,0,0,0-.358,1.185v3.737H341.23V154.5H342.3v.8a1.94,1.94,0,0,1,.7-.668,1.972,1.972,0,0,1,.97-.239,2.059,2.059,0,0,1,1.05.262,1.591,1.591,0,0,1,.676.739,1.868,1.868,0,0,1,.732-.739A2.067,2.067,0,0,1,347.472,154.39Z" transform="translate(-323.64 -151.463)"/>
      <path id="Trazado_102490" data-name="Trazado 102490" d="M357.4,154.39a2.727,2.727,0,0,1,1.105.231,2.67,2.67,0,0,1,.906.62,2.911,2.911,0,0,1,.612,1.01,3.746,3.746,0,0,1,.231,1.32,3.181,3.181,0,0,1-.8,2.3,2.664,2.664,0,0,1-2.028.883,2.385,2.385,0,0,1-1.272-.35,2.305,2.305,0,0,1-.875-.938v4.23H354.21v-9.185h1.034v1.185a2.234,2.234,0,0,1,.875-.946,2.386,2.386,0,0,1,1.28-.358Zm-.207,5.423a1.861,1.861,0,0,0,1.415-.612,2.608,2.608,0,0,0,0-3.26,1.861,1.861,0,0,0-1.415-.612,1.884,1.884,0,0,0-1.439.636,2.513,2.513,0,0,0,0,3.181,1.853,1.853,0,0,0,1.471.668Z" transform="translate(-326.299 -151.464)"/>
      <path id="Trazado_102491" data-name="Trazado 102491" d="M365.238,160.739a2.044,2.044,0,0,1-1.344-.421,1.5,1.5,0,0,1-.525-1.248,1.75,1.75,0,0,1,.167-.8,1.351,1.351,0,0,1,.5-.557,2.72,2.72,0,0,1,.716-.35,6.781,6.781,0,0,1,.93-.215l.986-.167c.358-.064.541-.254.541-.565a1.057,1.057,0,0,0-.382-.906,1.534,1.534,0,0,0-.97-.294,1.59,1.59,0,0,0-.954.278,1.2,1.2,0,0,0-.453.859l-.97-.2a1.909,1.909,0,0,1,.8-1.312,2.863,2.863,0,0,1,1.67-.437,3.433,3.433,0,0,1,.883.111,2.241,2.241,0,0,1,.74.342,1.487,1.487,0,0,1,.525.652,2.456,2.456,0,0,1,.191,1.01v2.521a1.026,1.026,0,0,0,.143.636.6.6,0,0,0,.477.167h.1v.8h-.533c-.66,0-1.05-.27-1.161-.8h-.048a2.314,2.314,0,0,1-2.028.891Zm.246-.867a1.63,1.63,0,0,0,1.312-.6,2.449,2.449,0,0,0,.493-1.59l-1.59.31a2.131,2.131,0,0,0-.946.342.889.889,0,0,0-.016,1.336,1.232,1.232,0,0,0,.724.2Z" transform="translate(-328.174 -151.467)"/>
      <path id="Trazado_102492" data-name="Trazado 102492" d="M374.121,160.739a2.918,2.918,0,0,1-1.646-.437,1.829,1.829,0,0,1-.8-1.256l.938-.27a1.288,1.288,0,0,0,.5.851,1.59,1.59,0,0,0,1,.3,2.29,2.29,0,0,0,.588-.08.953.953,0,0,0,.445-.3.8.8,0,0,0,.183-.557,1.213,1.213,0,0,0-.048-.254.931.931,0,0,0-.1-.2.507.507,0,0,0-.175-.167l-.207-.135a2.212,2.212,0,0,0-.278-.111l-.294-.1-.342-.1-.358-.1a6.016,6.016,0,0,1-.628-.223,2.654,2.654,0,0,1-.517-.294,1.137,1.137,0,0,1-.406-.485,1.642,1.642,0,0,1-.127-.684,1.59,1.59,0,0,1,.294-.97,1.653,1.653,0,0,1,.8-.58,3.1,3.1,0,0,1,1.089-.175,2.672,2.672,0,0,1,1.487.4,1.67,1.67,0,0,1,.74,1.193l-.883.223a1.161,1.161,0,0,0-.461-.8,1.487,1.487,0,0,0-.883-.262,1.519,1.519,0,0,0-.8.215.739.739,0,0,0-.342.66.6.6,0,0,0,.1.334.854.854,0,0,0,.183.239,1.193,1.193,0,0,0,.334.191l.358.127.445.111h.1l.589.167a4.257,4.257,0,0,1,.525.223,1.67,1.67,0,0,1,.477.334,1.59,1.59,0,0,1,.3.469,1.774,1.774,0,0,1,.119.66,1.733,1.733,0,0,1-.183.8,1.433,1.433,0,0,1-.5.565,2.266,2.266,0,0,1-.708.3A3.264,3.264,0,0,1,374.121,160.739Z" transform="translate(-329.877 -151.467)"/>
      <path id="Trazado_102493" data-name="Trazado 102493" d="M380.212,152.367a.732.732,0,0,1-.732-.732.691.691,0,0,1,.215-.509.731.731,0,0,1,.517-.207.708.708,0,0,1,.5.207.692.692,0,0,1,.215.509.708.708,0,0,1-.215.517.684.684,0,0,1-.5.215Zm-.549,7.538V153.8h1.082v6.107Z" transform="translate(-331.474 -150.753)"/>
      <path id="Trazado_102494" data-name="Trazado 102494" d="M386.251,159.982a3.181,3.181,0,0,1-1.59-.382,2.72,2.72,0,0,1-1.1-1.105,3.332,3.332,0,0,1-.413-1.686,3.18,3.18,0,0,1,.867-2.306,3.252,3.252,0,0,1,4.421,0,3.5,3.5,0,0,1,0,4.612A2.982,2.982,0,0,1,386.251,159.982Zm0-.891a1.892,1.892,0,0,0,1.447-.628,2.385,2.385,0,0,0,.573-1.654,2.33,2.33,0,0,0-.573-1.646,1.869,1.869,0,0,0-1.447-.628,1.845,1.845,0,0,0-1.431.628,2.694,2.694,0,0,0,0,3.3,1.877,1.877,0,0,0,1.392.628Zm-.4-6.362,1.59-2.02.573.413-1.392,1.59Z" transform="translate(-332.225 -150.71)"/>
      <path id="Trazado_102495" data-name="Trazado 102495" d="M395.91,154.389a2.123,2.123,0,0,1,1.535.557,2.035,2.035,0,0,1,.581,1.59v4.111h-1.05v-3.865a1.463,1.463,0,0,0-.374-1.1,1.344,1.344,0,0,0-.962-.358,1.471,1.471,0,0,0-1.082.421,1.678,1.678,0,0,0-.429,1.248v3.65H393V154.54h1.073v.8A2.036,2.036,0,0,1,395.91,154.389Z" transform="translate(-334.243 -151.463)"/>
      <path id="Trazado_102496" data-name="Trazado 102496" d="M325.75,179.167l-.755-2.091h-3.976l-.747,2.091H319.11l3.221-8.747h1.328l3.228,8.747Zm-4.342-3.069h3.26L323,171.541Z" transform="translate(-319.11 -154.747)"/>
      <path id="Trazado_102497" data-name="Trazado 102497" d="M337,173.588a1.956,1.956,0,0,1,1.423.525,1.893,1.893,0,0,1,.541,1.455v4.246h-1.074v-3.976a1.391,1.391,0,0,0-.334-1.01,1.153,1.153,0,0,0-.851-.334,1.193,1.193,0,0,0-.93.382,1.637,1.637,0,0,0-.358,1.153v3.777H334.33v-3.92a1.455,1.455,0,0,0-.342-1.042,1.137,1.137,0,0,0-.867-.35,1.193,1.193,0,0,0-.93.39,1.718,1.718,0,0,0-.358,1.185v3.737H330.76V173.7h1.074v.8a1.9,1.9,0,0,1,.7-.676,1.98,1.98,0,0,1,.978-.239,2.052,2.052,0,0,1,1.042.262,1.591,1.591,0,0,1,.676.74,1.925,1.925,0,0,1,.732-.74,2.068,2.068,0,0,1,1.042-.254Z" transform="translate(-321.496 -155.394)"/>
      <path id="Trazado_102498" data-name="Trazado 102498" d="M346.13,179.935a3.18,3.18,0,0,1-1.59-.382,2.688,2.688,0,0,1-1.105-1.105,3.411,3.411,0,0,1-.406-1.686,3.117,3.117,0,0,1,.867-2.306,3,3,0,0,1,2.2-.867,3.03,3.03,0,0,1,2.219.867,3.181,3.181,0,0,1,.859,2.306,3.109,3.109,0,0,1-.867,2.306A2.974,2.974,0,0,1,346.13,179.935Zm0-.891a1.877,1.877,0,0,0,1.439-.628,2.386,2.386,0,0,0,.58-1.654,2.338,2.338,0,0,0-.58-1.646,1.853,1.853,0,0,0-1.439-.628,1.821,1.821,0,0,0-1.431.628,2.329,2.329,0,0,0-.573,1.646,2.385,2.385,0,0,0,.573,1.654,1.853,1.853,0,0,0,1.431.628Z" transform="translate(-324.008 -155.396)"/>
      <path id="Trazado_102499" data-name="Trazado 102499" d="M353.97,174.8a1.86,1.86,0,0,1,.755-.8,2.29,2.29,0,0,1,1.177-.318v1.01a2.028,2.028,0,0,0-1.423.453,1.892,1.892,0,0,0-.485,1.447v3.26H352.92v-6.107h1.05Z" transform="translate(-326.034 -155.416)"/>
      <path id="Trazado_102500" data-name="Trazado 102500" d="M320.4,198.367V189.62h1.105v8.747Z" transform="translate(-319.374 -158.679)"/>
      <path id="Trazado_102501" data-name="Trazado 102501" d="M327.779,192.789a2.124,2.124,0,0,1,1.535.557,2.035,2.035,0,0,1,.58,1.59v4.111H328.82v-3.873a1.455,1.455,0,0,0-.374-1.089,1.344,1.344,0,0,0-.962-.358,1.471,1.471,0,0,0-1.081.421,1.678,1.678,0,0,0-.429,1.248v3.65H324.9v-6.107h1.074v.8A2.028,2.028,0,0,1,327.779,192.789Z" transform="translate(-320.296 -159.328)"/>
      <path id="Trazado_102502" data-name="Trazado 102502" d="M340.032,192.79a1.964,1.964,0,0,1,1.423.525A1.916,1.916,0,0,1,342,194.77v4.246h-1.081V195.04a1.392,1.392,0,0,0-.334-1.01,1.161,1.161,0,0,0-.851-.342,1.225,1.225,0,0,0-.93.39,1.638,1.638,0,0,0-.35,1.153v3.777h-1.1V195.08a1.407,1.407,0,0,0-.342-1.034,1.129,1.129,0,0,0-.867-.358,1.2,1.2,0,0,0-.922.4,1.718,1.718,0,0,0-.358,1.185v3.737H333.79V192.9h1.074v.8a1.822,1.822,0,0,1,.7-.668,1.972,1.972,0,0,1,.97-.239,2.052,2.052,0,0,1,1.042.262,1.59,1.59,0,0,1,.676.74,1.893,1.893,0,0,1,.74-.74A2.052,2.052,0,0,1,340.032,192.79Z" transform="translate(-322.116 -159.328)"/>
      <path id="Trazado_102503" data-name="Trazado 102503" d="M348.018,199.145a2.091,2.091,0,0,1-1.344-.421,1.5,1.5,0,0,1-.525-1.248,1.811,1.811,0,0,1,.167-.8,1.383,1.383,0,0,1,.509-.533,2.848,2.848,0,0,1,.716-.35,8.062,8.062,0,0,1,.93-.223l.986-.159c.358-.064.541-.254.541-.565a1.058,1.058,0,0,0-.382-.907,1.511,1.511,0,0,0-.962-.294,1.639,1.639,0,0,0-.962.278,1.2,1.2,0,0,0-.453.859l-.97-.207a1.909,1.909,0,0,1,.8-1.3,2.862,2.862,0,0,1,1.67-.437,3.4,3.4,0,0,1,.883.111,2.243,2.243,0,0,1,.739.342,1.59,1.59,0,0,1,.533.652,2.6,2.6,0,0,1,.183,1.01v2.521a1.026,1.026,0,0,0,.143.636.6.6,0,0,0,.485.167h.1v.8h-.533a1.01,1.01,0,0,1-1.153-.8h-.1A2.33,2.33,0,0,1,348.018,199.145Zm.247-.867a1.63,1.63,0,0,0,1.312-.6,2.449,2.449,0,0,0,.493-1.59l-1.59.31a2.131,2.131,0,0,0-.946.342.891.891,0,0,0,0,1.336,1.232,1.232,0,0,0,.732.2Z" transform="translate(-324.647 -159.338)"/>
      <path id="Trazado_102504" data-name="Trazado 102504" d="M359.343,188.62h1.1v9.542h-1.034v-1.185a2.275,2.275,0,0,1-.875.962,2.386,2.386,0,0,1-1.288.358,2.752,2.752,0,0,1-1.105-.231,2.711,2.711,0,0,1-.914-.636,2.959,2.959,0,0,1-.612-1.01,3.648,3.648,0,0,1-.223-1.3,3.181,3.181,0,0,1,.8-2.3,2.664,2.664,0,0,1,2.028-.883,2.386,2.386,0,0,1,1.272.35,2.235,2.235,0,0,1,.875.93Zm-1.924,8.747a1.861,1.861,0,0,0,1.423-.636,2.338,2.338,0,0,0,.573-1.59,2.291,2.291,0,0,0-.581-1.59,1.829,1.829,0,0,0-1.416-.644,1.893,1.893,0,0,0-1.431.62,2.592,2.592,0,0,0,0,3.252,1.892,1.892,0,0,0,1.431.581Z" transform="translate(-326.334 -158.474)"/>
      <path id="Trazado_102505" data-name="Trazado 102505" d="M368.5,192.934h1.082v6.107h-1.034v-.8a1.957,1.957,0,0,1-.755.684,2.386,2.386,0,0,1-1.074.239,2.091,2.091,0,0,1-1.535-.557,2.051,2.051,0,0,1-.573-1.59V192.91h1.074v3.873a1.423,1.423,0,0,0,.374,1.089,1.3,1.3,0,0,0,.962.366,1.471,1.471,0,0,0,1.081-.421,1.717,1.717,0,0,0,.421-1.248Z" transform="translate(-328.427 -159.353)"/>
      <path id="Trazado_102506" data-name="Trazado 102506" d="M374.66,194a1.861,1.861,0,0,1,.755-.8,2.266,2.266,0,0,1,1.177-.318v1.01a2.028,2.028,0,0,0-1.423.453,1.892,1.892,0,0,0-.485,1.447v3.26H373.61v-6.107h1.05Z" transform="translate(-330.272 -159.349)"/>
      <path id="Trazado_102507" data-name="Trazado 102507" d="M381.282,199.136a3.18,3.18,0,0,1-1.59-.382,2.72,2.72,0,0,1-1.1-1.105,3.412,3.412,0,0,1-.406-1.686,3.109,3.109,0,0,1,.867-2.306,3.244,3.244,0,0,1,4.413,0,3.5,3.5,0,0,1,0,4.612A2.981,2.981,0,0,1,381.282,199.136Zm0-.891a1.892,1.892,0,0,0,1.439-.628,2.385,2.385,0,0,0,.573-1.654,2.33,2.33,0,0,0-.573-1.646,1.964,1.964,0,0,0-2.879,0,2.693,2.693,0,0,0,0,3.3,1.877,1.877,0,0,0,1.439.628Z" transform="translate(-331.209 -159.328)"/>
      <path id="Trazado_102508" data-name="Trazado 102508" d="M320.4,217.567V208.82h2.815a4.191,4.191,0,0,1,2.227.565,3.427,3.427,0,0,1,1.368,1.543,5.4,5.4,0,0,1,.445,2.258,5.894,5.894,0,0,1-.254,1.773,4.151,4.151,0,0,1-.756,1.384,3.315,3.315,0,0,1-1.272.907,4.556,4.556,0,0,1-1.757.318Zm1.105-1.01h1.678a2.664,2.664,0,0,0,2.179-.9,4.477,4.477,0,0,0,0-4.93,2.672,2.672,0,0,0-2.179-.891h-1.678Z" transform="translate(-319.374 -162.611)"/>
      <path id="Trazado_102509" data-name="Trazado 102509" d="M331.892,209.967a.732.732,0,0,1-.732-.732.692.692,0,0,1,.215-.509.731.731,0,0,1,.517-.207.707.707,0,0,1,.5.207.692.692,0,0,1,.215.509.708.708,0,0,1-.215.517.684.684,0,0,1-.5.215Zm-.549,7.538V211.4h1.081v6.107Z" transform="translate(-321.578 -162.55)"/>
      <path id="Trazado_102510" data-name="Trazado 102510" d="M339.073,212.14h1.145l-2.481,6.107h-.915l-2.473-6.107H335.5L337.284,217Z" transform="translate(-322.231 -163.291)"/>
      <path id="Trazado_102511" data-name="Trazado 102511" d="M348.259,215.051v.294h-4.771a2.139,2.139,0,0,0,.588,1.59,1.893,1.893,0,0,0,1.392.549,1.845,1.845,0,0,0,1.7-1.105l.97.207A2.712,2.712,0,0,1,347.1,217.9a2.855,2.855,0,0,1-1.59.477,2.95,2.95,0,0,1-2.195-.851,3.618,3.618,0,0,1,0-4.644,2.911,2.911,0,0,1,2.163-.851,2.735,2.735,0,0,1,2.052.8,3.085,3.085,0,0,1,.732,2.227Zm-2.831-2.227a1.893,1.893,0,0,0-1.272.437,2.012,2.012,0,0,0-.636,1.256h3.658a1.86,1.86,0,0,0-.533-1.256,1.717,1.717,0,0,0-1.217-.461Z" transform="translate(-323.894 -163.268)"/>
      <path id="Trazado_102512" data-name="Trazado 102512" d="M352.918,213.2a1.885,1.885,0,0,1,.8-.8,2.258,2.258,0,0,1,1.169-.318v1.01a2,2,0,0,0-1.415.453,1.892,1.892,0,0,0-.485,1.447v3.26H351.9v-6.107h1.05Z" transform="translate(-325.826 -163.281)"/>
      <path id="Trazado_102513" data-name="Trazado 102513" d="M359.359,217.723a1.59,1.59,0,0,1-1.193-.437,1.646,1.646,0,0,1-.437-1.217v-3.594H356.48v-.859h.461a.9.9,0,0,0,.676-.215,1.073,1.073,0,0,0,.191-.716V209.58h1v2.036h1.407v.859H358.81v3.483a.931.931,0,0,0,.231.668.8.8,0,0,0,.612.239h.565v.859Z" transform="translate(-326.764 -162.767)"/>
      <path id="Trazado_102514" data-name="Trazado 102514" d="M363.632,209.967a.732.732,0,0,1-.732-.732.692.692,0,0,1,.215-.509.732.732,0,0,1,.517-.207.708.708,0,0,1,.5.207.691.691,0,0,1,.215.509.707.707,0,0,1-.215.517.684.684,0,0,1-.5.215Zm-.549,7.538V211.4h1.081v6.107Z" transform="translate(-328.078 -162.55)"/>
      <path id="Trazado_102515" data-name="Trazado 102515" d="M371.633,207.82h1.073v9.542h-1v-1.185a2.275,2.275,0,0,1-.875.962,2.385,2.385,0,0,1-1.288.358,2.807,2.807,0,0,1-2.02-.867,2.961,2.961,0,0,1-.612-1.01,3.647,3.647,0,0,1-.231-1.3,3.181,3.181,0,0,1,.835-2.3,2.664,2.664,0,0,1,2.028-.883,2.386,2.386,0,0,1,1.272.35,2.29,2.29,0,0,1,.875.93Zm-1.924,8.747a1.837,1.837,0,0,0,1.415-.636,2.513,2.513,0,0,0,0-3.181,1.829,1.829,0,0,0-1.415-.644,1.893,1.893,0,0,0-1.431.62,2.592,2.592,0,0,0,0,3.252,1.893,1.893,0,0,0,1.431.58Z" transform="translate(-328.852 -162.406)"/>
      <path id="Trazado_102516" data-name="Trazado 102516" d="M379.45,218.366a3.181,3.181,0,0,1-1.59-.382,2.689,2.689,0,0,1-1.105-1.105,3.413,3.413,0,0,1-.406-1.686,3.117,3.117,0,0,1,.867-2.306,3.252,3.252,0,0,1,4.421,0,3.181,3.181,0,0,1,.859,2.306,3.109,3.109,0,0,1-.867,2.306A2.966,2.966,0,0,1,379.45,218.366Zm0-.891a1.909,1.909,0,0,0,1.447-.628,2.386,2.386,0,0,0,.572-1.654,2.33,2.33,0,0,0-.572-1.646,1.877,1.877,0,0,0-1.447-.628,1.837,1.837,0,0,0-1.431.628,2.33,2.33,0,0,0-.573,1.646,2.386,2.386,0,0,0,.573,1.654,1.861,1.861,0,0,0,1.423.6Z" transform="translate(-330.832 -163.267)"/>
      <path id="Trazado_102517" data-name="Trazado 102517" d="M325.756,236.747,325,234.656h-3.976l-.724,2.091H319.14L322.361,228h1.328l3.228,8.747Zm-4.342-3.054h3.26L323,229.137Z" transform="translate(-319.116 -166.539)"/>
      <path id="Trazado_102518" data-name="Trazado 102518" d="M335.045,227h1.074v9.542h-1.042v-1.185a2.251,2.251,0,0,1-.867.962,2.425,2.425,0,0,1-1.3.358,2.752,2.752,0,0,1-1.105-.231,2.6,2.6,0,0,1-.906-.636,2.853,2.853,0,0,1-.62-1.01,3.651,3.651,0,0,1-.223-1.3,3.237,3.237,0,0,1,.8-2.3,2.688,2.688,0,0,1,2.028-.883,2.433,2.433,0,0,1,1.28.35,2.29,2.29,0,0,1,.875.93Zm-1.932,8.747a1.853,1.853,0,0,0,1.423-.636,2.338,2.338,0,0,0,.572-1.59,2.29,2.29,0,0,0-.58-1.59,1.813,1.813,0,0,0-1.415-.644,1.86,1.86,0,0,0-1.423.62,2.3,2.3,0,0,0-.581,1.63,2.266,2.266,0,0,0,.581,1.59,1.86,1.86,0,0,0,1.423.62Z" transform="translate(-321.351 -166.335)"/>
      <path id="Trazado_102519" data-name="Trazado 102519" d="M346.672,231.188a1.964,1.964,0,0,1,1.423.525,1.916,1.916,0,0,1,.541,1.455v4.23h-1.074v-3.976a1.4,1.4,0,0,0-.342-1.01,1.161,1.161,0,0,0-.851-.342,1.225,1.225,0,0,0-.93.39,1.639,1.639,0,0,0-.35,1.153V237.4h-1.1V233.47a1.439,1.439,0,0,0-.334-1.034,1.153,1.153,0,0,0-.867-.358,1.2,1.2,0,0,0-.93.4,1.717,1.717,0,0,0-.358,1.185V237.4H340.43v-6.107H341.5v.8a1.821,1.821,0,0,1,.7-.668,1.971,1.971,0,0,1,.97-.239,2.051,2.051,0,0,1,1.042.262,1.59,1.59,0,0,1,.676.74,1.892,1.892,0,0,1,.74-.74A2.051,2.051,0,0,1,346.672,231.188Z" transform="translate(-323.476 -167.191)"/>
      <path id="Trazado_102520" data-name="Trazado 102520" d="M353.864,229.167a.692.692,0,0,1-.509-.215.707.707,0,0,1-.215-.517.691.691,0,0,1,.215-.509.732.732,0,0,1,1.018,0,.692.692,0,0,1,.215.509.708.708,0,0,1-.215.517A.692.692,0,0,1,353.864,229.167Zm-.549,7.538V230.6H354.4v6.091Z" transform="translate(-326.079 -166.482)"/>
      <path id="Trazado_102521" data-name="Trazado 102521" d="M358.528,232.4a1.885,1.885,0,0,1,.8-.8,2.258,2.258,0,0,1,1.169-.318v1.01a2,2,0,0,0-1.415.453,1.893,1.893,0,0,0-.485,1.447v3.221H357.51v-6.107h1.05Z" transform="translate(-326.975 -167.213)"/>
      <path id="Trazado_102522" data-name="Trazado 102522" d="M364.01,237.539a2.083,2.083,0,0,1-1.336-.421,1.5,1.5,0,0,1-.525-1.248,1.748,1.748,0,0,1,.167-.8,1.384,1.384,0,0,1,.493-.557,2.989,2.989,0,0,1,.716-.35,6.77,6.77,0,0,1,.93-.215l.986-.167c.366-.064.541-.254.541-.565a1.058,1.058,0,0,0-.382-.907,1.511,1.511,0,0,0-.962-.294,1.59,1.59,0,0,0-.954.278,1.185,1.185,0,0,0-.461.859l-.962-.2a1.853,1.853,0,0,1,.8-1.312,2.815,2.815,0,0,1,1.662-.437,3.348,3.348,0,0,1,.883.111,2.243,2.243,0,0,1,.74.342,1.5,1.5,0,0,1,.533.652,2.456,2.456,0,0,1,.191,1.01v2.489a1.034,1.034,0,0,0,.135.636.6.6,0,0,0,.485.167h.1v.8h-.533a1.01,1.01,0,0,1-1.153-.8h-.087a2.314,2.314,0,0,1-2,.922Zm.246-.867a1.63,1.63,0,0,0,1.312-.6,2.385,2.385,0,0,0,.5-1.59l-1.59.31a2.171,2.171,0,0,0-.946.342.9.9,0,0,0-.008,1.336A1.208,1.208,0,0,0,364.256,236.672Z" transform="translate(-327.924 -167.196)"/>
      <path id="Trazado_102523" data-name="Trazado 102523" d="M373.343,237.527a2.918,2.918,0,0,1-2.187-.875,3.125,3.125,0,0,1-.867-2.29,3.094,3.094,0,0,1,.867-2.29,2.91,2.91,0,0,1,2.187-.883,2.958,2.958,0,0,1,1.765.541,2.7,2.7,0,0,1,1.034,1.479l-1.01.167a1.829,1.829,0,0,0-1.8-1.288,1.8,1.8,0,0,0-1.416.628,2.735,2.735,0,0,0,0,3.284,1.805,1.805,0,0,0,1.415.628,1.829,1.829,0,0,0,1.8-1.288l1.01.167a2.7,2.7,0,0,1-1.042,1.487A2.95,2.95,0,0,1,373.343,237.527Z" transform="translate(-329.591 -167.192)"/>
      <path id="Trazado_102524" data-name="Trazado 102524" d="M380.142,229.167a.732.732,0,0,1-.732-.732.692.692,0,0,1,.215-.509.732.732,0,0,1,.517-.207.707.707,0,0,1,.5.207.692.692,0,0,1,.215.509.708.708,0,0,1-.215.517.684.684,0,0,1-.5.215Zm-.549,7.538V230.6h1.081v6.091Z" transform="translate(-331.46 -166.482)"/>
      <path id="Trazado_102525" data-name="Trazado 102525" d="M386.2,236.782a3.181,3.181,0,0,1-1.59-.382,2.72,2.72,0,0,1-1.1-1.105,3.332,3.332,0,0,1-.413-1.686,3.181,3.181,0,0,1,.867-2.306,3.252,3.252,0,0,1,4.421,0,3.5,3.5,0,0,1,0,4.612A2.982,2.982,0,0,1,386.2,236.782Zm0-.891a1.893,1.893,0,0,0,1.447-.628,2.386,2.386,0,0,0,.573-1.654,2.33,2.33,0,0,0-.573-1.646,1.869,1.869,0,0,0-1.447-.628,1.845,1.845,0,0,0-1.431.628,2.693,2.693,0,0,0,0,3.3,1.876,1.876,0,0,0,1.431.628Zm-.4-6.362,1.59-2.02.573.414-1.392,1.59Z" transform="translate(-332.215 -166.439)"/>
      <path id="Trazado_102526" data-name="Trazado 102526" d="M395.855,231.189a2.123,2.123,0,0,1,1.535.557,2.036,2.036,0,0,1,.581,1.59V237.4H396.9v-3.865a1.455,1.455,0,0,0-.374-1.1,1.344,1.344,0,0,0-.962-.358,1.471,1.471,0,0,0-1.081.421,1.678,1.678,0,0,0-.429,1.248v3.65H393v-6.107h1.073v.8a2.028,2.028,0,0,1,1.781-.9Z" transform="translate(-334.243 -167.192)"/>
    </g>
    <g id="Grupo_57702" data-name="Grupo 57702" transform="translate(592.665 8896.24)">
      <path id="Trazado_102527" data-name="Trazado 102527" d="M323.859,117.109a2.72,2.72,0,0,1,2.075.8,2.942,2.942,0,0,1,.8,2.068,2.823,2.823,0,0,1-.8,2.052,2.736,2.736,0,0,1-2.075.8h-1.869V126H320.13v-8.89Zm-.31,4.2a1.336,1.336,0,0,0,1.026-.35,1.312,1.312,0,0,0,.342-.97,1.335,1.335,0,0,0-.342-.962,1.36,1.36,0,0,0-1.026-.358h-1.59v2.64Z" transform="translate(-320.13 -116.687)"/>
      <path id="Trazado_102528" data-name="Trazado 102528" d="M332.648,126.862a4.1,4.1,0,0,1-1.805-.39,2.941,2.941,0,0,1-1.24-1.153,3.386,3.386,0,0,1-.453-1.781,3.181,3.181,0,0,1,.97-2.386,4.071,4.071,0,0,1,5.065,0,3.531,3.531,0,0,1,0,4.859A3.594,3.594,0,0,1,332.648,126.862Zm0-1.423a1.646,1.646,0,0,0,1.264-.525,1.94,1.94,0,0,0,.477-1.376,1.98,1.98,0,0,0-.477-1.384,1.67,1.67,0,0,0-1.264-.517,1.591,1.591,0,0,0-1.233.525,2.25,2.25,0,0,0,0,2.751,1.591,1.591,0,0,0,1.217.525Z" transform="translate(-321.977 -117.335)"/>
      <path id="Trazado_102529" data-name="Trazado 102529" d="M341.745,126.851a3.634,3.634,0,0,1-1.869-.445,1.908,1.908,0,0,1-.907-1.336l1.495-.421a1.2,1.2,0,0,0,1.28.954,1.256,1.256,0,0,0,.652-.151.5.5,0,0,0,.254-.493.55.55,0,0,0-.1-.326.986.986,0,0,0-.326-.239l-.437-.167-.573-.167a5.913,5.913,0,0,1-.588-.183,3.445,3.445,0,0,1-.565-.239,2.131,2.131,0,0,1-.461-.326,1.327,1.327,0,0,1-.35-.5,1.837,1.837,0,0,1-.119-.684,1.638,1.638,0,0,1,.692-1.431,3.133,3.133,0,0,1,1.813-.477,3.181,3.181,0,0,1,1.67.406,1.845,1.845,0,0,1,.859,1.28l-1.392.31a1.074,1.074,0,0,0-1.137-.8,1.3,1.3,0,0,0-.62.135.469.469,0,0,0-.254.429.511.511,0,0,0,0,.191.382.382,0,0,0,.127.151l.183.119a1.176,1.176,0,0,0,.255.1,2.292,2.292,0,0,0,.278.08l.326.087.334.087c.231.064.429.119.6.183a3.835,3.835,0,0,1,.557.262,2.116,2.116,0,0,1,.477.374,1.819,1.819,0,0,1,.318.533,2,2,0,0,1,.119.708,1.956,1.956,0,0,1-.215.93,1.59,1.59,0,0,1-.588.62,2.822,2.822,0,0,1-.8.334A4.324,4.324,0,0,1,341.745,126.851Z" transform="translate(-323.988 -117.325)"/>
      <path id="Trazado_102530" data-name="Trazado 102530" d="M348.262,118.64a1.024,1.024,0,0,1-.732-1.757,1.018,1.018,0,0,1,.732-.3,1.034,1.034,0,0,1,0,2.06Zm-.914,7.34v-6.362h1.805v6.362Z" transform="translate(-325.678 -116.58)"/>
      <path id="Trazado_102531" data-name="Trazado 102531" d="M354.173,126.225a1.917,1.917,0,0,1-1.447-.517,2.035,2.035,0,0,1-.509-1.479v-3.014H350.96V119.84h.406a1.05,1.05,0,0,0,.8-.262,1.376,1.376,0,0,0,.254-.954v-.843h1.59v2.06h1.32v1.376h-1.32v2.823c0,.557.247.8.74.8h.581v1.36Z" transform="translate(-326.444 -116.826)"/>
      <path id="Trazado_102532" data-name="Trazado 102532" d="M359.074,118.64a1,1,0,0,1-.732-.3,1.03,1.03,0,0,1,.732-1.757,1.01,1.01,0,0,1,.724.3,1.026,1.026,0,0,1,0,1.455A1.01,1.01,0,0,1,359.074,118.64Zm-.914,7.34v-6.362h1.805v6.362Z" transform="translate(-327.894 -116.58)"/>
      <path id="Trazado_102533" data-name="Trazado 102533" d="M366.685,120.37h1.9l-2.728,6.362h-1.59l-2.688-6.362H363.5l1.59,4.366Z" transform="translate(-328.619 -117.356)"/>
      <path id="Trazado_102534" data-name="Trazado 102534" d="M374.1,126.862a4.111,4.111,0,0,1-1.813-.39,2.942,2.942,0,0,1-1.24-1.153,3.458,3.458,0,0,1-.445-1.781,3.11,3.11,0,0,1,.97-2.386,4.063,4.063,0,0,1,5.057,0,3.531,3.531,0,0,1,0,4.859A3.57,3.57,0,0,1,374.1,126.862Zm0-1.423a1.591,1.591,0,0,0,1.264-.525,1.917,1.917,0,0,0,.485-1.376,1.948,1.948,0,0,0-.485-1.384,1.646,1.646,0,0,0-1.264-.509,1.59,1.59,0,0,0-1.225.525,2.219,2.219,0,0,0,0,2.751A1.59,1.59,0,0,0,374.1,125.439Z" transform="translate(-330.466 -117.336)"/>
    </g>
    <path id="Trazado_102535" data-name="Trazado 102535" d="M445.58,159.967V151.22h1.129v8.747Z" transform="translate(246.842 8772.565)"/>
    <path id="Trazado_102536" data-name="Trazado 102536" d="M452.965,154.389a2.139,2.139,0,0,1,1.535.557,2.067,2.067,0,0,1,.573,1.59v4.111H453.99v-3.865a1.462,1.462,0,0,0-.374-1.1,1.312,1.312,0,0,0-.954-.358,1.5,1.5,0,0,0-1.089.421,1.741,1.741,0,0,0-.43,1.248v3.65H450.07V154.54h1.073v.8A2.036,2.036,0,0,1,452.965,154.389Z" transform="translate(245.922 8771.917)"/>
    <path id="Trazado_102537" data-name="Trazado 102537" d="M461.895,153.536a2.027,2.027,0,0,1,1.511.573,2.155,2.155,0,0,1,.565,1.59v4.04H462.9V155.93a1.5,1.5,0,0,0-.374-1.121,1.328,1.328,0,0,0-.962-.366,1.455,1.455,0,0,0-1.073.421,1.694,1.694,0,0,0-.437,1.249v3.65H459V150.22h1.073v4.246a2,2,0,0,1,.8-.684A2.386,2.386,0,0,1,461.895,153.536Z" transform="translate(244.093 8772.771)"/>
    <path id="Trazado_102538" data-name="Trazado 102538" d="M468.354,152.367a.692.692,0,0,1-.509-.215.708.708,0,0,1-.215-.517.692.692,0,0,1,.215-.509.732.732,0,0,1,1.018,0,.691.691,0,0,1,.215.509.708.708,0,0,1-.215.517.692.692,0,0,1-.509.215Zm-.549,7.538V153.8h1.081v6.107Z" transform="translate(242.326 8772.627)"/>
    <path id="Trazado_102539" data-name="Trazado 102539" d="M475.181,153.536a2.656,2.656,0,0,1,2.02.883,3.181,3.181,0,0,1,.8,2.3,3.245,3.245,0,0,1-.8,2.3,2.664,2.664,0,0,1-2.028.883,2.385,2.385,0,0,1-1.3-.358,2.219,2.219,0,0,1-.875-.962v1.185h-1V150.22h1.073v4.6a2.258,2.258,0,0,1,.875-.938A2.441,2.441,0,0,1,475.181,153.536Zm-.231,5.423a1.86,1.86,0,0,0,1.423-.62,2.266,2.266,0,0,0,.581-1.59,2.3,2.3,0,0,0-.581-1.59,1.861,1.861,0,0,0-1.423-.62,1.813,1.813,0,0,0-1.415.644,2.29,2.29,0,0,0-.58,1.59,2.338,2.338,0,0,0,.573,1.59,1.821,1.821,0,0,0,1.447.6Z" transform="translate(241.431 8772.771)"/>
    <path id="Trazado_102540" data-name="Trazado 102540" d="M482.234,152.367a.692.692,0,0,1-.509-.215.708.708,0,0,1-.215-.517.692.692,0,0,1,.215-.509.732.732,0,0,1,1.018,0,.692.692,0,0,1,.215.509.707.707,0,0,1-.215.517.692.692,0,0,1-.509.215Zm-.541,7.538V153.8h1.081v6.107Z" transform="translate(239.483 8772.627)"/>
    <path id="Trazado_102541" data-name="Trazado 102541" d="M488.216,160.727a2.926,2.926,0,0,1-2.187-.875,3.483,3.483,0,0,1,0-4.58,2.926,2.926,0,0,1,2.187-.883,2.966,2.966,0,0,1,1.773.541,2.728,2.728,0,0,1,1.026,1.479l-1.01.167a1.813,1.813,0,0,0-.684-.954,1.892,1.892,0,0,0-1.105-.334,1.789,1.789,0,0,0-1.415.628,2.712,2.712,0,0,0,0,3.292,1.813,1.813,0,0,0,1.415.62,1.892,1.892,0,0,0,1.105-.334,1.813,1.813,0,0,0,.684-.954l1.01.167a2.72,2.72,0,0,1-1.034,1.487,2.958,2.958,0,0,1-1.765.533Z" transform="translate(238.733 8771.917)"/>
    <path id="Trazado_102542" data-name="Trazado 102542" d="M495.042,152.367a.732.732,0,0,1-.732-.732.692.692,0,0,1,.215-.509.74.74,0,0,1,1.026,0,.692.692,0,0,1,.215.509.732.732,0,0,1-.724.732Zm-.549,7.538V153.8h1.081v6.107Z" transform="translate(236.862 8772.627)"/>
    <path id="Trazado_102543" data-name="Trazado 102543" d="M501.09,159.982a3.181,3.181,0,0,1-1.59-.382,2.688,2.688,0,0,1-1.105-1.105,3.412,3.412,0,0,1-.406-1.686,3.118,3.118,0,0,1,.867-2.306,3.252,3.252,0,0,1,4.421,0,3.181,3.181,0,0,1,.859,2.306,3.109,3.109,0,0,1-.867,2.306,2.966,2.966,0,0,1-2.179.867Zm0-.891a1.877,1.877,0,0,0,1.439-.628,2.33,2.33,0,0,0,.58-1.654,2.3,2.3,0,0,0-.58-1.646,1.853,1.853,0,0,0-1.439-.628,1.821,1.821,0,0,0-1.431.628,2.33,2.33,0,0,0-.573,1.646,2.385,2.385,0,0,0,.573,1.654,1.853,1.853,0,0,0,1.423.628Zm-.406-6.362,1.59-2.02.573.413-1.392,1.59Z" transform="translate(236.109 8772.67)"/>
    <path id="Trazado_102544" data-name="Trazado 102544" d="M510.749,154.389a2.147,2.147,0,0,1,1.543.557,2.068,2.068,0,0,1,.573,1.59v4.111H511.79v-3.865a1.463,1.463,0,0,0-.374-1.1,1.312,1.312,0,0,0-.954-.358,1.479,1.479,0,0,0-1.089.421,1.741,1.741,0,0,0-.429,1.248v3.65H507.87v-6.107h1.074v.8A2.036,2.036,0,0,1,510.749,154.389Z" transform="translate(234.084 8771.917)"/>
    <path id="Trazado_102545" data-name="Trazado 102545" d="M449.167,179.255a4.675,4.675,0,0,1-1.718-.31,4.294,4.294,0,0,1-1.384-.883,3.975,3.975,0,0,1-.922-1.423,5.375,5.375,0,0,1,0-3.753,4.03,4.03,0,0,1,.914-1.423,4.165,4.165,0,0,1,1.384-.883,4.835,4.835,0,0,1,3.427,0,3.961,3.961,0,0,1,2.3,2.3,5.074,5.074,0,0,1,.334,1.869,5.162,5.162,0,0,1-.334,1.885,4.05,4.05,0,0,1-.922,1.423,4.255,4.255,0,0,1-1.376.883A4.661,4.661,0,0,1,449.167,179.255Zm0-1.05a3.181,3.181,0,0,0,2.314-.922,3.411,3.411,0,0,0,.914-2.529,3.975,3.975,0,0,0-.246-1.447,2.943,2.943,0,0,0-.692-1.081,3.029,3.029,0,0,0-1.026-.66,3.468,3.468,0,0,0-1.264-.231,3.515,3.515,0,0,0-1.272.231,2.989,2.989,0,0,0-1.034.66,2.94,2.94,0,0,0-.692,1.081,3.976,3.976,0,0,0-.246,1.447,4.111,4.111,0,0,0,.247,1.471,2.981,2.981,0,0,0,.692,1.089,3.109,3.109,0,0,0,1.034.66,3.514,3.514,0,0,0,1.272.231Z" transform="translate(247 8768.665)"/>
    <path id="Trazado_102546" data-name="Trazado 102546" d="M461.319,173.59a2.728,2.728,0,0,1,1.105.231,2.672,2.672,0,0,1,.906.62,2.911,2.911,0,0,1,.612,1.01,3.747,3.747,0,0,1,.231,1.32,3.252,3.252,0,0,1-.8,2.306,2.68,2.68,0,0,1-2.028.875,2.386,2.386,0,0,1-1.272-.35,2.307,2.307,0,0,1-.875-.938v4.23H458.13v-9.185h1.034V174.9a2.2,2.2,0,0,1,.875-.954A2.386,2.386,0,0,1,461.319,173.59Zm-.207,5.423a1.837,1.837,0,0,0,1.408-.612,2.576,2.576,0,0,0,0-3.26,1.837,1.837,0,0,0-1.408-.612,1.885,1.885,0,0,0-1.439.636,2.513,2.513,0,0,0,0,3.181A1.853,1.853,0,0,0,461.112,179.013Z" transform="translate(244.271 8767.984)"/>
    <path id="Trazado_102547" data-name="Trazado 102547" d="M468.918,174.8a1.838,1.838,0,0,1,.8-.8,2.259,2.259,0,0,1,1.169-.318v1.01a2,2,0,0,0-1.415.453,1.893,1.893,0,0,0-.493,1.447v3.26H467.9v-6.107h1.05Z" transform="translate(242.271 8767.964)"/>
    <path id="Trazado_102548" data-name="Trazado 102548" d="M478.328,176.655v.294h-4.771a2.139,2.139,0,0,0,.58,1.59,1.908,1.908,0,0,0,1.392.549,1.853,1.853,0,0,0,1.01-.294,1.885,1.885,0,0,0,.7-.8l.97.207a2.807,2.807,0,0,1-1.042,1.312,2.854,2.854,0,0,1-1.59.477,2.966,2.966,0,0,1-2.2-.851,3.634,3.634,0,0,1,0-4.644,2.91,2.91,0,0,1,2.163-.851,2.751,2.751,0,0,1,2.052.8A3.093,3.093,0,0,1,478.328,176.655Zm-2.823-2.227a1.877,1.877,0,0,0-1.272.437,1.98,1.98,0,0,0-.644,1.256h3.658a1.789,1.789,0,0,0-.533-1.256,1.685,1.685,0,0,0-1.209-.437Z" transform="translate(241.321 8767.973)"/>
    <path id="Trazado_102549" data-name="Trazado 102549" d="M483.741,179.939a2.887,2.887,0,0,1-1.646-.437,1.837,1.837,0,0,1-.8-1.256l.938-.27a1.289,1.289,0,0,0,.5.851,1.645,1.645,0,0,0,1,.3,2.241,2.241,0,0,0,.588-.079,1.018,1.018,0,0,0,.453-.3.8.8,0,0,0,.175-.557.659.659,0,0,0-.048-.254,1.578,1.578,0,0,0-.1-.2.509.509,0,0,0-.175-.167,1.53,1.53,0,0,0-.493-.247l-.294-.1-.342-.1-.35-.1a6.225,6.225,0,0,1-.636-.223,2.9,2.9,0,0,1-.517-.294,1.186,1.186,0,0,1-.4-.485,1.638,1.638,0,0,1-.135-.684,1.591,1.591,0,0,1,.3-.97,1.654,1.654,0,0,1,.8-.58,3.054,3.054,0,0,1,1.082-.175,2.672,2.672,0,0,1,1.487.4,1.7,1.7,0,0,1,.747,1.193l-.883.223a1.169,1.169,0,0,0-.469-.8,1.463,1.463,0,0,0-.875-.262,1.5,1.5,0,0,0-.8.215.724.724,0,0,0-.342.66.674.674,0,0,0,.088.334,1.031,1.031,0,0,0,.183.239,1.2,1.2,0,0,0,.334.191l.366.127.445.111h.1c.239.056.429.111.581.159a4.306,4.306,0,0,1,.533.223,1.932,1.932,0,0,1,.477.334,1.526,1.526,0,0,1,.294.477,1.592,1.592,0,0,1,.127.652,1.837,1.837,0,0,1-.183.8,1.59,1.59,0,0,1-.5.565,2.387,2.387,0,0,1-.716.3A3.248,3.248,0,0,1,483.741,179.939Z" transform="translate(239.526 8767.98)"/>
    <path id="Trazado_102550" data-name="Trazado 102550" d="M489.814,171.567a.692.692,0,0,1-.509-.215.708.708,0,0,1-.215-.517.692.692,0,0,1,.215-.509.715.715,0,0,1,.509-.207.731.731,0,0,1,.509.207.692.692,0,0,1,.215.509A.731.731,0,0,1,489.814,171.567Zm-.549,7.538V173h1.081v6.107Z" transform="translate(237.931 8768.694)"/>
    <path id="Trazado_102551" data-name="Trazado 102551" d="M497,173.74h1.153l-2.489,6.107h-.914l-2.473-6.107h1.145l1.789,4.859Z" transform="translate(237.277 8767.953)"/>
    <path id="Trazado_102552" data-name="Trazado 102552" d="M503.4,179.936a3.181,3.181,0,0,1-1.591-.382,2.735,2.735,0,0,1-1.105-1.105,3.411,3.411,0,0,1-.406-1.686,3.117,3.117,0,0,1,.867-2.306,3.252,3.252,0,0,1,4.421,0,3.523,3.523,0,0,1,0,4.612,3,3,0,0,1-2.187.867Zm0-.891a1.908,1.908,0,0,0,1.447-.628,2.386,2.386,0,0,0,.573-1.654,2.33,2.33,0,0,0-.573-1.646,1.876,1.876,0,0,0-1.447-.628,1.845,1.845,0,0,0-1.431.628,2.331,2.331,0,0,0-.573,1.646,2.386,2.386,0,0,0,.573,1.654,1.877,1.877,0,0,0,1.423.628Z" transform="translate(235.636 8767.984)"/>
    <path id="Trazado_102553" data-name="Trazado 102553" d="M445.23,198.162V188.62h1.089v9.542Z" transform="translate(246.914 8764.906)"/>
    <path id="Trazado_102554" data-name="Trazado 102554" d="M449.814,190.767a.692.692,0,0,1-.509-.215.708.708,0,0,1-.215-.517.692.692,0,0,1,.215-.509.731.731,0,0,1,1.018,0,.692.692,0,0,1,.215.509.708.708,0,0,1-.215.517A.692.692,0,0,1,449.814,190.767Zm-.541,7.538V192.2h1.081v6.107Z" transform="translate(248.394 8764.647)"/>
    <path id="Trazado_102555" data-name="Trazado 102555" d="M457.721,192.911h1.042v5.8a3.108,3.108,0,0,1-5.948,1.352l.891-.437a2.02,2.02,0,0,0,2.044,1.415,1.741,1.741,0,0,0,1.431-.6,2.569,2.569,0,0,0,.493-1.67v-1.129a2.155,2.155,0,0,1-.867.883,2.688,2.688,0,0,1-3.252-.533,3.038,3.038,0,0,1-.8-2.171,2.974,2.974,0,0,1,.8-2.163,2.616,2.616,0,0,1,1.98-.859,2.505,2.505,0,0,1,1.28.342,2.2,2.2,0,0,1,.867.906Zm-1.94,5.018a1.869,1.869,0,0,0,1.408-.62,2.219,2.219,0,0,0,0-2.99,1.821,1.821,0,0,0-1.407-.628,1.853,1.853,0,0,0-1.408.6,2.148,2.148,0,0,0-.573,1.519,2.115,2.115,0,0,0,.581,1.511,1.861,1.861,0,0,0,1.415.6Z" transform="translate(247.643 8763.935)"/>
    <path id="Trazado_102556" data-name="Trazado 102556" d="M468.308,195.855v.294h-4.771a2.139,2.139,0,0,0,.588,1.59,1.909,1.909,0,0,0,1.392.549,1.852,1.852,0,0,0,1.01-.294,1.939,1.939,0,0,0,.7-.8l.97.207a2.768,2.768,0,0,1-1.05,1.312,2.855,2.855,0,0,1-1.59.477,2.95,2.95,0,0,1-2.195-.851,3.62,3.62,0,0,1,0-4.644,2.934,2.934,0,0,1,2.163-.851,2.759,2.759,0,0,1,2.06.8A3.085,3.085,0,0,1,468.308,195.855Zm-2.831-2.227a1.869,1.869,0,0,0-1.264.437,1.98,1.98,0,0,0-.644,1.256h3.658a1.82,1.82,0,0,0-.533-1.256A1.718,1.718,0,0,0,465.477,193.629Z" transform="translate(245.645 8763.925)"/>
    <path id="Trazado_102557" data-name="Trazado 102557" d="M472.97,194a1.86,1.86,0,0,1,.755-.8,2.266,2.266,0,0,1,1.177-.318v1.01a2.028,2.028,0,0,0-1.423.453,1.893,1.893,0,0,0-.485,1.447v3.26H471.92v-6.107h1.05Z" transform="translate(243.718 8763.916)"/>
    <path id="Trazado_102558" data-name="Trazado 102558" d="M482.389,195.851v.294h-4.771a2.139,2.139,0,0,0,.588,1.59,1.893,1.893,0,0,0,1.392.549,1.845,1.845,0,0,0,1.7-1.105l.97.207a2.712,2.712,0,0,1-1.042,1.312,2.855,2.855,0,0,1-1.59.477,2.95,2.95,0,0,1-2.195-.851,3.618,3.618,0,0,1,0-4.644,2.926,2.926,0,0,1,2.163-.851,2.728,2.728,0,0,1,2.052.8,3.085,3.085,0,0,1,.732,2.227Zm-2.831-2.227a1.852,1.852,0,0,0-1.264.437,1.979,1.979,0,0,0-.644,1.256h3.658a1.821,1.821,0,0,0-.533-1.256A1.717,1.717,0,0,0,479.558,193.624Z" transform="translate(242.76 8763.929)"/>
    <path id="Trazado_102559" data-name="Trazado 102559" d="M486.414,198.18h3.252v.867H484.8l3.221-5.232h-3.062v-.875h4.684Z" transform="translate(241.08 8763.906)"/>
    <path id="Trazado_102560" data-name="Trazado 102560" d="M493.82,199.139a2.083,2.083,0,0,1-1.336-.421,1.5,1.5,0,0,1-.525-1.248,1.815,1.815,0,0,1,.167-.8,1.416,1.416,0,0,1,.493-.549,2.992,2.992,0,0,1,.716-.35,8.072,8.072,0,0,1,.93-.223l.986-.159c.366-.064.541-.254.541-.565a1.058,1.058,0,0,0-.382-.907,1.511,1.511,0,0,0-.962-.294,1.591,1.591,0,0,0-.954.278,1.185,1.185,0,0,0-.461.859l-.962-.215a1.853,1.853,0,0,1,.8-1.3,2.814,2.814,0,0,1,1.662-.437,3.346,3.346,0,0,1,.883.111,2.241,2.241,0,0,1,.739.342,1.5,1.5,0,0,1,.533.652,2.457,2.457,0,0,1,.191,1.01v2.521a1.034,1.034,0,0,0,.135.636.6.6,0,0,0,.485.167h.064v.8h-.533a1.01,1.01,0,0,1-1.153-.8h-.056A2.33,2.33,0,0,1,493.82,199.139Zm.247-.867a1.63,1.63,0,0,0,1.312-.6,2.386,2.386,0,0,0,.5-1.59l-1.59.31a2.171,2.171,0,0,0-.946.342.9.9,0,0,0-.008,1.336A1.209,1.209,0,0,0,494.066,198.272Z" transform="translate(239.614 8763.934)"/>
    <path id="Trazado_102561" data-name="Trazado 102561" d="M445.58,217.567V208.82H448.4a4.23,4.23,0,0,1,2.227.565A3.523,3.523,0,0,1,452,210.927a5.4,5.4,0,0,1,.445,2.258,5.647,5.647,0,0,1-.262,1.773,3.889,3.889,0,0,1-.755,1.384,3.261,3.261,0,0,1-1.272.907,4.485,4.485,0,0,1-1.749.318Zm1.113-1.01h1.67a2.68,2.68,0,0,0,2.187-.9,3.8,3.8,0,0,0,.732-2.473,3.745,3.745,0,0,0-.74-2.457,2.656,2.656,0,0,0-2.179-.891h-1.654Z" transform="translate(246.842 8760.77)"/>
    <path id="Trazado_102562" data-name="Trazado 102562" d="M461.787,215.043v.294h-4.771a2.139,2.139,0,0,0,.58,1.59,1.909,1.909,0,0,0,1.392.549,1.852,1.852,0,0,0,1.01-.294,1.884,1.884,0,0,0,.7-.8l.97.207a2.768,2.768,0,0,1-1.05,1.312,2.816,2.816,0,0,1-1.59.477,2.966,2.966,0,0,1-2.242-.9,3.65,3.65,0,0,1,0-4.644,2.942,2.942,0,0,1,2.171-.851,2.751,2.751,0,0,1,2.052.8A3.085,3.085,0,0,1,461.787,215.043Zm-2.823-2.227a1.877,1.877,0,0,0-1.272.437,1.98,1.98,0,0,0-.644,1.256h3.658a1.789,1.789,0,0,0-.533-1.256,1.7,1.7,0,0,0-1.209-.461Z" transform="translate(244.718 8760.12)"/>
    <path id="Trazado_102563" data-name="Trazado 102563" d="M468.646,211.144a2.656,2.656,0,0,1,2,.875,3.237,3.237,0,0,1,.8,2.3,3.276,3.276,0,0,1-.8,2.3,2.664,2.664,0,0,1-2.028.883,2.434,2.434,0,0,1-1.3-.358,2.274,2.274,0,0,1-.875-.962v1.185H465.41V207.82h1.065v4.6a2.258,2.258,0,0,1,.875-.938,2.44,2.44,0,0,1,1.3-.342Zm-.239,5.423a1.877,1.877,0,0,0,1.447-.652,2.568,2.568,0,0,0,0-3.252,1.877,1.877,0,0,0-1.431-.62,1.837,1.837,0,0,0-1.415.644,2.513,2.513,0,0,0,0,3.181,1.837,1.837,0,0,0,1.4.692Z" transform="translate(242.78 8760.974)"/>
    <path id="Trazado_102564" data-name="Trazado 102564" d="M475.684,209.967a.676.676,0,0,1-.509-.215.708.708,0,0,1-.215-.517.692.692,0,0,1,.215-.509.7.7,0,0,1,.509-.207.732.732,0,0,1,.509.207.691.691,0,0,1,.215.509.732.732,0,0,1-.724.732Zm-.549,7.538V211.4h1.081v6.107Z" transform="translate(240.825 8760.83)"/>
    <path id="Trazado_102565" data-name="Trazado 102565" d="M479.29,217.362V207.82h1.089v9.542Z" transform="translate(239.938 8760.974)"/>
    <path id="Trazado_102566" data-name="Trazado 102566" d="M483.912,209.967a.732.732,0,0,1-.732-.732.691.691,0,0,1,.215-.509.731.731,0,0,1,.517-.207.708.708,0,0,1,.5.207.692.692,0,0,1,.215.509.708.708,0,0,1-.215.517.684.684,0,0,1-.5.215Zm-.549,7.538V211.4h1.081v6.107Z" transform="translate(239.141 8760.83)"/>
    <path id="Trazado_102567" data-name="Trazado 102567" d="M491.909,207.82h1.073v9.542h-1.034v-1.185a2.274,2.274,0,0,1-.875.962,2.386,2.386,0,0,1-1.288.358,2.807,2.807,0,0,1-2-.867,2.961,2.961,0,0,1-.612-1.01,3.65,3.65,0,0,1-.231-1.3,3.181,3.181,0,0,1,.835-2.3,2.664,2.664,0,0,1,2.028-.883,2.385,2.385,0,0,1,1.272.35,2.29,2.29,0,0,1,.875.93Zm-1.924,8.747a1.837,1.837,0,0,0,1.415-.636,2.513,2.513,0,0,0,0-3.181,1.837,1.837,0,0,0-1.416-.644,1.877,1.877,0,0,0-1.431.62,2.568,2.568,0,0,0,0,3.252,1.877,1.877,0,0,0,1.431.58Z" transform="translate(238.372 8760.974)"/>
    <path id="Trazado_102568" data-name="Trazado 102568" d="M498.58,218.369a2.083,2.083,0,0,1-1.336-.421,1.5,1.5,0,0,1-.525-1.248,1.75,1.75,0,0,1,.167-.8,1.352,1.352,0,0,1,.5-.557,2.715,2.715,0,0,1,.716-.35,7.331,7.331,0,0,1,.93-.223l.986-.159c.358-.064.541-.254.541-.565a1.057,1.057,0,0,0-.382-.907,1.535,1.535,0,0,0-.97-.294,1.59,1.59,0,0,0-.954.278,1.2,1.2,0,0,0-.453.859l-.97-.207a1.908,1.908,0,0,1,.8-1.3,2.863,2.863,0,0,1,1.67-.437,3.438,3.438,0,0,1,.883.111,2.242,2.242,0,0,1,.74.342,1.542,1.542,0,0,1,.525.652,2.454,2.454,0,0,1,.191,1.01v2.521a1.026,1.026,0,0,0,.143.636.589.589,0,0,0,.477.167h.1v.8h-.533c-.66,0-1.05-.27-1.161-.8h-.048a2.338,2.338,0,0,1-2.036.891Zm.254-.867a1.63,1.63,0,0,0,1.312-.6,2.449,2.449,0,0,0,.493-1.59l-1.59.31a2.131,2.131,0,0,0-.946.342.89.89,0,0,0-.016,1.336,1.233,1.233,0,0,0,.747.175Z" transform="translate(236.369 8760.11)"/>
    <path id="Trazado_102569" data-name="Trazado 102569" d="M509.909,207.82h1.073v9.542h-1.034v-1.185a2.274,2.274,0,0,1-.875.962,2.385,2.385,0,0,1-1.288.358,2.807,2.807,0,0,1-2-.867,2.957,2.957,0,0,1-.612-1.01,3.653,3.653,0,0,1-.231-1.3,3.181,3.181,0,0,1,.835-2.3,2.664,2.664,0,0,1,2.028-.883,2.386,2.386,0,0,1,1.272.35,2.29,2.29,0,0,1,.875.93Zm-1.924,8.747a1.837,1.837,0,0,0,1.415-.636,2.513,2.513,0,0,0,0-3.181,1.837,1.837,0,0,0-1.415-.644,1.877,1.877,0,0,0-1.431.62,2.569,2.569,0,0,0,0,3.252,1.877,1.877,0,0,0,1.431.58Z" transform="translate(234.686 8760.974)"/>
    <path id="Trazado_102570" data-name="Trazado 102570" d="M450.27,229.034h-3.562V231.9h3.181v1h-3.181v2.855h3.555v.994H445.57V228h4.692Z" transform="translate(246.844 8756.841)"/>
    <path id="Trazado_102571" data-name="Trazado 102571" d="M456.392,227.929h-.453a.963.963,0,0,0-.223,0l-.2.064a.446.446,0,0,0-.183.1l-.143.159a.548.548,0,0,0-.119.223,2.017,2.017,0,0,1-.072.3,2.719,2.719,0,0,0,0,.382v1.256h1.415v.859H455v5.272h-1.066V231.3H452.75v-.859h1.185v-1.28a3.18,3.18,0,0,1,.064-.708,2.275,2.275,0,0,1,.175-.541,1.367,1.367,0,0,1,.286-.39,2.274,2.274,0,0,1,.374-.262,1.842,1.842,0,0,1,.461-.151,4.429,4.429,0,0,1,.525-.079h.6Z" transform="translate(245.373 8757.039)"/>
    <path id="Trazado_102572" data-name="Trazado 102572" d="M458.89,236.637v-6.107h1.082v6.107Zm.135-7.157,1.59-2.02.565.413-1.408,1.606Z" transform="translate(244.116 8756.951)"/>
    <path id="Trazado_102573" data-name="Trazado 102573" d="M469.242,231.188a1.956,1.956,0,0,1,1.423.525,1.893,1.893,0,0,1,.541,1.455v4.23h-1.05v-3.976a1.391,1.391,0,0,0-.334-1.01,1.161,1.161,0,0,0-.851-.342,1.2,1.2,0,0,0-.93.39,1.638,1.638,0,0,0-.358,1.153V237.4h-1.089V233.47a1.447,1.447,0,0,0-.342-1.034,1.137,1.137,0,0,0-.867-.358,1.2,1.2,0,0,0-.93.4,1.717,1.717,0,0,0-.358,1.185V237.4H463v-6.107h1.074v.8a1.941,1.941,0,0,1,.7-.668,1.979,1.979,0,0,1,.978-.239,2.051,2.051,0,0,1,1.042.262,1.59,1.59,0,0,1,.676.74,1.924,1.924,0,0,1,.732-.74A2.068,2.068,0,0,1,469.242,231.188Z" transform="translate(243.274 8756.189)"/>
    <path id="Trazado_102574" data-name="Trazado 102574" d="M481.168,234.225v.294H476.4a2.139,2.139,0,0,0,.588,1.59,1.908,1.908,0,0,0,1.392.549,1.853,1.853,0,0,0,1.01-.294,1.94,1.94,0,0,0,.7-.8l.962.207a2.712,2.712,0,0,1-1.042,1.312,2.855,2.855,0,0,1-1.59.477,2.95,2.95,0,0,1-2.195-.851,3.62,3.62,0,0,1,0-4.644,2.927,2.927,0,0,1,2.163-.851,2.76,2.76,0,0,1,2.06.8,3.1,3.1,0,0,1,.724,2.211ZM478.337,232a1.869,1.869,0,0,0-1.264.437,1.98,1.98,0,0,0-.644,1.256h3.658a1.822,1.822,0,0,0-.533-1.256,1.718,1.718,0,0,0-1.217-.414Z" transform="translate(240.74 8756.182)"/>
    <path id="Trazado_102575" data-name="Trazado 102575" d="M485.83,232.4a1.861,1.861,0,0,1,.755-.8,2.266,2.266,0,0,1,1.177-.318v1.01a2.012,2.012,0,0,0-1.423.453,1.893,1.893,0,0,0-.485,1.447v3.221H484.78v-6.107h1.05Z" transform="translate(238.813 8756.167)"/>
    <path id="Trazado_102576" data-name="Trazado 102576" d="M492.452,237.536a3.181,3.181,0,0,1-1.59-.382,2.719,2.719,0,0,1-1.1-1.105,3.413,3.413,0,0,1-.406-1.686,3.118,3.118,0,0,1,.867-2.306,3.245,3.245,0,0,1,4.413,0,3.5,3.5,0,0,1,0,4.612,2.982,2.982,0,0,1-2.187.867Zm0-.891a1.893,1.893,0,0,0,1.447-.628,2.386,2.386,0,0,0,.573-1.654,2.33,2.33,0,0,0-.573-1.646,1.869,1.869,0,0,0-1.447-.628,1.845,1.845,0,0,0-1.431.628,2.693,2.693,0,0,0,0,3.3,1.877,1.877,0,0,0,1.423.628Z" transform="translate(237.876 8756.187)"/>
    <g id="Grupo_57704" data-name="Grupo 57704" transform="translate(692.183 8896.24)">
      <path id="Trazado_102577" data-name="Trazado 102577" d="M451.419,117.11h1.853v8.978h-2.155l-3.976-6.417v6.417H445.28V117.11h2.163l3.976,6.362Z" transform="translate(-445.28 -116.689)"/>
      <path id="Trazado_102578" data-name="Trazado 102578" d="M463.805,123.433v.429h-4.771a1.638,1.638,0,0,0,.509,1.169,1.733,1.733,0,0,0,1.964.183,1.391,1.391,0,0,0,.541-.644l1.638.239a2.791,2.791,0,0,1-1.121,1.5,3.3,3.3,0,0,1-1.885.533,3.451,3.451,0,0,1-2.489-.883,3.18,3.18,0,0,1-.922-2.433,3.252,3.252,0,0,1,.922-2.441,3.364,3.364,0,0,1,2.433-.891,2.918,2.918,0,0,1,3.181,3.236Zm-3.181-1.972a1.415,1.415,0,0,0-1.551,1.233h2.934a1.344,1.344,0,0,0-.445-.915,1.408,1.408,0,0,0-.907-.318Z" transform="translate(-447.734 -117.318)"/>
      <path id="Trazado_102579" data-name="Trazado 102579" d="M471.458,120.333h1.7v5.908a4.772,4.772,0,0,1-.239,1.59,2.568,2.568,0,0,1-.692,1.089,2.9,2.9,0,0,1-1.066.612,4.389,4.389,0,0,1-1.392.2,3.148,3.148,0,0,1-3.292-1.98l1.487-.636a2.154,2.154,0,0,0,.684.93,1.758,1.758,0,0,0,1.05.294c1.105,0,1.662-.652,1.662-1.964v-.771a2.011,2.011,0,0,1-.8.628,2.7,2.7,0,0,1-1.137.239,2.846,2.846,0,0,1-1.121-.223,2.982,2.982,0,0,1-.93-.636,3.028,3.028,0,0,1-.628-1,3.761,3.761,0,0,1,0-2.592,2.854,2.854,0,0,1,.636-.986,2.654,2.654,0,0,1,.93-.62,2.862,2.862,0,0,1,1.129-.223,2.624,2.624,0,0,1,1.185.262,1.836,1.836,0,0,1,.8.7Zm-2.743,4.222a1.543,1.543,0,0,0,1.169.493,1.59,1.59,0,0,0,1.177-.493,1.789,1.789,0,0,0,0-2.433,1.662,1.662,0,0,0-2.386,0,1.7,1.7,0,0,0-.469,1.225,1.67,1.67,0,0,0,.509,1.209Z" transform="translate(-449.622 -117.319)"/>
      <path id="Trazado_102580" data-name="Trazado 102580" d="M482.334,125a5.969,5.969,0,0,0,.151,1.59v.175h-1.67l-.143-.692a2.06,2.06,0,0,1-.891.612,3.356,3.356,0,0,1-1.153.207,2.814,2.814,0,0,1-.6-.056,2.188,2.188,0,0,1-.541-.191,1.592,1.592,0,0,1-.445-.334,1.352,1.352,0,0,1-.294-.5,2.227,2.227,0,0,1,0-1.392,1.749,1.749,0,0,1,.31-.517,2.18,2.18,0,0,1,.509-.382,3.973,3.973,0,0,1,.628-.27,7.449,7.449,0,0,1,.8-.2l1.05-.239a1.129,1.129,0,0,0,.477-.2.421.421,0,0,0,.135-.318.676.676,0,0,0-.31-.62,1.59,1.59,0,0,0-.8-.183,1.1,1.1,0,0,0-1.249.978l-1.59-.286a2.147,2.147,0,0,1,.922-1.463,3.7,3.7,0,0,1,2-.461q2.688,0,2.688,2.3Zm-3.181.652a1.44,1.44,0,0,0,1.105-.469,1.932,1.932,0,0,0,.429-1.368l-1.519.429a1.7,1.7,0,0,0-.636.262.541.541,0,0,0-.223.461.589.589,0,0,0,.239.5.978.978,0,0,0,.636.151Z" transform="translate(-451.703 -117.332)"/>
      <path id="Trazado_102581" data-name="Trazado 102581" d="M488.045,126.225a1.9,1.9,0,0,1-1.439-.517,2,2,0,0,1-.509-1.479v-3.014H484.84V119.84h.406a1.074,1.074,0,0,0,.8-.262,1.415,1.415,0,0,0,.254-.954v-.843h1.59v2.06H489.2v1.376h-1.288v2.823c0,.557.247.8.74.8h.573v1.36Z" transform="translate(-453.382 -116.826)"/>
      <path id="Trazado_102582" data-name="Trazado 102582" d="M492.974,118.64a1.026,1.026,0,0,1-.732-.3,1,1,0,0,1-.3-.732.978.978,0,0,1,.31-.724,1.026,1.026,0,1,1,1.447,1.455A.994.994,0,0,1,492.974,118.64Zm-.906,7.34v-6.362h1.8v6.362Z" transform="translate(-454.836 -116.58)"/>
      <path id="Trazado_102583" data-name="Trazado 102583" d="M500.605,120.37H502.5l-2.72,6.362h-1.59L495.5,120.37h1.885l1.59,4.366Z" transform="translate(-455.565 -117.356)"/>
      <path id="Trazado_102584" data-name="Trazado 102584" d="M508,126.862a4.1,4.1,0,0,1-1.805-.39,2.943,2.943,0,0,1-1.241-1.153,3.389,3.389,0,0,1-.453-1.781,3.181,3.181,0,0,1,.97-2.386,4.071,4.071,0,0,1,5.065,0,3.53,3.53,0,0,1,0,4.859,3.594,3.594,0,0,1-2.537.851Zm0-1.423a1.646,1.646,0,0,0,1.264-.525,1.94,1.94,0,0,0,.477-1.376,1.98,1.98,0,0,0-.477-1.384,1.67,1.67,0,0,0-1.264-.517,1.59,1.59,0,0,0-1.233.525,2.25,2.25,0,0,0,0,2.751,1.59,1.59,0,0,0,1.217.525Z" transform="translate(-457.408 -117.336)"/>
    </g>
    <path id="Trazado_818172" data-name="Trazado 818172" d="M321.505,217.275h3.038v1.1H320.4V208.82h1.105Z" transform="translate(371.744 8744.706)"/>
  </g>
</svg>
