<svg xmlns="http://www.w3.org/2000/svg" width="448.14" height="238.908" viewBox="0 0 448.14 238.908">
  <g id="Grupo_1072562" data-name="Grupo 1072562" transform="translate(-813.761 -9345.351)">
    <g id="info_1_4-10" transform="translate(813.761 9345.351)">
      <rect id="Rectángulo_5423" data-name="Rectángulo 5423" width="56.014" height="57.254" transform="translate(0 181.654)"/>
      <rect id="Rectángulo_5424" data-name="Rectángulo 5424" width="224.07" height="181.654" transform="translate(0)"/>
      <rect id="Rectángulo_5425" data-name="Rectángulo 5425" width="224.07" height="238.908" transform="translate(224.07)" fill="#f2f2f2"/>
      <g id="Grupo_57739" data-name="Grupo 57739" transform="translate(56.014 181.654)" opacity="0.75">
        <rect id="Rectángulo_5426" data-name="Rectángulo 5426" width="56.014" height="57.254"/>
      </g>
      <g id="Grupo_57740" data-name="Grupo 57740" transform="translate(112.035 181.654)" opacity="0.5">
        <rect id="Rectángulo_5427" data-name="Rectángulo 5427" width="56.014" height="57.254"/>
      </g>
      <g id="Grupo_57741" data-name="Grupo 57741" transform="translate(168.049 181.654)" opacity="0.25">
        <rect id="Rectángulo_5428" data-name="Rectángulo 5428" width="56.014" height="57.254"/>
      </g>
      <g id="Grupo_57742" data-name="Grupo 57742" transform="translate(252.626 44.205)">
        <path id="Trazado_103023" data-name="Trazado 103023" d="M332.25,55.59h4.405V76.909h-5.113L322.1,61.673V76.909H317.69V55.59h5.065l9.495,15.156Z" transform="translate(-317.69 -55.59)"/>
        <path id="Trazado_103024" data-name="Trazado 103024" d="M361.635,70.607l-.048,1.018H350.352A3.912,3.912,0,0,0,351.6,74.4a3.873,3.873,0,0,0,2.672.954,3.722,3.722,0,0,0,2-.525A3.18,3.18,0,0,0,357.54,73.3l3.9.581a6.639,6.639,0,0,1-2.68,3.555,7.9,7.9,0,0,1-4.485,1.264,8.222,8.222,0,0,1-5.908-2.083,7.642,7.642,0,0,1-2.187-5.8,7.674,7.674,0,0,1,2.195-5.789,7.952,7.952,0,0,1,5.773-2.115,6.962,6.962,0,0,1,7.491,7.69Zm-7.483-4.684a3.371,3.371,0,0,0-3.69,2.926h6.966a3.181,3.181,0,0,0-1.058-2.171A3.316,3.316,0,0,0,354.153,65.924Z" transform="translate(-323.522 -57.089)"/>
        <path id="Trazado_103025" data-name="Trazado 103025" d="M379.787,63.244h4.04V77.295a11.279,11.279,0,0,1-.565,3.777,6.275,6.275,0,0,1-1.646,2.584,6.927,6.927,0,0,1-2.481,1.439,10.783,10.783,0,0,1-3.308.469q-6,0-7.817-4.708l3.523-1.5a5.216,5.216,0,0,0,1.638,2.2,4.214,4.214,0,0,0,2.5.708c2.624,0,3.976-1.59,3.976-4.684V75.816a4.771,4.771,0,0,1-1.908,1.495,6.3,6.3,0,0,1-2.7.565,6.751,6.751,0,0,1-2.664-.533,6.679,6.679,0,0,1-2.2-1.511,6.852,6.852,0,0,1-1.495-2.386,8.747,8.747,0,0,1,0-6.147,6.656,6.656,0,0,1,1.5-2.386,7.093,7.093,0,0,1,2.211-1.479,6.91,6.91,0,0,1,2.68-.525,6.155,6.155,0,0,1,2.815.628,4.437,4.437,0,0,1,1.877,1.67Zm-6.513,10.027a3.888,3.888,0,0,0,5.566,0,4.246,4.246,0,0,0,0-5.773,3.936,3.936,0,0,0-5.566,0,4.056,4.056,0,0,0-1.113,2.918,3.976,3.976,0,0,0,1.113,2.855Z" transform="translate(-327.996 -57.089)"/>
        <path id="Trazado_103026" data-name="Trazado 103026" d="M397.521,65.676a4.985,4.985,0,0,1,2-1.821,6.027,6.027,0,0,1,2.966-.8v3.785a5.8,5.8,0,0,0-3.634.938,4.006,4.006,0,0,0-1.121,3.252v7.4H393.45V63.275h4.071Z" transform="translate(-333.206 -57.12)"/>
        <path id="Trazado_103027" data-name="Trazado 103027" d="M414.577,78.713a9.63,9.63,0,0,1-4.294-.922,6.975,6.975,0,0,1-2.942-2.735,8.1,8.1,0,0,1-1.073-4.23,7.427,7.427,0,0,1,2.306-5.757,9.63,9.63,0,0,1,12.023,0,7.419,7.419,0,0,1,2.3,5.757,7.451,7.451,0,0,1-2.3,5.773A8.517,8.517,0,0,1,414.577,78.713Zm-.048-3.38a3.9,3.9,0,0,0,3.006-1.209,5.256,5.256,0,0,0,0-6.552,3.9,3.9,0,0,0-3.006-1.24,3.745,3.745,0,0,0-2.91,1.225,5.3,5.3,0,0,0,0,6.568,3.761,3.761,0,0,0,2.91,1.209Z" transform="translate(-335.829 -57.099)"/>
      </g>
      <g id="Grupo_57743" data-name="Grupo 57743" transform="translate(253.755 119.454)">
        <path id="Trazado_103028" data-name="Trazado 103028" d="M323.708,151.22a2.536,2.536,0,0,1,1.368.366,2.456,2.456,0,0,1,.922.97,2.846,2.846,0,0,1,.318,1.352,2.632,2.632,0,0,1-.724,1.9,2.489,2.489,0,0,1-1.885.8h-2.2V160H320.4v-8.747Zm-.159,4.382a1.59,1.59,0,0,0,1.217-.469,1.967,1.967,0,0,0,0-2.473,1.59,1.59,0,0,0-1.217-.477h-2.044V155.6Z" transform="translate(-319.374 -150.425)"/>
        <path id="Trazado_103029" data-name="Trazado 103029" d="M331.691,160.736a3.181,3.181,0,0,1-1.59-.382,2.735,2.735,0,0,1-1.105-1.105,3.412,3.412,0,0,1-.406-1.686,3.181,3.181,0,0,1,.867-2.306,3.252,3.252,0,0,1,4.421,0,3.5,3.5,0,0,1,0,4.612A3,3,0,0,1,331.691,160.736Zm0-.891a1.893,1.893,0,0,0,1.447-.628,2.385,2.385,0,0,0,.573-1.654,2.33,2.33,0,0,0-.573-1.646,1.869,1.869,0,0,0-1.447-.628,1.845,1.845,0,0,0-1.431.628,2.33,2.33,0,0,0-.565,1.646,2.385,2.385,0,0,0,.565,1.654,1.877,1.877,0,0,0,1.423.628Z" transform="translate(-321.051 -151.074)"/>
        <path id="Trazado_103030" data-name="Trazado 103030" d="M342.865,150.22h1.074v9.542H342.9v-1.185a2.251,2.251,0,0,1-.867.962,2.426,2.426,0,0,1-1.3.358,2.751,2.751,0,0,1-1.105-.231,2.6,2.6,0,0,1-.906-.636,2.855,2.855,0,0,1-.62-1.01,3.65,3.65,0,0,1-.223-1.3,3.237,3.237,0,0,1,.8-2.3,2.688,2.688,0,0,1,2.028-.883,2.432,2.432,0,0,1,1.28.35,2.29,2.29,0,0,1,.875.93Zm-1.932,8.747a1.853,1.853,0,0,0,1.423-.636,2.338,2.338,0,0,0,.573-1.59,2.29,2.29,0,0,0-.58-1.59,1.813,1.813,0,0,0-1.415-.644,1.861,1.861,0,0,0-1.423.62,2.3,2.3,0,0,0-.581,1.59,2.267,2.267,0,0,0,.581,1.59,1.861,1.861,0,0,0,1.423.652Z" transform="translate(-322.953 -150.22)"/>
        <path id="Trazado_103031" data-name="Trazado 103031" d="M353.508,157.451v.294h-4.771a2.171,2.171,0,0,0,.58,1.59,1.917,1.917,0,0,0,1.392.549,1.845,1.845,0,0,0,1.71-1.105l.97.207a2.711,2.711,0,0,1-1.042,1.312,2.854,2.854,0,0,1-1.59.477,2.982,2.982,0,0,1-2.2-.851,3.634,3.634,0,0,1,0-4.644,2.91,2.91,0,0,1,2.163-.851,2.751,2.751,0,0,1,2.052.8A3.085,3.085,0,0,1,353.508,157.451Zm-2.831-2.227a1.892,1.892,0,0,0-1.272.437,1.98,1.98,0,0,0-.644,1.256h3.666a1.829,1.829,0,0,0-.541-1.256,1.686,1.686,0,0,0-1.233-.437Z" transform="translate(-324.969 -151.082)"/>
        <path id="Trazado_103032" data-name="Trazado 103032" d="M358.138,155.6a1.884,1.884,0,0,1,.8-.8,2.258,2.258,0,0,1,1.169-.318v1.01a2,2,0,0,0-1.415.453,1.893,1.893,0,0,0-.493,1.447v3.26H357.12v-6.107h1.05Z" transform="translate(-326.895 -151.095)"/>
        <path id="Trazado_103033" data-name="Trazado 103033" d="M364.761,160.736a3.181,3.181,0,0,1-1.59-.382,2.791,2.791,0,0,1-1.105-1.105,3.412,3.412,0,0,1-.406-1.686,3.181,3.181,0,0,1,.867-2.306,3.252,3.252,0,0,1,4.421,0,3.5,3.5,0,0,1,0,4.612,3,3,0,0,1-2.187.867Zm0-.891a1.893,1.893,0,0,0,1.447-.628,2.386,2.386,0,0,0,.573-1.654,2.33,2.33,0,0,0-.573-1.646,1.869,1.869,0,0,0-1.447-.628,1.845,1.845,0,0,0-1.431.628,2.33,2.33,0,0,0-.565,1.646,2.385,2.385,0,0,0,.565,1.654,1.877,1.877,0,0,0,1.423.628Z" transform="translate(-327.824 -151.074)"/>
        <path id="Trazado_103034" data-name="Trazado 103034" d="M373.371,160.74a2.918,2.918,0,0,1-1.646-.437,1.805,1.805,0,0,1-.8-1.256l.938-.27a1.3,1.3,0,0,0,.493.851,1.654,1.654,0,0,0,1.01.3,2.178,2.178,0,0,0,.581-.08,1.017,1.017,0,0,0,.453-.3.8.8,0,0,0,.183-.557.849.849,0,0,0-.056-.254.794.794,0,0,0-.1-.2.511.511,0,0,0-.175-.167l-.207-.135a2.212,2.212,0,0,0-.278-.111l-.294-.1-.342-.1-.358-.1c-.254-.079-.469-.151-.636-.223a2.856,2.856,0,0,1-.509-.294,1.138,1.138,0,0,1-.406-.485,1.638,1.638,0,0,1-.135-.684,1.591,1.591,0,0,1,.3-.97,1.654,1.654,0,0,1,.8-.58,3.069,3.069,0,0,1,1.089-.175,2.7,2.7,0,0,1,1.487.4,1.718,1.718,0,0,1,.74,1.193l-.883.223a1.161,1.161,0,0,0-.469-.8,1.447,1.447,0,0,0-.875-.262,1.519,1.519,0,0,0-.8.215.724.724,0,0,0-.342.66.6.6,0,0,0,.1.334.849.849,0,0,0,.183.239.881.881,0,0,0,.334.183,2.851,2.851,0,0,0,.358.135l.445.111h.1l.588.167a4.254,4.254,0,0,1,.525.223,1.932,1.932,0,0,1,.477.334,1.59,1.59,0,0,1,.3.469,1.773,1.773,0,0,1,.119.66,1.837,1.837,0,0,1-.183.8,1.432,1.432,0,0,1-.5.565,2.266,2.266,0,0,1-.708.3A3.262,3.262,0,0,1,373.371,160.74Z" transform="translate(-329.723 -151.078)"/>
        <path id="Trazado_103035" data-name="Trazado 103035" d="M381.361,160.736a3.181,3.181,0,0,1-1.59-.382,2.72,2.72,0,0,1-1.1-1.105,3.332,3.332,0,0,1-.414-1.686,3.181,3.181,0,0,1,.867-2.306,3.252,3.252,0,0,1,4.421,0,3.5,3.5,0,0,1,0,4.612A2.982,2.982,0,0,1,381.361,160.736Zm0-.891a1.892,1.892,0,0,0,1.447-.628,2.385,2.385,0,0,0,.573-1.654,2.33,2.33,0,0,0-.573-1.646,1.869,1.869,0,0,0-1.447-.628,1.845,1.845,0,0,0-1.431.628,2.693,2.693,0,0,0,0,3.3,1.877,1.877,0,0,0,1.423.628Z" transform="translate(-331.224 -151.074)"/>
        <path id="Trazado_103036" data-name="Trazado 103036" d="M323.988,179.256a4.716,4.716,0,0,1-1.726-.31,4.47,4.47,0,0,1-1.384-.883,3.975,3.975,0,0,1-.914-1.423,5.438,5.438,0,0,1,0-3.753,4.047,4.047,0,0,1,.922-1.423,4.342,4.342,0,0,1,1.376-.883,4.715,4.715,0,0,1,1.726-.31,4.414,4.414,0,0,1,2.322.62,3.833,3.833,0,0,1,1.566,1.71l-1.026.421a2.95,2.95,0,0,0-1.145-1.248,3.276,3.276,0,0,0-1.694-.437,3.554,3.554,0,0,0-1.28.231,3.03,3.03,0,0,0-1.026.66,2.943,2.943,0,0,0-.692,1.081,3.977,3.977,0,0,0-.254,1.447,4.064,4.064,0,0,0,.255,1.463,2.941,2.941,0,0,0,.692,1.081,3.03,3.03,0,0,0,1.026.66,3.4,3.4,0,0,0,1.28.231,3.276,3.276,0,0,0,1.694-.437,2.91,2.91,0,0,0,1.145-1.232l1.026.413a3.817,3.817,0,0,1-1.59,1.71,4.492,4.492,0,0,1-2.3.612Z" transform="translate(-319.217 -154.326)"/>
        <path id="Trazado_103037" data-name="Trazado 103037" d="M334.45,179.936a3.18,3.18,0,0,1-1.59-.382,2.687,2.687,0,0,1-1.105-1.105,3.412,3.412,0,0,1-.406-1.686,3.117,3.117,0,0,1,.867-2.306,3.252,3.252,0,0,1,4.421,0,3.181,3.181,0,0,1,.859,2.306,3.109,3.109,0,0,1-.867,2.306,2.966,2.966,0,0,1-2.179.867Zm0-.891a1.908,1.908,0,0,0,1.447-.628,2.664,2.664,0,0,0,0-3.3,1.877,1.877,0,0,0-1.447-.628,1.837,1.837,0,0,0-1.431.628,2.664,2.664,0,0,0,0,3.3,1.86,1.86,0,0,0,1.423.628Z" transform="translate(-321.616 -155.006)"/>
        <path id="Trazado_103038" data-name="Trazado 103038" d="M344.117,173.589a2.139,2.139,0,0,1,1.535.557,2.067,2.067,0,0,1,.573,1.59v4.111H345.15v-3.865a1.463,1.463,0,0,0-.374-1.1,1.312,1.312,0,0,0-.954-.358,1.5,1.5,0,0,0-1.089.421,1.741,1.741,0,0,0-.429,1.248v3.65H341.23v-6.107H342.3v.8A2.036,2.036,0,0,1,344.117,173.589Z" transform="translate(-323.64 -155.006)"/>
        <path id="Trazado_103039" data-name="Trazado 103039" d="M351.847,179.323a1.591,1.591,0,0,1-1.193-.437,1.646,1.646,0,0,1-.437-1.217v-3.594H349v-.859h.461a.859.859,0,0,0,.668-.215,1.026,1.026,0,0,0,.2-.716V171.18h1v2.036h1.4v.859h-1.4v3.483a.931.931,0,0,0,.231.668.8.8,0,0,0,.612.239h.557v.859Z" transform="translate(-325.232 -154.513)"/>
        <path id="Trazado_103040" data-name="Trazado 103040" d="M356.66,174.8a1.861,1.861,0,0,1,.755-.8,2.266,2.266,0,0,1,1.177-.318v1.01a2.028,2.028,0,0,0-1.423.453,1.892,1.892,0,0,0-.485,1.447v3.26H355.61v-6.107h1.05Z" transform="translate(-326.585 -155.027)"/>
        <path id="Trazado_103041" data-name="Trazado 103041" d="M363.282,179.936a3.181,3.181,0,0,1-1.59-.382,2.719,2.719,0,0,1-1.1-1.105,3.411,3.411,0,0,1-.406-1.686,3.117,3.117,0,0,1,.867-2.306,3.244,3.244,0,0,1,4.413,0,3.5,3.5,0,0,1,0,4.612A2.982,2.982,0,0,1,363.282,179.936Zm0-.891a1.892,1.892,0,0,0,1.439-.628,2.664,2.664,0,0,0,0-3.3,1.964,1.964,0,0,0-2.879,0,2.7,2.7,0,0,0,0,3.3A1.876,1.876,0,0,0,363.282,179.045Z" transform="translate(-327.522 -155.007)"/>
        <path id="Trazado_103042" data-name="Trazado 103042" d="M370.07,178.962V169.42h1.081v9.542Z" transform="translate(-329.547 -154.152)"/>
        <path id="Trazado_103043" data-name="Trazado 103043" d="M375.518,179.939a2.06,2.06,0,0,1-1.344-.421,1.5,1.5,0,0,1-.525-1.248,1.654,1.654,0,0,1,.175-.8,1.328,1.328,0,0,1,.493-.557,2.991,2.991,0,0,1,.716-.35,6.776,6.776,0,0,1,.93-.215l.986-.167c.366-.064.541-.254.541-.565a1.057,1.057,0,0,0-.382-.907,1.511,1.511,0,0,0-.962-.294,1.639,1.639,0,0,0-.962.278,1.2,1.2,0,0,0-.453.859l-.97-.2a1.893,1.893,0,0,1,.8-1.312,2.815,2.815,0,0,1,1.662-.437,3.349,3.349,0,0,1,.883.111,2.243,2.243,0,0,1,.74.342,1.5,1.5,0,0,1,.533.652,2.6,2.6,0,0,1,.183,1.01v2.521a1.026,1.026,0,0,0,.143.636.6.6,0,0,0,.485.167h.1v.8H378.7a1.01,1.01,0,0,1-1.153-.8h-.056A2.314,2.314,0,0,1,375.518,179.939Zm.247-.867a1.63,1.63,0,0,0,1.312-.6,2.385,2.385,0,0,0,.493-1.59l-1.59.31a2.171,2.171,0,0,0-.946.342.882.882,0,0,0-.008,1.336,1.193,1.193,0,0,0,.708.2Z" transform="translate(-330.279 -155.009)"/>
        <path id="Trazado_103044" data-name="Trazado 103044" d="M386.8,169.42h1.074v9.542h-1.034v-1.185a2.274,2.274,0,0,1-.875.962,2.386,2.386,0,0,1-1.288.358,2.75,2.75,0,0,1-1.105-.231,2.711,2.711,0,0,1-.914-.636,2.956,2.956,0,0,1-.612-1.01,3.649,3.649,0,0,1-.223-1.3,3.181,3.181,0,0,1,.8-2.3,2.664,2.664,0,0,1,2.028-.883,2.457,2.457,0,0,1,1.3.326,2.273,2.273,0,0,1,.867.93Zm-1.924,8.747a1.837,1.837,0,0,0,1.423-.636,2.338,2.338,0,0,0,.573-1.59,2.29,2.29,0,0,0-.58-1.59,1.829,1.829,0,0,0-1.415-.644,1.893,1.893,0,0,0-1.431.62,2.33,2.33,0,0,0-.573,1.63,2.3,2.3,0,0,0,.573,1.59,1.892,1.892,0,0,0,1.431.612Z" transform="translate(-331.952 -154.152)"/>
        <path id="Trazado_103045" data-name="Trazado 103045" d="M394.621,179.936a3.181,3.181,0,0,1-1.59-.382,2.735,2.735,0,0,1-1.105-1.105,3.411,3.411,0,0,1-.405-1.686,3.18,3.18,0,0,1,.867-2.306,3.252,3.252,0,0,1,4.421,0,3.5,3.5,0,0,1,0,4.612,3,3,0,0,1-2.187.867Zm0-.891a1.892,1.892,0,0,0,1.447-.628,2.664,2.664,0,0,0,0-3.3,1.869,1.869,0,0,0-1.447-.628,1.845,1.845,0,0,0-1.431.628,2.7,2.7,0,0,0,0,3.3,1.877,1.877,0,0,0,1.423.628Z" transform="translate(-333.939 -155.006)"/>
        <path id="Trazado_103046" data-name="Trazado 103046" d="M402.45,174.8a1.885,1.885,0,0,1,.8-.8,2.259,2.259,0,0,1,1.169-.318v1.01a2,2,0,0,0-1.415.453,1.893,1.893,0,0,0-.493,1.447v3.26H401.4v-6.107h1.05Z" transform="translate(-335.963 -155.027)"/>
        <path id="Trazado_103047" data-name="Trazado 103047" d="M325.75,198.367l-.755-2.091h-3.976l-.747,2.091H319.11l3.221-8.747h1.328l3.228,8.747Zm-4.342-3.069h3.26l-1.67-4.58Z" transform="translate(-319.11 -158.289)"/>
        <path id="Trazado_103048" data-name="Trazado 103048" d="M334.527,192.936h1.081v6.107h-1.034v-.8a1.924,1.924,0,0,1-.8.684,2.315,2.315,0,0,1-1.065.239,2.123,2.123,0,0,1-1.535-.549,2.059,2.059,0,0,1-.581-1.59V192.92h1.113v3.873a1.455,1.455,0,0,0,.374,1.1,1.336,1.336,0,0,0,.962.358,1.471,1.471,0,0,0,1.081-.421,1.717,1.717,0,0,0,.422-1.248Z" transform="translate(-321.462 -158.965)"/>
        <path id="Trazado_103049" data-name="Trazado 103049" d="M341.359,198.519a1.59,1.59,0,0,1-1.193-.437,1.646,1.646,0,0,1-.437-1.217v-3.61H338.48V192.4h.461a.9.9,0,0,0,.676-.215,1.074,1.074,0,0,0,.191-.716V190.36h1V192.4h1.407v.859H340.81v3.483a.93.93,0,0,0,.231.668.8.8,0,0,0,.612.239h.565v.859Z" transform="translate(-323.077 -158.441)"/>
        <path id="Trazado_103050" data-name="Trazado 103050" d="M347.471,199.136a3.181,3.181,0,0,1-1.59-.382,2.719,2.719,0,0,1-1.1-1.105,3.332,3.332,0,0,1-.413-1.686,3.18,3.18,0,0,1,.867-2.306,3.252,3.252,0,0,1,4.421,0,3.5,3.5,0,0,1,0,4.612A2.982,2.982,0,0,1,347.471,199.136Zm0-.891a1.893,1.893,0,0,0,1.447-.628,2.386,2.386,0,0,0,.573-1.654,2.33,2.33,0,0,0-.573-1.646,1.869,1.869,0,0,0-1.447-.628,1.845,1.845,0,0,0-1.431.628,2.693,2.693,0,0,0,0,3.3,1.876,1.876,0,0,0,1.423.628Z" transform="translate(-324.283 -158.939)"/>
        <path id="Trazado_103051" data-name="Trazado 103051" d="M355.308,194a1.861,1.861,0,0,1,.755-.8,2.258,2.258,0,0,1,1.169-.318v1.01a2,2,0,0,0-1.415.453,1.892,1.892,0,0,0-.485,1.447v3.26H354.25v-6.107h1.058Z" transform="translate(-326.307 -158.959)"/>
        <path id="Trazado_103052" data-name="Trazado 103052" d="M360.092,190.767a.732.732,0,0,1-.732-.732.692.692,0,0,1,.215-.509.74.74,0,0,1,1.026,0,.716.716,0,0,1,.207.509.732.732,0,0,1-.207.517A.708.708,0,0,1,360.092,190.767Zm-.549,7.538V192.2h1.121v6.107Z" transform="translate(-327.353 -158.228)"/>
        <path id="Trazado_103053" data-name="Trazado 103053" d="M365.411,198.519a1.59,1.59,0,0,1-1.193-.437,1.67,1.67,0,0,1-.429-1.217v-3.61H362.54V192.4h.453a.882.882,0,0,0,.676-.215,1.026,1.026,0,0,0,.2-.716V190.36h1V192.4h1.4v.859h-1.4v3.483a.9.9,0,0,0,.231.668.8.8,0,0,0,.612.239h.557v.859Z" transform="translate(-328.005 -158.441)"/>
        <path id="Trazado_103054" data-name="Trazado 103054" d="M370.38,199.141a2.036,2.036,0,0,1-1.336-.421,1.5,1.5,0,0,1-.525-1.248,1.747,1.747,0,0,1,.167-.8,1.351,1.351,0,0,1,.5-.557,2.718,2.718,0,0,1,.716-.35,6.264,6.264,0,0,1,.93-.215l.986-.167c.358-.064.541-.254.541-.565a1.057,1.057,0,0,0-.382-.907,1.741,1.741,0,0,0-1.924,0,1.169,1.169,0,0,0-.453.851l-.97-.2a1.908,1.908,0,0,1,.8-1.312,2.862,2.862,0,0,1,1.67-.437,3.432,3.432,0,0,1,.883.111,2.323,2.323,0,0,1,.74.342,1.542,1.542,0,0,1,.525.652,2.455,2.455,0,0,1,.191,1.01v2.521a1.026,1.026,0,0,0,.143.636.589.589,0,0,0,.477.167h.1v.8h-.533c-.66,0-1.05-.27-1.161-.8h-.048A2.314,2.314,0,0,1,370.38,199.141Zm.255-.867a1.646,1.646,0,0,0,1.312-.588,2.481,2.481,0,0,0,.493-1.59l-1.59.31a2.131,2.131,0,0,0-.946.342.889.889,0,0,0-.016,1.336A1.233,1.233,0,0,0,370.634,198.274Z" transform="translate(-329.228 -158.944)"/>
        <path id="Trazado_103055" data-name="Trazado 103055" d="M378.528,194a1.884,1.884,0,0,1,.8-.8,2.259,2.259,0,0,1,1.169-.318v1.01a2,2,0,0,0-1.415.453,1.893,1.893,0,0,0-.485,1.447v3.26H377.51v-6.107h1.05Z" transform="translate(-331.071 -158.959)"/>
        <path id="Trazado_103056" data-name="Trazado 103056" d="M383.312,190.767a.732.732,0,0,1-.732-.732.692.692,0,0,1,.215-.509.732.732,0,0,1,.517-.207.708.708,0,0,1,.5.207.692.692,0,0,1,.215.509.708.708,0,0,1-.215.517A.684.684,0,0,1,383.312,190.767Zm-.549,7.538V192.2h1.081v6.107Z" transform="translate(-332.109 -158.228)"/>
        <path id="Trazado_103057" data-name="Trazado 103057" d="M389.352,199.136a3.18,3.18,0,0,1-1.59-.382,2.719,2.719,0,0,1-1.1-1.105,3.411,3.411,0,0,1-.406-1.686,3.117,3.117,0,0,1,.867-2.306,3.244,3.244,0,0,1,4.413,0,3.5,3.5,0,0,1,0,4.612A2.982,2.982,0,0,1,389.352,199.136Zm0-.891a1.893,1.893,0,0,0,1.439-.628,2.385,2.385,0,0,0,.573-1.654,2.33,2.33,0,0,0-.573-1.646,1.964,1.964,0,0,0-2.879,0,2.694,2.694,0,0,0,0,3.3A1.877,1.877,0,0,0,389.352,198.245Z" transform="translate(-332.862 -158.939)"/>
        <path id="Trazado_103058" data-name="Trazado 103058" d="M320.4,217.567V208.82h2.815a4.191,4.191,0,0,1,2.227.565,3.427,3.427,0,0,1,1.368,1.543,5.4,5.4,0,0,1,.445,2.258,5.894,5.894,0,0,1-.254,1.773,4.151,4.151,0,0,1-.756,1.384,3.315,3.315,0,0,1-1.272.907,4.556,4.556,0,0,1-1.757.318Zm1.105-1.01h1.678a2.664,2.664,0,0,0,2.179-.9,4.477,4.477,0,0,0,0-4.93,2.672,2.672,0,0,0-2.179-.891h-1.678Z" transform="translate(-319.374 -162.221)"/>
        <path id="Trazado_103059" data-name="Trazado 103059" d="M331.892,209.967a.732.732,0,0,1-.732-.732.692.692,0,0,1,.215-.509.731.731,0,0,1,.517-.207.707.707,0,0,1,.5.207.692.692,0,0,1,.215.509.708.708,0,0,1-.215.517.684.684,0,0,1-.5.215Zm-.549,7.538V211.4h1.081v6.107Z" transform="translate(-321.578 -162.16)"/>
        <path id="Trazado_103060" data-name="Trazado 103060" d="M337.3,218.365a2.887,2.887,0,0,1-1.646-.437,1.814,1.814,0,0,1-.8-1.256l.938-.27a1.289,1.289,0,0,0,.5.851,1.591,1.591,0,0,0,1,.3,2.244,2.244,0,0,0,.588-.08.954.954,0,0,0,.445-.3.8.8,0,0,0,.183-.557,1.21,1.21,0,0,0-.048-.254,1.155,1.155,0,0,0-.1-.2.446.446,0,0,0-.215-.183,1.8,1.8,0,0,0-.207-.135,2.206,2.206,0,0,0-.278-.111l-.294-.1-.342-.1-.358-.1c-.254-.08-.461-.151-.628-.223a2.658,2.658,0,0,1-.517-.294,1.122,1.122,0,0,1-.4-.485,1.521,1.521,0,0,1-.135-.684,1.591,1.591,0,0,1,.294-.97,1.67,1.67,0,0,1,.8-.58,3.021,3.021,0,0,1,1.081-.175,2.671,2.671,0,0,1,1.487.4,1.67,1.67,0,0,1,.74,1.193l-.883.223a1.16,1.16,0,0,0-.461-.8,1.479,1.479,0,0,0-.875-.262,1.527,1.527,0,0,0-.8.215.731.731,0,0,0-.334.66.6.6,0,0,0,.087.334.851.851,0,0,0,.183.239,1.193,1.193,0,0,0,.334.191l.358.127.453.111h.087c.246.056.437.111.588.159a4.887,4.887,0,0,1,.533.223,1.735,1.735,0,0,1,.469.334,1.535,1.535,0,0,1,.3.477,1.7,1.7,0,0,1,.119.652,1.734,1.734,0,0,1-.183.8,1.479,1.479,0,0,1-.493.565,2.386,2.386,0,0,1-.716.3A3.244,3.244,0,0,1,337.3,218.365Z" transform="translate(-322.336 -162.877)"/>
        <path id="Trazado_103061" data-name="Trazado 103061" d="M345.284,218.367a2.918,2.918,0,0,1-2.187-.875,3.467,3.467,0,0,1,0-4.58,2.926,2.926,0,0,1,2.195-.883,2.958,2.958,0,0,1,1.765.541,2.648,2.648,0,0,1,1.026,1.479l-1,.167a1.829,1.829,0,0,0-1.8-1.288,1.8,1.8,0,0,0-1.415.628,2.712,2.712,0,0,0,0,3.292,1.908,1.908,0,0,0,3.213-.668l1,.167a2.64,2.64,0,0,1-1.034,1.487A2.95,2.95,0,0,1,345.284,218.367Z" transform="translate(-323.846 -162.879)"/>
        <path id="Trazado_103062" data-name="Trazado 103062" d="M352.074,209.967a.692.692,0,0,1-.509-.215.707.707,0,0,1-.215-.517.692.692,0,0,1,.215-.509.732.732,0,0,1,1.018,0,.692.692,0,0,1,.215.509.708.708,0,0,1-.215.517A.692.692,0,0,1,352.074,209.967Zm-.541,7.538V211.4h1.074v6.107Z" transform="translate(-325.713 -162.16)"/>
        <path id="Trazado_103063" data-name="Trazado 103063" d="M358.917,212a2.752,2.752,0,0,1,1.105.231,2.672,2.672,0,0,1,.907.62,3.036,3.036,0,0,1,.612,1.01,3.747,3.747,0,0,1,.231,1.32,3.237,3.237,0,0,1-.8,2.306,2.68,2.68,0,0,1-2.028.875,2.458,2.458,0,0,1-1.28-.35,2.29,2.29,0,0,1-.867-.938v4.23H355.72v-9.192h1.018V213.3a2.188,2.188,0,0,1,.867-.954A2.425,2.425,0,0,1,358.917,212Zm-.215,5.423a1.837,1.837,0,0,0,1.415-.612,2.608,2.608,0,0,0,0-3.26,1.837,1.837,0,0,0-1.415-.612,1.86,1.86,0,0,0-1.431.644,2.281,2.281,0,0,0-.588,1.59,2.314,2.314,0,0,0,.588,1.59,1.853,1.853,0,0,0,1.431.652Z" transform="translate(-326.608 -162.873)"/>
        <path id="Trazado_103064" data-name="Trazado 103064" d="M365.46,217.362V207.82h1.089v9.542Z" transform="translate(-328.603 -162.017)"/>
        <path id="Trazado_103065" data-name="Trazado 103065" d="M370.074,209.967a.692.692,0,0,1-.509-.215.707.707,0,0,1-.215-.517.691.691,0,0,1,.215-.509.732.732,0,0,1,1.018,0,.692.692,0,0,1,.215.509.708.708,0,0,1-.215.517A.692.692,0,0,1,370.074,209.967Zm-.541,7.538V211.4h1.074v6.107Z" transform="translate(-329.399 -162.16)"/>
        <path id="Trazado_103066" data-name="Trazado 103066" d="M376.567,212a2.123,2.123,0,0,1,1.535.557,2.067,2.067,0,0,1,.58,1.59v4.111H377.6v-3.873a1.463,1.463,0,0,0-.366-1.1,1.344,1.344,0,0,0-.962-.35,1.455,1.455,0,0,0-1.082.414,1.678,1.678,0,0,0-.429,1.248v3.65H373.68v-6.107h1.05v.8A2.028,2.028,0,0,1,376.567,212Z" transform="translate(-330.286 -162.872)"/>
        <path id="Trazado_103067" data-name="Trazado 103067" d="M383.868,218.369a2.019,2.019,0,0,1-1.336-.421A1.479,1.479,0,0,1,382,216.7a1.749,1.749,0,0,1,.175-.8,1.328,1.328,0,0,1,.493-.557,2.992,2.992,0,0,1,.716-.35,6.781,6.781,0,0,1,.93-.215l.986-.167c.366-.064.541-.254.541-.565a1.057,1.057,0,0,0-.382-.907,1.511,1.511,0,0,0-.962-.294,1.591,1.591,0,0,0-.962.286,1.169,1.169,0,0,0-.453.851l-.962-.2a1.853,1.853,0,0,1,.8-1.312,2.815,2.815,0,0,1,1.662-.437,3.348,3.348,0,0,1,.883.111,2.242,2.242,0,0,1,.739.342,1.5,1.5,0,0,1,.533.652,2.457,2.457,0,0,1,.191,1.01v2.521a1.034,1.034,0,0,0,.135.636.6.6,0,0,0,.485.167h.1v.8H387.1a1.01,1.01,0,0,1-1.153-.8H385.9a2.314,2.314,0,0,1-2.028.891Zm.247-.867a1.646,1.646,0,0,0,1.312-.588,2.442,2.442,0,0,0,.493-1.59l-1.59.31a2.275,2.275,0,0,0-.946.342.9.9,0,0,0-.008,1.336,1.193,1.193,0,0,0,.74.167Z" transform="translate(-331.989 -162.88)"/>
        <path id="Trazado_103068" data-name="Trazado 103068" d="M395.186,207.82h1.081v9.542h-1.042v-1.185a2.306,2.306,0,0,1-.867.962,2.426,2.426,0,0,1-1.3.358,2.75,2.75,0,0,1-1.105-.231,2.6,2.6,0,0,1-.907-.636,2.9,2.9,0,0,1-.62-1,3.732,3.732,0,0,1-.223-1.312,3.181,3.181,0,0,1,.8-2.3,2.671,2.671,0,0,1,2.028-.883,2.458,2.458,0,0,1,1.28.35,2.274,2.274,0,0,1,.867.93Zm-1.924,8.747a1.837,1.837,0,0,0,1.423-.636,2.338,2.338,0,0,0,.572-1.59,2.306,2.306,0,0,0-.58-1.59,1.829,1.829,0,0,0-1.416-.644,1.893,1.893,0,0,0-1.431.62,2.33,2.33,0,0,0-.573,1.63,2.3,2.3,0,0,0,.573,1.59,1.893,1.893,0,0,0,1.431.612Z" transform="translate(-333.67 -162.017)"/>
        <path id="Trazado_103069" data-name="Trazado 103069" d="M403.011,218.366a3.181,3.181,0,0,1-1.59-.382,2.791,2.791,0,0,1-1.105-1.105,3.411,3.411,0,0,1-.406-1.686,3.181,3.181,0,0,1,.867-2.306,3.252,3.252,0,0,1,4.421,0,3.5,3.5,0,0,1,0,4.612,3,3,0,0,1-2.187.867Zm0-.891a1.892,1.892,0,0,0,1.447-.628,2.664,2.664,0,0,0,0-3.3,1.868,1.868,0,0,0-1.447-.628,1.845,1.845,0,0,0-1.431.628,2.7,2.7,0,0,0,0,3.3,1.877,1.877,0,0,0,1.423.6Z" transform="translate(-335.658 -162.877)"/>
        <path id="Trazado_103070" data-name="Trazado 103070" d="M325.084,229.034h-3.547V231.9h3.125v.994h-3.125v2.863h3.547v.994H320.4V228h4.684Z" transform="translate(-319.374 -166.15)"/>
        <path id="Trazado_103071" data-name="Trazado 103071" d="M328.62,236.542V227h1.1v9.542Z" transform="translate(-321.058 -165.945)"/>
        <path id="Trazado_103072" data-name="Trazado 103072" d="M337.969,234.225v.294H333.2a2.139,2.139,0,0,0,.588,1.59,1.908,1.908,0,0,0,1.392.549,1.852,1.852,0,0,0,1.01-.294,1.939,1.939,0,0,0,.7-.8l.962.207a2.712,2.712,0,0,1-1.042,1.312,2.855,2.855,0,0,1-1.59.477,2.95,2.95,0,0,1-2.195-.851,3.618,3.618,0,0,1,0-4.644,2.927,2.927,0,0,1,2.163-.851,2.76,2.76,0,0,1,2.06.8,3.117,3.117,0,0,1,.724,2.211ZM335.138,232a1.869,1.869,0,0,0-1.264.437,1.98,1.98,0,0,0-.644,1.256h3.658a1.821,1.821,0,0,0-.533-1.256,1.718,1.718,0,0,0-1.217-.414Z" transform="translate(-321.787 -166.809)"/>
        <path id="Trazado_103073" data-name="Trazado 103073" d="M345.861,231.311H346.9v5.8a3.108,3.108,0,0,1-5.948,1.352l.891-.437a2.02,2.02,0,0,0,2.044,1.415,1.741,1.741,0,0,0,1.431-.6,2.568,2.568,0,0,0,.493-1.67v-1.129a2.155,2.155,0,0,1-.867.883,2.688,2.688,0,0,1-3.252-.533,3.038,3.038,0,0,1-.8-2.171,2.974,2.974,0,0,1,.8-2.163,2.616,2.616,0,0,1,1.98-.859,2.5,2.5,0,0,1,1.28.342,2.258,2.258,0,0,1,.867.907Zm-1.94,5.018a1.869,1.869,0,0,0,1.408-.62,2.218,2.218,0,0,0,0-2.99,1.821,1.821,0,0,0-1.407-.628,1.853,1.853,0,0,0-1.408.6,2.147,2.147,0,0,0-.573,1.519,2.115,2.115,0,0,0,.58,1.511,1.845,1.845,0,0,0,1.4.6Z" transform="translate(-323.572 -166.805)"/>
        <path id="Trazado_103074" data-name="Trazado 103074" d="M352.52,237.541a2.083,2.083,0,0,1-1.336-.421,1.5,1.5,0,0,1-.525-1.248,1.811,1.811,0,0,1,.167-.8,1.383,1.383,0,0,1,.5-.549,2.718,2.718,0,0,1,.716-.35,7.333,7.333,0,0,1,.93-.223l.986-.159c.358-.064.541-.254.541-.565a1.057,1.057,0,0,0-.382-.906,1.535,1.535,0,0,0-.97-.294,1.59,1.59,0,0,0-.954.278,1.2,1.2,0,0,0-.453.859l-.97-.207a1.877,1.877,0,0,1,.8-1.3,2.863,2.863,0,0,1,1.67-.437,3.436,3.436,0,0,1,.883.111,2.387,2.387,0,0,1,.74.342,1.543,1.543,0,0,1,.525.652,2.455,2.455,0,0,1,.191,1.01v2.481a1.026,1.026,0,0,0,.143.636.581.581,0,0,0,.477.167h.1v.8h-.6a1.018,1.018,0,0,1-1.153-.8H354.5A2.338,2.338,0,0,1,352.52,237.541Zm.254-.867a1.59,1.59,0,0,0,1.3-.6,2.385,2.385,0,0,0,.5-1.59l-1.59.31a2.092,2.092,0,0,0-.946.342.89.89,0,0,0-.016,1.336,1.233,1.233,0,0,0,.724.2Z" transform="translate(-325.571 -166.808)"/>
        <path id="Trazado_103075" data-name="Trazado 103075" d="M362.467,231.189a2.139,2.139,0,0,1,1.535.557,2.067,2.067,0,0,1,.572,1.59V237.4H363.5v-3.873a1.423,1.423,0,0,0-.374-1.089,1.312,1.312,0,0,0-.954-.358,1.5,1.5,0,0,0-1.089.421,1.742,1.742,0,0,0-.429,1.248v3.65H359.58v-6.107h1.073v.8A2.036,2.036,0,0,1,362.467,231.189Z" transform="translate(-327.398 -166.802)"/>
        <path id="Trazado_103076" data-name="Trazado 103076" d="M370.189,236.9a1.59,1.59,0,0,1-1.193-.437,1.646,1.646,0,0,1-.437-1.217v-3.594H367.31V230.8h.461a.9.9,0,0,0,.676-.215,1.074,1.074,0,0,0,.191-.716V228.76h1V230.8h1.4v.859h-1.4v3.483a.93.93,0,0,0,.231.668.8.8,0,0,0,.612.239h.557v.859Z" transform="translate(-328.982 -166.305)"/>
        <path id="Trazado_103077" data-name="Trazado 103077" d="M379.082,234.225v.294h-4.771a2.139,2.139,0,0,0,.58,1.59,1.98,1.98,0,0,0,2.386.254,1.869,1.869,0,0,0,.692-.8l.97.207a2.759,2.759,0,0,1-1.042,1.312,2.855,2.855,0,0,1-1.59.477,2.966,2.966,0,0,1-2.2-.851,3.634,3.634,0,0,1,0-4.644,2.911,2.911,0,0,1,2.163-.851,2.751,2.751,0,0,1,2.052.8A3.086,3.086,0,0,1,379.082,234.225ZM376.259,232a1.877,1.877,0,0,0-1.272.437,1.98,1.98,0,0,0-.644,1.256H378a1.79,1.79,0,0,0-.533-1.256,1.686,1.686,0,0,0-1.233-.413Z" transform="translate(-330.201 -166.809)"/>
      </g>
      <g id="Grupo_57744" data-name="Grupo 57744" transform="translate(254.566 92.704)">
        <path id="Trazado_103078" data-name="Trazado 103078" d="M323.867,117.109a2.712,2.712,0,0,1,2.068.8,2.934,2.934,0,0,1,.8,2.067,2.792,2.792,0,0,1-.8,2.052,2.728,2.728,0,0,1-2.068.8h-1.877V126H320.13v-8.89Zm-.318,4.2a1.336,1.336,0,0,0,1.026-.35,1.312,1.312,0,0,0,.342-.97,1.335,1.335,0,0,0-.342-.962,1.36,1.36,0,0,0-1.026-.358h-1.59v2.64Z" transform="translate(-320.13 -116.688)"/>
        <path id="Trazado_103079" data-name="Trazado 103079" d="M332.648,126.86a4.1,4.1,0,0,1-1.805-.39,2.941,2.941,0,0,1-1.24-1.153,3.386,3.386,0,0,1-.453-1.781,3.181,3.181,0,0,1,.97-2.386,4.048,4.048,0,0,1,5.065,0,3.531,3.531,0,0,1,0,4.859A3.594,3.594,0,0,1,332.648,126.86Zm0-1.423a1.646,1.646,0,0,0,1.264-.525,1.94,1.94,0,0,0,.477-1.376,1.98,1.98,0,0,0-.477-1.384,1.67,1.67,0,0,0-1.264-.517,1.59,1.59,0,0,0-1.225.525,2.219,2.219,0,0,0,0,2.751,1.59,1.59,0,0,0,1.209.525Z" transform="translate(-321.977 -117.334)"/>
        <path id="Trazado_103080" data-name="Trazado 103080" d="M341.745,126.849a3.634,3.634,0,0,1-1.869-.445,1.908,1.908,0,0,1-.907-1.336l1.495-.421a1.2,1.2,0,0,0,1.28.954,1.256,1.256,0,0,0,.652-.151.5.5,0,0,0,.254-.493.55.55,0,0,0-.1-.326.987.987,0,0,0-.326-.239l-.437-.167-.573-.167a5.925,5.925,0,0,1-.588-.183,3.772,3.772,0,0,1-.565-.239,2.131,2.131,0,0,1-.461-.326,1.327,1.327,0,0,1-.35-.5,1.837,1.837,0,0,1-.119-.684,1.638,1.638,0,0,1,.692-1.431,3.133,3.133,0,0,1,1.813-.485,3.181,3.181,0,0,1,1.67.414,1.845,1.845,0,0,1,.859,1.28l-1.392.31a1.074,1.074,0,0,0-1.129-.8,1.225,1.225,0,0,0-.628.143.485.485,0,0,0-.215.62.383.383,0,0,0,.127.151l.183.119a1.179,1.179,0,0,0,.255.1,2.3,2.3,0,0,0,.278.079l.326.087.334.087a5.565,5.565,0,0,1,.6.183,4.2,4.2,0,0,1,.549.262,2.114,2.114,0,0,1,.477.374,1.821,1.821,0,0,1,.318.533,2,2,0,0,1,.119.708,1.9,1.9,0,0,1-.215.922,1.59,1.59,0,0,1-.588.628,2.822,2.822,0,0,1-.8.334A4.328,4.328,0,0,1,341.745,126.849Z" transform="translate(-323.988 -117.323)"/>
        <path id="Trazado_103081" data-name="Trazado 103081" d="M348.262,118.64a1.024,1.024,0,0,1-.732-1.757,1.018,1.018,0,0,1,.732-.3,1.034,1.034,0,0,1,0,2.06Zm-.914,7.34v-6.362h1.805v6.362Z" transform="translate(-325.678 -116.58)"/>
        <path id="Trazado_103082" data-name="Trazado 103082" d="M354.173,126.225a1.917,1.917,0,0,1-1.447-.517,2.035,2.035,0,0,1-.509-1.479v-3.014H350.96V119.84h.406a1.026,1.026,0,0,0,.8-.27,1.336,1.336,0,0,0,.254-.946v-.843h1.59v2.06h1.32v1.376h-1.32v2.823c0,.557.247.8.74.8h.581v1.36Z" transform="translate(-326.444 -116.826)"/>
        <path id="Trazado_103083" data-name="Trazado 103083" d="M359.074,118.64a1,1,0,0,1-.732-.3.97.97,0,0,1-.3-.732.994.994,0,0,1,.3-.724,1.026,1.026,0,0,1,.732-.3,1.01,1.01,0,0,1,.724.3,1.026,1.026,0,0,1,0,1.455A1.01,1.01,0,0,1,359.074,118.64Zm-.914,7.34v-6.362h1.805v6.362Z" transform="translate(-327.894 -116.58)"/>
        <path id="Trazado_103084" data-name="Trazado 103084" d="M366.685,120.37h1.9l-2.728,6.362h-1.59l-2.688-6.362H363.5l1.59,4.366Z" transform="translate(-328.619 -117.356)"/>
        <path id="Trazado_103085" data-name="Trazado 103085" d="M374.1,126.86a4.111,4.111,0,0,1-1.813-.39,2.878,2.878,0,0,1-1.233-1.153,3.387,3.387,0,0,1-.453-1.781,3.109,3.109,0,0,1,.97-2.386,4.032,4.032,0,0,1,5.057,0,3.531,3.531,0,0,1,0,4.859A3.57,3.57,0,0,1,374.1,126.86Zm0-1.423a1.59,1.59,0,0,0,1.264-.525,1.916,1.916,0,0,0,.485-1.376,1.948,1.948,0,0,0-.485-1.384,1.646,1.646,0,0,0-1.264-.509,1.591,1.591,0,0,0-1.225.525,2.219,2.219,0,0,0,0,2.751A1.591,1.591,0,0,0,374.1,125.436Z" transform="translate(-330.466 -117.333)"/>
      </g>
      <g id="Grupo_57745" data-name="Grupo 57745" transform="translate(343.763 120.011)">
        <path id="Trazado_103086" data-name="Trazado 103086" d="M437.167,160.055a4.644,4.644,0,0,1-1.718-.31,4.294,4.294,0,0,1-1.384-.883,3.977,3.977,0,0,1-.922-1.423,5.376,5.376,0,0,1,0-3.753,4.032,4.032,0,0,1,.914-1.423,4.294,4.294,0,0,1,1.384-.883,4.835,4.835,0,0,1,3.427,0,3.961,3.961,0,0,1,2.3,2.3,5.073,5.073,0,0,1,.334,1.869,5.161,5.161,0,0,1-.334,1.885,4.048,4.048,0,0,1-.922,1.423,4.255,4.255,0,0,1-1.376.883A4.661,4.661,0,0,1,437.167,160.055Zm0-1.05a3.181,3.181,0,0,0,2.314-.922,3.411,3.411,0,0,0,.914-2.529,3.974,3.974,0,0,0-.246-1.447,2.944,2.944,0,0,0-.692-1.081,3.029,3.029,0,0,0-1.026-.66,3.466,3.466,0,0,0-1.264-.231,3.514,3.514,0,0,0-1.272.231,2.989,2.989,0,0,0-1.034.66,2.94,2.94,0,0,0-.692,1.081,3.975,3.975,0,0,0-.246,1.447,4.111,4.111,0,0,0,.247,1.471,2.98,2.98,0,0,0,.692,1.089,3.236,3.236,0,0,0,1.034.66A3.514,3.514,0,0,0,437.167,159.005Z" transform="translate(-432.403 -150.95)"/>
        <path id="Trazado_103087" data-name="Trazado 103087" d="M449.319,154.39a2.727,2.727,0,0,1,1.105.231,2.673,2.673,0,0,1,.906.62,2.911,2.911,0,0,1,.612,1.01,3.744,3.744,0,0,1,.231,1.32,3.181,3.181,0,0,1-.8,2.3,2.664,2.664,0,0,1-2.028.883,2.385,2.385,0,0,1-1.272-.35,2.305,2.305,0,0,1-.875-.938v4.23H446.13v-9.185h1.034v1.185a2.234,2.234,0,0,1,.875-.946,2.386,2.386,0,0,1,1.28-.358Zm-.207,5.423a1.837,1.837,0,0,0,1.407-.612,2.576,2.576,0,0,0,0-3.26,1.837,1.837,0,0,0-1.408-.612,1.885,1.885,0,0,0-1.439.636,2.513,2.513,0,0,0,0,3.181A1.885,1.885,0,0,0,449.112,159.813Z" transform="translate(-435.132 -151.631)"/>
        <path id="Trazado_103088" data-name="Trazado 103088" d="M456.91,155.6a1.86,1.86,0,0,1,.755-.8,2.314,2.314,0,0,1,1.177-.318v1.01a2,2,0,0,0-1.415.453,1.893,1.893,0,0,0-.493,1.447v3.26H455.86v-6.107h1.05Z" transform="translate(-437.125 -151.651)"/>
        <path id="Trazado_103089" data-name="Trazado 103089" d="M466.328,157.455v.294h-4.771a2.139,2.139,0,0,0,.581,1.59,1.908,1.908,0,0,0,1.392.549,1.853,1.853,0,0,0,1.01-.294,1.885,1.885,0,0,0,.7-.8l.97.207a2.807,2.807,0,0,1-1.042,1.312,2.855,2.855,0,0,1-1.59.477,2.966,2.966,0,0,1-2.2-.851,3.634,3.634,0,0,1,0-4.644,2.91,2.91,0,0,1,2.163-.851,2.751,2.751,0,0,1,2.052.8A3.085,3.085,0,0,1,466.328,157.455Zm-2.823-2.227a1.877,1.877,0,0,0-1.272.437,1.98,1.98,0,0,0-.644,1.256h3.658a1.79,1.79,0,0,0-.533-1.256,1.686,1.686,0,0,0-1.209-.437Z" transform="translate(-438.083 -151.642)"/>
        <path id="Trazado_103090" data-name="Trazado 103090" d="M471.741,160.739a2.887,2.887,0,0,1-1.646-.437,1.836,1.836,0,0,1-.8-1.256l.938-.27a1.288,1.288,0,0,0,.5.851,1.645,1.645,0,0,0,1,.3,2.242,2.242,0,0,0,.588-.08,1.017,1.017,0,0,0,.453-.3.8.8,0,0,0,.175-.557.659.659,0,0,0-.048-.254c0-.072-.064-.143-.1-.2a.509.509,0,0,0-.175-.167,1.527,1.527,0,0,0-.493-.246l-.294-.1-.342-.1-.35-.1a6.259,6.259,0,0,1-.636-.223,2.911,2.911,0,0,1-.517-.294,1.184,1.184,0,0,1-.4-.485,1.637,1.637,0,0,1-.135-.684,1.591,1.591,0,0,1,.294-.97,1.671,1.671,0,0,1,.8-.581,3.057,3.057,0,0,1,1.082-.175,2.671,2.671,0,0,1,1.487.4A1.7,1.7,0,0,1,473.88,156l-.883.223a1.193,1.193,0,0,0-.469-.8,1.463,1.463,0,0,0-.875-.262,1.5,1.5,0,0,0-.8.215.724.724,0,0,0-.342.66.676.676,0,0,0,.088.334.8.8,0,0,0,.517.421,3.388,3.388,0,0,0,.366.135l.445.111h.1l.581.167a4.307,4.307,0,0,1,.533.223,1.932,1.932,0,0,1,.477.334,1.667,1.667,0,0,1,.421,1.129,1.837,1.837,0,0,1-.183.8,1.59,1.59,0,0,1-.5.565,2.385,2.385,0,0,1-.716.3,3.245,3.245,0,0,1-.9.183Z" transform="translate(-439.878 -151.634)"/>
        <path id="Trazado_103091" data-name="Trazado 103091" d="M477.814,152.367a.692.692,0,0,1-.509-.215.708.708,0,0,1-.215-.517.692.692,0,0,1,.215-.509.716.716,0,0,1,.509-.207.732.732,0,0,1,.509.207.692.692,0,0,1,.215.509.732.732,0,0,1-.724.732Zm-.549,7.538V153.8h1.082v6.107Z" transform="translate(-441.473 -150.92)"/>
        <path id="Trazado_103092" data-name="Trazado 103092" d="M485,154.54h1.153l-2.489,6.107h-.914l-2.473-6.107h1.145l1.789,4.859Z" transform="translate(-442.127 -151.661)"/>
        <path id="Trazado_103093" data-name="Trazado 103093" d="M491.4,160.736a3.181,3.181,0,0,1-1.59-.382,2.736,2.736,0,0,1-1.105-1.105,3.411,3.411,0,0,1-.406-1.686,3.117,3.117,0,0,1,.867-2.306,3.252,3.252,0,0,1,4.421,0,3.18,3.18,0,0,1,.859,2.306,3.109,3.109,0,0,1-.867,2.306,2.966,2.966,0,0,1-2.179.867Zm0-.891a1.908,1.908,0,0,0,1.447-.628,2.385,2.385,0,0,0,.572-1.654,2.33,2.33,0,0,0-.572-1.646,1.877,1.877,0,0,0-1.447-.628,1.845,1.845,0,0,0-1.431.628,2.33,2.33,0,0,0-.573,1.646,2.385,2.385,0,0,0,.573,1.654,1.877,1.877,0,0,0,1.423.628Z" transform="translate(-443.768 -151.631)"/>
        <path id="Trazado_103094" data-name="Trazado 103094" d="M438.309,171.438h-3.6v2.855h3.181v1.01h-3.181v3.865H433.57V170.42H438.3Z" transform="translate(-432.56 -154.914)"/>
        <path id="Trazado_103095" data-name="Trazado 103095" d="M442.588,174.8a1.885,1.885,0,0,1,.8-.8,2.259,2.259,0,0,1,1.169-.318v1.01a2,2,0,0,0-1.415.453,1.893,1.893,0,0,0-.493,1.447v3.26H441.57v-6.107h1.05Z" transform="translate(-434.198 -155.583)"/>
        <path id="Trazado_103096" data-name="Trazado 103096" d="M447.372,171.567a.732.732,0,0,1-.732-.732.691.691,0,0,1,.215-.509.731.731,0,0,1,.517-.207.708.708,0,0,1,.5.207.692.692,0,0,1,.215.509.708.708,0,0,1-.215.517.684.684,0,0,1-.5.215Zm-.549,7.538V173H447.9v6.107Z" transform="translate(-435.237 -154.852)"/>
        <path id="Trazado_103097" data-name="Trazado 103097" d="M453.412,179.936a3.18,3.18,0,0,1-1.59-.382,2.721,2.721,0,0,1-1.1-1.105,3.411,3.411,0,0,1-.405-1.686,3.117,3.117,0,0,1,.867-2.306,3.244,3.244,0,0,1,4.413,0,3.5,3.5,0,0,1,0,4.612,2.982,2.982,0,0,1-2.187.867Zm0-.891a1.892,1.892,0,0,0,1.439-.628,2.385,2.385,0,0,0,.573-1.654,2.33,2.33,0,0,0-.573-1.646,1.964,1.964,0,0,0-2.879,0,2.694,2.694,0,0,0,0,3.3A1.877,1.877,0,0,0,453.412,179.045Z" transform="translate(-435.99 -155.563)"/>
        <path id="Trazado_103098" data-name="Trazado 103098" d="M438.932,198.369l-.747-2.083h-3.976l-.748,2.091H432.3l3.228-8.747h1.328l3.22,8.747Zm-4.35-3.069h3.252l-1.63-4.58Z" transform="translate(-432.3 -158.848)"/>
        <path id="Trazado_103099" data-name="Trazado 103099" d="M450.2,192.788a1.964,1.964,0,0,1,1.423.525,1.916,1.916,0,0,1,.541,1.455v4.246h-1.074v-3.976a1.36,1.36,0,0,0-.342-1.01,1.145,1.145,0,0,0-.851-.334,1.217,1.217,0,0,0-.93.382,1.678,1.678,0,0,0-.35,1.153v3.777h-1.1v-3.92a1.447,1.447,0,0,0-.334-1.042,1.145,1.145,0,0,0-.867-.35,1.193,1.193,0,0,0-.93.39,1.717,1.717,0,0,0-.358,1.185v3.737H444V192.9h1.074v.8a1.837,1.837,0,0,1,.7-.676,1.973,1.973,0,0,1,.97-.239,2.028,2.028,0,0,1,1.042.262,1.59,1.59,0,0,1,.676.74,1.893,1.893,0,0,1,.74-.74A2.052,2.052,0,0,1,450.2,192.788Z" transform="translate(-434.696 -159.493)"/>
        <path id="Trazado_103100" data-name="Trazado 103100" d="M462.108,195.855v.294h-4.771a2.139,2.139,0,0,0,.581,1.59,1.909,1.909,0,0,0,1.392.549,1.876,1.876,0,0,0,1.018-.294,1.916,1.916,0,0,0,.692-.8l.97.207a2.759,2.759,0,0,1-1.042,1.312,2.855,2.855,0,0,1-1.59.477,2.982,2.982,0,0,1-2.2-.851,3.634,3.634,0,0,1,0-4.644,2.91,2.91,0,0,1,2.163-.851,2.752,2.752,0,0,1,2.052.8A3.093,3.093,0,0,1,462.108,195.855Zm-2.823-2.227a1.877,1.877,0,0,0-1.272.437,1.98,1.98,0,0,0-.644,1.256h3.658a1.79,1.79,0,0,0-.533-1.256,1.686,1.686,0,0,0-1.209-.437Z" transform="translate(-437.219 -159.507)"/>
        <path id="Trazado_103101" data-name="Trazado 103101" d="M468.607,192.789a2.139,2.139,0,0,1,1.535.557,2.067,2.067,0,0,1,.572,1.59v4.111H469.64v-3.865a1.463,1.463,0,0,0-.374-1.1,1.312,1.312,0,0,0-.954-.35,1.487,1.487,0,0,0-1.089.414,1.742,1.742,0,0,0-.429,1.248v3.65H465.72v-6.107h1.073v.8a2.036,2.036,0,0,1,1.813-.946Z" transform="translate(-439.145 -159.495)"/>
        <path id="Trazado_103102" data-name="Trazado 103102" d="M475.9,199.141a2.035,2.035,0,0,1-1.336-.421,1.5,1.5,0,0,1-.525-1.248,1.749,1.749,0,0,1,.167-.8,1.352,1.352,0,0,1,.5-.557,2.722,2.722,0,0,1,.716-.35,6.269,6.269,0,0,1,.93-.215l.986-.167c.358-.064.541-.254.541-.565a1.058,1.058,0,0,0-.382-.907,1.742,1.742,0,0,0-1.924,0,1.169,1.169,0,0,0-.453.851l-.97-.2a1.908,1.908,0,0,1,.8-1.312,2.862,2.862,0,0,1,1.67-.437,3.433,3.433,0,0,1,.883.111,2.243,2.243,0,0,1,.74.342,1.543,1.543,0,0,1,.525.652,2.457,2.457,0,0,1,.191,1.01v2.521a1.025,1.025,0,0,0,.143.636.588.588,0,0,0,.477.167h.1v.8h-.533c-.66,0-1.05-.27-1.161-.8h-.048A2.338,2.338,0,0,1,475.9,199.141Zm.254-.867a1.646,1.646,0,0,0,1.312-.588,2.481,2.481,0,0,0,.493-1.59l-1.59.31a2.131,2.131,0,0,0-.946.342.891.891,0,0,0,0,1.336A1.233,1.233,0,0,0,476.154,198.274Z" transform="translate(-440.848 -159.5)"/>
        <path id="Trazado_103103" data-name="Trazado 103103" d="M483.638,198.18h3.252v.867H482l3.181-5.232h-3.03v-.875h4.676Z" transform="translate(-442.479 -159.526)"/>
        <path id="Trazado_103104" data-name="Trazado 103104" d="M491.048,199.139a2.044,2.044,0,0,1-1.344-.421,1.5,1.5,0,0,1-.525-1.248,1.75,1.75,0,0,1,.167-.8,1.351,1.351,0,0,1,.5-.557,2.719,2.719,0,0,1,.716-.35,6.518,6.518,0,0,1,.93-.215l.986-.167c.358-.064.541-.254.541-.565a1.057,1.057,0,0,0-.382-.906,1.534,1.534,0,0,0-.97-.294,1.591,1.591,0,0,0-.954.286,1.169,1.169,0,0,0-.453.851l-.97-.2a1.908,1.908,0,0,1,.8-1.312,2.863,2.863,0,0,1,1.67-.437,3.435,3.435,0,0,1,.883.111,2.244,2.244,0,0,1,.74.342,1.542,1.542,0,0,1,.525.652,2.456,2.456,0,0,1,.191,1.01v2.521a1.026,1.026,0,0,0,.143.636.6.6,0,0,0,.477.167h.1v.8h-.533c-.66,0-1.05-.27-1.161-.8h-.111a2.33,2.33,0,0,1-1.964.891Zm.247-.867a1.646,1.646,0,0,0,1.312-.588,2.482,2.482,0,0,0,.493-1.59l-1.59.31a2.13,2.13,0,0,0-.946.342.891.891,0,0,0,0,1.336,1.232,1.232,0,0,0,.732.191Z" transform="translate(-443.948 -159.498)"/>
        <path id="Trazado_103105" data-name="Trazado 103105" d="M501.017,192.789a2.123,2.123,0,0,1,1.535.557,2.067,2.067,0,0,1,.581,1.59v4.111H502.05v-3.865a1.463,1.463,0,0,0-.366-1.1,1.344,1.344,0,0,0-.962-.35,1.471,1.471,0,0,0-1.081.414,1.678,1.678,0,0,0-.429,1.248v3.65H498.13v-6.107h1.081v.8a2.028,2.028,0,0,1,1.805-.946Z" transform="translate(-445.782 -159.495)"/>
        <path id="Trazado_103106" data-name="Trazado 103106" d="M508.739,198.519a1.59,1.59,0,0,1-1.193-.437,1.647,1.647,0,0,1-.437-1.217v-3.61H505.86V192.4h.461a.9.9,0,0,0,.676-.215,1.073,1.073,0,0,0,.191-.716V190.36h1V192.4H509.6v.859H508.19v3.483a.93.93,0,0,0,.231.668.8.8,0,0,0,.612.239h.565v.859Z" transform="translate(-447.365 -158.998)"/>
        <path id="Trazado_103107" data-name="Trazado 103107" d="M517.638,195.855v.294h-4.771a2.139,2.139,0,0,0,.581,1.59,1.916,1.916,0,0,0,1.392.549,1.877,1.877,0,0,0,1.018-.294,1.918,1.918,0,0,0,.692-.8l.97.207a2.759,2.759,0,0,1-1.042,1.312,2.855,2.855,0,0,1-1.59.477,2.982,2.982,0,0,1-2.2-.851,3.634,3.634,0,0,1,0-4.644,2.91,2.91,0,0,1,2.163-.851,2.751,2.751,0,0,1,2.052.8,3.093,3.093,0,0,1,.74,2.211Zm-2.823-2.227a1.877,1.877,0,0,0-1.272.437,1.98,1.98,0,0,0-.644,1.256h3.666a1.829,1.829,0,0,0-.541-1.256A1.686,1.686,0,0,0,514.815,193.629Z" transform="translate(-448.591 -159.507)"/>
        <path id="Trazado_103108" data-name="Trazado 103108" d="M436.892,208.82a2.577,2.577,0,0,1,1.376.366,2.442,2.442,0,0,1,.914.97,2.856,2.856,0,0,1,.326,1.352,2.672,2.672,0,0,1-.724,1.9,2.489,2.489,0,0,1-1.893.8h-2.179v3.4H433.6v-8.747Zm-.159,4.382a1.591,1.591,0,0,0,1.217-.469,1.94,1.94,0,0,0,0-2.473,1.59,1.59,0,0,0-1.217-.477h-2.02V213.2Z" transform="translate(-432.566 -162.778)"/>
        <path id="Trazado_103109" data-name="Trazado 103109" d="M447.669,215.045v.294H442.9a2.139,2.139,0,0,0,.588,1.59,1.909,1.909,0,0,0,1.392.549,1.852,1.852,0,0,0,1.01-.294,1.94,1.94,0,0,0,.7-.8l.962.207a2.712,2.712,0,0,1-1.042,1.312,2.854,2.854,0,0,1-1.59.477,2.95,2.95,0,0,1-2.195-.851,3.618,3.618,0,0,1,0-4.644,2.926,2.926,0,0,1,2.115-.891,2.759,2.759,0,0,1,2.06.8A3.117,3.117,0,0,1,447.669,215.045Zm-2.831-2.25a1.869,1.869,0,0,0-1.264.437,1.979,1.979,0,0,0-.644,1.256h3.658a1.821,1.821,0,0,0-.533-1.256A1.718,1.718,0,0,0,444.838,212.795Z" transform="translate(-434.262 -163.429)"/>
        <path id="Trazado_103110" data-name="Trazado 103110" d="M453.079,218.355a2.926,2.926,0,0,1-1.654-.437,1.829,1.829,0,0,1-.8-1.256l.938-.27a1.288,1.288,0,0,0,.5.851,1.591,1.591,0,0,0,1,.3,2.289,2.289,0,0,0,.588-.079.954.954,0,0,0,.445-.3.8.8,0,0,0,.183-.557,1.211,1.211,0,0,0-.048-.254,1.164,1.164,0,0,0-.1-.2.509.509,0,0,0-.175-.167l-.207-.135a2.219,2.219,0,0,0-.278-.111l-.294-.1-.342-.1-.358-.1a6.027,6.027,0,0,1-.628-.223,2.657,2.657,0,0,1-.517-.294,1.2,1.2,0,0,1-.414-.541,1.638,1.638,0,0,1-.127-.684,1.591,1.591,0,0,1,.294-.978,1.733,1.733,0,0,1,.8-.572,3.1,3.1,0,0,1,1.089-.175,2.672,2.672,0,0,1,1.487.4,1.67,1.67,0,0,1,.74,1.193l-.883.223a1.161,1.161,0,0,0-.461-.8,1.487,1.487,0,0,0-.883-.262,1.519,1.519,0,0,0-.8.215.739.739,0,0,0-.342.66.6.6,0,0,0,.1.334.851.851,0,0,0,.183.239,1.034,1.034,0,0,0,.334.183,2.865,2.865,0,0,0,.358.135l.445.111h.1l.588.167a4.262,4.262,0,0,1,.525.223,1.67,1.67,0,0,1,.477.334,1.59,1.59,0,0,1,.3.469,1.775,1.775,0,0,1,.119.66,1.734,1.734,0,0,1-.183.8,1.359,1.359,0,0,1-.5.557,2.108,2.108,0,0,1-.708.31A3.244,3.244,0,0,1,453.079,218.355Z" transform="translate(-436.054 -163.423)"/>
        <path id="Trazado_103111" data-name="Trazado 103111" d="M459.95,218.371a2.084,2.084,0,0,1-1.336-.421,1.5,1.5,0,0,1-.525-1.248,1.815,1.815,0,0,1,.167-.8,1.415,1.415,0,0,1,.493-.549,2.9,2.9,0,0,1,.724-.35,7.523,7.523,0,0,1,.922-.223l.994-.159c.358-.064.541-.254.541-.565a1.058,1.058,0,0,0-.382-.907,1.535,1.535,0,0,0-.97-.294,1.59,1.59,0,0,0-.954.278,1.153,1.153,0,0,0-.453.859l-.97-.207a1.853,1.853,0,0,1,.8-1.3,2.831,2.831,0,0,1,1.662-.437,3.459,3.459,0,0,1,.891.111,2.387,2.387,0,0,1,.74.342,1.542,1.542,0,0,1,.525.652,2.459,2.459,0,0,1,.191,1.01v2.521a1.09,1.09,0,0,0,.135.636.6.6,0,0,0,.485.167h.1v.8h-.533a1.01,1.01,0,0,1-1.153-.8h-.04A2.322,2.322,0,0,1,459.95,218.371Zm.247-.867a1.591,1.591,0,0,0,1.312-.6,2.386,2.386,0,0,0,.5-1.59l-1.59.31a2.091,2.091,0,0,0-.946.342.889.889,0,0,0-.016,1.336,1.224,1.224,0,0,0,.739.175Z" transform="translate(-437.581 -163.439)"/>
        <path id="Trazado_103112" data-name="Trazado 103112" d="M471.275,207.82h1.074v9.542h-1.042v-1.185a2.251,2.251,0,0,1-.867.962,2.426,2.426,0,0,1-1.3.358,2.751,2.751,0,0,1-1.105-.231,2.68,2.68,0,0,1-.906-.636,2.838,2.838,0,0,1-.612-1.01,3.492,3.492,0,0,1-.231-1.3,3.237,3.237,0,0,1,.8-2.3,2.687,2.687,0,0,1,2.028-.883,2.433,2.433,0,0,1,1.28.35,2.289,2.289,0,0,1,.875.93Zm-1.932,8.747a1.853,1.853,0,0,0,1.423-.636,2.537,2.537,0,0,0,0-3.181,1.919,1.919,0,0,0-2.847-.024,2.3,2.3,0,0,0-.58,1.63,2.266,2.266,0,0,0,.58,1.59,1.861,1.861,0,0,0,1.423.612Z" transform="translate(-439.26 -162.573)"/>
        <path id="Trazado_103113" data-name="Trazado 103113" d="M479.092,218.364a3.181,3.181,0,0,1-1.59-.382,2.721,2.721,0,0,1-1.1-1.105,3.412,3.412,0,0,1-.406-1.694,3.109,3.109,0,0,1,.867-2.306,3.244,3.244,0,0,1,4.413,0,3.5,3.5,0,0,1,0,4.612A2.982,2.982,0,0,1,479.092,218.364Zm0-.891a1.892,1.892,0,0,0,1.447-.628,2.664,2.664,0,0,0,0-3.3,1.869,1.869,0,0,0-1.447-.628,1.845,1.845,0,0,0-1.431.628,2.7,2.7,0,0,0,0,3.3,1.877,1.877,0,0,0,1.423.6Z" transform="translate(-441.249 -163.432)"/>
        <path id="Trazado_103114" data-name="Trazado 103114" d="M442.744,236.747h-1.081l-.581-7.22-2.8,7.22h-.66l-2.775-7.157-.6,7.157H433.17l.66-8.747H435.3l2.648,6.823L440.613,228h1.471Z" transform="translate(-432.478 -166.706)"/>
        <path id="Trazado_103115" data-name="Trazado 103115" d="M449.08,237.541a2.083,2.083,0,0,1-1.336-.421,1.5,1.5,0,0,1-.525-1.248,1.81,1.81,0,0,1,.167-.8,1.383,1.383,0,0,1,.5-.549,2.719,2.719,0,0,1,.716-.35,7.326,7.326,0,0,1,.93-.223l.986-.159c.358-.064.541-.254.541-.565a1.058,1.058,0,0,0-.382-.906,1.535,1.535,0,0,0-.97-.294,1.59,1.59,0,0,0-.954.278,1.2,1.2,0,0,0-.453.859l-.97-.207a1.908,1.908,0,0,1,.8-1.3,2.863,2.863,0,0,1,1.67-.437,3.436,3.436,0,0,1,.883.111,2.321,2.321,0,0,1,.74.342,1.542,1.542,0,0,1,.525.652,2.457,2.457,0,0,1,.191,1.01v2.481a1.026,1.026,0,0,0,.143.636.588.588,0,0,0,.477.167h.1v.8h-.533c-.66,0-1.05-.27-1.161-.8h-.048A2.338,2.338,0,0,1,449.08,237.541Zm.254-.867a1.63,1.63,0,0,0,1.312-.6,2.449,2.449,0,0,0,.493-1.59l-1.59.31a2.131,2.131,0,0,0-.946.342.891.891,0,0,0,0,1.336A1.232,1.232,0,0,0,449.334,236.674Z" transform="translate(-435.355 -167.365)"/>
        <path id="Trazado_103116" data-name="Trazado 103116" d="M456.17,236.542V227h1.089v9.542Z" transform="translate(-437.189 -166.502)"/>
        <path id="Trazado_103117" data-name="Trazado 103117" d="M465.509,234.225v.294h-4.771a2.139,2.139,0,0,0,.588,1.59,1.909,1.909,0,0,0,1.392.549,1.853,1.853,0,0,0,1.01-.294,1.941,1.941,0,0,0,.7-.8l.97.207a2.767,2.767,0,0,1-1.05,1.312,2.855,2.855,0,0,1-1.59.477,2.95,2.95,0,0,1-2.195-.851,3.618,3.618,0,0,1,0-4.644,2.942,2.942,0,0,1,2.171-.851,2.752,2.752,0,0,1,2.052.8A3.069,3.069,0,0,1,465.509,234.225ZM462.686,232a1.877,1.877,0,0,0-1.272.437,1.98,1.98,0,0,0-.644,1.256h3.658a1.822,1.822,0,0,0-.533-1.256,1.7,1.7,0,0,0-1.2-.413Z" transform="translate(-437.916 -167.365)"/>
        <path id="Trazado_103118" data-name="Trazado 103118" d="M472.393,231.336h1.153l-2.489,6.091h-.914l-2.473-6.107h1.145l1.789,4.859Z" transform="translate(-439.544 -167.386)"/>
        <path id="Trazado_103119" data-name="Trazado 103119" d="M478.79,237.536a3.18,3.18,0,0,1-1.59-.382,2.735,2.735,0,0,1-1.105-1.105,3.41,3.41,0,0,1-.406-1.686,3.117,3.117,0,0,1,.867-2.306,3.252,3.252,0,0,1,4.421,0,3.5,3.5,0,0,1,0,4.612A3,3,0,0,1,478.79,237.536Zm0-.891a1.893,1.893,0,0,0,1.447-.628,2.386,2.386,0,0,0,.573-1.654,2.33,2.33,0,0,0-.573-1.646,1.869,1.869,0,0,0-1.447-.628,1.845,1.845,0,0,0-1.431.628,2.33,2.33,0,0,0-.573,1.646,2.385,2.385,0,0,0,.573,1.654,1.877,1.877,0,0,0,1.423.628Z" transform="translate(-441.186 -167.36)"/>
        <path id="Trazado_103120" data-name="Trazado 103120" d="M485.57,236.542V227h1.089v9.542Z" transform="translate(-443.21 -166.502)"/>
        <path id="Trazado_103121" data-name="Trazado 103121" d="M492.12,237.535a3.18,3.18,0,0,1-1.59-.382,2.687,2.687,0,0,1-1.105-1.105,3.411,3.411,0,0,1-.406-1.686,3.117,3.117,0,0,1,.867-2.306,3,3,0,0,1,2.2-.867,3.03,3.03,0,0,1,2.219.867,3.18,3.18,0,0,1,.859,2.306,3.11,3.11,0,0,1-.867,2.306A2.982,2.982,0,0,1,492.12,237.535Zm0-.891a1.876,1.876,0,0,0,1.439-.628,2.386,2.386,0,0,0,.581-1.654,2.338,2.338,0,0,0-.581-1.646,1.853,1.853,0,0,0-1.439-.628,1.821,1.821,0,0,0-1.431.628,2.33,2.33,0,0,0-.573,1.646,2.385,2.385,0,0,0,.573,1.654A1.852,1.852,0,0,0,492.12,236.645Z" transform="translate(-443.916 -167.359)"/>
      </g>
      <g id="Grupo_57746" data-name="Grupo 57746" transform="translate(344.542 92.704)">
        <path id="Trazado_103122" data-name="Trazado 103122" d="M439.419,117.11h1.853v8.978h-2.155l-3.976-6.417v6.417H433.28V117.11h2.163l3.976,6.362Z" transform="translate(-433.28 -116.689)"/>
        <path id="Trazado_103123" data-name="Trazado 103123" d="M451.805,123.433v.429h-4.771a1.638,1.638,0,0,0,.509,1.169,1.773,1.773,0,0,0,1.964.183,1.392,1.392,0,0,0,.541-.644l1.638.239a2.831,2.831,0,0,1-1.121,1.5,3.3,3.3,0,0,1-1.885.533,3.451,3.451,0,0,1-2.489-.883,3.181,3.181,0,0,1-.922-2.433,3.253,3.253,0,0,1,.922-2.441,3.364,3.364,0,0,1,2.433-.891,2.918,2.918,0,0,1,3.181,3.236Zm-3.181-1.972a1.415,1.415,0,0,0-1.551,1.233h2.934a1.344,1.344,0,0,0-.445-.915,1.408,1.408,0,0,0-.907-.318Z" transform="translate(-435.734 -117.318)"/>
        <path id="Trazado_103124" data-name="Trazado 103124" d="M459.458,120.331h1.7v5.908a4.773,4.773,0,0,1-.239,1.59,2.569,2.569,0,0,1-.692,1.089,2.9,2.9,0,0,1-1.066.612,4.388,4.388,0,0,1-1.391.2,3.147,3.147,0,0,1-3.292-1.98l1.487-.636a2.156,2.156,0,0,0,.684.93,1.757,1.757,0,0,0,1.05.294c1.105,0,1.662-.652,1.662-1.972V125.6a2.012,2.012,0,0,1-.8.628,2.7,2.7,0,0,1-1.137.239,2.847,2.847,0,0,1-1.121-.223,2.981,2.981,0,0,1-.93-.636,3.028,3.028,0,0,1-.628-1,3.761,3.761,0,0,1,0-2.592,2.856,2.856,0,0,1,.636-.986,2.656,2.656,0,0,1,.93-.62,2.839,2.839,0,0,1,1.129-.231,2.624,2.624,0,0,1,1.185.27,1.837,1.837,0,0,1,.8.7Zm-2.743,4.222a1.543,1.543,0,0,0,1.169.493,1.59,1.59,0,0,0,1.177-.493,1.789,1.789,0,0,0,0-2.433,1.662,1.662,0,0,0-2.386,0,1.7,1.7,0,0,0-.469,1.225,1.67,1.67,0,0,0,.509,1.209Z" transform="translate(-437.622 -117.317)"/>
        <path id="Trazado_103125" data-name="Trazado 103125" d="M470.331,125a5.972,5.972,0,0,0,.151,1.59v.175h-1.67l-.143-.692a2.059,2.059,0,0,1-.891.612,3.371,3.371,0,0,1-1.161.207,3.613,3.613,0,0,1-.6-.056,2.132,2.132,0,0,1-.533-.191,1.589,1.589,0,0,1-.445-.334,1.321,1.321,0,0,1-.294-.509,1.853,1.853,0,0,1-.119-.692,1.916,1.916,0,0,1,.119-.692,1.653,1.653,0,0,1,.31-.517,1.981,1.981,0,0,1,.509-.382,3.973,3.973,0,0,1,.628-.27,7.442,7.442,0,0,1,.8-.2l1.05-.239a1.042,1.042,0,0,0,.469-.2.4.4,0,0,0,.143-.318.676.676,0,0,0-.31-.62,1.59,1.59,0,0,0-.8-.183,1.1,1.1,0,0,0-1.248.978l-1.59-.286a2.147,2.147,0,0,1,.922-1.463,3.7,3.7,0,0,1,2-.469q2.688,0,2.688,2.306Zm-3.181.644a1.431,1.431,0,0,0,1.105-.461,1.933,1.933,0,0,0,.429-1.368l-1.519.429a1.7,1.7,0,0,0-.636.262.541.541,0,0,0-.223.461.589.589,0,0,0,.239.5.97.97,0,0,0,.636.151Z" transform="translate(-439.701 -117.33)"/>
        <path id="Trazado_103126" data-name="Trazado 103126" d="M476.045,126.225a1.9,1.9,0,0,1-1.439-.517,2,2,0,0,1-.509-1.479v-3.014H472.84V119.84h.406a1.049,1.049,0,0,0,.8-.27,1.375,1.375,0,0,0,.254-.946v-.843h1.59v2.06H477.2v1.376h-1.288v2.823c0,.557.247.8.739.8h.573v1.36Z" transform="translate(-441.382 -116.826)"/>
        <path id="Trazado_103127" data-name="Trazado 103127" d="M480.974,118.64a1.018,1.018,0,0,1-.732-.3,1,1,0,0,1-.3-.732.979.979,0,0,1,.31-.724,1.026,1.026,0,1,1,1.447,1.455A.994.994,0,0,1,480.974,118.64Zm-.906,7.34v-6.362h1.8v6.362Z" transform="translate(-442.836 -116.58)"/>
        <path id="Trazado_103128" data-name="Trazado 103128" d="M488.605,120.37H490.5l-2.72,6.362h-1.59L483.5,120.37h1.885l1.59,4.366Z" transform="translate(-443.565 -117.356)"/>
        <path id="Trazado_103129" data-name="Trazado 103129" d="M496,126.86a4.1,4.1,0,0,1-1.805-.39,2.942,2.942,0,0,1-1.241-1.153,3.387,3.387,0,0,1-.453-1.781,3.18,3.18,0,0,1,.97-2.386,4.047,4.047,0,0,1,5.065,0,3.531,3.531,0,0,1,0,4.859,3.594,3.594,0,0,1-2.537.851Zm0-1.423a1.646,1.646,0,0,0,1.264-.525,1.94,1.94,0,0,0,.477-1.376,1.98,1.98,0,0,0-.477-1.384,1.67,1.67,0,0,0-1.264-.517,1.59,1.59,0,0,0-1.233.525,2.25,2.25,0,0,0,0,2.751,1.59,1.59,0,0,0,1.217.525Z" transform="translate(-445.408 -117.334)"/>
      </g>
    </g>
    <path id="Trazado_818178" data-name="Trazado 818178" d="M361.355,152.7l1.59-2.02.573.414-.716.818-.675.772Z" transform="translate(820.345 9375.62)"/>
  </g>
</svg>
