<svg xmlns="http://www.w3.org/2000/svg" xmlns:xlink="http://www.w3.org/1999/xlink" width="210" height="210" viewBox="0 0 210 210">
  <defs>
    <clipPath id="clip-path">
      <rect id="Rectángulo_4629" data-name="Rectángulo 4629" width="162.323" height="177.056" fill="none"/>
    </clipPath>
  </defs>
  <g id="Grupo_1072317" data-name="Grupo 1072317" transform="translate(-390 -14677.945)">
    <g id="Grupo_57658" data-name="Grupo 57658" transform="translate(0 12337)">
      <rect id="Rectángulo_5290" data-name="Rectángulo 5290" width="210" height="210" rx="10" transform="translate(390 2340.945)" fill="#fff"/>
    </g>
    <g id="luz" transform="translate(417.677 14694)">
      <g id="Grupo_31590" data-name="Grupo 31590">
        <g id="Grupo_31589" data-name="Grupo 31589" clip-path="url(#clip-path)">
          <path id="Trazado_28978" data-name="Trazado 28978" d="M61.755,76.461A50.34,50.34,0,0,1,81.139,29.346a50.443,50.443,0,1,0-49.732,86.787A50.492,50.492,0,0,1,61.755,76.459" transform="translate(0.023 3.518)" fill="#ea2c1c"/>
          <path id="Trazado_28979" data-name="Trazado 28979" d="M61.755,76.461A50.34,50.34,0,0,1,81.139,29.346a50.443,50.443,0,1,0-49.732,86.787A50.492,50.492,0,0,1,61.755,76.461Z" transform="translate(0.023 3.518)" fill="none" stroke="#000" stroke-miterlimit="10" stroke-width="0.25"/>
          <path id="Trazado_28980" data-name="Trazado 28980" d="M149.481,69.458A50.437,50.437,0,0,0,68.468,29.338,50.356,50.356,0,0,1,88.343,69.458a50.814,50.814,0,0,1-.471,6.811,50.492,50.492,0,0,1,30.786,39.675A50.458,50.458,0,0,0,149.478,69.46" transform="translate(12.693 3.526)" fill="#12903f"/>
          <path id="Trazado_28981" data-name="Trazado 28981" d="M149.481,69.458A50.437,50.437,0,0,0,68.468,29.338,50.356,50.356,0,0,1,88.343,69.458a50.814,50.814,0,0,1-.471,6.811,50.492,50.492,0,0,1,30.786,39.675,50.458,50.458,0,0,0,30.822-46.486Z" transform="translate(12.693 3.526)" fill="none" stroke="#000" stroke-miterlimit="10" stroke-width="0.25"/>
          <path id="Trazado_28982" data-name="Trazado 28982" d="M51.7,67.845a50.776,50.776,0,0,0,.494,6.994,50.554,50.554,0,0,1,38.79-.182,50.814,50.814,0,0,0,.471-6.811A50.356,50.356,0,0,0,71.577,27.724,50.357,50.357,0,0,0,51.7,67.845" transform="translate(9.584 5.14)" fill="#fef011"/>
          <path id="Trazado_28983" data-name="Trazado 28983" d="M51.7,67.845a50.776,50.776,0,0,0,.494,6.994,50.554,50.554,0,0,1,38.79-.182,50.814,50.814,0,0,0,.471-6.811A50.356,50.356,0,0,0,71.577,27.724,50.357,50.357,0,0,0,51.7,67.845Z" transform="translate(9.584 5.14)" fill="none" stroke="#000" stroke-miterlimit="10" stroke-width="0.25"/>
          <path id="Trazado_28984" data-name="Trazado 28984" d="M76.328,95.414A50.44,50.44,0,0,1,26.6,101.959a50.444,50.444,0,1,0,99.926-.183,50.484,50.484,0,0,1-50.194-6.362" transform="translate(4.833 17.69)" fill="#002172"/>
          <path id="Trazado_28985" data-name="Trazado 28985" d="M76.328,95.415A50.44,50.44,0,0,1,26.6,101.96a50.444,50.444,0,1,0,99.926-.183,50.486,50.486,0,0,1-50.194-6.362Z" transform="translate(4.833 17.689)" fill="none" stroke="#000" stroke-miterlimit="10" stroke-width="0.25"/>
          <path id="Trazado_28986" data-name="Trazado 28986" d="M76.246,100.6A50.391,50.391,0,0,1,56.862,67.471a50.493,50.493,0,0,0-30.348,39.672A50.435,50.435,0,0,0,76.246,100.6" transform="translate(4.916 12.509)" fill="#e53477"/>
          <path id="Trazado_28987" data-name="Trazado 28987" d="M76.246,100.6A50.391,50.391,0,0,1,56.862,67.471a50.493,50.493,0,0,0-30.348,39.672A50.435,50.435,0,0,0,76.246,100.6Z" transform="translate(4.916 12.509)" fill="none" stroke="#000" stroke-miterlimit="10" stroke-width="0.25"/>
          <path id="Trazado_28988" data-name="Trazado 28988" d="M87.874,67.313a50.389,50.389,0,0,1-19.406,33.308,50.479,50.479,0,0,0,50.194,6.364A50.488,50.488,0,0,0,87.876,67.311" transform="translate(12.693 12.483)" fill="#009ae0"/>
          <path id="Trazado_28989" data-name="Trazado 28989" d="M87.874,67.316a50.389,50.389,0,0,1-19.406,33.308,50.479,50.479,0,0,0,50.194,6.364A50.488,50.488,0,0,0,87.874,67.316Z" transform="translate(12.693 12.48)" fill="none" stroke="#000" stroke-miterlimit="10" stroke-width="0.25"/>
          <path id="Trazado_28990" data-name="Trazado 28990" d="M52.114,68.089A50.387,50.387,0,0,0,71.5,101.214,50.387,50.387,0,0,0,90.9,67.907a50.538,50.538,0,0,0-38.79.182" transform="translate(9.664 11.889)" fill="#fff"/>
          <path id="Trazado_28991" data-name="Trazado 28991" d="M52.114,68.089A50.387,50.387,0,0,0,71.5,101.214,50.387,50.387,0,0,0,90.9,67.907a50.538,50.538,0,0,0-38.79.182Z" transform="translate(9.664 11.889)" fill="none" stroke="#000" stroke-miterlimit="10" stroke-width="0.25"/>
        </g>
      </g>
      <path id="Amarillo" d="M4.437,0H3.8l-.52-1.374H1.2L.714,0H.075l1.88-4.9H2.55ZM3.093-1.89,2.324-3.979a2,2,0,0,1-.075-.328H2.235a1.831,1.831,0,0,1-.079.328L1.395-1.89ZM10.052,0H9.492V-2.01a1.516,1.516,0,0,0-.179-.841.681.681,0,0,0-.6-.26.747.747,0,0,0-.61.328A1.255,1.255,0,0,0,7.848-2V0H7.287V-2.078q0-1.032-.8-1.032a.738.738,0,0,0-.608.309,1.279,1.279,0,0,0-.239.8V0H5.083V-3.5h.561v.554h.014a1.189,1.189,0,0,1,1.087-.636,1.013,1.013,0,0,1,.625.2,1.006,1.006,0,0,1,.366.525A1.249,1.249,0,0,1,8.9-3.582q1.155,0,1.155,1.425Zm3.565,0h-.561V-.547h-.014a1.174,1.174,0,0,1-1.077.629,1.151,1.151,0,0,1-.819-.277.959.959,0,0,1-.3-.735q0-.981,1.155-1.142l1.049-.147q0-.892-.721-.892a1.723,1.723,0,0,0-1.142.431v-.574a2.169,2.169,0,0,1,1.189-.328q1.234,0,1.234,1.306Zm-.561-1.771-.844.116a1.371,1.371,0,0,0-.588.193.557.557,0,0,0-.2.49.534.534,0,0,0,.183.419A.707.707,0,0,0,12.1-.39a.9.9,0,0,0,.689-.292,1.044,1.044,0,0,0,.272-.74ZM16.5-2.933a.685.685,0,0,0-.424-.113.715.715,0,0,0-.6.338,1.564,1.564,0,0,0-.241.923V0h-.561V-3.5h.561v.721h.014a1.222,1.222,0,0,1,.366-.576.834.834,0,0,1,.55-.207.915.915,0,0,1,.335.048Zm.9-1.456a.355.355,0,0,1-.256-.1.346.346,0,0,1-.106-.26.352.352,0,0,1,.106-.261.352.352,0,0,1,.256-.1.362.362,0,0,1,.261.1.349.349,0,0,1,.108.261.346.346,0,0,1-.108.256A.359.359,0,0,1,17.394-4.389ZM17.667,0h-.561V-3.5h.561Zm1.7,0H18.8V-5.182h.561Zm1.7,0H20.5V-5.182h.561Zm2.6.082a1.623,1.623,0,0,1-1.239-.49,1.817,1.817,0,0,1-.463-1.3,1.893,1.893,0,0,1,.482-1.377,1.733,1.733,0,0,1,1.3-.5A1.57,1.57,0,0,1,24.96-3.1,1.911,1.911,0,0,1,25.4-1.764a1.88,1.88,0,0,1-.473,1.342A1.659,1.659,0,0,1,23.656.082ZM23.7-3.11a1.066,1.066,0,0,0-.854.367,1.509,1.509,0,0,0-.314,1.013,1.427,1.427,0,0,0,.318.981A1.08,1.08,0,0,0,23.7-.39a1.025,1.025,0,0,0,.836-.352,1.528,1.528,0,0,0,.292-1,1.554,1.554,0,0,0-.292-1.012A1.02,1.02,0,0,0,23.7-3.11Z" transform="translate(65.89 67.596)"/>
      <path id="Azul" d="M5.07,0H4.344L3.75-1.57H1.375L.816,0H.086L2.234-5.6h.68ZM3.535-2.16,2.656-4.547a2.285,2.285,0,0,1-.086-.375H2.555a2.092,2.092,0,0,1-.09.375L1.594-2.16ZM8.6-3.816,6.23-.547H8.574V0H5.289V-.2L7.656-3.453H5.512V-4H8.6ZM12.66,0H12.02V-.633H12A1.316,1.316,0,0,1,10.77.094q-1.43,0-1.43-1.7V-4h.637v2.289q0,1.266.969,1.266a.98.98,0,0,0,.771-.346,1.323,1.323,0,0,0,.3-.9V-4h.641Zm1.934,0h-.641V-5.922h.641Z" transform="translate(72.06 142.409)" fill="#fff"/>
      <path id="Cian" d="M3.979-.205A2.875,2.875,0,0,1,2.625.082,2.183,2.183,0,0,1,.95-.591,2.485,2.485,0,0,1,.321-2.358a2.6,2.6,0,0,1,.708-1.9,2.4,2.4,0,0,1,1.794-.725,2.877,2.877,0,0,1,1.155.2v.612a2.343,2.343,0,0,0-1.162-.294A1.783,1.783,0,0,0,1.448-3.9,2.125,2.125,0,0,0,.923-2.393a2.022,2.022,0,0,0,.49,1.427A1.669,1.669,0,0,0,2.7-.434,2.414,2.414,0,0,0,3.979-.762Zm1.21-4.184a.355.355,0,0,1-.256-.1.346.346,0,0,1-.106-.26.352.352,0,0,1,.106-.261.352.352,0,0,1,.256-.1.362.362,0,0,1,.261.1.349.349,0,0,1,.108.261.346.346,0,0,1-.108.256A.359.359,0,0,1,5.188-4.389ZM5.462,0H4.9V-3.5h.561ZM9.1,0H8.542V-.547H8.528A1.174,1.174,0,0,1,7.451.082a1.151,1.151,0,0,1-.819-.277.959.959,0,0,1-.3-.735q0-.981,1.155-1.142l1.049-.147q0-.892-.721-.892a1.723,1.723,0,0,0-1.142.431v-.574a2.169,2.169,0,0,1,1.189-.328Q9.1-3.582,9.1-2.276ZM8.542-1.771,7.7-1.654a1.371,1.371,0,0,0-.588.193.557.557,0,0,0-.2.49.534.534,0,0,0,.183.419.707.707,0,0,0,.487.162A.9.9,0,0,0,8.27-.682a1.044,1.044,0,0,0,.272-.74ZM13.063,0H12.5V-2q0-1.114-.813-1.114a.882.882,0,0,0-.7.316,1.172,1.172,0,0,0-.275.8V0h-.561V-3.5h.561v.581h.014a1.263,1.263,0,0,1,1.148-.663,1.071,1.071,0,0,1,.878.371,1.652,1.652,0,0,1,.3,1.072Z" transform="translate(100.376 113.743)" fill="#fff"/>
      <path id="Magenta" d="M5.64,0H5.069V-3.288q0-.39.048-.954H5.1a3.049,3.049,0,0,1-.147.475L3.281,0H3L1.33-3.739a2.93,2.93,0,0,1-.147-.5H1.169q.027.294.027.96V0H.643V-4.9H1.4l1.5,3.418A4.376,4.376,0,0,1,3.131-.9h.021q.147-.4.236-.6L4.922-4.9H5.64ZM9.358,0H8.8V-.547H8.784A1.174,1.174,0,0,1,7.708.082a1.151,1.151,0,0,1-.819-.277.959.959,0,0,1-.3-.735q0-.981,1.155-1.142L8.8-2.218q0-.892-.721-.892a1.723,1.723,0,0,0-1.142.431v-.574a2.169,2.169,0,0,1,1.189-.328q1.234,0,1.234,1.306ZM8.8-1.771l-.844.116a1.371,1.371,0,0,0-.588.193.557.557,0,0,0-.2.49.534.534,0,0,0,.183.419.707.707,0,0,0,.487.162.9.9,0,0,0,.689-.292,1.044,1.044,0,0,0,.272-.74ZM13.4-.28q0,1.928-1.846,1.928A2.478,2.478,0,0,1,10.421,1.4V.841a2.331,2.331,0,0,0,1.128.328q1.292,0,1.292-1.374V-.588h-.014a1.311,1.311,0,0,1-1.2.67,1.314,1.314,0,0,1-1.051-.467,1.865,1.865,0,0,1-.4-1.253A2.179,2.179,0,0,1,10.6-3.056a1.433,1.433,0,0,1,1.174-.526,1.141,1.141,0,0,1,1.049.567h.014V-3.5H13.4Zm-.561-1.3V-2.1a1,1,0,0,0-.282-.714.928.928,0,0,0-.7-.3.973.973,0,0,0-.813.378,1.686,1.686,0,0,0-.294,1.058,1.447,1.447,0,0,0,.282.935.911.911,0,0,0,.747.35.976.976,0,0,0,.767-.335A1.249,1.249,0,0,0,12.841-1.583ZM17.35-1.61H14.878a1.309,1.309,0,0,0,.314.9,1.084,1.084,0,0,0,.827.318,1.72,1.72,0,0,0,1.087-.39v.526a2.031,2.031,0,0,1-1.22.335,1.479,1.479,0,0,1-1.166-.477A1.952,1.952,0,0,1,14.3-1.736a1.914,1.914,0,0,1,.463-1.331,1.485,1.485,0,0,1,1.15-.514,1.316,1.316,0,0,1,1.063.444A1.853,1.853,0,0,1,17.35-1.9Zm-.574-.475a1.14,1.14,0,0,0-.234-.755.8.8,0,0,0-.641-.27.905.905,0,0,0-.673.284,1.287,1.287,0,0,0-.342.742ZM21.1,0h-.561V-2q0-1.114-.813-1.114a.882.882,0,0,0-.7.316,1.172,1.172,0,0,0-.275.8V0H18.2V-3.5h.561v.581h.014a1.263,1.263,0,0,1,1.148-.663,1.071,1.071,0,0,1,.878.371,1.652,1.652,0,0,1,.3,1.072Zm2.68-.034a1.081,1.081,0,0,1-.523.109q-.919,0-.919-1.025V-3.021h-.6V-3.5h.6v-.854l.561-.181V-3.5h.882v.479H22.9v1.972a.818.818,0,0,0,.12.5.477.477,0,0,0,.4.15.589.589,0,0,0,.366-.116ZM27.036,0h-.561V-.547h-.014a1.174,1.174,0,0,1-1.077.629,1.151,1.151,0,0,1-.819-.277.959.959,0,0,1-.3-.735q0-.981,1.155-1.142l1.049-.147q0-.892-.721-.892a1.723,1.723,0,0,0-1.142.431v-.574A2.169,2.169,0,0,1,25.8-3.582q1.234,0,1.234,1.306Zm-.561-1.771-.844.116a1.371,1.371,0,0,0-.588.193.557.557,0,0,0-.2.49.534.534,0,0,0,.183.419.707.707,0,0,0,.487.162A.9.9,0,0,0,26.2-.682a1.044,1.044,0,0,0,.272-.74Z" transform="translate(37.703 113.743)" fill="#fff"/>
      <path id="Verde" d="M4.9-5.6,2.824,0H2.1L.07-5.6H.8L2.352-1.16a2.637,2.637,0,0,1,.113.5H2.48a2.433,2.433,0,0,1,.129-.5L4.191-5.6ZM8.512-1.84H5.688A1.5,1.5,0,0,0,6.047-.809a1.239,1.239,0,0,0,.945.363A1.965,1.965,0,0,0,8.235-.891v.6A2.322,2.322,0,0,1,6.84.094,1.691,1.691,0,0,1,5.508-.451a2.23,2.23,0,0,1-.484-1.533,2.187,2.187,0,0,1,.529-1.521,1.7,1.7,0,0,1,1.314-.588,1.5,1.5,0,0,1,1.215.508,2.117,2.117,0,0,1,.43,1.41Zm-.656-.543a1.3,1.3,0,0,0-.268-.863.912.912,0,0,0-.732-.309,1.035,1.035,0,0,0-.77.324,1.471,1.471,0,0,0-.391.848Zm3.711-.969a.783.783,0,0,0-.484-.129.818.818,0,0,0-.686.387,1.788,1.788,0,0,0-.275,1.055V0H9.481V-4h.641v.824h.016a1.4,1.4,0,0,1,.418-.658.953.953,0,0,1,.629-.236,1.046,1.046,0,0,1,.383.055ZM15.676,0h-.641V-.68H15.02a1.479,1.479,0,0,1-1.375.773A1.494,1.494,0,0,1,12.44-.443a2.2,2.2,0,0,1-.451-1.463,2.4,2.4,0,0,1,.5-1.59,1.649,1.649,0,0,1,1.332-.6,1.282,1.282,0,0,1,1.2.648h.016V-5.922h.641Zm-.641-1.809V-2.4a1.144,1.144,0,0,0-.32-.82,1.074,1.074,0,0,0-.812-.336,1.106,1.106,0,0,0-.922.43,1.883,1.883,0,0,0-.336,1.188,1.693,1.693,0,0,0,.322,1.092,1.053,1.053,0,0,0,.865.4A1.094,1.094,0,0,0,14.7-.832,1.441,1.441,0,0,0,15.035-1.809Zm5.152-.031H17.364a1.5,1.5,0,0,0,.359,1.031,1.239,1.239,0,0,0,.945.363A1.965,1.965,0,0,0,19.91-.891v.6a2.322,2.322,0,0,1-1.395.383,1.691,1.691,0,0,1-1.332-.545A2.23,2.23,0,0,1,16.7-1.984a2.187,2.187,0,0,1,.529-1.521,1.7,1.7,0,0,1,1.314-.588,1.5,1.5,0,0,1,1.215.508,2.117,2.117,0,0,1,.43,1.41Zm-.656-.543a1.3,1.3,0,0,0-.268-.863.912.912,0,0,0-.732-.309,1.035,1.035,0,0,0-.77.324,1.471,1.471,0,0,0-.391.848Z" transform="translate(116.884 68.3)" fill="#fff"/>
      <path id="Rojo" d="M4.75,0H3.969L3.031-1.57a3.42,3.42,0,0,0-.25-.373A1.425,1.425,0,0,0,2.533-2.2a.859.859,0,0,0-.273-.143,1.124,1.124,0,0,0-.33-.045H1.391V0H.734V-5.6H2.406a2.383,2.383,0,0,1,.678.092,1.516,1.516,0,0,1,.539.279,1.3,1.3,0,0,1,.357.467,1.548,1.548,0,0,1,.129.654,1.576,1.576,0,0,1-.088.537,1.4,1.4,0,0,1-.25.436,1.515,1.515,0,0,1-.391.326,1.994,1.994,0,0,1-.514.209v.016a1.181,1.181,0,0,1,.244.143,1.344,1.344,0,0,1,.2.189,2.509,2.509,0,0,1,.186.248q.092.139.205.322ZM1.391-5.008v2.031h.891a1.351,1.351,0,0,0,.455-.074A1.054,1.054,0,0,0,3.1-3.264a.965.965,0,0,0,.238-.34,1.138,1.138,0,0,0,.086-.451.878.878,0,0,0-.291-.7,1.25,1.25,0,0,0-.842-.252ZM6.945.094A1.855,1.855,0,0,1,5.529-.467,2.076,2.076,0,0,1,5-1.953a2.163,2.163,0,0,1,.551-1.574,1.98,1.98,0,0,1,1.488-.566,1.794,1.794,0,0,1,1.4.551,2.184,2.184,0,0,1,.5,1.527A2.149,2.149,0,0,1,8.4-.482,1.9,1.9,0,0,1,6.945.094Zm.047-3.648a1.219,1.219,0,0,0-.977.42,1.725,1.725,0,0,0-.359,1.158A1.631,1.631,0,0,0,6.02-.855a1.235,1.235,0,0,0,.973.41,1.171,1.171,0,0,0,.955-.4,1.746,1.746,0,0,0,.334-1.145,1.776,1.776,0,0,0-.334-1.156A1.166,1.166,0,0,0,6.992-3.555ZM10.6-.168a2.507,2.507,0,0,1-.4,1.518,1.329,1.329,0,0,1-1.135.533,1.2,1.2,0,0,1-.531-.125v-.6a1.06,1.06,0,0,0,.547.176q.875,0,.875-1.4V-4H10.6Zm-.312-4.848A.406.406,0,0,1,10-5.133a.4.4,0,0,1-.121-.3.4.4,0,0,1,.121-.3.4.4,0,0,1,.293-.119.414.414,0,0,1,.3.119.4.4,0,0,1,.123.3.4.4,0,0,1-.123.293A.41.41,0,0,1,10.289-5.016ZM13.57.094a1.855,1.855,0,0,1-1.416-.561,2.076,2.076,0,0,1-.529-1.486,2.163,2.163,0,0,1,.551-1.574,1.98,1.98,0,0,1,1.488-.566,1.794,1.794,0,0,1,1.4.551,2.184,2.184,0,0,1,.5,1.527,2.149,2.149,0,0,1-.541,1.533A1.9,1.9,0,0,1,13.57.094Zm.047-3.648a1.219,1.219,0,0,0-.977.42,1.725,1.725,0,0,0-.359,1.158,1.631,1.631,0,0,0,.363,1.121,1.235,1.235,0,0,0,.973.41,1.171,1.171,0,0,0,.955-.4,1.746,1.746,0,0,0,.334-1.145,1.776,1.776,0,0,0-.334-1.156A1.166,1.166,0,0,0,13.617-3.555Z" transform="translate(22.754 68.3)" fill="#fff"/>
      <g id="Grupo_1072577" data-name="Grupo 1072577">
        <path id="Colores_luz" data-name="Colores luz" d="M6.82-.352A4.928,4.928,0,0,1,4.5.141,3.742,3.742,0,0,1,1.629-1.014,4.259,4.259,0,0,1,.551-4.043,4.464,4.464,0,0,1,1.764-7.3,4.117,4.117,0,0,1,4.84-8.543,4.932,4.932,0,0,1,6.82-8.2v1.049a4.016,4.016,0,0,0-1.992-.5,3.057,3.057,0,0,0-2.347.967,3.642,3.642,0,0,0-.9,2.584,3.465,3.465,0,0,0,.841,2.446,2.861,2.861,0,0,0,2.206.911A4.139,4.139,0,0,0,6.82-1.307Zm4.09.492A2.783,2.783,0,0,1,8.786-.7,3.114,3.114,0,0,1,7.992-2.93a3.244,3.244,0,0,1,.826-2.361,2.97,2.97,0,0,1,2.232-.85,2.691,2.691,0,0,1,2.095.826A3.276,3.276,0,0,1,13.9-3.023a3.223,3.223,0,0,1-.812,2.3A2.844,2.844,0,0,1,10.91.141Zm.07-5.473a1.828,1.828,0,0,0-1.465.63,2.587,2.587,0,0,0-.539,1.737,2.447,2.447,0,0,0,.545,1.682,1.852,1.852,0,0,0,1.459.615,1.757,1.757,0,0,0,1.433-.6,2.619,2.619,0,0,0,.5-1.717,2.664,2.664,0,0,0-.5-1.734A1.749,1.749,0,0,0,10.98-5.332ZM16.395,0h-.961V-8.883h.961Zm4.453.141A2.783,2.783,0,0,1,18.724-.7,3.114,3.114,0,0,1,17.93-2.93a3.244,3.244,0,0,1,.826-2.361,2.97,2.97,0,0,1,2.232-.85,2.691,2.691,0,0,1,2.095.826,3.276,3.276,0,0,1,.753,2.291,3.223,3.223,0,0,1-.812,2.3A2.844,2.844,0,0,1,20.848.141Zm.07-5.473a1.828,1.828,0,0,0-1.465.63,2.587,2.587,0,0,0-.539,1.737,2.447,2.447,0,0,0,.545,1.682,1.852,1.852,0,0,0,1.459.615,1.757,1.757,0,0,0,1.433-.6,2.619,2.619,0,0,0,.5-1.717,2.664,2.664,0,0,0-.5-1.734A1.749,1.749,0,0,0,20.918-5.332Zm7.582.3a1.175,1.175,0,0,0-.727-.193,1.226,1.226,0,0,0-1.028.58,2.682,2.682,0,0,0-.413,1.582V0h-.961V-6h.961v1.236h.023a2.1,2.1,0,0,1,.627-.987,1.43,1.43,0,0,1,.943-.354,1.569,1.569,0,0,1,.574.082ZM34.365-2.76H30.129a2.244,2.244,0,0,0,.539,1.547,1.858,1.858,0,0,0,1.418.545,2.948,2.948,0,0,0,1.863-.668v.9a3.482,3.482,0,0,1-2.092.574,2.536,2.536,0,0,1-2-.817,3.346,3.346,0,0,1-.727-2.3,3.281,3.281,0,0,1,.794-2.282A2.546,2.546,0,0,1,31.9-6.141a2.256,2.256,0,0,1,1.822.762,3.176,3.176,0,0,1,.645,2.115Zm-.984-.814a1.955,1.955,0,0,0-.4-1.295,1.368,1.368,0,0,0-1.1-.463,1.552,1.552,0,0,0-1.154.486,2.207,2.207,0,0,0-.586,1.271ZM35.455-.217V-1.248a2.844,2.844,0,0,0,1.729.58q1.266,0,1.266-.844a.732.732,0,0,0-.108-.407,1.08,1.08,0,0,0-.293-.3,2.255,2.255,0,0,0-.434-.231q-.249-.1-.536-.214a6.9,6.9,0,0,1-.7-.319,2.115,2.115,0,0,1-.5-.363,1.352,1.352,0,0,1-.3-.46,1.627,1.627,0,0,1-.1-.6,1.434,1.434,0,0,1,.193-.747,1.715,1.715,0,0,1,.516-.545,2.4,2.4,0,0,1,.735-.331,3.262,3.262,0,0,1,.853-.111,3.442,3.442,0,0,1,1.395.27V-4.9a2.718,2.718,0,0,0-1.523-.434,1.781,1.781,0,0,0-.486.062,1.191,1.191,0,0,0-.372.173.8.8,0,0,0-.24.267.7.7,0,0,0-.085.343.822.822,0,0,0,.085.393.864.864,0,0,0,.249.281,1.9,1.9,0,0,0,.4.223q.234.1.533.217a7.421,7.421,0,0,1,.715.313,2.452,2.452,0,0,1,.539.363,1.42,1.42,0,0,1,.343.466,1.5,1.5,0,0,1,.12.627,1.478,1.478,0,0,1-.2.773,1.682,1.682,0,0,1-.524.545,2.4,2.4,0,0,1-.756.322,3.732,3.732,0,0,1-.9.105A3.4,3.4,0,0,1,35.455-.217Zm9.7.217H44.2V-8.883h.961Zm6.8,0h-.961V-.949h-.023A1.973,1.973,0,0,1,49.119.141q-2.145,0-2.145-2.555V-6h.955v3.434q0,1.9,1.453,1.9a1.47,1.47,0,0,0,1.157-.519,1.984,1.984,0,0,0,.454-1.356V-6h.961Zm6.123-5.725L54.527-.82h3.516V0H53.115V-.3L56.666-5.18H53.449V-6h4.629Z" transform="translate(48.493 9.963)"/>
        <path id="Rectángulo_4629-2" data-name="Rectángulo 4629" d="M0,0H162.323V177.056H0Z" fill="none"/>
      </g>
    </g>
  </g>
</svg>
