<svg xmlns="http://www.w3.org/2000/svg" width="231.654" height="115.196" viewBox="0 0 231.654 115.196">
  <g id="Grupo_55547" data-name="Grupo 55547" transform="translate(8993.793 9534.696)">
    <rect id="Rect치ngulo_5270" data-name="Rect치ngulo 5270" width="38.187" height="74.009" rx="0.924" transform="translate(-8992.293 -9495.01)" fill="#dedcff" stroke="#8979f3" stroke-miterlimit="10" stroke-width="3"/>
    <rect id="Rect치ngulo_5269" data-name="Rect치ngulo 5269" width="50.37" height="50.37" rx="0.924" transform="translate(-8966.29 -9495.01)" fill="#dedcff" stroke="#8979f3" stroke-miterlimit="10" stroke-width="3"/>
    <path id="Trazado_101178" data-name="Trazado 101178" d="M.023,21.578,12.441.085a.17.17,0,0,1,.3,0L25.154,21.578a.17.17,0,0,1-.148.256H.171A.17.17,0,0,1,.023,21.578Z" transform="translate(-8900.208 -9499.326) rotate(90)" fill="#d2fdff" stroke="#8979f3" stroke-miterlimit="10" stroke-width="3"/>
    <circle id="Elipse_4390" data-name="Elipse 4390" cx="38.187" cy="38.187" r="38.187" transform="translate(-8992.293 -9533.196)" fill="#ffefbb" stroke="#8979f3" stroke-miterlimit="10" stroke-width="3"/>
    <g id="Grupo_55546" data-name="Grupo 55546" transform="translate(-8855.801 -9533.196)">
      <path id="Trazado_101179" data-name="Trazado 101179" d="M77.2,1177.347l-14.575-8.421a2.282,2.282,0,0,1-1.126-1.864,38.181,38.181,0,0,0-76.3,2.16c0,.25.014.5.018.747a.837.837,0,0,0-.018.094v70.063a3.105,3.105,0,0,0,3.106,3.106H20.277a3.106,3.106,0,0,0,3.106-3.106v-18.268a2.265,2.265,0,0,1,2.266-2.266H58.463a3.106,3.106,0,0,0,3.106-3.106v-28.507a2.266,2.266,0,0,1,1.132-1.962l14.5-8.375a.178.178,0,0,0,.064-.064A.17.17,0,0,0,77.2,1177.347Z" transform="translate(14.804 -1131.036)" fill="#ffefbb" stroke="#8979f3" stroke-miterlimit="10" stroke-width="3"/>
      <circle id="Elipse_4391" data-name="Elipse 4391" cx="5.322" cy="5.322" r="5.322" transform="translate(51.365 28.467)" fill="#8979f3"/>
    </g>
    <g id="right-arrow_1_" data-name="right-arrow (1)" transform="translate(-8887.894 -9555.672)">
      <g id="Grupo_57503" data-name="Grupo 57503" transform="translate(0 41.346)">
        <path id="Trazado_101707" data-name="Trazado 101707" d="M19.463,48.8,12.32,41.662a1.086,1.086,0,0,0-1.531,0l-.649.649a1.074,1.074,0,0,0-.316.765,1.1,1.1,0,0,0,.316.774l4.167,4.176H1.069A1.056,1.056,0,0,0,0,49.091v.917A1.1,1.1,0,0,0,1.069,51.12H14.355l-4.214,4.2a1.072,1.072,0,0,0,0,1.52l.649.647a1.086,1.086,0,0,0,1.531,0l7.143-7.143a1.092,1.092,0,0,0,0-1.536Z" transform="translate(0 -41.346)" fill="#8979f3"/>
      </g>
    </g>
  </g>
</svg>
