<svg xmlns="http://www.w3.org/2000/svg" width="448.14" height="238.908" viewBox="0 0 448.14 238.908">
  <g id="Grupo_1072562" data-name="Grupo 1072562" transform="translate(-813.761 -9074.443)">
    <path id="Trazado_818176" data-name="Trazado 818176" d="M361.22,159.857v-6.107H362.3v6.107Zm.135-7.157,1.59-2.02.573.414-1.392,1.59Z" transform="translate(731.119 9080.862)"/>
    <rect id="Rectángulo_5411" data-name="Rectángulo 5411" width="56.014" height="57.254" transform="translate(813.761 9256.098)" fill="#754c24"/>
    <rect id="Rectángulo_5412" data-name="Rectángulo 5412" width="224.07" height="181.654" transform="translate(813.761 9074.443)" fill="#754c24"/>
    <rect id="Rectángulo_5413" data-name="Rectángulo 5413" width="224.07" height="238.908" transform="translate(1037.831 9074.443)" fill="#f2f2f2"/>
    <g id="Grupo_57722" data-name="Grupo 57722" transform="translate(869.774 9256.098)" opacity="0.75">
      <rect id="Rectángulo_5414" data-name="Rectángulo 5414" width="56.014" height="57.254" fill="#754c24"/>
    </g>
    <g id="Grupo_57723" data-name="Grupo 57723" transform="translate(925.796 9256.098)" opacity="0.5">
      <rect id="Rectángulo_5415" data-name="Rectángulo 5415" width="56.014" height="57.254" fill="#754c24"/>
    </g>
    <g id="Grupo_57724" data-name="Grupo 57724" transform="translate(981.81 9256.098)" opacity="0.25">
      <rect id="Rectángulo_5416" data-name="Rectángulo 5416" width="56.014" height="57.254" fill="#754c24"/>
    </g>
    <g id="Grupo_57725" data-name="Grupo 57725" transform="translate(1065.504 9117.305)">
      <path id="Trazado_102825" data-name="Trazado 102825" d="M341.9,76.909h-4.413l-1.4-16.063-5.4,16.063h-2.863l-5.4-16.063-1.415,16.063H316.58l1.789-21.319h6.314l4.541,13.383,4.6-13.383h6.314Z" transform="translate(-316.58 -54.246)"/>
      <path id="Trazado_102826" data-name="Trazado 102826" d="M365.586,74.294a14.091,14.091,0,0,0,.374,3.7V78.4h-3.976l-.334-1.654a4.922,4.922,0,0,1-2.123,1.463,7.848,7.848,0,0,1-2.743.485,7.346,7.346,0,0,1-1.423-.127,4.963,4.963,0,0,1-1.272-.453,3.785,3.785,0,0,1-1.058-.8,3.483,3.483,0,0,1-.708-1.2,4.9,4.9,0,0,1-.262-1.646,4.469,4.469,0,0,1,.278-1.646,3.712,3.712,0,0,1,.74-1.233,4.342,4.342,0,0,1,1.193-.9,8.856,8.856,0,0,1,1.5-.652,17.206,17.206,0,0,1,1.805-.469l2.489-.565a2.76,2.76,0,0,0,1.129-.477.954.954,0,0,0,.334-.8,1.591,1.591,0,0,0-.748-1.455,3.4,3.4,0,0,0-1.805-.445q-2.608,0-2.966,2.314l-3.761-.676a5.081,5.081,0,0,1,2.195-3.459,8.747,8.747,0,0,1,4.771-1.113q6.362,0,6.362,5.471Zm-7.475,1.527a3.435,3.435,0,0,0,2.624-1.1,4.636,4.636,0,0,0,1.018-3.252l-3.6,1.05a4.3,4.3,0,0,0-1.511.62,1.272,1.272,0,0,0-.525,1.089,1.423,1.423,0,0,0,.557,1.209,2.386,2.386,0,0,0,1.439.382Z" transform="translate(-323.846 -55.742)"/>
      <path id="Trazado_102827" data-name="Trazado 102827" d="M378.341,65.676a4.954,4.954,0,0,1,1.988-1.821,6.075,6.075,0,0,1,2.966-.8v3.785a5.773,5.773,0,0,0-3.626.938,4.006,4.006,0,0,0-1.121,3.252v7.4H374.27V63.275h4.071Z" transform="translate(-328.395 -55.776)"/>
      <path id="Trazado_102828" data-name="Trazado 102828" d="M392.831,65.676a4.955,4.955,0,0,1,1.988-1.821,6.076,6.076,0,0,1,2.966-.8v3.785a5.773,5.773,0,0,0-3.626.938,4.005,4.005,0,0,0-1.121,3.252v7.4H388.76V63.275h4.071Z" transform="translate(-331.363 -55.776)"/>
      <path id="Trazado_102829" data-name="Trazado 102829" d="M409.857,76.857a9.542,9.542,0,0,1-4.294-.93,6.973,6.973,0,0,1-2.95-2.728,8.174,8.174,0,0,1-1.066-4.23,7.419,7.419,0,0,1,2.3-5.757,9.638,9.638,0,0,1,12.031,0,7.419,7.419,0,0,1,2.3,5.757,7.451,7.451,0,0,1-2.3,5.773,8.533,8.533,0,0,1-6.02,2.115Zm0-3.38a3.92,3.92,0,0,0,2.982-1.209,5.288,5.288,0,0,0,0-6.552,3.9,3.9,0,0,0-2.982-1.264,3.722,3.722,0,0,0-2.91,1.248,5.3,5.3,0,0,0,0,6.537A3.737,3.737,0,0,0,409.857,73.478Zm-1.272-14.147,3.873-5.431,2.091,1.479L411.2,59.355Z" transform="translate(-333.98 -53.9)"/>
      <path id="Trazado_102830" data-name="Trazado 102830" d="M435.408,63a5.917,5.917,0,0,1,4.2,1.328,5.057,5.057,0,0,1,1.463,3.889v10.21h-4.262v-9.3a2.616,2.616,0,0,0-.8-2.091,2.831,2.831,0,0,0-1.956-.668,3.976,3.976,0,0,0-1.264.191,3.475,3.475,0,0,0-1.066.6,2.648,2.648,0,0,0-.755,1.137,5.248,5.248,0,0,0-.286,1.757v8.365H426.43V63.258h4.254v1.678A5.853,5.853,0,0,1,435.408,63Z" transform="translate(-339.078 -55.759)"/>
    </g>
    <g id="Grupo_57726" data-name="Grupo 57726" transform="translate(1067.929 9193.897)">
      <path id="Trazado_102831" data-name="Trazado 102831" d="M325.084,152.248h-3.547v2.863h3.125v1h-3.125v2.894h3.547v1.01H320.4V151.27h4.684Z" transform="translate(-319.787 -150.435)"/>
      <path id="Trazado_102832" data-name="Trazado 102832" d="M330.421,160.739a2.886,2.886,0,0,1-1.646-.437,1.837,1.837,0,0,1-.8-1.256l.938-.27a1.352,1.352,0,0,0,.5.851,1.646,1.646,0,0,0,1,.3,2.244,2.244,0,0,0,.588-.08,1.019,1.019,0,0,0,.453-.3.866.866,0,0,0,.183-.557.848.848,0,0,0-.056-.254.931.931,0,0,0-.1-.2.508.508,0,0,0-.175-.167,1.808,1.808,0,0,0-.215-.135,1.654,1.654,0,0,0-.27-.111l-.3-.1-.342-.1-.35-.1c-.255-.08-.469-.151-.636-.223a2.909,2.909,0,0,1-.517-.294,1.185,1.185,0,0,1-.4-.485,1.64,1.64,0,0,1-.135-.684,1.591,1.591,0,0,1,.3-.97,1.654,1.654,0,0,1,.8-.58,3.054,3.054,0,0,1,1.081-.175,2.656,2.656,0,0,1,1.487.4,1.7,1.7,0,0,1,.748,1.193l-.883.223a1.169,1.169,0,0,0-.469-.8,1.448,1.448,0,0,0-.875-.262,1.519,1.519,0,0,0-.8.215.724.724,0,0,0-.342.66.676.676,0,0,0,.088.334,1.307,1.307,0,0,0,.183.239,1,1,0,0,0,.342.183,2.876,2.876,0,0,0,.358.135l.445.111h.1l.588.167a4.252,4.252,0,0,1,.525.223,1.929,1.929,0,0,1,.477.334,1.667,1.667,0,0,1,.421,1.129,1.836,1.836,0,0,1-.183.8,1.431,1.431,0,0,1-.5.565,2.385,2.385,0,0,1-.708.3A3.259,3.259,0,0,1,330.421,160.739Z" transform="translate(-321.34 -151.078)"/>
      <path id="Trazado_102833" data-name="Trazado 102833" d="M337.719,160.127a1.59,1.59,0,0,1-1.193-.437,1.646,1.646,0,0,1-.437-1.217v-3.594H334.84v-.859h.461a.9.9,0,0,0,.676-.215,1.074,1.074,0,0,0,.191-.716V152h1v2.036h1.407v.859H337.17v3.467a.93.93,0,0,0,.231.668.8.8,0,0,0,.612.239h.565v.859Z" transform="translate(-322.745 -150.585)"/>
      <path id="Trazado_102834" data-name="Trazado 102834" d="M342.69,160.739a2.068,2.068,0,0,1-1.336-.421,1.5,1.5,0,0,1-.525-1.248,1.75,1.75,0,0,1,.167-.8,1.328,1.328,0,0,1,.493-.557,2.991,2.991,0,0,1,.716-.35,6.788,6.788,0,0,1,.93-.215l.986-.167c.366-.064.541-.254.541-.565a1.058,1.058,0,0,0-.382-.906,1.51,1.51,0,0,0-.962-.294,1.637,1.637,0,0,0-.962.278,1.2,1.2,0,0,0-.453.859l-.962-.2a1.852,1.852,0,0,1,.8-1.312,2.815,2.815,0,0,1,1.662-.437,3.346,3.346,0,0,1,.883.111,2.242,2.242,0,0,1,.74.342,1.5,1.5,0,0,1,.533.652,2.456,2.456,0,0,1,.191,1.01v2.521a1.033,1.033,0,0,0,.135.636.6.6,0,0,0,.485.167h.1v.8h-.533a1.01,1.01,0,0,1-1.153-.8h-.056A2.314,2.314,0,0,1,342.69,160.739Zm.247-.867a1.63,1.63,0,0,0,1.312-.6,2.385,2.385,0,0,0,.493-1.59l-1.59.31a2.171,2.171,0,0,0-.946.342.9.9,0,0,0-.008,1.336A1.209,1.209,0,0,0,342.936,159.872Z" transform="translate(-323.97 -151.077)"/>
      <path id="Trazado_102835" data-name="Trazado 102835" d="M353.021,153.536a2.672,2.672,0,0,1,2.02.883,3.237,3.237,0,0,1,.8,2.3,3.276,3.276,0,0,1-.8,2.3,2.664,2.664,0,0,1-2.028.883,2.433,2.433,0,0,1-1.3-.358,2.275,2.275,0,0,1-.875-.962v1.185H349.8V150.22h1.066v4.6a2.258,2.258,0,0,1,.875-.938A2.441,2.441,0,0,1,353.021,153.536Zm-.239,5.423a1.893,1.893,0,0,0,1.431-.62,2.3,2.3,0,0,0,.58-1.59,2.338,2.338,0,0,0-.58-1.59,1.893,1.893,0,0,0-1.431-.62,1.829,1.829,0,0,0-1.415.644,2.513,2.513,0,0,0,0,3.181,1.837,1.837,0,0,0,1.415.6Z" transform="translate(-325.809 -150.22)"/>
      <path id="Trazado_102836" data-name="Trazado 102836" d="M359.55,159.762V150.22h1.089v9.542Z" transform="translate(-327.805 -150.22)"/>
      <path id="Trazado_102837" data-name="Trazado 102837" d="M368.9,157.451v.294h-4.771a2.139,2.139,0,0,0,.588,1.59,1.909,1.909,0,0,0,1.392.549,1.845,1.845,0,0,0,1.7-1.105l.97.207a2.712,2.712,0,0,1-1.042,1.312,2.855,2.855,0,0,1-1.59.477,2.95,2.95,0,0,1-2.195-.851,3.618,3.618,0,0,1,0-4.644,2.926,2.926,0,0,1,2.163-.851,2.76,2.76,0,0,1,2.06.8A3.118,3.118,0,0,1,368.9,157.451Zm-2.831-2.227a1.869,1.869,0,0,0-1.264.437,1.98,1.98,0,0,0-.644,1.256h3.634a1.822,1.822,0,0,0-.533-1.256A1.717,1.717,0,0,0,366.068,155.225Z" transform="translate(-328.534 -151.082)"/>
      <path id="Trazado_102838" data-name="Trazado 102838" d="M325.943,170.42h1.113v8.747h-1.113v-3.881h-4.429v3.881H320.4V170.42h1.113v3.865h4.429Z" transform="translate(-319.787 -154.357)"/>
      <path id="Trazado_102839" data-name="Trazado 102839" d="M334.2,179.936a3.181,3.181,0,0,1-1.59-.382,2.688,2.688,0,0,1-1.105-1.105,3.411,3.411,0,0,1-.406-1.686,3.117,3.117,0,0,1,.867-2.306,3.252,3.252,0,0,1,4.421,0,3.181,3.181,0,0,1,.859,2.306,3.109,3.109,0,0,1-.867,2.306A2.966,2.966,0,0,1,334.2,179.936Zm0-.891a1.909,1.909,0,0,0,1.447-.628,2.664,2.664,0,0,0,0-3.3,1.877,1.877,0,0,0-1.447-.628,1.837,1.837,0,0,0-1.431.628,2.664,2.664,0,0,0,0,3.3,1.86,1.86,0,0,0,1.431.628Z" transform="translate(-321.978 -155.006)"/>
      <path id="Trazado_102840" data-name="Trazado 102840" d="M343.871,173.589a2.139,2.139,0,0,1,1.535.557,2.068,2.068,0,0,1,.573,1.59v4.111H344.9v-3.865a1.463,1.463,0,0,0-.374-1.1,1.312,1.312,0,0,0-.954-.35,1.487,1.487,0,0,0-1.089.413,1.741,1.741,0,0,0-.429,1.248v3.65H341v-6.107h1.073v.8A2.036,2.036,0,0,1,343.871,173.589Z" transform="translate(-324.006 -155.006)"/>
      <path id="Trazado_102841" data-name="Trazado 102841" d="M355.095,176.655v.294h-4.771a2.139,2.139,0,0,0,.58,1.59,1.909,1.909,0,0,0,1.392.549,1.853,1.853,0,0,0,1.01-.294,1.941,1.941,0,0,0,.7-.8l.97.207a2.767,2.767,0,0,1-1.05,1.312,2.831,2.831,0,0,1-1.59.477,2.95,2.95,0,0,1-2.2-.851,3.618,3.618,0,0,1,0-4.644,2.942,2.942,0,0,1,2.171-.851,2.751,2.751,0,0,1,2.052.8A3.093,3.093,0,0,1,355.095,176.655Zm-2.823-2.227a1.916,1.916,0,0,0-1.272.437,1.98,1.98,0,0,0-.644,1.256h3.658a1.789,1.789,0,0,0-.533-1.256,1.733,1.733,0,0,0-1.241-.437Z" transform="translate(-325.704 -155.018)"/>
      <path id="Trazado_102842" data-name="Trazado 102842" d="M360.511,179.939a2.887,2.887,0,0,1-1.646-.437,1.813,1.813,0,0,1-.8-1.256l.938-.27a1.289,1.289,0,0,0,.5.851,1.591,1.591,0,0,0,1,.3,2.241,2.241,0,0,0,.588-.079.955.955,0,0,0,.445-.3.8.8,0,0,0,.183-.557.846.846,0,0,0-.048-.254,1.149,1.149,0,0,0-.1-.2.508.508,0,0,0-.175-.167,1.3,1.3,0,0,0-.207-.135,1.808,1.808,0,0,0-.278-.111l-.294-.1-.342-.1-.35-.1a6.245,6.245,0,0,1-.636-.223,2.656,2.656,0,0,1-.517-.294,1.184,1.184,0,0,1-.4-.485,1.517,1.517,0,0,1-.135-.684,1.591,1.591,0,0,1,.294-.97,1.67,1.67,0,0,1,.8-.58,3.022,3.022,0,0,1,1.082-.175,2.672,2.672,0,0,1,1.487.4,1.67,1.67,0,0,1,.74,1.193l-.883.223a1.154,1.154,0,0,0-.461-.8,1.479,1.479,0,0,0-.875-.262,1.5,1.5,0,0,0-.8.215.724.724,0,0,0-.342.66.6.6,0,0,0,.087.334.853.853,0,0,0,.183.239,1.024,1.024,0,0,0,.334.191l.358.127.453.111h.087c.247.056.437.111.589.159a4.9,4.9,0,0,1,.533.223,1.736,1.736,0,0,1,.469.334,1.409,1.409,0,0,1,.3.477,1.7,1.7,0,0,1,.127.652,1.836,1.836,0,0,1-.183.8,1.59,1.59,0,0,1-.5.565,2.388,2.388,0,0,1-.716.3A3.245,3.245,0,0,1,360.511,179.939Z" transform="translate(-327.502 -155.01)"/>
      <path id="Trazado_102843" data-name="Trazado 102843" d="M367.8,179.323a1.59,1.59,0,0,1-1.193-.437,1.67,1.67,0,0,1-.43-1.217v-3.594H364.93v-.859h.453a.875.875,0,0,0,.676-.215,1.026,1.026,0,0,0,.2-.716V171.18h1v2.036h1.4v.859h-1.4v3.483a.9.9,0,0,0,.231.668.8.8,0,0,0,.612.239h.557v.859Z" transform="translate(-328.907 -154.513)"/>
      <path id="Trazado_102844" data-name="Trazado 102844" d="M373.92,179.936a3.18,3.18,0,0,1-1.59-.382,2.688,2.688,0,0,1-1.105-1.105,3.411,3.411,0,0,1-.405-1.686,3.117,3.117,0,0,1,.867-2.306,3.252,3.252,0,0,1,4.421,0,3.181,3.181,0,0,1,.859,2.306,3.109,3.109,0,0,1-.867,2.306,2.966,2.966,0,0,1-2.179.867Zm0-.891a1.876,1.876,0,0,0,1.439-.628,2.632,2.632,0,0,0,0-3.3,1.853,1.853,0,0,0-1.439-.628,1.821,1.821,0,0,0-1.431.628,2.664,2.664,0,0,0,0,3.3,1.853,1.853,0,0,0,1.423.628Z" transform="translate(-330.113 -155.006)"/>
      <path id="Trazado_102845" data-name="Trazado 102845" d="M323.987,198.456a4.716,4.716,0,0,1-1.725-.31,4.467,4.467,0,0,1-1.384-.883,3.975,3.975,0,0,1-.914-1.423,5.1,5.1,0,0,1-.334-1.885,5.04,5.04,0,0,1,.334-1.869,4.047,4.047,0,0,1,.922-1.423,4.206,4.206,0,0,1,1.376-.883,4.715,4.715,0,0,1,1.726-.31,4.413,4.413,0,0,1,2.322.62,3.833,3.833,0,0,1,1.566,1.71l-1.026.421a2.951,2.951,0,0,0-1.145-1.248,3.276,3.276,0,0,0-1.694-.437,3.555,3.555,0,0,0-1.28.231,3.029,3.029,0,0,0-1.026.66,2.94,2.94,0,0,0-.692,1.081,3.977,3.977,0,0,0-.254,1.447,4.065,4.065,0,0,0,.255,1.463,2.94,2.94,0,0,0,.692,1.081,3.028,3.028,0,0,0,1.026.66,3.4,3.4,0,0,0,1.28.231,3.277,3.277,0,0,0,1.694-.437,2.887,2.887,0,0,0,1.145-1.24l1.026.421a3.816,3.816,0,0,1-1.59,1.71A4.493,4.493,0,0,1,323.987,198.456Z" transform="translate(-319.629 -158.258)"/>
      <path id="Trazado_102846" data-name="Trazado 102846" d="M333.308,199.141a2.091,2.091,0,0,1-1.344-.421,1.5,1.5,0,0,1-.525-1.248,1.815,1.815,0,0,1,.167-.8,1.384,1.384,0,0,1,.5-.549,2.717,2.717,0,0,1,.716-.35,8.076,8.076,0,0,1,.93-.223l.986-.159c.358-.064.541-.254.541-.565a1.057,1.057,0,0,0-.382-.907,1.527,1.527,0,0,0-.962-.294,1.59,1.59,0,0,0-.962.278,1.2,1.2,0,0,0-.453.859l-.97-.207a1.908,1.908,0,0,1,.8-1.3,2.862,2.862,0,0,1,1.67-.437,3.4,3.4,0,0,1,.883.111,2.243,2.243,0,0,1,.74.342,1.488,1.488,0,0,1,.525.652,2.46,2.46,0,0,1,.191,1.01v2.521a1.026,1.026,0,0,0,.143.636.6.6,0,0,0,.477.167h.1v.8h-.533c-.66,0-1.05-.27-1.161-.8h-.048a2.314,2.314,0,0,1-2.028.883Zm.247-.867a1.63,1.63,0,0,0,1.312-.6,2.45,2.45,0,0,0,.493-1.59l-1.59.31a2.131,2.131,0,0,0-.946.342.89.89,0,0,0,0,1.336A1.233,1.233,0,0,0,333.554,198.274Z" transform="translate(-322.047 -158.944)"/>
      <path id="Trazado_102847" data-name="Trazado 102847" d="M340.4,198.162V188.62h1.081v9.542Z" transform="translate(-323.883 -158.085)"/>
      <path id="Trazado_102848" data-name="Trazado 102848" d="M345.014,190.767a.691.691,0,0,1-.509-.215.707.707,0,0,1-.215-.517.691.691,0,0,1,.215-.509.716.716,0,0,1,.509-.207.732.732,0,0,1,.509.207.692.692,0,0,1,.215.509.732.732,0,0,1-.724.732Zm-.549,7.538V192.2h1.081v6.107Z" transform="translate(-324.68 -158.228)"/>
      <path id="Trazado_102849" data-name="Trazado 102849" d="M353.007,188.62h1.081v9.542h-1.042v-1.185a2.307,2.307,0,0,1-.867.962,2.426,2.426,0,0,1-1.3.358,2.75,2.75,0,0,1-1.105-.231,2.6,2.6,0,0,1-.907-.636,2.857,2.857,0,0,1-.62-1.01,3.65,3.65,0,0,1-.223-1.3,3.181,3.181,0,0,1,.8-2.3,2.688,2.688,0,0,1,2.028-.883,2.457,2.457,0,0,1,1.28.35,2.274,2.274,0,0,1,.867.93Zm-1.924,8.747a1.861,1.861,0,0,0,1.423-.636,2.338,2.338,0,0,0,.573-1.59,2.306,2.306,0,0,0-.581-1.59,1.813,1.813,0,0,0-1.415-.644,1.861,1.861,0,0,0-1.423.62,2.3,2.3,0,0,0-.58,1.59,2.267,2.267,0,0,0,.58,1.59,1.861,1.861,0,0,0,1.423.652Z" transform="translate(-325.445 -158.085)"/>
      <path id="Trazado_102850" data-name="Trazado 102850" d="M360.831,199.136a3.181,3.181,0,0,1-1.59-.382,2.79,2.79,0,0,1-1.105-1.105,3.41,3.41,0,0,1-.406-1.686,3.181,3.181,0,0,1,.867-2.306,3.252,3.252,0,0,1,4.421,0,3.5,3.5,0,0,1,0,4.612A3,3,0,0,1,360.831,199.136Zm0-.891a1.893,1.893,0,0,0,1.447-.628,2.664,2.664,0,0,0,0-3.3,1.869,1.869,0,0,0-1.447-.628,1.845,1.845,0,0,0-1.431.628,2.7,2.7,0,0,0,0,3.3,1.877,1.877,0,0,0,1.423.628Z" transform="translate(-327.432 -158.939)"/>
      <path id="Trazado_102851" data-name="Trazado 102851" d="M323.988,217.686a4.716,4.716,0,0,1-1.726-.31,4.47,4.47,0,0,1-1.384-.883,3.976,3.976,0,0,1-.914-1.423,5.438,5.438,0,0,1,0-3.753,4.047,4.047,0,0,1,.922-1.423,3.975,3.975,0,0,1,1.376-.875,4.564,4.564,0,0,1,1.726-.318,4.414,4.414,0,0,1,2.322.62,3.833,3.833,0,0,1,1.566,1.686l-1.026.421a2.951,2.951,0,0,0-1.145-1.248,3.276,3.276,0,0,0-1.694-.437,3.555,3.555,0,0,0-1.28.231,3.031,3.031,0,0,0-1.026.66,2.943,2.943,0,0,0-.692,1.081,3.976,3.976,0,0,0-.254,1.455,4.047,4.047,0,0,0,.255,1.455,2.942,2.942,0,0,0,.692,1.081,3.03,3.03,0,0,0,1.026.66,3.4,3.4,0,0,0,1.28.239,3.284,3.284,0,0,0,1.694-.445,2.91,2.91,0,0,0,1.145-1.233l1.026.414a3.817,3.817,0,0,1-1.59,1.71A4.492,4.492,0,0,1,323.988,217.686Z" transform="translate(-319.629 -162.197)"/>
      <path id="Trazado_102852" data-name="Trazado 102852" d="M334.45,218.366a3.18,3.18,0,0,1-1.59-.382,2.688,2.688,0,0,1-1.105-1.105,3.412,3.412,0,0,1-.406-1.686,3.117,3.117,0,0,1,.867-2.306,3.252,3.252,0,0,1,4.421,0,3.181,3.181,0,0,1,.859,2.306,3.109,3.109,0,0,1-.867,2.306A2.966,2.966,0,0,1,334.45,218.366Zm0-.891a1.909,1.909,0,0,0,1.447-.628,2.386,2.386,0,0,0,.572-1.654,2.33,2.33,0,0,0-.572-1.646,1.877,1.877,0,0,0-1.447-.628,1.836,1.836,0,0,0-1.431.628,2.33,2.33,0,0,0-.573,1.646,2.386,2.386,0,0,0,.573,1.654,1.86,1.86,0,0,0,1.423.6Z" transform="translate(-322.029 -162.877)"/>
      <path id="Trazado_102853" data-name="Trazado 102853" d="M344.117,212a2.139,2.139,0,0,1,1.535.557,2.067,2.067,0,0,1,.573,1.59v4.111H345.15v-3.873a1.463,1.463,0,0,0-.374-1.1,1.312,1.312,0,0,0-.954-.35,1.487,1.487,0,0,0-1.089.414,1.741,1.741,0,0,0-.429,1.248v3.65H341.23v-6.107H342.3v.8a2.036,2.036,0,0,1,1.813-.938Z" transform="translate(-324.053 -162.872)"/>
      <path id="Trazado_102854" data-name="Trazado 102854" d="M352.7,208.762h-.461a1.039,1.039,0,0,0-.223,0l-.191.064a.447.447,0,0,0-.183.1,1.51,1.51,0,0,0-.143.159.548.548,0,0,0-.119.223,1.408,1.408,0,0,0-.072.3,2.674,2.674,0,0,0,0,.382v1.256h1.423v.859h-1.423v5.248h-1.065V212.11H349v-.859h1.177v-1.28a3.769,3.769,0,0,1,.064-.708,2.7,2.7,0,0,1,.175-.541,1.233,1.233,0,0,1,.286-.382,1.972,1.972,0,0,1,.382-.27,1.655,1.655,0,0,1,.461-.151,3.986,3.986,0,0,1,.525-.079h.6Z" transform="translate(-325.645 -162.021)"/>
      <path id="Trazado_102855" data-name="Trazado 102855" d="M357.559,218.36a3.181,3.181,0,0,1-1.59-.382,2.736,2.736,0,0,1-1.074-1.129,3.412,3.412,0,0,1-.406-1.686,3.117,3.117,0,0,1,.867-2.306,3.252,3.252,0,0,1,4.421,0,3.5,3.5,0,0,1,0,4.612A3,3,0,0,1,357.559,218.36Zm0-.891a1.909,1.909,0,0,0,1.447-.628,2.386,2.386,0,0,0,.573-1.654,2.33,2.33,0,0,0-.573-1.646,1.877,1.877,0,0,0-1.447-.628,1.845,1.845,0,0,0-1.431.628,2.33,2.33,0,0,0-.565,1.646,2.386,2.386,0,0,0,.565,1.654,1.877,1.877,0,0,0,1.423.6Z" transform="translate(-326.768 -162.871)"/>
      <path id="Trazado_102856" data-name="Trazado 102856" d="M365.388,213.2a1.885,1.885,0,0,1,.8-.8,2.259,2.259,0,0,1,1.169-.318v1.01a2,2,0,0,0-1.415.453,1.893,1.893,0,0,0-.493,1.447v3.26H364.37v-6.107h1.05Z" transform="translate(-328.792 -162.891)"/>
      <path id="Trazado_102857" data-name="Trazado 102857" d="M371.839,217.723a1.59,1.59,0,0,1-1.193-.437,1.646,1.646,0,0,1-.437-1.217v-3.594H369v-.859h.461a.9.9,0,0,0,.676-.215,1.074,1.074,0,0,0,.191-.716V209.58h1v2.036h1.407v.859H371.33v3.483a.93.93,0,0,0,.231.668.8.8,0,0,0,.612.239h.565v.859Z" transform="translate(-329.741 -162.377)"/>
      <path id="Trazado_102858" data-name="Trazado 102858" d="M376.8,218.369a2.059,2.059,0,0,1-1.344-.421,1.5,1.5,0,0,1-.525-1.249,1.654,1.654,0,0,1,.175-.8,1.327,1.327,0,0,1,.493-.557,2.993,2.993,0,0,1,.716-.35,6.78,6.78,0,0,1,.93-.215l.986-.167c.366-.064.541-.254.541-.565a1.057,1.057,0,0,0-.382-.907,1.511,1.511,0,0,0-.962-.294,1.591,1.591,0,0,0-.962.286,1.169,1.169,0,0,0-.453.851l-.962-.2a1.853,1.853,0,0,1,.8-1.312,2.815,2.815,0,0,1,1.662-.437,3.347,3.347,0,0,1,.883.111,2.244,2.244,0,0,1,.74.342,1.5,1.5,0,0,1,.533.652,2.457,2.457,0,0,1,.191,1.01v2.521a1.034,1.034,0,0,0,.135.636.6.6,0,0,0,.485.167h.08v.8h-.533a1.01,1.01,0,0,1-1.153-.8h-.056a2.33,2.33,0,0,1-2.012.891Zm.246-.867a1.646,1.646,0,0,0,1.312-.588,2.441,2.441,0,0,0,.493-1.59l-1.59.31a2.274,2.274,0,0,0-.946.342.882.882,0,0,0-.008,1.336,1.192,1.192,0,0,0,.74.167Z" transform="translate(-330.954 -162.88)"/>
      <path id="Trazado_102859" data-name="Trazado 102859" d="M387.173,211.146a2.672,2.672,0,0,1,2.02.883,3.61,3.61,0,0,1,0,4.6,2.632,2.632,0,0,1-2.02.883,2.434,2.434,0,0,1-1.3-.358,2.274,2.274,0,0,1-.875-.962v1.185H383.96V207.83h1.066v4.6a2.211,2.211,0,0,1,.875-.938A2.442,2.442,0,0,1,387.173,211.146Zm-.239,5.431a1.9,1.9,0,0,0,1.431-.628,2.592,2.592,0,0,0,0-3.252,1.892,1.892,0,0,0-1.431-.62,1.829,1.829,0,0,0-1.416.644,2.513,2.513,0,0,0,0,3.181,1.813,1.813,0,0,0,1.384.668Z" transform="translate(-332.805 -162.019)"/>
      <path id="Trazado_102860" data-name="Trazado 102860" d="M393.66,217.362V207.82h1.065v9.542Z" transform="translate(-334.791 -162.017)"/>
      <path id="Trazado_102861" data-name="Trazado 102861" d="M403.009,215.051v.294h-4.771a2.139,2.139,0,0,0,.589,1.59,1.892,1.892,0,0,0,1.392.549,1.845,1.845,0,0,0,1.7-1.105l.97.207a2.712,2.712,0,0,1-1.042,1.312,2.855,2.855,0,0,1-1.59.477,2.95,2.95,0,0,1-2.195-.851,3.61,3.61,0,0,1,0-4.636,2.887,2.887,0,0,1,2.163-.859,2.735,2.735,0,0,1,2.052.8A3.1,3.1,0,0,1,403.009,215.051Zm-2.831-2.227a1.892,1.892,0,0,0-1.272.437,2.012,2.012,0,0,0-.636,1.256h3.658a1.821,1.821,0,0,0-.533-1.256,1.718,1.718,0,0,0-1.217-.461Z" transform="translate(-335.52 -162.878)"/>
      <path id="Trazado_102862" data-name="Trazado 102862" d="M326.277,228h1.105v8.747H326.2l-4.716-7.077v7.077H320.4V228h1.161l4.716,7.045Z" transform="translate(-319.787 -166.15)"/>
      <path id="Trazado_102863" data-name="Trazado 102863" d="M337.4,234.221v.294h-4.771a2.139,2.139,0,0,0,.588,1.59,1.908,1.908,0,0,0,1.392.549,1.845,1.845,0,0,0,1.7-1.105l.97.207a2.712,2.712,0,0,1-1.042,1.312,2.855,2.855,0,0,1-1.59.477,2.95,2.95,0,0,1-2.195-.851,3.618,3.618,0,0,1,0-4.644,2.926,2.926,0,0,1,2.163-.851,2.759,2.759,0,0,1,2.06.8A3.117,3.117,0,0,1,337.4,234.221Zm-2.831-2.227a1.869,1.869,0,0,0-1.264.437,1.979,1.979,0,0,0-.644,1.256h3.658a1.821,1.821,0,0,0-.533-1.256,1.718,1.718,0,0,0-1.217-.414Z" transform="translate(-322.083 -166.804)"/>
      <path id="Trazado_102864" data-name="Trazado 102864" d="M344.785,231.332h1.074v6.091h-1.034v-.8a1.957,1.957,0,0,1-.755.684,2.386,2.386,0,0,1-1.074.239,2.131,2.131,0,0,1-1.535-.549,2.083,2.083,0,0,1-.573-1.59V231.3h1.073v3.873a1.455,1.455,0,0,0,.374,1.089,1.32,1.32,0,0,0,.962.366,1.471,1.471,0,0,0,1.081-.421,1.758,1.758,0,0,0,.429-1.248Z" transform="translate(-323.982 -166.826)"/>
      <path id="Trazado_102865" data-name="Trazado 102865" d="M351.6,236.9a1.59,1.59,0,0,1-1.193-.437,1.678,1.678,0,0,1-.437-1.217v-3.594H348.72V230.8h.461a.882.882,0,0,0,.676-.215,1.066,1.066,0,0,0,.2-.716V228.76h.994V230.8h1.408v.859H351.05v3.483a.907.907,0,0,0,.239.668.8.8,0,0,0,.612.239h.557v.859Z" transform="translate(-325.587 -166.305)"/>
      <path id="Trazado_102866" data-name="Trazado 102866" d="M356.428,232.4a1.837,1.837,0,0,1,.8-.8,2.259,2.259,0,0,1,1.169-.318v1.01a2,2,0,0,0-1.415.453,1.893,1.893,0,0,0-.493,1.447v3.221H355.41v-6.107h1.05Z" transform="translate(-326.957 -166.824)"/>
      <path id="Trazado_102867" data-name="Trazado 102867" d="M361.908,237.539a2.108,2.108,0,0,1-1.344-.421,1.5,1.5,0,0,1-.525-1.248,1.749,1.749,0,0,1,.167-.8,1.407,1.407,0,0,1,.5-.557,2.988,2.988,0,0,1,.716-.35,8.066,8.066,0,0,1,.93-.223l.986-.159c.366-.064.541-.254.541-.565a1.058,1.058,0,0,0-.382-.907,1.511,1.511,0,0,0-.962-.294,1.638,1.638,0,0,0-.962.278,1.2,1.2,0,0,0-.453.859l-.97-.207a1.893,1.893,0,0,1,.8-1.3,2.815,2.815,0,0,1,1.662-.437,3.349,3.349,0,0,1,.883.111,2.244,2.244,0,0,1,.74.342,1.5,1.5,0,0,1,.533.652,2.6,2.6,0,0,1,.183,1.01v2.489a1.026,1.026,0,0,0,.143.636.6.6,0,0,0,.485.167h.1v.8h-.533a1.01,1.01,0,0,1-1.153-.8h-.056a2.314,2.314,0,0,1-2.02.922Zm.247-.867a1.63,1.63,0,0,0,1.312-.6,2.449,2.449,0,0,0,.493-1.59l-1.59.31a2.171,2.171,0,0,0-.946.342.882.882,0,0,0-.008,1.336A1.193,1.193,0,0,0,362.154,236.672Z" transform="translate(-327.905 -166.806)"/>
      <path id="Trazado_102868" data-name="Trazado 102868" d="M369,236.542V227h1.081v9.542Z" transform="translate(-329.741 -165.945)"/>
    </g>
    <g id="Grupo_57727" data-name="Grupo 57727" transform="translate(1068.327 9167.147)">
      <path id="Trazado_102869" data-name="Trazado 102869" d="M323.867,117.109a2.712,2.712,0,0,1,2.068.8,2.934,2.934,0,0,1,.8,2.067,2.792,2.792,0,0,1-.8,2.052,2.728,2.728,0,0,1-2.068.8h-1.877V126H320.13v-8.89Zm-.318,4.2a1.336,1.336,0,0,0,1.026-.35,1.312,1.312,0,0,0,.342-.97,1.335,1.335,0,0,0-.342-.962,1.36,1.36,0,0,0-1.026-.358h-1.59v2.64Z" transform="translate(-320.13 -116.688)"/>
      <path id="Trazado_102870" data-name="Trazado 102870" d="M332.648,126.86a4.1,4.1,0,0,1-1.805-.39,2.941,2.941,0,0,1-1.24-1.153,3.386,3.386,0,0,1-.453-1.781,3.181,3.181,0,0,1,.97-2.386,4.048,4.048,0,0,1,5.065,0,3.531,3.531,0,0,1,0,4.859A3.594,3.594,0,0,1,332.648,126.86Zm0-1.423a1.646,1.646,0,0,0,1.264-.525,1.94,1.94,0,0,0,.477-1.376,1.98,1.98,0,0,0-.477-1.384,1.67,1.67,0,0,0-1.264-.517,1.59,1.59,0,0,0-1.225.525,2.219,2.219,0,0,0,0,2.751,1.59,1.59,0,0,0,1.209.525Z" transform="translate(-321.977 -117.334)"/>
      <path id="Trazado_102871" data-name="Trazado 102871" d="M341.745,126.849a3.634,3.634,0,0,1-1.869-.445,1.908,1.908,0,0,1-.907-1.336l1.495-.421a1.2,1.2,0,0,0,1.28.954,1.256,1.256,0,0,0,.652-.151.5.5,0,0,0,.254-.493.55.55,0,0,0-.1-.326.891.891,0,0,0-.326-.239l-.437-.167-.573-.167a5.925,5.925,0,0,1-.588-.183,3.772,3.772,0,0,1-.565-.239,2.131,2.131,0,0,1-.461-.326,1.327,1.327,0,0,1-.35-.5,1.837,1.837,0,0,1-.119-.684,1.638,1.638,0,0,1,.692-1.431,3.133,3.133,0,0,1,1.813-.485,3.181,3.181,0,0,1,1.67.414,1.845,1.845,0,0,1,.859,1.28l-1.392.31a1.074,1.074,0,0,0-1.129-.8,1.312,1.312,0,0,0-.628.143.469.469,0,0,0-.255.429.508.508,0,0,0,0,.191.382.382,0,0,0,.127.151l.183.119a1.179,1.179,0,0,0,.255.1,2.293,2.293,0,0,0,.278.079l.326.087.334.087a5.57,5.57,0,0,1,.6.183,4.2,4.2,0,0,1,.549.262,2.115,2.115,0,0,1,.477.374,1.819,1.819,0,0,1,.318.533,1.972,1.972,0,0,1,.119.708,1.9,1.9,0,0,1-.215.922,1.59,1.59,0,0,1-.588.628,2.821,2.821,0,0,1-.8.334A4.324,4.324,0,0,1,341.745,126.849Z" transform="translate(-323.988 -117.323)"/>
      <path id="Trazado_102872" data-name="Trazado 102872" d="M348.262,118.64a1.024,1.024,0,0,1-.732-1.757,1.018,1.018,0,0,1,.732-.3,1.034,1.034,0,0,1,0,2.06Zm-.914,7.34v-6.362h1.805v6.362Z" transform="translate(-325.678 -116.58)"/>
      <path id="Trazado_102873" data-name="Trazado 102873" d="M354.173,126.225a1.917,1.917,0,0,1-1.447-.517,2.035,2.035,0,0,1-.509-1.479v-3.014H350.96V119.84h.406a1.026,1.026,0,0,0,.8-.27,1.336,1.336,0,0,0,.254-.946v-.843h1.59v2.06h1.32v1.376h-1.32v2.823c0,.557.247.8.74.8h.581v1.36Z" transform="translate(-326.444 -116.826)"/>
      <path id="Trazado_102874" data-name="Trazado 102874" d="M359.074,118.64a1,1,0,0,1-.732-.3.97.97,0,0,1-.3-.732.994.994,0,0,1,.3-.724,1.026,1.026,0,0,1,.732-.3,1.01,1.01,0,0,1,.724.3,1.026,1.026,0,0,1,0,1.455A1.01,1.01,0,0,1,359.074,118.64Zm-.914,7.34v-6.362h1.805v6.362Z" transform="translate(-327.894 -116.58)"/>
      <path id="Trazado_102875" data-name="Trazado 102875" d="M366.685,120.37h1.9l-2.728,6.362h-1.59l-2.688-6.362H363.5l1.59,4.366Z" transform="translate(-328.619 -117.356)"/>
      <path id="Trazado_102876" data-name="Trazado 102876" d="M374.1,126.86a4.111,4.111,0,0,1-1.813-.39,2.878,2.878,0,0,1-1.233-1.153,3.387,3.387,0,0,1-.453-1.781,3.109,3.109,0,0,1,.97-2.386,4.032,4.032,0,0,1,5.057,0,3.531,3.531,0,0,1,0,4.859A3.57,3.57,0,0,1,374.1,126.86Zm0-1.423a1.59,1.59,0,0,0,1.264-.525,1.916,1.916,0,0,0,.485-1.376,1.948,1.948,0,0,0-.485-1.384,1.646,1.646,0,0,0-1.264-.509,1.591,1.591,0,0,0-1.225.525,2.219,2.219,0,0,0,0,2.751A1.591,1.591,0,0,0,374.1,125.436Z" transform="translate(-330.466 -117.333)"/>
    </g>
    <g id="Grupo_57728" data-name="Grupo 57728" transform="translate(1157.516 9193.897)">
      <path id="Trazado_102877" data-name="Trazado 102877" d="M438.932,159.967l-.747-2.091h-3.976l-.748,2.091H432.3l3.228-8.747h1.328l3.22,8.747Zm-4.35-3.069h3.252l-1.63-4.557Z" transform="translate(-432.292 -150.425)"/>
      <path id="Trazado_102878" data-name="Trazado 102878" d="M447.181,153.536a2.672,2.672,0,0,1,2.02.883,3.61,3.61,0,0,1,0,4.6,2.632,2.632,0,0,1-2.02.883,2.433,2.433,0,0,1-1.3-.358,2.274,2.274,0,0,1-.875-.962v1.185h-1V150.22h1.066v4.6a2.258,2.258,0,0,1,.875-.938A2.441,2.441,0,0,1,447.181,153.536Zm-.239,5.423a1.893,1.893,0,0,0,1.431-.62,2.3,2.3,0,0,0,.573-1.59,2.33,2.33,0,0,0-.573-1.59,1.893,1.893,0,0,0-1.431-.62,1.829,1.829,0,0,0-1.415.644,2.513,2.513,0,0,0,0,3.181,1.837,1.837,0,0,0,1.431.6Z" transform="translate(-434.688 -150.22)"/>
      <path id="Trazado_102879" data-name="Trazado 102879" d="M457.487,154.536h1.073v6.107h-1.026v-.8a1.924,1.924,0,0,1-.8.684,2.313,2.313,0,0,1-1.066.239,2.123,2.123,0,0,1-1.535-.549,2.06,2.06,0,0,1-.58-1.59V154.52h1.074v3.873a1.431,1.431,0,0,0,.382,1.089,1.288,1.288,0,0,0,.954.366,1.479,1.479,0,0,0,1.089-.421,1.717,1.717,0,0,0,.422-1.248Z" transform="translate(-436.645 -151.101)"/>
      <path id="Trazado_102880" data-name="Trazado 102880" d="M463.65,155.6a1.885,1.885,0,0,1,.8-.8,2.258,2.258,0,0,1,1.169-.318v1.01a2,2,0,0,0-1.416.453,1.893,1.893,0,0,0-.485,1.447v3.26H462.6v-6.107h1.05Z" transform="translate(-438.498 -151.095)"/>
      <path id="Trazado_102881" data-name="Trazado 102881" d="M468.99,155.6a1.861,1.861,0,0,1,.755-.8,2.314,2.314,0,0,1,1.177-.318v1.01a2.028,2.028,0,0,0-1.423.453,1.924,1.924,0,0,0-.485,1.447v3.26H467.94v-6.107h1.05Z" transform="translate(-439.591 -151.095)"/>
      <path id="Trazado_102882" data-name="Trazado 102882" d="M473.814,152.367a.692.692,0,0,1-.509-.215.708.708,0,0,1-.215-.517.692.692,0,0,1,.215-.509.732.732,0,0,1,1.018,0,.691.691,0,0,1,.215.509.708.708,0,0,1-.215.517.692.692,0,0,1-.509.215Zm-.541,7.538V153.8h1.074v6.107Z" transform="translate(-440.646 -150.364)"/>
      <path id="Trazado_102883" data-name="Trazado 102883" d="M481.775,150.22h1.073v9.542h-1.042v-1.185a2.25,2.25,0,0,1-.867.962,2.425,2.425,0,0,1-1.3.358,2.75,2.75,0,0,1-1.105-.231,2.679,2.679,0,0,1-.907-.636,2.84,2.84,0,0,1-.612-1.01,3.493,3.493,0,0,1-.231-1.3,3.236,3.236,0,0,1,.8-2.3,2.688,2.688,0,0,1,2.028-.883,2.433,2.433,0,0,1,1.28.35,2.29,2.29,0,0,1,.875.93Zm-1.932,8.747a1.853,1.853,0,0,0,1.423-.636,2.537,2.537,0,0,0,0-3.181,1.919,1.919,0,0,0-2.847-.024,2.3,2.3,0,0,0-.58,1.59,2.267,2.267,0,0,0,.58,1.59,1.861,1.861,0,0,0,1.423.652Z" transform="translate(-441.403 -150.22)"/>
      <path id="Trazado_102884" data-name="Trazado 102884" d="M489.59,160.736a3.181,3.181,0,0,1-1.59-.382,2.72,2.72,0,0,1-1.105-1.105,3.412,3.412,0,0,1-.406-1.686,3.117,3.117,0,0,1,.867-2.306,3.244,3.244,0,0,1,4.413,0,3.5,3.5,0,0,1,0,4.612A2.982,2.982,0,0,1,489.59,160.736Zm0-.891a1.893,1.893,0,0,0,1.447-.628,2.386,2.386,0,0,0,.573-1.654,2.33,2.33,0,0,0-.573-1.646,1.869,1.869,0,0,0-1.447-.628,1.845,1.845,0,0,0-1.431.628,2.693,2.693,0,0,0,0,3.3,1.877,1.877,0,0,0,1.423.628Z" transform="translate(-443.39 -151.074)"/>
      <path id="Trazado_102885" data-name="Trazado 102885" d="M436.892,170.42a2.577,2.577,0,0,1,1.376.366,2.442,2.442,0,0,1,.914.97,2.855,2.855,0,0,1,.326,1.352,2.672,2.672,0,0,1-.724,1.9,2.489,2.489,0,0,1-1.893.8h-2.179v3.4H433.6v-8.747Zm-.159,4.381a1.591,1.591,0,0,0,1.217-.469,1.94,1.94,0,0,0,0-2.473,1.591,1.591,0,0,0-1.217-.477h-2.02V174.8Z" transform="translate(-432.558 -154.357)"/>
      <path id="Trazado_102886" data-name="Trazado 102886" d="M447.669,176.655v.294H442.9a2.139,2.139,0,0,0,.588,1.59,1.908,1.908,0,0,0,1.392.549,1.853,1.853,0,0,0,1.01-.294,1.94,1.94,0,0,0,.7-.8l.962.207a2.712,2.712,0,0,1-1.042,1.312,2.855,2.855,0,0,1-1.59.477,2.95,2.95,0,0,1-2.195-.851,3.618,3.618,0,0,1,0-4.644,2.926,2.926,0,0,1,2.163-.851,2.759,2.759,0,0,1,2.059.8A3.125,3.125,0,0,1,447.669,176.655Zm-2.831-2.227a1.868,1.868,0,0,0-1.264.437,1.98,1.98,0,0,0-.644,1.256h3.658a1.821,1.821,0,0,0-.533-1.256A1.717,1.717,0,0,0,444.838,174.429Z" transform="translate(-434.254 -155.018)"/>
      <path id="Trazado_102887" data-name="Trazado 102887" d="M453.079,179.939a2.926,2.926,0,0,1-1.654-.437,1.829,1.829,0,0,1-.8-1.256l.938-.27a1.288,1.288,0,0,0,.5.851,1.59,1.59,0,0,0,1,.3,2.29,2.29,0,0,0,.588-.08.954.954,0,0,0,.445-.3.8.8,0,0,0,.183-.557,1.2,1.2,0,0,0-.048-.254.934.934,0,0,0-.1-.2.509.509,0,0,0-.175-.167l-.207-.135-.278-.111-.294-.1-.342-.1-.358-.1a6.009,6.009,0,0,1-.628-.223,2.658,2.658,0,0,1-.517-.294,1.2,1.2,0,0,1-.406-.485,1.639,1.639,0,0,1-.127-.684,1.59,1.59,0,0,1,.294-.97,1.694,1.694,0,0,1,.8-.58,3.1,3.1,0,0,1,1.089-.175,2.671,2.671,0,0,1,1.487.4,1.67,1.67,0,0,1,.74,1.193l-.883.223a1.161,1.161,0,0,0-.461-.8,1.487,1.487,0,0,0-.883-.262,1.519,1.519,0,0,0-.8.215.74.74,0,0,0-.342.66.6.6,0,0,0,.1.334.852.852,0,0,0,.183.239,1.193,1.193,0,0,0,.334.191l.358.127.445.111h.1c.239.056.437.111.589.159a4.273,4.273,0,0,1,.525.223,1.67,1.67,0,0,1,.477.334,1.533,1.533,0,0,1,.3.477,1.7,1.7,0,0,1,.119.652,1.734,1.734,0,0,1-.183.8,1.432,1.432,0,0,1-.5.565,2.266,2.266,0,0,1-.708.3A3.245,3.245,0,0,1,453.079,179.939Z" transform="translate(-436.046 -155.01)"/>
      <path id="Trazado_102888" data-name="Trazado 102888" d="M459.95,179.941a2.036,2.036,0,0,1-1.336-.421,1.5,1.5,0,0,1-.525-1.248,1.747,1.747,0,0,1,.167-.8,1.383,1.383,0,0,1,.493-.557,2.9,2.9,0,0,1,.724-.35,6.362,6.362,0,0,1,.922-.215l.994-.167c.358-.064.541-.254.541-.565a1.058,1.058,0,0,0-.382-.907,1.742,1.742,0,0,0-1.924,0,1.121,1.121,0,0,0-.453.851l-.97-.2a1.853,1.853,0,0,1,.8-1.312,2.831,2.831,0,0,1,1.662-.437,3.459,3.459,0,0,1,.891.111,2.386,2.386,0,0,1,.74.342,1.542,1.542,0,0,1,.525.652,2.46,2.46,0,0,1,.191,1.01v2.521a1.089,1.089,0,0,0,.135.636.6.6,0,0,0,.485.167h.1v.8h-.533a1.01,1.01,0,0,1-1.153-.8h-.04a2.322,2.322,0,0,1-2.044.883Zm.247-.867a1.59,1.59,0,0,0,1.312-.588,2.441,2.441,0,0,0,.5-1.59l-1.59.31a2.091,2.091,0,0,0-.946.342.889.889,0,0,0-.016,1.336A1.225,1.225,0,0,0,460.2,179.074Z" transform="translate(-437.573 -155.011)"/>
      <path id="Trazado_102889" data-name="Trazado 102889" d="M471.275,169.42h1.074v9.542h-1.042v-1.185a2.25,2.25,0,0,1-.867.962,2.425,2.425,0,0,1-1.3.358,2.752,2.752,0,0,1-1.105-.231,2.679,2.679,0,0,1-.906-.636,2.876,2.876,0,0,1-.612-1,3.565,3.565,0,0,1-.231-1.312,3.237,3.237,0,0,1,.8-2.3,2.688,2.688,0,0,1,2.028-.883,2.433,2.433,0,0,1,1.28.35,2.29,2.29,0,0,1,.875.93Zm-1.932,8.747a1.821,1.821,0,0,0,1.423-.636,2.537,2.537,0,0,0,0-3.181,1.919,1.919,0,0,0-2.847-.024,2.3,2.3,0,0,0-.58,1.63,2.266,2.266,0,0,0,.58,1.59,1.861,1.861,0,0,0,1.423.612Z" transform="translate(-439.252 -154.152)"/>
      <path id="Trazado_102890" data-name="Trazado 102890" d="M479.092,179.936a3.181,3.181,0,0,1-1.59-.382,2.72,2.72,0,0,1-1.1-1.105,3.412,3.412,0,0,1-.406-1.686,3.117,3.117,0,0,1,.867-2.306,3.244,3.244,0,0,1,4.413,0,3.5,3.5,0,0,1,0,4.612A2.982,2.982,0,0,1,479.092,179.936Zm0-.891a1.893,1.893,0,0,0,1.447-.628,2.386,2.386,0,0,0,.573-1.654,2.33,2.33,0,0,0-.573-1.646,1.869,1.869,0,0,0-1.447-.628,1.845,1.845,0,0,0-1.431.628,2.693,2.693,0,0,0,0,3.3,1.877,1.877,0,0,0,1.423.628Z" transform="translate(-441.241 -155.007)"/>
      <path id="Trazado_102891" data-name="Trazado 102891" d="M438.932,198.369l-.747-2.083h-3.976l-.748,2.091H432.3l3.228-8.747h1.328l3.22,8.747Zm-4.35-3.077h3.252l-1.63-4.572Z" transform="translate(-432.292 -158.291)"/>
      <path id="Trazado_102892" data-name="Trazado 102892" d="M446.839,192.789a2.155,2.155,0,0,1,1.543.557,2.068,2.068,0,0,1,.573,1.59v4.111h-1.074v-3.873a1.455,1.455,0,0,0-.374-1.089,1.328,1.328,0,0,0-.954-.358,1.479,1.479,0,0,0-1.089.422,1.678,1.678,0,0,0-.429,1.248v3.65H444v-6.107h1.074v.8A2.036,2.036,0,0,1,446.839,192.789Z" transform="translate(-434.688 -158.938)"/>
      <path id="Trazado_102893" data-name="Trazado 102893" d="M454.549,198.519a1.59,1.59,0,0,1-1.193-.437,1.678,1.678,0,0,1-.437-1.217v-3.61H451.67V192.4h.461a.883.883,0,0,0,.676-.215,1.066,1.066,0,0,0,.2-.716V190.36H454V192.4h1.407v.859H454v3.483a.907.907,0,0,0,.239.668.8.8,0,0,0,.612.239h.557v.859Z" transform="translate(-436.259 -158.441)"/>
      <path id="Trazado_102894" data-name="Trazado 102894" d="M458.814,190.767a.692.692,0,0,1-.509-.215.708.708,0,0,1-.215-.517.691.691,0,0,1,.215-.509.715.715,0,0,1,.509-.207.731.731,0,0,1,.509.207.692.692,0,0,1,.215.509.732.732,0,0,1-.724.732Zm-.549,7.538V192.2h1.082v6.107Z" transform="translate(-437.574 -158.228)"/>
      <path id="Trazado_102895" data-name="Trazado 102895" d="M464.833,199.127a2.919,2.919,0,0,1-2.187-.875,3.125,3.125,0,0,1-.867-2.29,3.093,3.093,0,0,1,.867-2.29,2.91,2.91,0,0,1,2.187-.883,2.958,2.958,0,0,1,1.765.541,2.648,2.648,0,0,1,1.026,1.479l-1,.167a1.829,1.829,0,0,0-1.8-1.288,1.805,1.805,0,0,0-1.415.628,2.7,2.7,0,0,0,0,3.284,1.8,1.8,0,0,0,1.415.628,1.829,1.829,0,0,0,1.8-1.288l1,.167a2.64,2.64,0,0,1-1.034,1.487A2.951,2.951,0,0,1,464.833,199.127Z" transform="translate(-438.329 -158.938)"/>
      <path id="Trazado_102896" data-name="Trazado 102896" d="M474.913,192.934h1.074v6.107h-1v-.8a1.956,1.956,0,0,1-.755.684,2.385,2.385,0,0,1-1.073.239,2.108,2.108,0,0,1-1.535-.557,2.051,2.051,0,0,1-.573-1.59V192.91h1.073v3.873a1.455,1.455,0,0,0,.374,1.089,1.32,1.32,0,0,0,.962.366,1.463,1.463,0,0,0,1.081-.421,1.758,1.758,0,0,0,.429-1.248Z" transform="translate(-440.226 -158.963)"/>
      <path id="Trazado_102897" data-name="Trazado 102897" d="M481.3,199.141a2.083,2.083,0,0,1-1.336-.421,1.5,1.5,0,0,1-.525-1.248,1.811,1.811,0,0,1,.167-.8,1.383,1.383,0,0,1,.5-.549,2.721,2.721,0,0,1,.716-.35,7.34,7.34,0,0,1,.93-.223l.986-.159c.358-.064.541-.254.541-.565a1.058,1.058,0,0,0-.382-.907,1.534,1.534,0,0,0-.97-.294,1.59,1.59,0,0,0-.954.278,1.2,1.2,0,0,0-.453.859l-.97-.207a1.853,1.853,0,0,1,.8-1.3,2.831,2.831,0,0,1,1.662-.437,3.458,3.458,0,0,1,.891.111,2.385,2.385,0,0,1,.74.342,1.543,1.543,0,0,1,.525.652,2.457,2.457,0,0,1,.191,1.01v2.521a1.026,1.026,0,0,0,.143.636.589.589,0,0,0,.477.167h.1v.8h-.541a1.018,1.018,0,0,1-1.153-.8h-.048A2.338,2.338,0,0,1,481.3,199.141Zm.255-.867a1.59,1.59,0,0,0,1.3-.6,2.385,2.385,0,0,0,.5-1.59l-1.591.31a2.091,2.091,0,0,0-.946.342.889.889,0,0,0-.016,1.336,1.232,1.232,0,0,0,.747.2Z" transform="translate(-441.946 -158.944)"/>
      <path id="Trazado_102898" data-name="Trazado 102898" d="M492.635,188.62h1.073v9.542h-1v-1.185a2.251,2.251,0,0,1-.867.962,2.386,2.386,0,0,1-1.288.358,2.792,2.792,0,0,1-1.113-.231,2.76,2.76,0,0,1-.907-.636,2.842,2.842,0,0,1-.612-1.01,3.648,3.648,0,0,1-.231-1.3,3.237,3.237,0,0,1,.8-2.3,2.7,2.7,0,0,1,2.036-.883,2.433,2.433,0,0,1,1.272.35,2.289,2.289,0,0,1,.875.93Zm-1.924,8.747a1.845,1.845,0,0,0,1.415-.636,2.537,2.537,0,0,0,0-3.181,1.837,1.837,0,0,0-1.415-.644,1.869,1.869,0,0,0-1.431.62,2.568,2.568,0,0,0,0,3.252,1.869,1.869,0,0,0,1.431.581Z" transform="translate(-443.635 -158.085)"/>
      <path id="Trazado_102899" data-name="Trazado 102899" d="M500.44,199.135a3.181,3.181,0,0,1-1.59-.382,2.688,2.688,0,0,1-1.105-1.105,3.411,3.411,0,0,1-.406-1.686,3.109,3.109,0,0,1,.867-2.306,3,3,0,0,1,2.2-.867,3.03,3.03,0,0,1,2.219.867,3.515,3.515,0,0,1,0,4.612,2.974,2.974,0,0,1-2.187.867Zm0-.891a1.877,1.877,0,0,0,1.439-.628,2.385,2.385,0,0,0,.58-1.654,2.338,2.338,0,0,0-.58-1.646,1.853,1.853,0,0,0-1.439-.628,1.821,1.821,0,0,0-1.431.628,2.33,2.33,0,0,0-.573,1.646,2.386,2.386,0,0,0,.573,1.654,1.853,1.853,0,0,0,1.431.628Z" transform="translate(-445.612 -158.938)"/>
      <path id="Trazado_102900" data-name="Trazado 102900" d="M436.117,217.7a3.976,3.976,0,0,1-2.282-.62,2.609,2.609,0,0,1-1.145-1.694l1.129-.27a1.829,1.829,0,0,0,.8,1.193,2.64,2.64,0,0,0,1.551.437,2.689,2.689,0,0,0,.573-.056,2.384,2.384,0,0,0,.525-.159,1.892,1.892,0,0,0,.437-.286,1.089,1.089,0,0,0,.278-.429,1.511,1.511,0,0,0,.1-.58,1.369,1.369,0,0,0-.08-.414,1.154,1.154,0,0,0-.175-.326.962.962,0,0,0-.294-.262,2.6,2.6,0,0,0-.8-.39l-.469-.143-.5-.143h-.1l-.581-.159-.549-.191a3.575,3.575,0,0,1-.517-.239,3.932,3.932,0,0,1-.429-.3,1.588,1.588,0,0,1-.35-.39,2.266,2.266,0,0,1-.294-1.113,2.227,2.227,0,0,1,.406-1.344,2.386,2.386,0,0,1,1.05-.8,3.818,3.818,0,0,1,1.447-.262,3.976,3.976,0,0,1,2.107.541,2.385,2.385,0,0,1,1.113,1.59l-1.081.27a1.638,1.638,0,0,0-.732-1.074,2.482,2.482,0,0,0-1.36-.366,2.665,2.665,0,0,0-.676.087,1.884,1.884,0,0,0-.58.247,1.217,1.217,0,0,0-.421.453,1.4,1.4,0,0,0-.151.668.969.969,0,0,0,.064.374,1.134,1.134,0,0,0,.151.294,1.178,1.178,0,0,0,.27.239,2.991,2.991,0,0,0,.326.2,4.171,4.171,0,0,0,.406.151l.437.143.477.127a10.252,10.252,0,0,1,1.686.557,2.139,2.139,0,0,1,1.3,1.59,2.9,2.9,0,0,1,0,.382,2.433,2.433,0,0,1-.254,1.129,2.123,2.123,0,0,1-.684.8,3.58,3.58,0,0,1-.986.437A4.572,4.572,0,0,1,436.117,217.7Z" transform="translate(-432.372 -162.209)"/>
      <path id="Trazado_102901" data-name="Trazado 102901" d="M446.937,212.136h1.073v6.107h-1.026v-.8a1.9,1.9,0,0,1-.755.684,2.331,2.331,0,0,1-1.066.239,2.139,2.139,0,0,1-1.543-.549,2.083,2.083,0,0,1-.573-1.59V212.12h1.073V216a1.455,1.455,0,0,0,.374,1.089,1.32,1.32,0,0,0,.962.366,1.463,1.463,0,0,0,1.082-.421,1.719,1.719,0,0,0,.429-1.248Z" transform="translate(-434.492 -162.897)"/>
      <path id="Trazado_102902" data-name="Trazado 102902" d="M454.444,218.367a2.918,2.918,0,0,1-2.187-.875,3.467,3.467,0,0,1,0-4.58,3.181,3.181,0,0,1,3.976-.342,2.648,2.648,0,0,1,1.026,1.479l-1,.167a1.829,1.829,0,0,0-1.8-1.288,1.805,1.805,0,0,0-1.415.628,2.7,2.7,0,0,0,0,3.284,1.805,1.805,0,0,0,1.415.628,1.829,1.829,0,0,0,1.8-1.288l1,.167a2.64,2.64,0,0,1-1.034,1.487,2.951,2.951,0,0,1-1.781.533Z" transform="translate(-436.202 -162.879)"/>
      <path id="Trazado_102903" data-name="Trazado 102903" d="M461.234,209.967a.691.691,0,0,1-.509-.215.708.708,0,0,1-.215-.517.692.692,0,0,1,.215-.509.732.732,0,0,1,1.018,0,.692.692,0,0,1,.215.509.708.708,0,0,1-.215.517.692.692,0,0,1-.509.215Zm-.541,7.538V211.4h1.081v6.107Z" transform="translate(-438.07 -162.16)"/>
      <path id="Trazado_102904" data-name="Trazado 102904" d="M467.281,218.366a3.181,3.181,0,0,1-1.59-.382,2.792,2.792,0,0,1-1.105-1.105,3.411,3.411,0,0,1-.405-1.686,3.18,3.18,0,0,1,.867-2.306,3.252,3.252,0,0,1,4.421,0,3.5,3.5,0,0,1,0,4.612A2.982,2.982,0,0,1,467.281,218.366Zm0-.891a1.893,1.893,0,0,0,1.447-.628,2.385,2.385,0,0,0,.573-1.654,2.33,2.33,0,0,0-.573-1.646,1.869,1.869,0,0,0-1.447-.628,1.845,1.845,0,0,0-1.431.628,2.693,2.693,0,0,0,0,3.3,1.877,1.877,0,0,0,1.423.6Z" transform="translate(-438.821 -162.877)"/>
      <path id="Trazado_102905" data-name="Trazado 102905" d="M437.888,228v1.018h-2.242v7.729H434.54v-7.713h-2.25V228Z" transform="translate(-432.29 -166.15)"/>
      <path id="Trazado_102906" data-name="Trazado 102906" d="M441.238,232.4a1.837,1.837,0,0,1,.8-.8,2.259,2.259,0,0,1,1.169-.318v1.01a2,2,0,0,0-1.415.453,1.892,1.892,0,0,0-.493,1.447v3.221H440.22v-6.107h1.05Z" transform="translate(-433.914 -166.824)"/>
      <path id="Trazado_102907" data-name="Trazado 102907" d="M446.022,229.167a.732.732,0,0,1-.732-.732.692.692,0,0,1,.215-.509.731.731,0,0,1,.517-.207.707.707,0,0,1,.5.207.692.692,0,0,1,.215.509.708.708,0,0,1-.215.517.683.683,0,0,1-.5.215Zm-.549,7.538V230.6h1.081v6.091Z" transform="translate(-434.952 -166.092)"/>
      <path id="Trazado_102908" data-name="Trazado 102908" d="M451.431,237.539a2.886,2.886,0,0,1-1.646-.437,1.813,1.813,0,0,1-.8-1.256l.938-.27a1.289,1.289,0,0,0,.5.851,1.591,1.591,0,0,0,1,.3,2.241,2.241,0,0,0,.588-.079.954.954,0,0,0,.445-.3.8.8,0,0,0,.183-.557.853.853,0,0,0-.048-.254.933.933,0,0,0-.1-.2.445.445,0,0,0-.175-.167,1.3,1.3,0,0,0-.207-.135l-.278-.111-.294-.1-.342-.1-.358-.1c-.255-.08-.461-.151-.628-.223a2.657,2.657,0,0,1-.517-.294,1.183,1.183,0,0,1-.4-.485,1.518,1.518,0,0,1-.135-.684,1.59,1.59,0,0,1,.294-.978,1.71,1.71,0,0,1,.8-.573,3.022,3.022,0,0,1,1.081-.175,2.672,2.672,0,0,1,1.487.4,1.67,1.67,0,0,1,.74,1.193l-.883.223a1.137,1.137,0,0,0-.461-.8,1.479,1.479,0,0,0-.875-.262,1.527,1.527,0,0,0-.8.215.732.732,0,0,0-.334.66.6.6,0,0,0,.087.334.85.85,0,0,0,.183.239,1.035,1.035,0,0,0,.334.183,3.418,3.418,0,0,0,.358.135l.453.111h.087l.589.167a3.689,3.689,0,0,1,.533.223,1.733,1.733,0,0,1,.469.334,1.59,1.59,0,0,1,.3.469,1.774,1.774,0,0,1,.119.66,1.733,1.733,0,0,1-.183.8,1.4,1.4,0,0,1-.493.557,2.227,2.227,0,0,1-.716.31A3.246,3.246,0,0,1,451.431,237.539Z" transform="translate(-435.71 -166.807)"/>
      <path id="Trazado_102909" data-name="Trazado 102909" d="M458.721,236.9a1.59,1.59,0,0,1-1.193-.437,1.67,1.67,0,0,1-.429-1.217v-3.594H455.85V230.8h.453a.875.875,0,0,0,.676-.215,1.026,1.026,0,0,0,.2-.716V228.76h1V230.8h1.4v.859h-1.4v3.483a.9.9,0,0,0,.231.668.8.8,0,0,0,.612.239h.557v.859Z" transform="translate(-437.115 -166.305)"/>
      <path id="Trazado_102910" data-name="Trazado 102910" d="M467.628,234.225v.294h-4.771a2.139,2.139,0,0,0,.588,1.59,1.908,1.908,0,0,0,1.392.549,1.852,1.852,0,0,0,1.01-.294,1.94,1.94,0,0,0,.7-.8l.97.207a2.767,2.767,0,0,1-1.05,1.312,2.855,2.855,0,0,1-1.59.477,2.95,2.95,0,0,1-2.195-.851,3.62,3.62,0,0,1,0-4.644,2.934,2.934,0,0,1,2.163-.851,2.759,2.759,0,0,1,2.06.8A3.07,3.07,0,0,1,467.628,234.225ZM464.8,232a1.869,1.869,0,0,0-1.264.437,1.98,1.98,0,0,0-.644,1.256h3.658a1.821,1.821,0,0,0-.533-1.256,1.718,1.718,0,0,0-1.217-.414Z" transform="translate(-438.341 -166.809)"/>
    </g>
    <g id="Grupo_57729" data-name="Grupo 57729" transform="translate(1158.303 9167.147)">
      <path id="Trazado_102911" data-name="Trazado 102911" d="M439.419,117.11h1.853v8.978h-2.155l-3.976-6.417v6.417H433.28V117.11h2.163l3.976,6.362Z" transform="translate(-433.28 -116.689)"/>
      <path id="Trazado_102912" data-name="Trazado 102912" d="M451.805,123.433v.429h-4.771a1.638,1.638,0,0,0,.509,1.169,1.773,1.773,0,0,0,1.964.183,1.392,1.392,0,0,0,.541-.644l1.638.239a2.831,2.831,0,0,1-1.121,1.5,3.356,3.356,0,0,1-1.885.533,3.451,3.451,0,0,1-2.489-.883,3.181,3.181,0,0,1-.922-2.433,3.253,3.253,0,0,1,.922-2.441,3.364,3.364,0,0,1,2.433-.891,2.918,2.918,0,0,1,3.181,3.236Zm-3.181-1.972a1.415,1.415,0,0,0-1.551,1.233h2.934a1.344,1.344,0,0,0-.445-.915,1.408,1.408,0,0,0-.907-.318Z" transform="translate(-435.734 -117.318)"/>
      <path id="Trazado_102913" data-name="Trazado 102913" d="M459.458,120.331h1.7v5.908a4.773,4.773,0,0,1-.239,1.59,2.625,2.625,0,0,1-.692,1.089,2.9,2.9,0,0,1-1.066.612,4.388,4.388,0,0,1-1.391.2,3.147,3.147,0,0,1-3.292-1.98l1.487-.636a2.156,2.156,0,0,0,.684.93,1.757,1.757,0,0,0,1.05.294c1.105,0,1.662-.652,1.662-1.972V125.6a2.012,2.012,0,0,1-.8.628,2.7,2.7,0,0,1-1.137.239,2.847,2.847,0,0,1-1.121-.223,2.981,2.981,0,0,1-.93-.636,3.028,3.028,0,0,1-.628-1,3.761,3.761,0,0,1,0-2.592,2.856,2.856,0,0,1,.636-.986,2.656,2.656,0,0,1,.93-.62,2.839,2.839,0,0,1,1.129-.231,2.624,2.624,0,0,1,1.185.27,1.837,1.837,0,0,1,.8.7Zm-2.743,4.222a1.543,1.543,0,0,0,1.169.493,1.59,1.59,0,0,0,1.177-.493,1.789,1.789,0,0,0,0-2.433,1.662,1.662,0,0,0-2.386,0,1.7,1.7,0,0,0-.469,1.225,1.67,1.67,0,0,0,.509,1.209Z" transform="translate(-437.622 -117.317)"/>
      <path id="Trazado_102914" data-name="Trazado 102914" d="M470.331,125a5.972,5.972,0,0,0,.151,1.59v.175h-1.67l-.143-.692a2.059,2.059,0,0,1-.891.612,3.371,3.371,0,0,1-1.161.207,3.613,3.613,0,0,1-.6-.056,2.132,2.132,0,0,1-.533-.191,1.589,1.589,0,0,1-.445-.334,1.321,1.321,0,0,1-.294-.509,1.853,1.853,0,0,1-.119-.692,1.916,1.916,0,0,1,.119-.692,1.653,1.653,0,0,1,.31-.517,1.981,1.981,0,0,1,.509-.382,3.973,3.973,0,0,1,.628-.27,7.442,7.442,0,0,1,.8-.2l1.05-.239a1.042,1.042,0,0,0,.469-.2.4.4,0,0,0,.143-.318.676.676,0,0,0-.31-.62,1.59,1.59,0,0,0-.8-.183,1.1,1.1,0,0,0-1.248.978l-1.59-.286a2.147,2.147,0,0,1,.922-1.463,3.7,3.7,0,0,1,2-.469q2.688,0,2.688,2.306Zm-3.181.644a1.431,1.431,0,0,0,1.105-.461,1.933,1.933,0,0,0,.429-1.368l-1.519.429a1.7,1.7,0,0,0-.636.262.541.541,0,0,0-.223.461.589.589,0,0,0,.239.5.97.97,0,0,0,.636.151Z" transform="translate(-439.701 -117.33)"/>
      <path id="Trazado_102915" data-name="Trazado 102915" d="M476.045,126.225a1.9,1.9,0,0,1-1.439-.517,2,2,0,0,1-.509-1.479v-3.014H472.84V119.84h.406a1.049,1.049,0,0,0,.8-.27,1.375,1.375,0,0,0,.254-.946v-.843h1.59v2.06H477.2v1.376h-1.288v2.823c0,.557.247.8.739.8h.573v1.36Z" transform="translate(-441.382 -116.826)"/>
      <path id="Trazado_102916" data-name="Trazado 102916" d="M480.974,118.64a1.018,1.018,0,0,1-.732-.3,1,1,0,0,1-.3-.732.979.979,0,0,1,.31-.724,1.026,1.026,0,1,1,1.447,1.455A.994.994,0,0,1,480.974,118.64Zm-.906,7.34v-6.362h1.8v6.362Z" transform="translate(-442.836 -116.58)"/>
      <path id="Trazado_102917" data-name="Trazado 102917" d="M488.605,120.37H490.5l-2.72,6.362h-1.59L483.5,120.37h1.885l1.59,4.366Z" transform="translate(-443.565 -117.356)"/>
      <path id="Trazado_102918" data-name="Trazado 102918" d="M496,126.86a4.1,4.1,0,0,1-1.805-.39,2.942,2.942,0,0,1-1.241-1.153,3.387,3.387,0,0,1-.453-1.781,3.18,3.18,0,0,1,.97-2.386,4.047,4.047,0,0,1,5.065,0,3.531,3.531,0,0,1,0,4.859,3.594,3.594,0,0,1-2.537.851Zm0-1.423a1.646,1.646,0,0,0,1.264-.525,1.94,1.94,0,0,0,.477-1.376,1.98,1.98,0,0,0-.477-1.384,1.67,1.67,0,0,0-1.264-.517,1.59,1.59,0,0,0-1.233.525,2.25,2.25,0,0,0,0,2.751,1.59,1.59,0,0,0,1.217.525Z" transform="translate(-445.408 -117.334)"/>
    </g>
    <path id="Trazado_818177" data-name="Trazado 818177" d="M361.355,152.7l1.59-2.02.573.414-.716.818-.675.772Z" transform="translate(718.245 9074.521)"/>
  </g>
</svg>
