<svg xmlns="http://www.w3.org/2000/svg" width="505" height="370" viewBox="0 0 505 370">
  <g id="Grupo_1072324" data-name="Grupo 1072324" transform="translate(-389.562 -2341.124)">
    <rect id="Rectángulo_5290" data-name="Rectángulo 5290" width="505" height="370" rx="10" transform="translate(389.562 2341.124)" fill="#fff"/>
    <g id="prop" transform="translate(474.562 2365.123)">
      <g id="Grupo_1072579" data-name="Grupo 1072579">
        <path id="Trazado_818463" data-name="Trazado 818463" d="M12.3,0c6.793,0,12.3,2.271,12.3,5.072s-5.507,5.072-12.3,5.072S0,7.873,0,5.072,5.507,0,12.3,0Z" transform="translate(201.117 39.932)" fill="#fff" stroke="#000" stroke-width="1"/>
        <path id="Trazado_101711" data-name="Trazado 101711" d="M511.4,239.848a290.837,290.837,0,0,1,75.317,0v24.484a290.835,290.835,0,0,0-75.317,0Z" transform="translate(-335.874 -118.877)" fill="#ae676b" stroke="#000" stroke-width="1"/>
        <path id="Trazado_101712" data-name="Trazado 101712" d="M367.1,302.4c0-11.018,8.628-21.219,23.26-29.5v24.484c-14.632,8.278-23.26,18.479-23.26,29.5V302.4Z" transform="translate(-275.694 -133.682)" fill="#8e6fa1" stroke="#000" stroke-width="1"/>
        <path id="Trazado_101713" data-name="Trazado 101713" d="M744.2,272.4c14.923,8.336,23.784,18.6,23.784,29.789v24.484c0-11.134-8.8-21.452-23.784-29.789Z" transform="translate(-432.964 -133.474)" fill="#927830" stroke="#000" stroke-width="1"/>
        <path id="Trazado_101714" data-name="Trazado 101714" d="M640.6,241.6c24.426,3.265,45.47,9.619,60.393,17.955v24.484c-14.923-8.336-35.968-14.69-60.393-17.955Z" transform="translate(-389.757 -120.628)" fill="#a86d4b" stroke="#000" stroke-width="1"/>
        <path id="Trazado_101715" data-name="Trazado 101715" d="M407,259.846c14.982-8.453,36.2-14.924,60.918-18.246v24.484C443.2,269.407,421.982,275.877,407,284.33Z" transform="translate(-292.334 -120.628)" fill="#a66885" stroke="#000" stroke-width="1"/>
        <path id="Trazado_101716" data-name="Trazado 101716" d="M367.1,323.5c0,11.134,8.8,21.453,23.784,29.789v24.484c-14.924-8.336-23.784-18.6-23.784-29.789Z" transform="translate(-275.694 -154.785)" fill="#657bab" stroke="#000" stroke-width="1"/>
        <path id="Trazado_101717" data-name="Trazado 101717" d="M579.942,184.434c-5.13,5.713-19.412,5.655-24.542,0V160.3c5.13,5.655,19.47,5.713,24.542,0Z" transform="translate(-354.224 -90.054)" fill="#e8e8e8" stroke="#000" stroke-width="0.923"/>
        <path id="Trazado_101718" data-name="Trazado 101718" d="M579.942,143.034c-5.13,5.713-19.412,5.655-24.542,0V118.9c5.13,5.6,19.47,5.713,24.542,0Z" transform="translate(-354.224 -72.788)" fill="#fff" stroke="#000" stroke-width="0.923"/>
        <path id="Trazado_101719" data-name="Trazado 101719" d="M579.942,225.834c-5.13,5.713-19.412,5.655-24.542,0V201.7c5.13,5.655,19.412,5.713,24.542,0Z" transform="translate(-354.224 -106.097)" fill="#cbcbcb" stroke="#000" stroke-width="0.923"/>
        <path id="Trazado_101720" data-name="Trazado 101720" d="M579.942,267.134c-5.13,5.655-19.412,5.655-24.542,0V243c5.188,5.655,19.412,5.713,24.542,0Z" transform="translate(-354.224 -122.711)" fill="#b3b3b3" stroke="#000" stroke-width="0.923"/>
        <path id="Trazado_101721" data-name="Trazado 101721" d="M579.942,308.534c-5.188,5.655-19.412,5.655-24.542,0V284.4c5.188,5.655,19.412,5.655,24.542,0Z" transform="translate(-354.224 -139.366)" fill="#969696" stroke="#000" stroke-width="0.923"/>
        <path id="Trazado_101722" data-name="Trazado 101722" d="M579.942,349.934c-5.188,5.655-19.412,5.655-24.542,0V325.8c5.188,5.655,19.412,5.655,24.542,0Z" transform="translate(-354.224 -156.021)" fill="#7c7c7c" stroke="#000" stroke-width="0.923"/>
        <path id="Trazado_101723" data-name="Trazado 101723" d="M579.942,391.334c-5.188,5.655-19.412,5.655-24.542,0V367.2c5.188,5.655,19.412,5.655,24.542,0Z" transform="translate(-354.224 -172.675)" fill="#616161" stroke="#000" stroke-width="0.923"/>
        <path id="Trazado_101724" data-name="Trazado 101724" d="M579.942,432.634c-5.188,5.655-19.412,5.713-24.542,0V408.5c5.188,5.655,19.412,5.655,24.542,0Z" transform="translate(-354.224 -189.289)" fill="#464646" stroke="#000" stroke-width="0.923"/>
        <path id="Trazado_101725" data-name="Trazado 101725" d="M579.942,474.034c-5.188,5.655-19.412,5.713-24.542,0V449.9c5.188,5.713,19.354,5.655,24.542,0Z" transform="translate(-354.224 -205.944)" fill="#303030" stroke="#000" stroke-width="0.923"/>
        <path id="Trazado_101726" data-name="Trazado 101726" d="M579.942,515.434c-5.188,5.6-19.354,5.713-24.542,0V491.3c5.188,5.713,19.354,5.6,24.542,0Z" transform="translate(-354.224 -221.987)" fill="#1c1c1c" stroke="#000" stroke-width="0.923"/>
        <path id="Trazado_101727" data-name="Trazado 101727" d="M579.942,556.834c-5.247,5.6-19.412,5.713-24.542,0V532.7c5.188,5.713,19.354,5.6,24.542,0Z" transform="translate(-354.224 -239.253)" stroke="#000" stroke-width="0.923"/>
        <path id="Trazado_101728" data-name="Trazado 101728" d="M576,323.5" transform="translate(-362.816 -154.647)" fill="none" stroke="#7c7c7c" stroke-linecap="square" stroke-linejoin="bevel" stroke-width="9.891"/>
        <path id="Trazado_101729" data-name="Trazado 101729" d="M576,365.4" transform="translate(-362.816 -172.122)" fill="none" stroke="#7c7c7c" stroke-linecap="square" stroke-linejoin="bevel" stroke-width="9.891"/>
        <path id="Trazado_101730" data-name="Trazado 101730" d="M210.4,347.884c0,19.529,15.448,37.542,41.564,52.116V375.516C225.848,360.942,210.4,342.929,210.4,323.4Z" transform="translate(-210.342 -153.849)" fill="#2e7cd6" stroke="#000" stroke-width="1"/>
        <path id="Trazado_101731" data-name="Trazado 101731" d="M240.788,323.5c0,16.731,13.233,32.179,35.618,44.654v24.484L251.864,400.1V375.616C225.748,361.042,210.3,343.029,210.3,323.5Z" transform="translate(-210.3 -153.891)" fill="#2e7cd6" stroke="#000" stroke-width="1"/>
        <path id="Trazado_101732" data-name="Trazado 101732" d="M293.072,323.5c0,13.932,11.018,26.816,29.73,37.192v24.484l-24.484,7.462V368.154C275.933,355.679,262.7,340.231,262.7,323.5Z" transform="translate(-232.153 -153.891)" fill="#487bc7" stroke="#000" stroke-width="1"/>
        <path id="Trazado_101733" data-name="Trazado 101733" d="M345.288,323.5c0,11.134,8.8,21.453,23.784,29.789v24.484l-24.542,7.462V360.75c-18.654-10.435-29.73-23.26-29.73-37.192l30.488-.058Z" transform="translate(-253.882 -153.891)" fill="#597bb9" stroke="#000" stroke-width="1"/>
        <path id="Trazado_101734" data-name="Trazado 101734" d="M397.53,323.5c0,8.336,6.646,16.089,17.838,22.327v24.484l-24.484,7.462V353.289c-14.924-8.336-23.784-18.6-23.784-29.789Z" transform="translate(-275.694 -153.891)" fill="#657bab" stroke="#000" stroke-width="1"/>
        <path id="Trazado_101735" data-name="Trazado 101735" d="M461.622,362.849V338.365c-7.462-4.139-11.892-9.327-11.892-14.865H419.3c0,8.336,6.646,16.089,17.838,22.327v24.484Z" transform="translate(-297.464 -153.891)" fill="#6f7a9c" stroke="#000" stroke-width="1"/>
        <path id="Trazado_101736" data-name="Trazado 101736" d="M483.392,362.807l24.484-7.462V330.862c-3.731-2.1-5.946-4.664-5.946-7.462H471.5c0,5.6,4.43,10.726,11.892,14.865v24.542Z" transform="translate(-319.234 -153.849)" fill="#787a8e" stroke="#000" stroke-width="1"/>
        <path id="Trazado_101737" data-name="Trazado 101737" d="M544.378,326.431v24.484l-14.632,4.43V330.862c-3.731-2.1-5.946-4.664-5.946-7.462h18.363C542.1,324.682,543.445,325.79,544.378,326.431Z" transform="translate(-341.045 -153.849)" fill="#7c7c7c" stroke="#000" stroke-width="1"/>
        <path id="Trazado_818464" data-name="Trazado 818464" d="M161.71,0,0,49.084" transform="translate(41.623 172.582)" fill="none" stroke="#000" stroke-width="1"/>
        <path id="Trazado_101738" data-name="Trazado 101738" d="M586.717,405.3a286.517,286.517,0,0,1-37.658,2.448A287.863,287.863,0,0,1,511.4,405.3v24.484a290.838,290.838,0,0,0,75.317,0Z" transform="translate(-335.874 -188.04)" fill="#2d8788" stroke="#000" stroke-width="1"/>
        <path id="Trazado_101739" data-name="Trazado 101739" d="M701.518,374.1c-14.982,8.453-36.2,14.923-60.918,18.246V416.83c24.717-3.323,45.936-9.794,60.918-18.246Z" transform="translate(-389.757 -175.028)" fill="#42886d" stroke="#000" stroke-width="1"/>
        <path id="Trazado_101740" data-name="Trazado 101740" d="M768.36,323.5c0,11.018-8.628,21.219-23.26,29.5v24.484c14.632-8.278,23.26-18.479,23.26-29.5Z" transform="translate(-433.339 -153.925)" fill="#72823d" stroke="#000" stroke-width="1"/>
        <path id="Trazado_101741" data-name="Trazado 101741" d="M468.193,392.455c-24.426-3.264-45.47-9.619-60.393-17.955v24.484c14.923,8.336,35.968,14.69,60.393,17.955Z" transform="translate(-292.667 -175.195)" fill="#3584a2" stroke="#000" stroke-width="1"/>
        <path id="Trazado_818465" data-name="Trazado 818465" d="M0,0,20.986,18.654" transform="translate(82.954 143.245)" fill="none" stroke="#000" stroke-width="1"/>
        <path id="Trazado_818466" data-name="Trazado 818466" d="M0,0,16.906,26.816" transform="translate(126.092 114.68)" fill="none" stroke="#000" stroke-width="1"/>
        <path id="Trazado_818467" data-name="Trazado 818467" d="M0,0,9.327,21.569" transform="translate(183.804 109.433)" fill="none" stroke="#000" stroke-width="1"/>
        <path id="Trazado_818468" data-name="Trazado 818468" d="M0,0,5.829,43.721" transform="translate(272.412 97.774)" fill="none" stroke="#000" stroke-width="1"/>
        <path id="Trazado_818469" data-name="Trazado 818469" d="M0,0,12.825,40.223" transform="translate(310.304 121.092)" fill="none" stroke="#000" stroke-width="1"/>
        <path id="Trazado_818470" data-name="Trazado 818470" d="M0,26.233,7,0" transform="translate(134.02 225.207)" fill="none" stroke="#000" stroke-width="1"/>
        <path id="Trazado_818471" data-name="Trazado 818471" d="M0,38.475,33.228,0" transform="translate(171.62 233.077)" fill="none" stroke="#000" stroke-width="1"/>
        <path id="Trazado_818472" data-name="Trazado 818472" d="M0,0,15.39,8.8" transform="translate(303.133 185.799)" fill="none" stroke="#000" stroke-width="1"/>
        <path id="Trazado_818473" data-name="Trazado 818473" d="M0,0,20.52,20.986" transform="translate(288.385 219.96)" fill="none" stroke="#000" stroke-width="1"/>
        <path id="Trazado_818474" data-name="Trazado 818474" d="M0,34.394,1.166,0" transform="translate(79.456 223.108)" fill="none" stroke="#000" stroke-width="1"/>
        <path id="Trazado_101742" data-name="Trazado 101742" d="M544.207,354.87c-1.457,0-2.507-1.4-2.507-3.906,0-2.565,1.108-3.964,2.623-3.964,1.574,0,2.507,1.4,2.507,3.847,0,2.565-.933,4.022-2.623,4.022Zm.058-.816c1.049,0,1.516-1.224,1.516-3.148,0-1.865-.466-3.09-1.516-3.09-.933,0-1.516,1.166-1.516,3.09-.058,1.982.525,3.148,1.516,3.148Z" transform="translate(-348.511 -164.312)"/>
        <path id="Trazado_101743" data-name="Trazado 101743" d="M510.5,364.737V364.1l.816-.758c1.924-1.865,2.8-2.8,2.8-3.964a1.334,1.334,0,0,0-1.516-1.457,2.622,2.622,0,0,0-1.632.641l-.35-.7a3.558,3.558,0,0,1,2.157-.758,2.139,2.139,0,0,1,2.332,2.215c0,1.4-.991,2.507-2.623,4.081l-.583.583h3.381v.874l-4.78-.117Z" transform="translate(-335.499 -168.524)"/>
        <path id="Trazado_101744" data-name="Trazado 101744" d="M453.5,342.82v-2.04H450v-.641l3.381-4.838h1.108v4.722h1.049v.816h-1.049v2.04l-.991-.058Zm0-2.856v-2.507a7.437,7.437,0,0,1,.058-1.166H453.5a9.328,9.328,0,0,1-.641,1.108l-1.865,2.565H453.5Z" transform="translate(-310.267 -159.432)"/>
        <path id="Trazado_101745" data-name="Trazado 101745" d="M406.73,342.516a3.586,3.586,0,0,0-.758.058,3.021,3.021,0,0,0-2.623,2.682h0a2.3,2.3,0,0,1,1.865-.874,2.254,2.254,0,0,1,2.273,2.448,2.528,2.528,0,0,1-2.507,2.682c-1.632,0-2.682-1.283-2.682-3.206a4.755,4.755,0,0,1,1.282-3.439,3.982,3.982,0,0,1,2.448-1.108,3.87,3.87,0,0,1,.758-.058l-.058.816Zm-1.749,6.238c.874,0,1.457-.758,1.457-1.807a1.591,1.591,0,0,0-3.031-.816.9.9,0,0,0-.117.466c.058,1.224.641,2.157,1.691,2.157Z" transform="translate(-290.374 -162.102)"/>
        <path id="Trazado_101746" data-name="Trazado 101746" d="M354.982,348.7a1.981,1.981,0,0,1,2.215,1.865,1.905,1.905,0,0,1-1.282,1.749v.058a2.1,2.1,0,0,1,1.516,1.982,2.312,2.312,0,0,1-2.565,2.215c-1.574,0-2.565-.933-2.565-2.04a2.225,2.225,0,0,1,1.516-2.04v-.058a1.858,1.858,0,0,1-1.224-1.691,2.161,2.161,0,0,1,2.39-2.04Zm-.058,7.112a1.369,1.369,0,0,0,1.516-1.341c0-.933-.641-1.341-1.691-1.632a1.647,1.647,0,0,0-1.341,1.574,1.378,1.378,0,0,0,1.516,1.4Zm0-6.354a1.227,1.227,0,0,0-1.341,1.224c0,.758.583,1.166,1.457,1.4a1.545,1.545,0,0,0,1.166-1.4,1.148,1.148,0,0,0-1.283-1.224Z" transform="translate(-269.521 -165.021)"/>
        <path id="Trazado_101747" data-name="Trazado 101747" d="M298.916,355.933h0l-1.341.7-.175-.758,1.632-.874h.874v7.578h-.991Z" transform="translate(-246.625 -167.648)"/>
        <path id="Trazado_101748" data-name="Trazado 101748" d="M308.807,362.47c-1.457,0-2.507-1.4-2.507-3.906,0-2.565,1.108-3.964,2.623-3.964,1.574,0,2.507,1.4,2.507,3.847,0,2.623-.991,4.022-2.623,4.022Zm.058-.758c1.049,0,1.516-1.224,1.516-3.148,0-1.865-.466-3.09-1.516-3.09-.933,0-1.516,1.166-1.516,3.09-.058,1.924.525,3.148,1.516,3.148Z" transform="translate(-250.337 -167.481)"/>
        <path id="Trazado_101749" data-name="Trazado 101749" d="M250.216,363.933h0l-1.341.7-.175-.758,1.632-.874h.874v7.578h-.991Z" transform="translate(-226.314 -170.985)"/>
        <path id="Trazado_101750" data-name="Trazado 101750" d="M257.8,370.437V369.8l.816-.758c1.924-1.865,2.8-2.8,2.8-3.964a1.334,1.334,0,0,0-1.516-1.457,2.622,2.622,0,0,0-1.632.641l-.35-.7a3.558,3.558,0,0,1,2.157-.758,2.139,2.139,0,0,1,2.332,2.215c0,1.4-.991,2.507-2.623,4.081l-.583.583h3.381v.874l-4.78-.117Z" transform="translate(-230.11 -170.901)"/>
        <path id="Trazado_101751" data-name="Trazado 101751" d="M612.516,131.533h0l-1.341.7-.175-.758,1.632-.874h.874v7.578h-.991v-6.646Z" transform="translate(-377.413 -71.557)"/>
        <path id="Trazado_101752" data-name="Trazado 101752" d="M622.407,138.17c-1.457,0-2.507-1.4-2.507-3.906,0-2.565,1.108-3.964,2.623-3.964,1.574,0,2.507,1.4,2.507,3.847,0,2.623-.933,4.022-2.623,4.022Zm.058-.816c1.049,0,1.516-1.224,1.516-3.148,0-1.865-.466-3.09-1.516-3.09-.933,0-1.516,1.166-1.516,3.09-.058,1.982.525,3.148,1.516,3.148Z" transform="translate(-381.125 -71.432)"/>
        <path id="Trazado_101753" data-name="Trazado 101753" d="M612.281,213.4a1.981,1.981,0,0,1,2.215,1.865,1.905,1.905,0,0,1-1.282,1.749v.058a2.1,2.1,0,0,1,1.516,1.982,2.312,2.312,0,0,1-2.565,2.215c-1.574,0-2.565-.933-2.565-2.04a2.225,2.225,0,0,1,1.516-2.04v-.058a1.858,1.858,0,0,1-1.224-1.691,2.161,2.161,0,0,1,2.39-2.04Zm-.058,7.054a1.369,1.369,0,0,0,1.516-1.341c0-.933-.641-1.341-1.691-1.632a1.647,1.647,0,0,0-1.341,1.574,1.35,1.35,0,0,0,1.516,1.4Zm0-6.354a1.227,1.227,0,0,0-1.341,1.224c0,.758.583,1.166,1.457,1.4a1.545,1.545,0,0,0,1.166-1.4,1.174,1.174,0,0,0-1.283-1.224Z" transform="translate(-376.828 -106.089)"/>
        <path id="Trazado_101754" data-name="Trazado 101754" d="M612.107,556.17c-1.457,0-2.507-1.4-2.507-3.906,0-2.565,1.108-3.964,2.623-3.964,1.574,0,2.507,1.4,2.507,3.847.058,2.623-.933,4.022-2.623,4.022Zm.058-.816c1.049,0,1.516-1.224,1.516-3.148,0-1.865-.466-3.09-1.516-3.09-.933,0-1.516,1.166-1.516,3.09-.058,1.982.583,3.148,1.516,3.148Z" transform="translate(-376.829 -245.759)"/>
        <path id="Trazado_101755" data-name="Trazado 101755" d="M609.8,474.137V473.5l.816-.758c1.924-1.865,2.8-2.8,2.8-3.964a1.334,1.334,0,0,0-1.516-1.457,2.622,2.622,0,0,0-1.632.641l-.35-.7a3.558,3.558,0,0,1,2.157-.758,2.139,2.139,0,0,1,2.332,2.215c0,1.4-.991,2.507-2.623,4.081l-.583.583h3.381v.874l-4.78-.117Z" transform="translate(-376.912 -211.645)"/>
        <path id="Trazado_101756" data-name="Trazado 101756" d="M614.03,300.216a3.588,3.588,0,0,0-.758.058,3.021,3.021,0,0,0-2.623,2.682h0a2.3,2.3,0,0,1,1.865-.874,2.253,2.253,0,0,1,2.273,2.448,2.528,2.528,0,0,1-2.507,2.682c-1.632,0-2.682-1.282-2.682-3.206a4.755,4.755,0,0,1,1.282-3.439,3.982,3.982,0,0,1,2.448-1.108,3.868,3.868,0,0,1,.758-.058l-.058.816Zm-1.749,6.179c.874,0,1.457-.758,1.457-1.807a1.591,1.591,0,0,0-3.031-.816.9.9,0,0,0-.117.466c0,1.224.583,2.157,1.691,2.157Z" transform="translate(-376.829 -141.955)"/>
        <path id="Trazado_101757" data-name="Trazado 101757" d="M612.7,390.178v-2.1h-3.5v-.641l3.381-4.838h1.108v4.722h1.049v.816h-1.049v2.04Zm0-2.856v-2.565a7.433,7.433,0,0,1,.058-1.166H612.7a9.334,9.334,0,0,1-.641,1.108l-1.865,2.565H612.7Z" transform="translate(-376.662 -176.654)"/>
        <path id="Trazado_101758" data-name="Trazado 101758" d="M614.389,341.974h-2.915l-.291,1.924c.175,0,.35-.058.641-.058a3.091,3.091,0,0,1,1.632.408,2.23,2.23,0,0,1,1.108,1.982,2.611,2.611,0,0,1-2.8,2.565,3.612,3.612,0,0,1-1.865-.466l.233-.758a3.478,3.478,0,0,0,1.632.408,1.708,1.708,0,0,0,1.807-1.632c0-.991-.641-1.691-2.157-1.691-.466,0-.758.058-1.049.058l.466-3.614h3.614l-.058.874Z" transform="translate(-376.954 -159.347)"/>
        <g id="Grupo_57541" data-name="Grupo 57541" transform="translate(70.129 69.372)">
          <g id="Grupo_57540" data-name="Grupo 57540">
            <line id="Línea_150" data-name="Línea 150" y2="25.067" transform="translate(2.798)" fill="none" stroke="#14315d" stroke-width="1.5"/>
            <path id="Trazado_101759" data-name="Trazado 101759" d="M333.4,204.255a17.9,17.9,0,0,0-2.8-4.955l2.8.991,2.8-.991A18.778,18.778,0,0,0,333.4,204.255Z" transform="translate(-330.6 -175.691)" fill="#14315d"/>
          </g>
        </g>
        <g id="Grupo_57543" data-name="Grupo 57543" transform="translate(70.129 0)">
          <g id="Grupo_57542" data-name="Grupo 57542">
            <line id="Línea_151" data-name="Línea 151" y2="60.335" transform="translate(2.798 3.498)" fill="none" stroke="#14315d" stroke-width="1.5"/>
            <path id="Trazado_101760" data-name="Trazado 101760" d="M333.4,39.8a17.9,17.9,0,0,0,2.8,4.955l-2.8-.991-2.8.991A16.011,16.011,0,0,0,333.4,39.8Z" transform="translate(-330.6 -39.8)" fill="#14315d"/>
          </g>
        </g>
        <g id="Grupo_57546" data-name="Grupo 57546" transform="translate(76.25 30.372)">
          <g id="Grupo_57545" data-name="Grupo 57545">
            <path id="Trazado_101761" data-name="Trazado 101761" d="M341.1,94.9a92.312,92.312,0,0,1,12.475,1.224" transform="translate(-341.1 -93.151)" fill="none" stroke="#0b3a18" stroke-width="1.5"/>
            <path id="Trazado_101762" data-name="Trazado 101762" d="M364.663,95.456A18.379,18.379,0,0,0,359.3,97.38l1.457-2.565-.525-2.915A18,18,0,0,0,364.663,95.456Z" transform="translate(-348.69 -91.9)" fill="#0b3a18"/>
          </g>
        </g>
        <g id="Grupo_57548" data-name="Grupo 57548" transform="translate(30.838 32.121)">
          <g id="Grupo_57547" data-name="Grupo 57547">
            <path id="Trazado_101763" data-name="Trazado 101763" d="M345.1,106.5a8.86,8.86,0,0,1,2.273,5.655c0,9.56-18.829,17.314-42.089,17.314S263.2,121.716,263.2,112.155c0-9.152,17.2-16.614,39-17.255" transform="translate(-263.2 -94.9)" fill="none" stroke="#0b3a18" stroke-width="1.5"/>
            <path id="Trazado_101764" data-name="Trazado 101764" d="M399.8,110.2a18.483,18.483,0,0,0,5.3,2.04l-2.74.991-1.457,2.565A18.713,18.713,0,0,0,399.8,110.2Z" transform="translate(-320.169 -101.281)" fill="#0b3a18"/>
          </g>
        </g>
        <g id="Grupo_57550" data-name="Grupo 57550" transform="translate(11.542 48.91)">
          <line id="Línea_152" data-name="Línea 152" x1="51.008" y2="13.466" transform="translate(3.381 2.273)" fill="none" stroke="#591d24" stroke-width="1.5"/>
          <path id="Trazado_101765" data-name="Trazado 101765" d="M230.1,149.364a17.852,17.852,0,0,0,4.139-3.964l-.291,2.915,1.691,2.448A19.325,19.325,0,0,0,230.1,149.364Z" transform="translate(-230.1 -132.75)" fill="#591d24"/>
          <path id="Trazado_101766" data-name="Trazado 101766" d="M325.238,125.1a17.852,17.852,0,0,0-4.139,3.964l.291-2.915L319.7,123.7A18,18,0,0,0,325.238,125.1Z" transform="translate(-267.468 -123.7)" fill="#591d24"/>
        </g>
        <path id="Trazado_101767" data-name="Trazado 101767" d="M385.679,84.7v1.108h-2.448v8.569h-1.224V85.808H379.5V84.7Z" transform="translate(-280.865 -58.526)"/>
        <path id="Trazado_101768" data-name="Trazado 101768" d="M393.339,96.5a3.521,3.521,0,0,1-1.749-.408,3.092,3.092,0,0,1-1.224-1.224A3.845,3.845,0,0,1,389.9,93a3.479,3.479,0,0,1,.933-2.565,3.68,3.68,0,0,1,4.9,0A3.39,3.39,0,0,1,396.662,93a3.479,3.479,0,0,1-.933,2.565A3.3,3.3,0,0,1,393.339,96.5Zm0-.991a2,2,0,0,0,1.574-.7,2.867,2.867,0,0,0,0-3.614,2.121,2.121,0,0,0-3.148,0,2.867,2.867,0,0,0,0,3.614A2,2,0,0,0,393.339,95.5Z" transform="translate(-285.203 -60.528)"/>
        <path id="Trazado_101769" data-name="Trazado 101769" d="M408.048,89.4a2.3,2.3,0,0,1,1.69.583,2.379,2.379,0,0,1,.641,1.749v4.547h-1.166V92.023a1.642,1.642,0,0,0-.408-1.224,1.676,1.676,0,0,0-1.049-.408,1.881,1.881,0,0,0-1.224.466,1.919,1.919,0,0,0-.466,1.4v4.022H404.9v-6.7h1.166v.874A2.16,2.16,0,0,1,408.048,89.4Z" transform="translate(-291.458 -60.486)"/>
        <path id="Trazado_101770" data-name="Trazado 101770" d="M420.639,96.5a3.521,3.521,0,0,1-1.749-.408,3.092,3.092,0,0,1-1.224-1.224A3.846,3.846,0,0,1,417.2,93a3.479,3.479,0,0,1,.933-2.565,3.68,3.68,0,0,1,4.9,0A3.391,3.391,0,0,1,423.962,93a3.479,3.479,0,0,1-.933,2.565A3.3,3.3,0,0,1,420.639,96.5Zm0-.991a2,2,0,0,0,1.574-.7,2.867,2.867,0,0,0,0-3.614,2.12,2.12,0,0,0-3.148,0,2.867,2.867,0,0,0,0,3.614A2,2,0,0,0,420.639,95.5Z" transform="translate(-296.588 -60.528)"/>
        <path id="Trazado_101771" data-name="Trazado 101771" d="M659.738,176h.933v7.229h-.991l-3.906-5.829v5.829H654.9V176h.933l3.906,5.829Z" transform="translate(-395.721 -95.02)"/>
        <path id="Trazado_101772" data-name="Trazado 101772" d="M669.016,184.747a1.681,1.681,0,0,1-1.108-.35,1.247,1.247,0,0,1-.408-1.049,2.094,2.094,0,0,1,.117-.641,1.037,1.037,0,0,1,.408-.466,1.822,1.822,0,0,1,.583-.291c.233-.058.466-.117.758-.175l.816-.117c.292-.058.466-.233.466-.466a1.007,1.007,0,0,0-.291-.758,1.233,1.233,0,0,0-.816-.233,1.339,1.339,0,0,0-.816.233.831.831,0,0,0-.35.7l-.816-.175a1.67,1.67,0,0,1,.641-1.108,2.094,2.094,0,0,1,1.4-.35,2.954,2.954,0,0,1,.758.117,1.824,1.824,0,0,1,.583.291.931.931,0,0,1,.408.525,3.363,3.363,0,0,1,.175.816v2.1a1.163,1.163,0,0,0,.117.525c.058.117.233.117.408.117h.058v.641h-.466c-.525,0-.874-.233-.933-.7h-.058A1.764,1.764,0,0,1,669.016,184.747Zm.175-.7a1.493,1.493,0,0,0,1.108-.466,1.851,1.851,0,0,0,.408-1.341l-1.341.233a1.566,1.566,0,0,0-.758.291.707.707,0,0,0,0,1.049A.675.675,0,0,0,669.19,184.047Z" transform="translate(-400.976 -96.479)"/>
        <path id="Trazado_101773" data-name="Trazado 101773" d="M678.416,180.491a1.483,1.483,0,0,1,.641-.7,1.965,1.965,0,0,1,.991-.291v.816a1.741,1.741,0,0,0-1.166.35,1.425,1.425,0,0,0-.408,1.166v2.682H677.6V179.5h.874v.991Z" transform="translate(-405.188 -96.479)"/>
        <path id="Trazado_101774" data-name="Trazado 101774" d="M684.316,184.747a1.681,1.681,0,0,1-1.108-.35,1.247,1.247,0,0,1-.408-1.049,2.1,2.1,0,0,1,.117-.641,1.037,1.037,0,0,1,.408-.466,1.822,1.822,0,0,1,.583-.291c.233-.058.466-.117.758-.175l.816-.117c.292-.058.466-.233.466-.466a1.007,1.007,0,0,0-.291-.758,1.234,1.234,0,0,0-.816-.233,1.339,1.339,0,0,0-.816.233.831.831,0,0,0-.35.7l-.816-.175a1.67,1.67,0,0,1,.641-1.108,2.094,2.094,0,0,1,1.4-.35,2.954,2.954,0,0,1,.758.117,1.825,1.825,0,0,1,.583.291.931.931,0,0,1,.408.525,3.363,3.363,0,0,1,.175.816v2.1a1.163,1.163,0,0,0,.117.525c.058.117.233.117.408.117h.058v.641H687c-.525,0-.874-.233-.933-.7h-.058A1.861,1.861,0,0,1,684.316,184.747Zm.233-.7a1.493,1.493,0,0,0,1.108-.466,1.851,1.851,0,0,0,.408-1.341l-1.341.233a1.567,1.567,0,0,0-.758.291.707.707,0,0,0,0,1.049A.614.614,0,0,0,684.549,184.047Z" transform="translate(-407.357 -96.479)"/>
        <path id="Trazado_101775" data-name="Trazado 101775" d="M695.232,179.6a1.921,1.921,0,0,1,1.283.466,1.815,1.815,0,0,1,.466,1.282v3.381h-.874v-3.206a1.207,1.207,0,0,0-.292-.874,1.153,1.153,0,0,0-.816-.291,1.186,1.186,0,0,0-.874.35,1.425,1.425,0,0,0-.35,1.049v3.031H692.9v-5.013h.874v.641A1.55,1.55,0,0,1,695.232,179.6Z" transform="translate(-411.569 -96.521)"/>
        <path id="Trazado_101776" data-name="Trazado 101776" d="M700.9,185.435v-.758a1.675,1.675,0,0,0,.7-.117.763.763,0,0,0,.35-.466,4.342,4.342,0,0,0,.117-1.049V178.09h.874v4.955a3,3,0,0,1-.466,1.865A1.965,1.965,0,0,1,700.9,185.435Zm1.574-8.569a.6.6,0,1,1,.408-.175A.454.454,0,0,1,702.474,176.866Z" transform="translate(-414.906 -94.895)"/>
        <path id="Trazado_101777" data-name="Trazado 101777" d="M708.416,184.747a1.681,1.681,0,0,1-1.108-.35,1.247,1.247,0,0,1-.408-1.049,2.1,2.1,0,0,1,.117-.641,1.037,1.037,0,0,1,.408-.466,1.824,1.824,0,0,1,.583-.291c.233-.058.466-.117.758-.175l.816-.117c.291-.058.466-.233.466-.466a1.007,1.007,0,0,0-.291-.758,1.234,1.234,0,0,0-.816-.233,1.338,1.338,0,0,0-.816.233.831.831,0,0,0-.35.7l-.816-.175a1.67,1.67,0,0,1,.641-1.108,2.094,2.094,0,0,1,1.4-.35,2.954,2.954,0,0,1,.758.117,1.825,1.825,0,0,1,.583.291.931.931,0,0,1,.408.525,3.36,3.36,0,0,1,.175.816v2.1a1.164,1.164,0,0,0,.117.525c.058.117.233.117.408.117h.058v.641h-.466c-.525,0-.874-.233-.933-.7h-.058A1.764,1.764,0,0,1,708.416,184.747Zm.175-.7a1.493,1.493,0,0,0,1.108-.466,1.851,1.851,0,0,0,.408-1.341l-1.341.233a1.567,1.567,0,0,0-.758.291.707.707,0,0,0,0,1.049A.676.676,0,0,0,708.591,184.047Z" transform="translate(-417.408 -96.479)"/>
        <path id="Trazado_101778" data-name="Trazado 101778" d="M732.088,454h.991l-2.623,7.229h-.933L726.9,454h.991l2.157,6.063Z" transform="translate(-425.749 -207.759)"/>
        <path id="Trazado_101779" data-name="Trazado 101779" d="M742.739,460.148v.233h-3.964a1.718,1.718,0,0,0,.466,1.283,1.628,1.628,0,0,0,1.166.466,1.339,1.339,0,0,0,.816-.233,2.017,2.017,0,0,0,.583-.641l.816.175a2.333,2.333,0,0,1-.874,1.108,2.152,2.152,0,0,1-1.341.408,2.415,2.415,0,0,1-1.807-.7,2.995,2.995,0,0,1,0-3.847,2.415,2.415,0,0,1,1.807-.7,2.217,2.217,0,0,1,2.332,2.448Zm-2.332-1.865a1.627,1.627,0,0,0-1.049.35,1.519,1.519,0,0,0-.525,1.049h3.031a1.39,1.39,0,0,0-1.457-1.4Z" transform="translate(-430.336 -209.302)"/>
        <path id="Trazado_101780" data-name="Trazado 101780" d="M749.516,458.491a1.483,1.483,0,0,1,.641-.7,1.965,1.965,0,0,1,.991-.292v.816a1.741,1.741,0,0,0-1.166.35,1.425,1.425,0,0,0-.408,1.166v2.682H748.7V457.5h.874v.991Z" transform="translate(-434.84 -209.219)"/>
        <path id="Trazado_101781" data-name="Trazado 101781" d="M757.939,452.9h.874v7.87h-.874v-.991a2.373,2.373,0,0,1-.7.816,1.69,1.69,0,0,1-1.049.291,2.417,2.417,0,0,1-.933-.175,2.218,2.218,0,0,1-.758-.525,2.444,2.444,0,0,1-.525-.816,3.155,3.155,0,0,1-.175-1.108,2.552,2.552,0,0,1,.7-1.865,2.242,2.242,0,0,1,1.691-.7,2.013,2.013,0,0,1,1.049.291,1.746,1.746,0,0,1,.7.758V452.9Zm-1.632,7.17a1.468,1.468,0,0,0,1.166-.525,2.16,2.16,0,0,0,0-2.682,1.558,1.558,0,0,0-2.332,0,2.16,2.16,0,0,0,0,2.682A1.468,1.468,0,0,0,756.307,460.07Z" transform="translate(-436.967 -207.3)"/>
        <path id="Trazado_101782" data-name="Trazado 101782" d="M769.538,460.148v.233h-3.964a1.718,1.718,0,0,0,.466,1.283,1.628,1.628,0,0,0,1.166.466,1.339,1.339,0,0,0,.816-.233,2.017,2.017,0,0,0,.583-.641l.816.175a2.332,2.332,0,0,1-.874,1.108,2.151,2.151,0,0,1-1.341.408,2.416,2.416,0,0,1-1.807-.7,3,3,0,0,1,0-3.847,2.416,2.416,0,0,1,1.807-.7,2.332,2.332,0,0,1,1.691.641A2.147,2.147,0,0,1,769.538,460.148Zm-2.332-1.865a1.627,1.627,0,0,0-1.049.35,1.519,1.519,0,0,0-.525,1.049h3.031a1.39,1.39,0,0,0-1.457-1.4Z" transform="translate(-441.513 -209.302)"/>
        <path id="Trazado_101783" data-name="Trazado 101783" d="M708.28,217.729l-.641-1.749h-3.265l-.641,1.749H702.8l2.681-7.229h1.108l2.681,7.229Zm-3.614-2.507h2.682l-1.341-3.731Z" transform="translate(-415.698 -109.027)"/>
        <path id="Trazado_101784" data-name="Trazado 101784" d="M721.072,214.1a1.588,1.588,0,0,1,1.166.408,1.67,1.67,0,0,1,.466,1.224v3.5h-.874v-3.265a1.153,1.153,0,0,0-.291-.816.966.966,0,0,0-.7-.291,1.108,1.108,0,0,0-.758.291,1.369,1.369,0,0,0-.291.933v3.09h-.874v-3.265a1.312,1.312,0,0,0-.292-.874.965.965,0,0,0-.7-.291.94.94,0,0,0-.758.35,1.544,1.544,0,0,0-.291.991v3.09H716v-5.013h.874v.641a1.653,1.653,0,0,1,.583-.525,1.862,1.862,0,0,1,.816-.175,1.518,1.518,0,0,1,.874.233,1.551,1.551,0,0,1,.583.641,2.077,2.077,0,0,1,.583-.641A1.172,1.172,0,0,1,721.072,214.1Z" transform="translate(-421.203 -110.529)"/>
        <path id="Trazado_101785" data-name="Trazado 101785" d="M731.316,219.347a1.68,1.68,0,0,1-1.108-.35,1.247,1.247,0,0,1-.408-1.049,2.1,2.1,0,0,1,.117-.641,1.038,1.038,0,0,1,.408-.466,1.825,1.825,0,0,1,.583-.292c.233-.058.466-.117.758-.175l.816-.117c.291-.058.466-.233.466-.466a1.007,1.007,0,0,0-.292-.758,1.233,1.233,0,0,0-.816-.233,1.338,1.338,0,0,0-.816.233.831.831,0,0,0-.35.7l-.816-.175a1.67,1.67,0,0,1,.641-1.108,2.094,2.094,0,0,1,1.4-.35,2.954,2.954,0,0,1,.758.117,1.825,1.825,0,0,1,.583.291.931.931,0,0,1,.408.525,3.366,3.366,0,0,1,.175.816v2.1a1.165,1.165,0,0,0,.117.525c.058.117.233.117.408.117h.058v.641H734c-.525,0-.874-.233-.933-.7h-.058A1.861,1.861,0,0,1,731.316,219.347Zm.233-.7a1.493,1.493,0,0,0,1.108-.466,1.85,1.85,0,0,0,.408-1.341l-1.341.233a1.566,1.566,0,0,0-.758.291.707.707,0,0,0,0,1.049A.676.676,0,0,0,731.549,218.647Z" transform="translate(-426.958 -110.529)"/>
        <path id="Trazado_101786" data-name="Trazado 101786" d="M740.816,215.091a1.484,1.484,0,0,1,.641-.7,1.965,1.965,0,0,1,.991-.291v.816a1.741,1.741,0,0,0-1.166.35,1.424,1.424,0,0,0-.408,1.166v2.682H740V214.1h.874v.991Z" transform="translate(-431.212 -110.529)"/>
        <path id="Trazado_101787" data-name="Trazado 101787" d="M746.283,211.466a.6.6,0,1,1,.408-.175A.63.63,0,0,1,746.283,211.466Zm-.466,6.179v-5.013h.874v5.013Z" transform="translate(-433.589 -108.944)"/>
        <path id="Trazado_101788" data-name="Trazado 101788" d="M750.5,217.27V209.4h.874v7.87Z" transform="translate(-435.591 -108.568)"/>
        <path id="Trazado_101789" data-name="Trazado 101789" d="M755.1,217.27V209.4h.874v7.87Z" transform="translate(-437.51 -108.568)"/>
        <path id="Trazado_101790" data-name="Trazado 101790" d="M761.565,219.347a2.967,2.967,0,0,1-1.282-.291,2.386,2.386,0,0,1-.933-.933,2.77,2.77,0,0,1-.35-1.4,2.693,2.693,0,0,1,.7-1.924,2.508,2.508,0,0,1,1.807-.7,2.415,2.415,0,0,1,1.807.7,2.6,2.6,0,0,1,.7,1.924,2.693,2.693,0,0,1-.7,1.924A2.2,2.2,0,0,1,761.565,219.347Zm0-.758a1.467,1.467,0,0,0,1.166-.525,2.079,2.079,0,0,0,.466-1.341,1.967,1.967,0,0,0-.466-1.341,1.558,1.558,0,0,0-2.332,0,2.078,2.078,0,0,0-.466,1.341,1.967,1.967,0,0,0,.466,1.341A1.467,1.467,0,0,0,761.565,218.589Z" transform="translate(-439.136 -110.529)"/>
        <path id="Trazado_101791" data-name="Trazado 101791" d="M506.206,199.829l-1.865-3.264h-1.108v3.264H502.3V192.6h2.39a2.009,2.009,0,0,1,2.215,2.04,1.884,1.884,0,0,1-.408,1.283,2.1,2.1,0,0,1-1.166.641l1.982,3.265h-1.108Zm-2.973-6.412v2.448h1.341a1.425,1.425,0,0,0,1.049-.35,1.268,1.268,0,0,0,0-1.749,1.425,1.425,0,0,0-1.049-.35h-1.341Z" transform="translate(-332.079 -101.75)"/>
        <path id="Trazado_101792" data-name="Trazado 101792" d="M514.465,201.447a2.969,2.969,0,0,1-1.283-.291,2.387,2.387,0,0,1-.933-.933,2.77,2.77,0,0,1-.35-1.4,2.693,2.693,0,0,1,.7-1.924,2.508,2.508,0,0,1,1.807-.7,2.415,2.415,0,0,1,1.807.7,2.6,2.6,0,0,1,.7,1.924,2.693,2.693,0,0,1-.7,1.924A2.283,2.283,0,0,1,514.465,201.447Zm-.058-.758a1.468,1.468,0,0,0,1.166-.525,2.078,2.078,0,0,0,.466-1.341,1.967,1.967,0,0,0-.466-1.341,1.558,1.558,0,0,0-2.332,0,2.079,2.079,0,0,0-.466,1.341,1.967,1.967,0,0,0,.466,1.341A1.554,1.554,0,0,0,514.407,200.689Z" transform="translate(-336.083 -103.251)"/>
        <path id="Trazado_101793" data-name="Trazado 101793" d="M521,202.035v-.758a1.673,1.673,0,0,0,.7-.117.763.763,0,0,0,.35-.466,4.346,4.346,0,0,0,.117-1.049V194.69h.874v4.955a3,3,0,0,1-.466,1.865A1.965,1.965,0,0,1,521,202.035Zm1.632-8.569a.6.6,0,1,1,.408-.175A.63.63,0,0,1,522.632,193.466Z" transform="translate(-339.877 -101.625)"/>
        <path id="Trazado_101794" data-name="Trazado 101794" d="M529.465,201.447a2.968,2.968,0,0,1-1.283-.291,2.387,2.387,0,0,1-.933-.933,2.77,2.77,0,0,1-.35-1.4,2.693,2.693,0,0,1,.7-1.924,2.508,2.508,0,0,1,1.807-.7,2.415,2.415,0,0,1,1.807.7,2.6,2.6,0,0,1,.7,1.924,2.693,2.693,0,0,1-.7,1.924A2.283,2.283,0,0,1,529.465,201.447Zm0-.758a1.468,1.468,0,0,0,1.166-.525,2.078,2.078,0,0,0,.466-1.341,1.967,1.967,0,0,0-.466-1.341,1.558,1.558,0,0,0-2.332,0,2.079,2.079,0,0,0-.466,1.341,1.968,1.968,0,0,0,.466,1.341A1.39,1.39,0,0,0,529.465,200.689Z" transform="translate(-342.338 -103.251)"/>
        <path id="Trazado_101795" data-name="Trazado 101795" d="M309.64,255a2.233,2.233,0,0,1,1.108.291,2.059,2.059,0,0,1,.758.816,2.411,2.411,0,0,1,.291,1.108,2.11,2.11,0,0,1-.583,1.574,2.153,2.153,0,0,1-1.574.641h-1.807v2.8H306.9V255Zm-.117,3.614a1.2,1.2,0,0,0,.991-.408,1.521,1.521,0,0,0,.35-1.049,1.371,1.371,0,0,0-.35-.991,1.406,1.406,0,0,0-.991-.408h-1.691v2.8h1.691Z" transform="translate(-250.587 -127.043)"/>
        <path id="Trazado_101796" data-name="Trazado 101796" d="M320.664,258.8h.874v5.013h-.874v-.641a2.079,2.079,0,0,1-.641.583,1.483,1.483,0,0,1-.874.175,1.921,1.921,0,0,1-1.283-.466,1.815,1.815,0,0,1-.466-1.283V258.8h.874v3.206a1.207,1.207,0,0,0,.291.874,1.153,1.153,0,0,0,.816.291,1.186,1.186,0,0,0,.874-.35,1.425,1.425,0,0,0,.35-1.049V258.8Z" transform="translate(-254.966 -128.628)"/>
        <path id="Trazado_101797" data-name="Trazado 101797" d="M328.516,259.591a1.483,1.483,0,0,1,.641-.7,1.965,1.965,0,0,1,.991-.292v.816a1.741,1.741,0,0,0-1.166.35,1.424,1.424,0,0,0-.408,1.166v2.682H327.7V258.6h.874v.991Z" transform="translate(-259.262 -128.545)"/>
        <path id="Trazado_101798" data-name="Trazado 101798" d="M336.323,258.6a2.418,2.418,0,0,1,.933.175,2.219,2.219,0,0,1,.758.525,2.446,2.446,0,0,1,.525.816,3.394,3.394,0,0,1,.175,1.108,2.792,2.792,0,0,1-.7,1.924,2.243,2.243,0,0,1-1.691.7,2.013,2.013,0,0,1-1.049-.291,1.746,1.746,0,0,1-.7-.758v3.5H333.7v-7.578h.874v.991a1.772,1.772,0,0,1,.7-.758A2.047,2.047,0,0,1,336.323,258.6Zm-.175,4.489a1.468,1.468,0,0,0,1.166-.525,2.161,2.161,0,0,0,0-2.682,1.558,1.558,0,0,0-2.332,0,2.161,2.161,0,0,0,0,2.682A1.468,1.468,0,0,0,336.148,263.089Z" transform="translate(-261.764 -128.545)"/>
        <path id="Trazado_101799" data-name="Trazado 101799" d="M347.665,258.8h.874v5.013h-.874v-.641a2.079,2.079,0,0,1-.641.583,1.483,1.483,0,0,1-.874.175,1.921,1.921,0,0,1-1.282-.466,1.815,1.815,0,0,1-.466-1.283V258.8h.874v3.206a1.207,1.207,0,0,0,.292.874,1.153,1.153,0,0,0,.816.291,1.186,1.186,0,0,0,.874-.35,1.425,1.425,0,0,0,.35-1.049V258.8Z" transform="translate(-266.227 -128.628)"/>
        <path id="Trazado_101800" data-name="Trazado 101800" d="M355.516,259.591a1.483,1.483,0,0,1,.641-.7,1.965,1.965,0,0,1,.991-.292v.816a1.741,1.741,0,0,0-1.166.35,1.424,1.424,0,0,0-.408,1.166v2.682H354.7V258.6h.874v.991Z" transform="translate(-270.522 -128.545)"/>
        <path id="Trazado_101801" data-name="Trazado 101801" d="M361.416,263.847a1.681,1.681,0,0,1-1.108-.35,1.247,1.247,0,0,1-.408-1.049,2.094,2.094,0,0,1,.117-.641,1.037,1.037,0,0,1,.408-.466,1.824,1.824,0,0,1,.583-.291c.233-.058.466-.117.758-.175l.816-.117c.291-.058.466-.233.466-.466a1.007,1.007,0,0,0-.292-.758,1.233,1.233,0,0,0-.816-.233,1.338,1.338,0,0,0-.816.233.831.831,0,0,0-.35.7l-.816-.175a1.67,1.67,0,0,1,.641-1.108,2.094,2.094,0,0,1,1.4-.35,2.953,2.953,0,0,1,.758.117,1.823,1.823,0,0,1,.583.291.93.93,0,0,1,.408.525,3.362,3.362,0,0,1,.175.816v2.1a1.165,1.165,0,0,0,.117.525c.058.117.233.117.408.117h.058v.641h-.466c-.525,0-.874-.233-.933-.7h-.058A1.821,1.821,0,0,1,361.416,263.847Zm.233-.758a1.493,1.493,0,0,0,1.108-.466,1.85,1.85,0,0,0,.408-1.341l-1.341.233a1.567,1.567,0,0,0-.758.292.707.707,0,0,0,0,1.049A.614.614,0,0,0,361.649,263.089Z" transform="translate(-272.69 -128.545)"/>
        <path id="Trazado_101802" data-name="Trazado 101802" d="M372.106,213.929l-1.865-3.264h-1.108v3.264H368.2V206.7h2.39a2.009,2.009,0,0,1,2.215,2.04,1.884,1.884,0,0,1-.408,1.282,2.1,2.1,0,0,1-1.166.641l1.982,3.265h-1.108Zm-2.973-6.412v2.448h1.341a1.425,1.425,0,0,0,1.049-.35,1.268,1.268,0,0,0,0-1.749,1.425,1.425,0,0,0-1.049-.35Z" transform="translate(-276.152 -107.464)"/>
        <path id="Trazado_101803" data-name="Trazado 101803" d="M380.265,215.547a2.968,2.968,0,0,1-1.283-.291,2.386,2.386,0,0,1-.933-.933,2.77,2.77,0,0,1-.35-1.4,2.693,2.693,0,0,1,.7-1.924,2.508,2.508,0,0,1,1.807-.7,2.415,2.415,0,0,1,1.807.7,2.6,2.6,0,0,1,.7,1.924,2.693,2.693,0,0,1-.7,1.924A2.2,2.2,0,0,1,380.265,215.547Zm0-.758a1.468,1.468,0,0,0,1.166-.525,2.078,2.078,0,0,0,.466-1.341,1.967,1.967,0,0,0-.466-1.341,1.558,1.558,0,0,0-2.332,0,2.079,2.079,0,0,0-.466,1.341,1.967,1.967,0,0,0,.466,1.341A1.468,1.468,0,0,0,380.265,214.789Z" transform="translate(-280.114 -108.966)"/>
        <path id="Trazado_101804" data-name="Trazado 101804" d="M386.9,216.135v-.758a1.675,1.675,0,0,0,.7-.117.763.763,0,0,0,.35-.466,4.341,4.341,0,0,0,.117-1.049V208.79h.874v4.955a3,3,0,0,1-.466,1.865A2.049,2.049,0,0,1,386.9,216.135Zm1.574-8.569a.6.6,0,1,1,.408-.175A.529.529,0,0,1,388.474,207.566Z" transform="translate(-283.951 -107.339)"/>
        <path id="Trazado_101805" data-name="Trazado 101805" d="M395.265,215.547a2.968,2.968,0,0,1-1.283-.291,2.386,2.386,0,0,1-.933-.933,2.769,2.769,0,0,1-.35-1.4,2.693,2.693,0,0,1,.7-1.924,2.508,2.508,0,0,1,1.807-.7,2.415,2.415,0,0,1,1.807.7,2.6,2.6,0,0,1,.7,1.924,2.693,2.693,0,0,1-.7,1.924A2.2,2.2,0,0,1,395.265,215.547Zm0-.758a1.468,1.468,0,0,0,1.166-.525,2.079,2.079,0,0,0,.466-1.341,1.967,1.967,0,0,0-.466-1.341,1.558,1.558,0,0,0-2.332,0,2.078,2.078,0,0,0-.466,1.341,1.967,1.967,0,0,0,.466,1.341A1.467,1.467,0,0,0,395.265,214.789Z" transform="translate(-286.37 -108.966)"/>
        <path id="Trazado_101806" data-name="Trazado 101806" d="M408.5,214.458V213.7h3.673v.758Z" transform="translate(-292.959 -110.384)"/>
        <path id="Trazado_101807" data-name="Trazado 101807" d="M425.223,210.3a2.416,2.416,0,0,1,.933.175,2.218,2.218,0,0,1,.758.525,2.445,2.445,0,0,1,.525.816,3.394,3.394,0,0,1,.175,1.108,2.793,2.793,0,0,1-.7,1.924,2.243,2.243,0,0,1-1.691.7,2.013,2.013,0,0,1-1.049-.291,1.746,1.746,0,0,1-.7-.758v3.5H422.6v-7.578h.874v.991a1.771,1.771,0,0,1,.7-.758A2.046,2.046,0,0,1,425.223,210.3Zm-.175,4.489a1.468,1.468,0,0,0,1.166-.525,2.161,2.161,0,0,0,0-2.682,1.558,1.558,0,0,0-2.332,0,2.161,2.161,0,0,0,0,2.682A1.468,1.468,0,0,0,425.048,214.789Z" transform="translate(-298.84 -108.966)"/>
        <path id="Trazado_101808" data-name="Trazado 101808" d="M436.606,210.5h.874v5.013h-.816v-.641a2.08,2.08,0,0,1-.641.583,1.483,1.483,0,0,1-.874.175,1.92,1.92,0,0,1-1.282-.466,1.815,1.815,0,0,1-.466-1.283V210.5h.874v3.206a1.207,1.207,0,0,0,.291.874,1.153,1.153,0,0,0,.816.291,1.186,1.186,0,0,0,.874-.35,1.425,1.425,0,0,0,.35-1.049Z" transform="translate(-303.344 -109.049)"/>
        <path id="Trazado_101809" data-name="Trazado 101809" d="M444.416,211.291a1.483,1.483,0,0,1,.641-.7,1.965,1.965,0,0,1,.991-.291v.816a1.741,1.741,0,0,0-1.166.35,1.425,1.425,0,0,0-.408,1.166v2.682H443.6V210.3h.874v.991Z" transform="translate(-307.598 -108.966)"/>
        <path id="Trazado_101810" data-name="Trazado 101810" d="M452.223,210.3a2.416,2.416,0,0,1,.933.175,2.218,2.218,0,0,1,.758.525,2.445,2.445,0,0,1,.525.816,3.394,3.394,0,0,1,.175,1.108,2.792,2.792,0,0,1-.7,1.924,2.242,2.242,0,0,1-1.691.7,2.013,2.013,0,0,1-1.049-.291,1.746,1.746,0,0,1-.7-.758v3.5H449.6v-7.578h.874v.991a1.772,1.772,0,0,1,.7-.758A2.046,2.046,0,0,1,452.223,210.3Zm-.175,4.489a1.468,1.468,0,0,0,1.166-.525,2.161,2.161,0,0,0,0-2.682,1.558,1.558,0,0,0-2.332,0,2.16,2.16,0,0,0,0,2.682A1.468,1.468,0,0,0,452.048,214.789Z" transform="translate(-310.1 -108.966)"/>
        <path id="Trazado_101811" data-name="Trazado 101811" d="M463.606,210.5h.874v5.013h-.816v-.641a2.079,2.079,0,0,1-.641.583,1.483,1.483,0,0,1-.874.175,1.921,1.921,0,0,1-1.283-.466,1.815,1.815,0,0,1-.466-1.283V210.5h.874v3.206a1.207,1.207,0,0,0,.291.874,1.153,1.153,0,0,0,.816.291,1.187,1.187,0,0,0,.874-.35,1.425,1.425,0,0,0,.35-1.049Z" transform="translate(-314.604 -109.049)"/>
        <path id="Trazado_101812" data-name="Trazado 101812" d="M471.416,211.291a1.484,1.484,0,0,1,.641-.7,1.965,1.965,0,0,1,.991-.291v.816a1.741,1.741,0,0,0-1.166.35,1.425,1.425,0,0,0-.408,1.166v2.682H470.6V210.3h.874v.991Z" transform="translate(-318.858 -108.966)"/>
        <path id="Trazado_101813" data-name="Trazado 101813" d="M477.316,215.547a1.681,1.681,0,0,1-1.108-.35,1.247,1.247,0,0,1-.408-1.049,2.1,2.1,0,0,1,.117-.641,1.037,1.037,0,0,1,.408-.466,1.824,1.824,0,0,1,.583-.291c.233-.058.466-.117.758-.175l.816-.117c.291-.058.466-.233.466-.466a1.007,1.007,0,0,0-.291-.758,1.233,1.233,0,0,0-.816-.233,1.338,1.338,0,0,0-.816.233.831.831,0,0,0-.35.7l-.816-.175a1.67,1.67,0,0,1,.641-1.108,2.094,2.094,0,0,1,1.4-.35,2.953,2.953,0,0,1,.758.117,1.824,1.824,0,0,1,.583.291.93.93,0,0,1,.408.525,3.361,3.361,0,0,1,.175.816v2.1a1.164,1.164,0,0,0,.117.525c.058.117.233.117.408.117h.058v.641h-.466c-.525,0-.874-.233-.933-.7h-.058A1.89,1.89,0,0,1,477.316,215.547Zm.233-.758a1.493,1.493,0,0,0,1.108-.466,1.85,1.85,0,0,0,.408-1.341l-1.341.233a1.566,1.566,0,0,0-.758.291.707.707,0,0,0,0,1.049C477.024,214.73,477.257,214.789,477.549,214.789Z" transform="translate(-321.027 -108.966)"/>
        <path id="Trazado_101814" data-name="Trazado 101814" d="M287.68,493.429l-.641-1.749h-3.264l-.641,1.749H282.2l2.682-7.229h1.108l2.682,7.229Zm-3.614-2.565h2.682l-1.341-3.731Z" transform="translate(-240.286 -219.861)"/>
        <path id="Trazado_101815" data-name="Trazado 101815" d="M295.541,494.314h2.682v.7H294.2l2.682-4.314h-2.507V490h3.847Z" transform="translate(-245.291 -221.445)"/>
        <path id="Trazado_101816" data-name="Trazado 101816" d="M306.265,490h.874v5.013h-.874v-.641a2.079,2.079,0,0,1-.641.583,1.483,1.483,0,0,1-.874.175,1.921,1.921,0,0,1-1.283-.466,1.815,1.815,0,0,1-.466-1.283V490h.874v3.206a1.207,1.207,0,0,0,.291.874,1.153,1.153,0,0,0,.816.291,1.186,1.186,0,0,0,.874-.35,1.425,1.425,0,0,0,.35-1.049V490Z" transform="translate(-248.96 -221.445)"/>
        <path id="Trazado_101817" data-name="Trazado 101817" d="M313.2,492.97V485.1h.874v7.87Z" transform="translate(-253.214 -219.402)"/>
        <path id="Trazado_101818" data-name="Trazado 101818" d="M317.8,493.958V493.2h3.673v.758Z" transform="translate(-255.133 -222.78)"/>
        <path id="Trazado_101819" data-name="Trazado 101819" d="M329.823,489.8a2.416,2.416,0,0,1,.933.175,2.218,2.218,0,0,1,.758.525,2.444,2.444,0,0,1,.525.816,3.394,3.394,0,0,1,.175,1.108,2.792,2.792,0,0,1-.7,1.924,2.242,2.242,0,0,1-1.691.7,2.014,2.014,0,0,1-1.049-.291,1.746,1.746,0,0,1-.7-.758v3.5H327.2v-7.578h.874v.991a1.771,1.771,0,0,1,.7-.758A2.046,2.046,0,0,1,329.823,489.8Zm-.175,4.489a1.468,1.468,0,0,0,1.166-.525,2.16,2.16,0,0,0,0-2.682,1.558,1.558,0,0,0-2.332,0,2.161,2.161,0,0,0,0,2.682A1.468,1.468,0,0,0,329.648,494.289Z" transform="translate(-259.053 -221.362)"/>
        <path id="Trazado_101820" data-name="Trazado 101820" d="M341.164,490h.874v5.013h-.874v-.641a2.078,2.078,0,0,1-.641.583,1.483,1.483,0,0,1-.874.175,1.921,1.921,0,0,1-1.282-.466,1.815,1.815,0,0,1-.466-1.283V490h.874v3.206a1.207,1.207,0,0,0,.292.874,1.153,1.153,0,0,0,.816.291,1.186,1.186,0,0,0,.874-.35,1.425,1.425,0,0,0,.35-1.049V490Z" transform="translate(-263.516 -221.445)"/>
        <path id="Trazado_101821" data-name="Trazado 101821" d="M349.016,490.791a1.483,1.483,0,0,1,.641-.7,1.965,1.965,0,0,1,.991-.292v.816a1.741,1.741,0,0,0-1.166.35,1.425,1.425,0,0,0-.408,1.166v2.682H348.2v-4.9h.874v.874Z" transform="translate(-267.812 -221.362)"/>
        <path id="Trazado_101822" data-name="Trazado 101822" d="M356.823,489.8a2.416,2.416,0,0,1,.933.175,2.218,2.218,0,0,1,.758.525,2.445,2.445,0,0,1,.525.816,3.394,3.394,0,0,1,.175,1.108,2.792,2.792,0,0,1-.7,1.924,2.242,2.242,0,0,1-1.691.7,2.014,2.014,0,0,1-1.049-.291,1.746,1.746,0,0,1-.7-.758v3.5H354.2v-7.578h.874v.991a1.771,1.771,0,0,1,.7-.758A2.046,2.046,0,0,1,356.823,489.8Zm-.175,4.489a1.468,1.468,0,0,0,1.166-.525,2.161,2.161,0,0,0,0-2.682,1.558,1.558,0,0,0-2.332,0,2.161,2.161,0,0,0,0,2.682A1.468,1.468,0,0,0,356.648,494.289Z" transform="translate(-270.313 -221.362)"/>
        <path id="Trazado_101823" data-name="Trazado 101823" d="M368.164,490h.874v5.013h-.874v-.641a2.079,2.079,0,0,1-.641.583,1.483,1.483,0,0,1-.874.175,1.921,1.921,0,0,1-1.282-.466,1.815,1.815,0,0,1-.466-1.283V490h.874v3.206a1.207,1.207,0,0,0,.291.874,1.153,1.153,0,0,0,.816.291,1.186,1.186,0,0,0,.874-.35,1.425,1.425,0,0,0,.35-1.049V490Z" transform="translate(-274.776 -221.445)"/>
        <path id="Trazado_101824" data-name="Trazado 101824" d="M376.016,490.791a1.483,1.483,0,0,1,.641-.7,1.965,1.965,0,0,1,.991-.292v.816a1.741,1.741,0,0,0-1.166.35,1.425,1.425,0,0,0-.408,1.166v2.682H375.2v-4.9h.874v.874Z" transform="translate(-279.072 -221.362)"/>
        <path id="Trazado_101825" data-name="Trazado 101825" d="M381.916,495.088a1.68,1.68,0,0,1-1.108-.35,1.247,1.247,0,0,1-.408-1.049,2.1,2.1,0,0,1,.117-.641,1.037,1.037,0,0,1,.408-.466,1.824,1.824,0,0,1,.583-.292c.233-.058.466-.117.758-.175l.816-.117c.292-.058.466-.233.466-.466a1.007,1.007,0,0,0-.292-.758,1.234,1.234,0,0,0-.816-.233,1.339,1.339,0,0,0-.816.233.831.831,0,0,0-.35.7l-.816-.175a1.43,1.43,0,0,1,.641-1.049,2.486,2.486,0,0,1,1.4-.35,2.956,2.956,0,0,1,.758.117,1.824,1.824,0,0,1,.583.292.931.931,0,0,1,.408.525,3.363,3.363,0,0,1,.175.816v2.1a1.164,1.164,0,0,0,.117.525c.058.117.233.117.408.117h.058v.641h-.466c-.525,0-.874-.233-.933-.7h-.058A2,2,0,0,1,381.916,495.088Zm.233-.758a1.492,1.492,0,0,0,1.108-.466,1.85,1.85,0,0,0,.408-1.341l-1.341.233a1.567,1.567,0,0,0-.758.291.707.707,0,0,0,0,1.049A.614.614,0,0,0,382.149,494.33Z" transform="translate(-281.24 -221.404)"/>
        <path id="Trazado_101826" data-name="Trazado 101826" d="M630.088,324.6h.991l-2.623,7.229h-.933L624.9,324.6h.991l2.157,6.063Z" transform="translate(-383.209 -155.292)"/>
        <path id="Trazado_101827" data-name="Trazado 101827" d="M640.738,330.748v.233h-3.964a1.718,1.718,0,0,0,.466,1.283,1.628,1.628,0,0,0,1.166.466,1.339,1.339,0,0,0,.816-.233,2.016,2.016,0,0,0,.583-.641l.816.175a2.332,2.332,0,0,1-.874,1.108,2.152,2.152,0,0,1-1.341.408,2.415,2.415,0,0,1-1.807-.7,2.995,2.995,0,0,1,0-3.847,2.415,2.415,0,0,1,1.807-.7,2.332,2.332,0,0,1,1.691.641A2.147,2.147,0,0,1,640.738,330.748Zm-2.332-1.865a1.628,1.628,0,0,0-1.049.35,1.519,1.519,0,0,0-.525,1.049h3.031a1.39,1.39,0,0,0-1.457-1.4Z" transform="translate(-387.797 -156.834)"/>
        <path id="Trazado_101828" data-name="Trazado 101828" d="M647.516,329.091a1.483,1.483,0,0,1,.641-.7,1.965,1.965,0,0,1,.991-.292v.816a1.74,1.74,0,0,0-1.166.35,1.424,1.424,0,0,0-.408,1.166v2.682H646.7V328.1h.875v.991Z" transform="translate(-392.301 -156.751)"/>
        <path id="Trazado_101829" data-name="Trazado 101829" d="M655.981,323.4h.874v7.87h-.816v-.991a2.373,2.373,0,0,1-.7.816,1.691,1.691,0,0,1-1.049.291,2.417,2.417,0,0,1-.933-.175,2.219,2.219,0,0,1-.758-.525,2.444,2.444,0,0,1-.525-.816,3.154,3.154,0,0,1-.175-1.108,2.552,2.552,0,0,1,.7-1.865,2.242,2.242,0,0,1,1.691-.7,2.013,2.013,0,0,1,1.049.292,1.745,1.745,0,0,1,.7.758V323.4Zm-1.574,7.229a1.467,1.467,0,0,0,1.166-.525,2.161,2.161,0,0,0,0-2.682,1.558,1.558,0,0,0-2.332,0,2.161,2.161,0,0,0,0,2.682A1.468,1.468,0,0,0,654.407,330.629Z" transform="translate(-394.47 -154.791)"/>
        <path id="Trazado_101830" data-name="Trazado 101830" d="M667.638,330.748v.233h-3.964a1.718,1.718,0,0,0,.466,1.283,1.627,1.627,0,0,0,1.166.466,1.339,1.339,0,0,0,.816-.233,2.016,2.016,0,0,0,.583-.641l.816.175a2.332,2.332,0,0,1-.874,1.108,2.152,2.152,0,0,1-1.341.408,2.415,2.415,0,0,1-1.807-.7,2.995,2.995,0,0,1,0-3.847,2.415,2.415,0,0,1,1.807-.7,2.217,2.217,0,0,1,2.332,2.448Zm-2.332-1.865a1.628,1.628,0,0,0-1.049.35,1.519,1.519,0,0,0-.525,1.049h3.031a1.39,1.39,0,0,0-1.457-1.4Z" transform="translate(-399.016 -156.834)"/>
        <path id="Trazado_101831" data-name="Trazado 101831" d="M678.1,332.358V331.6h3.673v.758Z" transform="translate(-405.396 -158.211)"/>
        <path id="Trazado_101832" data-name="Trazado 101832" d="M693.016,333.347a1.681,1.681,0,0,1-1.108-.35,1.247,1.247,0,0,1-.408-1.049,2.1,2.1,0,0,1,.117-.641,1.037,1.037,0,0,1,.408-.466,1.824,1.824,0,0,1,.583-.291c.233-.058.466-.117.758-.175l.816-.117c.291-.058.466-.233.466-.466a1.007,1.007,0,0,0-.291-.758,1.234,1.234,0,0,0-.816-.233,1.339,1.339,0,0,0-.816.233.831.831,0,0,0-.35.7l-.816-.175a1.67,1.67,0,0,1,.641-1.108,2.094,2.094,0,0,1,1.4-.35,2.956,2.956,0,0,1,.758.117,1.825,1.825,0,0,1,.583.291.931.931,0,0,1,.408.525,3.363,3.363,0,0,1,.175.816v2.1a1.163,1.163,0,0,0,.117.525c.058.117.233.117.408.117h.058v.641h-.466c-.525,0-.874-.233-.933-.7h0A1.861,1.861,0,0,1,693.016,333.347Zm.233-.7a1.493,1.493,0,0,0,1.108-.466,1.851,1.851,0,0,0,.408-1.341l-1.341.233a1.566,1.566,0,0,0-.758.292.707.707,0,0,0,0,1.049A.614.614,0,0,0,693.249,332.647Z" transform="translate(-410.985 -156.751)"/>
        <path id="Trazado_101833" data-name="Trazado 101833" d="M706.772,328.1a1.588,1.588,0,0,1,1.166.408,1.67,1.67,0,0,1,.466,1.224v3.5h-.874v-3.264a1.154,1.154,0,0,0-.291-.816.966.966,0,0,0-.7-.291,1.108,1.108,0,0,0-.758.291,1.369,1.369,0,0,0-.291.933v3.09h-.874v-3.265a1.312,1.312,0,0,0-.292-.874.966.966,0,0,0-.7-.291.94.94,0,0,0-.758.35,1.544,1.544,0,0,0-.292.991v3.09H701.7v-5.013h.874v.641a1.654,1.654,0,0,1,.583-.525,1.862,1.862,0,0,1,.816-.175,1.518,1.518,0,0,1,.874.233,1.55,1.55,0,0,1,.583.641,2.079,2.079,0,0,1,.583-.641A1.075,1.075,0,0,1,706.772,328.1Z" transform="translate(-415.239 -156.751)"/>
        <path id="Trazado_101834" data-name="Trazado 101834" d="M717.016,333.347a1.681,1.681,0,0,1-1.108-.35,1.247,1.247,0,0,1-.408-1.049,2.1,2.1,0,0,1,.117-.641,1.037,1.037,0,0,1,.408-.466,1.825,1.825,0,0,1,.583-.291c.233-.058.466-.117.758-.175l.816-.117c.291-.058.466-.233.466-.466a1.007,1.007,0,0,0-.292-.758,1.234,1.234,0,0,0-.816-.233,1.339,1.339,0,0,0-.816.233.831.831,0,0,0-.35.7l-.816-.175a1.67,1.67,0,0,1,.641-1.108,2.094,2.094,0,0,1,1.4-.35,2.955,2.955,0,0,1,.758.117,1.824,1.824,0,0,1,.583.291.931.931,0,0,1,.408.525,3.363,3.363,0,0,1,.175.816v2.1a1.165,1.165,0,0,0,.117.525c.058.117.233.117.408.117h.058v.641h-.466c-.525,0-.874-.233-.933-.7h-.058A1.764,1.764,0,0,1,717.016,333.347Zm.233-.7a1.493,1.493,0,0,0,1.108-.466,1.851,1.851,0,0,0,.408-1.341l-1.341.233a1.566,1.566,0,0,0-.758.292.707.707,0,0,0,0,1.049A.614.614,0,0,0,717.249,332.647Z" transform="translate(-420.994 -156.751)"/>
        <path id="Trazado_101835" data-name="Trazado 101835" d="M726.416,329.091a1.483,1.483,0,0,1,.641-.7,1.965,1.965,0,0,1,.991-.292v.816a1.741,1.741,0,0,0-1.166.35,1.425,1.425,0,0,0-.408,1.166v2.682H725.6V328.1h.874v.991Z" transform="translate(-425.207 -156.751)"/>
        <path id="Trazado_101836" data-name="Trazado 101836" d="M731.883,325.466a.6.6,0,1,1,.408-.175A.529.529,0,0,1,731.883,325.466Zm-.466,6.179v-5.013h.874v5.013Z" transform="translate(-427.584 -155.167)"/>
        <path id="Trazado_101837" data-name="Trazado 101837" d="M736.2,331.27V323.4h.874v7.87Z" transform="translate(-429.627 -154.791)"/>
        <path id="Trazado_101838" data-name="Trazado 101838" d="M740.8,331.27V323.4h.875v7.87Z" transform="translate(-431.546 -154.791)"/>
        <path id="Trazado_101839" data-name="Trazado 101839" d="M747.265,333.347a2.967,2.967,0,0,1-1.282-.291,2.385,2.385,0,0,1-.933-.933,2.769,2.769,0,0,1-.35-1.4,2.693,2.693,0,0,1,.7-1.924,2.508,2.508,0,0,1,1.807-.7,2.415,2.415,0,0,1,1.807.7,2.6,2.6,0,0,1,.7,1.924,2.693,2.693,0,0,1-.7,1.924A2.283,2.283,0,0,1,747.265,333.347Zm0-.758a1.468,1.468,0,0,0,1.166-.525,2.079,2.079,0,0,0,.466-1.341,1.967,1.967,0,0,0-.466-1.341,1.558,1.558,0,0,0-2.332,0,2.079,2.079,0,0,0-.466,1.341,1.968,1.968,0,0,0,.466,1.341A1.252,1.252,0,0,0,747.265,332.589Z" transform="translate(-433.172 -156.751)"/>
        <path id="Trazado_101840" data-name="Trazado 101840" d="M425.28,480.829l-.641-1.749h-3.265l-.641,1.749H419.8l2.682-7.229h1.108l2.682,7.229Zm-3.614-2.565h2.682l-1.341-3.731Z" transform="translate(-297.672 -215.708)"/>
        <path id="Trazado_101841" data-name="Trazado 101841" d="M433.141,481.614h2.682v.7H431.8L434.482,478h-2.507v-.7h3.847Z" transform="translate(-302.677 -217.251)"/>
        <path id="Trazado_101842" data-name="Trazado 101842" d="M443.865,477.3h.874v5.013h-.874v-.641a2.08,2.08,0,0,1-.641.583,1.483,1.483,0,0,1-.874.175,1.921,1.921,0,0,1-1.283-.466,1.815,1.815,0,0,1-.466-1.283V477.3h.874v3.206a1.207,1.207,0,0,0,.291.874,1.153,1.153,0,0,0,.816.291,1.186,1.186,0,0,0,.874-.35,1.425,1.425,0,0,0,.35-1.049V477.3Z" transform="translate(-306.347 -217.251)"/>
        <path id="Trazado_101843" data-name="Trazado 101843" d="M450.8,480.37V472.5h.874v7.87Z" transform="translate(-310.601 -215.25)"/>
        <path id="Trazado_101844" data-name="Trazado 101844" d="M432.58,517.929l-.641-1.749h-3.265l-.641,1.749H427.1l2.682-7.229h1.108l2.682,7.229Zm-3.614-2.565h2.682l-1.341-3.731Z" transform="translate(-300.717 -230.079)"/>
        <path id="Trazado_101845" data-name="Trazado 101845" d="M440.441,518.814h2.682v.7H439.1l2.682-4.314h-2.507v-.7h3.847Z" transform="translate(-305.721 -231.663)"/>
        <path id="Trazado_101846" data-name="Trazado 101846" d="M451.165,514.4h.874v5.013h-.874v-.641a2.079,2.079,0,0,1-.641.583,1.483,1.483,0,0,1-.874.175,1.921,1.921,0,0,1-1.283-.466,1.815,1.815,0,0,1-.466-1.282V514.4h.874v3.206a1.207,1.207,0,0,0,.291.875,1.153,1.153,0,0,0,.816.291,1.186,1.186,0,0,0,.874-.35,1.425,1.425,0,0,0,.35-1.049V514.4Z" transform="translate(-309.391 -231.622)"/>
        <path id="Trazado_101847" data-name="Trazado 101847" d="M458.1,517.47V509.6h.874v7.87Z" transform="translate(-313.645 -229.62)"/>
        <path id="Trazado_101848" data-name="Trazado 101848" d="M467.4,518.458V517.7h3.673v.758Z" transform="translate(-317.524 -232.998)"/>
        <path id="Trazado_101849" data-name="Trazado 101849" d="M484.006,514.4h.933l-2.04,5.013h-.758L480.1,514.4h.933l1.457,4.022Z" transform="translate(-322.82 -231.622)"/>
        <path id="Trazado_101850" data-name="Trazado 101850" d="M494.038,516.848v.233h-3.964a1.718,1.718,0,0,0,.466,1.283,1.628,1.628,0,0,0,1.166.466,1.338,1.338,0,0,0,.816-.233,2.018,2.018,0,0,0,.583-.641l.816.175a2.332,2.332,0,0,1-.874,1.108,2.151,2.151,0,0,1-1.341.408,2.415,2.415,0,0,1-1.807-.7,3,3,0,0,1,0-3.847,2.415,2.415,0,0,1,1.807-.7,2.217,2.217,0,0,1,2.332,2.448Zm-2.332-1.865a1.628,1.628,0,0,0-1.049.35,1.519,1.519,0,0,0-.525,1.049h3.031a1.39,1.39,0,0,0-1.457-1.4Z" transform="translate(-326.616 -231.622)"/>
        <path id="Trazado_101851" data-name="Trazado 101851" d="M500.716,515.291a1.483,1.483,0,0,1,.641-.7,1.965,1.965,0,0,1,.991-.291v.816a1.741,1.741,0,0,0-1.166.35,1.425,1.425,0,0,0-.408,1.166v2.681H499.9V514.3h.874v.991Z" transform="translate(-331.078 -231.58)"/>
        <path id="Trazado_101852" data-name="Trazado 101852" d="M509.139,509.6h.874v7.87h-.874v-.991a2.374,2.374,0,0,1-.7.816,1.69,1.69,0,0,1-1.049.291,2.417,2.417,0,0,1-.933-.175,2.219,2.219,0,0,1-.758-.525,2.445,2.445,0,0,1-.525-.816,3.155,3.155,0,0,1-.175-1.108,2.552,2.552,0,0,1,.7-1.865,2.243,2.243,0,0,1,1.691-.7,2.013,2.013,0,0,1,1.049.292,1.746,1.746,0,0,1,.7.758Zm-1.574,7.17a1.467,1.467,0,0,0,1.166-.525,2.16,2.16,0,0,0,0-2.681,1.558,1.558,0,0,0-2.332,0,2.16,2.16,0,0,0,0,2.681A1.467,1.467,0,0,0,507.565,516.77Z" transform="translate(-333.205 -229.62)"/>
        <path id="Trazado_101853" data-name="Trazado 101853" d="M518.565,519.447a2.968,2.968,0,0,1-1.282-.291,2.387,2.387,0,0,1-.933-.933,2.77,2.77,0,0,1-.35-1.4,2.693,2.693,0,0,1,.7-1.924,2.508,2.508,0,0,1,1.807-.7,2.415,2.415,0,0,1,1.807.7,2.6,2.6,0,0,1,.7,1.924,2.694,2.694,0,0,1-.7,1.924A2.284,2.284,0,0,1,518.565,519.447Zm0-.7a1.467,1.467,0,0,0,1.166-.525,2.078,2.078,0,0,0,.466-1.341,1.967,1.967,0,0,0-.466-1.341,1.558,1.558,0,0,0-2.332,0,2.078,2.078,0,0,0-.466,1.341,1.967,1.967,0,0,0,.466,1.341A1.39,1.39,0,0,0,518.565,518.747Z" transform="translate(-337.792 -231.538)"/>
        <path id="Trazado_101854" data-name="Trazado 101854" d="M528.382,519.488a2.415,2.415,0,0,1-1.341-.35,1.429,1.429,0,0,1-.641-1.049l.758-.233a1.081,1.081,0,0,0,.408.7,1.338,1.338,0,0,0,.816.233,1.137,1.137,0,0,0,.466-.058c.117-.058.291-.117.35-.233a1.113,1.113,0,0,0,.175-.466.44.44,0,0,0-.058-.233c-.058-.117-.058-.117-.058-.175a.125.125,0,0,0-.117-.117c-.058,0-.117-.058-.175-.117s-.117-.058-.233-.117a.441.441,0,0,0-.233-.058,2.523,2.523,0,0,0-.292-.058,2.52,2.52,0,0,1-.291-.058,2.708,2.708,0,0,1-.525-.175,1.459,1.459,0,0,1-.408-.233,2.53,2.53,0,0,1-.35-.408.959.959,0,0,1-.117-.583,1.338,1.338,0,0,1,.233-.816,1.317,1.317,0,0,1,.641-.466,2.125,2.125,0,0,1,.874-.117,2.155,2.155,0,0,1,1.224.35,1.261,1.261,0,0,1,.583.991l-.7.175a.841.841,0,0,0-.408-.641,1.658,1.658,0,0,0-.7-.233,1.385,1.385,0,0,0-.7.175.51.51,0,0,0-.292.525.526.526,0,0,0,.058.292q.087.175.175.175c.058,0,.117.117.291.175s.233.117.291.117a2.286,2.286,0,0,1,.35.117h.058a1.8,1.8,0,0,0,.466.117c.117.058.291.117.408.175a1.773,1.773,0,0,1,.408.291.938.938,0,0,1,.233.408,1.7,1.7,0,0,1,.117.525,1.553,1.553,0,0,1-.175.7,1.573,1.573,0,0,1-.408.466,1.746,1.746,0,0,1-.583.233A1.8,1.8,0,0,1,528.382,519.488Z" transform="translate(-342.13 -231.58)"/>
        <path id="Trazado_101855" data-name="Trazado 101855" d="M537.165,519.447a2.968,2.968,0,0,1-1.283-.291,2.386,2.386,0,0,1-.933-.933,2.769,2.769,0,0,1-.35-1.4,2.693,2.693,0,0,1,.7-1.924,2.508,2.508,0,0,1,1.807-.7,2.415,2.415,0,0,1,1.807.7,2.6,2.6,0,0,1,.7,1.924,2.693,2.693,0,0,1-.7,1.924A2.121,2.121,0,0,1,537.165,519.447Zm0-.7a1.468,1.468,0,0,0,1.166-.525,2.079,2.079,0,0,0,.466-1.341,1.968,1.968,0,0,0-.466-1.341,1.558,1.558,0,0,0-2.332,0,2.079,2.079,0,0,0-.466,1.341,1.967,1.967,0,0,0,.466,1.341A1.554,1.554,0,0,0,537.165,518.747Z" transform="translate(-345.55 -231.538)"/>
        <path id="Trazado_101856" data-name="Trazado 101856" d="M215.389,173.81a4.243,4.243,0,0,1-2.507-.7,2.97,2.97,0,0,1-1.282-1.865l1.224-.291a2.111,2.111,0,0,0,.874,1.341,3.187,3.187,0,0,0,1.691.466,2.391,2.391,0,0,0,.641-.058c.175-.058.408-.117.583-.175a1.223,1.223,0,0,0,.758-.758,2.1,2.1,0,0,0,.117-.641c0-.175-.058-.291-.058-.466l-.175-.35c-.058-.117-.175-.175-.35-.291a1.461,1.461,0,0,0-.408-.233,4.016,4.016,0,0,0-.466-.175l-.525-.175a3.621,3.621,0,0,0-.583-.175h-.117a4.728,4.728,0,0,1-.641-.175,4.018,4.018,0,0,1-.583-.233,5.418,5.418,0,0,1-.583-.291,2.432,2.432,0,0,1-.466-.35l-.408-.408a2.071,2.071,0,0,1-.233-.525,2.926,2.926,0,0,1-.117-.7,2.417,2.417,0,0,1,.466-1.457,3.069,3.069,0,0,1,1.166-.933,3.453,3.453,0,0,1,1.574-.291,4.335,4.335,0,0,1,2.332.583,2.716,2.716,0,0,1,1.224,1.749l-1.166.291a1.737,1.737,0,0,0-.816-1.166,2.569,2.569,0,0,0-1.516-.408,3.413,3.413,0,0,0-.758.117,2.157,2.157,0,0,0-.641.291,1.376,1.376,0,0,0-.466.525,1.614,1.614,0,0,0-.175.758.864.864,0,0,0,.058.408l.175.35c.058.117.175.175.291.291.117.058.233.175.35.233a1.973,1.973,0,0,0,.466.175,1.973,1.973,0,0,1,.466.175,3.723,3.723,0,0,0,.525.117,8.344,8.344,0,0,1,1.865.641,2.4,2.4,0,0,1,1.457,1.749v.408a2.71,2.71,0,0,1-.291,1.224,2.744,2.744,0,0,1-.758.874,3.726,3.726,0,0,1-1.108.466C216.264,173.752,215.856,173.81,215.389,173.81Z" transform="translate(-210.842 -90.115)"/>
        <path id="Trazado_101857" data-name="Trazado 101857" d="M228.64,175.854a2.3,2.3,0,0,1-1.457-.466,1.747,1.747,0,0,1-.583-1.4,1.947,1.947,0,0,1,.175-.874,1.822,1.822,0,0,1,.525-.641,3.56,3.56,0,0,1,.816-.408,4.675,4.675,0,0,1,1.049-.233l1.108-.175a.6.6,0,0,0,.583-.641,1.067,1.067,0,0,0-.408-.991,1.591,1.591,0,0,0-1.049-.291,2.013,2.013,0,0,0-1.049.291,1.374,1.374,0,0,0-.525.933l-1.049-.233a2.413,2.413,0,0,1,.816-1.457,2.958,2.958,0,0,1,1.865-.466,5.133,5.133,0,0,1,.991.117,3.445,3.445,0,0,1,.816.35,1.406,1.406,0,0,1,.583.7,3.107,3.107,0,0,1,.233,1.108v2.8a1.013,1.013,0,0,0,.175.7.713.713,0,0,0,.525.175h.117v.874h-.583a1.133,1.133,0,0,1-1.283-.933h-.058A2.793,2.793,0,0,1,228.64,175.854Zm.233-.933a1.9,1.9,0,0,0,1.457-.641,2.782,2.782,0,0,0,.525-1.807l-1.807.35a2.213,2.213,0,0,0-1.049.35,1,1,0,0,0,0,1.516A1.931,1.931,0,0,0,228.874,174.921Z" transform="translate(-217.098 -92.159)"/>
        <path id="Trazado_101858" data-name="Trazado 101858" d="M241.306,174.277a1.63,1.63,0,0,1-1.807-1.807v-3.964h-1.4v-.933h.525a.989.989,0,0,0,.758-.233,1.359,1.359,0,0,0,.233-.816V165.3h1.108v2.273H242.3v.933h-1.574v3.847a1.075,1.075,0,0,0,.233.758.965.965,0,0,0,.7.291h.641v.933h-.991Z" transform="translate(-221.894 -90.699)"/>
        <path id="Trazado_101859" data-name="Trazado 101859" d="M252.314,169.1h1.166v6.762h-1.166v-.874a2.031,2.031,0,0,1-.816.758,2.653,2.653,0,0,1-1.166.291,2.3,2.3,0,0,1-1.691-.583,2.379,2.379,0,0,1-.641-1.749v-4.547h1.166v4.256a1.642,1.642,0,0,0,.408,1.224,1.4,1.4,0,0,0,1.049.408,1.882,1.882,0,0,0,1.224-.466,1.92,1.92,0,0,0,.466-1.4V169.1Z" transform="translate(-226.023 -92.284)"/>
        <path id="Trazado_101860" data-name="Trazado 101860" d="M262.766,170.182a2.5,2.5,0,0,1,.816-.933,2.35,2.35,0,0,1,1.282-.35v1.108a1.855,1.855,0,0,0-2.1,2.1v3.614H261.6v-6.762h1.166Z" transform="translate(-231.695 -92.201)"/>
        <path id="Trazado_101861" data-name="Trazado 101861" d="M270.74,175.854a2.3,2.3,0,0,1-1.457-.466,1.747,1.747,0,0,1-.583-1.4,1.946,1.946,0,0,1,.175-.874,1.823,1.823,0,0,1,.525-.641,3.561,3.561,0,0,1,.816-.408,4.675,4.675,0,0,1,1.049-.233l1.108-.175a.6.6,0,0,0,.583-.641,1.067,1.067,0,0,0-.408-.991,1.591,1.591,0,0,0-1.049-.291,2.013,2.013,0,0,0-1.049.291,1.374,1.374,0,0,0-.525.933l-1.049-.233a2.413,2.413,0,0,1,.816-1.457,2.958,2.958,0,0,1,1.865-.466,5.133,5.133,0,0,1,.991.117,3.446,3.446,0,0,1,.816.35,1.406,1.406,0,0,1,.583.7,3.107,3.107,0,0,1,.233,1.108v2.8a1.013,1.013,0,0,0,.175.7.713.713,0,0,0,.525.175H275v.874h-.583a1.133,1.133,0,0,1-1.282-.933h-.175A2.461,2.461,0,0,1,270.74,175.854Zm.233-.933a1.9,1.9,0,0,0,1.457-.641,2.782,2.782,0,0,0,.525-1.807l-1.807.35a2.213,2.213,0,0,0-1.049.35,1,1,0,0,0,0,1.516A2.161,2.161,0,0,0,270.973,174.921Z" transform="translate(-234.656 -92.159)"/>
        <path id="Trazado_101862" data-name="Trazado 101862" d="M284.323,175.9a3.117,3.117,0,0,1-2.39-.991,3.835,3.835,0,0,1,0-5.013,3.3,3.3,0,0,1,2.39-.991,3.021,3.021,0,0,1,1.924.583,2.947,2.947,0,0,1,1.108,1.632l-1.108.175a2.054,2.054,0,0,0-.758-1.049,2.155,2.155,0,0,0-1.224-.35,2,2,0,0,0-1.574.7,2.867,2.867,0,0,0,0,3.614,2,2,0,0,0,1.574.7,2.155,2.155,0,0,0,1.224-.35,2.054,2.054,0,0,0,.758-1.049l1.108.175a3.039,3.039,0,0,1-1.166,1.632A2.753,2.753,0,0,1,284.323,175.9Z" transform="translate(-239.786 -92.201)"/>
        <path id="Trazado_101863" data-name="Trazado 101863" d="M295.416,165.232A.8.8,0,1,1,296,165,.748.748,0,0,1,295.416,165.232Zm-.583,8.336v-6.762H296v6.762Z" transform="translate(-245.458 -89.99)"/>
        <path id="Trazado_101864" data-name="Trazado 101864" d="M303.639,173.56a3.521,3.521,0,0,1-1.749-.408,3.092,3.092,0,0,1-1.224-1.224,3.846,3.846,0,0,1-.466-1.865,3.479,3.479,0,0,1,.933-2.565,3.68,3.68,0,0,1,4.9,0,3.39,3.39,0,0,1,.933,2.565,3.479,3.479,0,0,1-.933,2.565A3.077,3.077,0,0,1,303.639,173.56Zm0-.991a2,2,0,0,0,1.574-.7,2.867,2.867,0,0,0,0-3.614,2.121,2.121,0,0,0-3.148,0,2.867,2.867,0,0,0,0,3.614A2,2,0,0,0,303.639,172.569Zm-.466-7.054,1.749-2.215.641.466-1.516,1.749Z" transform="translate(-247.793 -89.865)"/>
        <path id="Trazado_101865" data-name="Trazado 101865" d="M318.248,168.9a2.3,2.3,0,0,1,1.691.583,2.379,2.379,0,0,1,.641,1.749v4.547h-1.166v-4.256a1.642,1.642,0,0,0-.408-1.224,1.676,1.676,0,0,0-1.049-.408,1.881,1.881,0,0,0-1.224.466,1.92,1.92,0,0,0-.466,1.4v4.022H315.1v-6.762h1.166v.874A2.306,2.306,0,0,1,318.248,168.9Z" transform="translate(-254.007 -92.201)"/>
        <path id="Trazado_101866" data-name="Trazado 101866" d="M278.054,55.2h1.283l-3.556,9.677H274.5L271,55.2h1.283l2.856,8.1Z" transform="translate(-235.615 -46.223)"/>
        <path id="Trazado_101867" data-name="Trazado 101867" d="M288.14,66.954a2.3,2.3,0,0,1-1.457-.466,1.585,1.585,0,0,1-.583-1.4,1.947,1.947,0,0,1,.175-.874,1.822,1.822,0,0,1,.525-.641,3.56,3.56,0,0,1,.816-.408,4.677,4.677,0,0,1,1.049-.233l1.108-.175a.6.6,0,0,0,.583-.641,1.067,1.067,0,0,0-.408-.991,1.591,1.591,0,0,0-1.049-.291,2.013,2.013,0,0,0-1.049.291,1.374,1.374,0,0,0-.525.933l-1.049-.233a2.413,2.413,0,0,1,.816-1.457,2.958,2.958,0,0,1,1.865-.466,5.134,5.134,0,0,1,.991.117,3.445,3.445,0,0,1,.816.35,1.714,1.714,0,0,1,.583.7,3.108,3.108,0,0,1,.233,1.108v2.8a1.013,1.013,0,0,0,.175.7.713.713,0,0,0,.525.175h.117v.874h-.583a1.133,1.133,0,0,1-1.283-.933h-.058A2.793,2.793,0,0,1,288.14,66.954Zm.233-.933a1.9,1.9,0,0,0,1.457-.641,2.782,2.782,0,0,0,.525-1.807l-1.807.35a2.214,2.214,0,0,0-1.049.35,1,1,0,0,0,0,1.516A1.518,1.518,0,0,0,288.374,66.021Z" transform="translate(-241.912 -48.183)"/>
        <path id="Trazado_101868" data-name="Trazado 101868" d="M299.5,64.251V53.7h1.224V64.251Z" transform="translate(-247.5 -45.597)"/>
        <path id="Trazado_101869" data-name="Trazado 101869" d="M308.139,67a3.521,3.521,0,0,1-1.749-.408,3.092,3.092,0,0,1-1.224-1.224A3.845,3.845,0,0,1,304.7,63.5a3.479,3.479,0,0,1,.933-2.565,3.68,3.68,0,0,1,4.9,0,3.39,3.39,0,0,1,.933,2.565,3.479,3.479,0,0,1-.933,2.565A3.077,3.077,0,0,1,308.139,67Zm0-.991a2,2,0,0,0,1.574-.7,2.867,2.867,0,0,0,0-3.614,2.12,2.12,0,0,0-3.148,0,2.867,2.867,0,0,0,0,3.614A2,2,0,0,0,308.139,66Z" transform="translate(-249.669 -48.224)"/>
        <path id="Trazado_101870" data-name="Trazado 101870" d="M320.766,61.382a2.5,2.5,0,0,1,.816-.933,2.35,2.35,0,0,1,1.282-.35v1.108a1.855,1.855,0,0,0-2.1,2.1v3.614H319.6V60.158h1.166Z" transform="translate(-255.883 -48.266)"/>
      </g>
    </g>
  </g>
</svg>
