<svg xmlns="http://www.w3.org/2000/svg" width="399.5" height="399.5" viewBox="0 0 399.5 399.5">
  <g id="Grupo_1072326" data-name="Grupo 1072326" transform="translate(-390 -15343.553)">
    <g id="Grupo_57662" data-name="Grupo 57662" transform="translate(390 15343.553)">
      <rect id="Rectángulo_5290" data-name="Rectángulo 5290" width="399.5" height="399.5" rx="10" transform="translate(0 0)" fill="#fff"/>
    </g>
    <g id="Grupo_1072580" data-name="Grupo 1072580">
      <g id="Grupo_57634" data-name="Grupo 57634" transform="translate(470.047 15427.106)">
        <path id="Trazado_101895" data-name="Trazado 101895" d="M785.221,288.027a116.6,116.6,0,0,0-52.246-30.167h0L702.74,370.671l82.588-82.584Z" transform="translate(-585.981 -253.908)" fill="#fac712"/>
        <path id="Trazado_101896" data-name="Trazado 101896" d="M687.209,251.878a117.632,117.632,0,0,0-60.469,0l.855,3.183c.306,1.154.625,2.335.947,3.545l.513,1.91c.3,1.118.6,2.268.927,3.457l.163.621c.243.9.493,1.842.752,2.785l1.766,6.588.107.4,1.369,5.1.366,1.368,22.461,83.833L675.895,294.1h0Z" transform="translate(-540.216 -247.926)" fill="#feef00"/>
        <path id="Trazado_101897" data-name="Trazado 101897" d="M815.579,386.2h0a116.673,116.673,0,0,0-30.163-52.25l-.064-.107-.02.024h0l-22.481,22.477L702.78,416.412Z" transform="translate(-586.005 -299.661)" fill="#f69f23"/>
        <path id="Trazado_101898" data-name="Trazado 101898" d="M687.227,654.241h0l-11.314-42.217h0L657,541.43,626.77,654.241h0a117.615,117.615,0,0,0,60.469,0Z" transform="translate(-540.233 -424.667)" fill="#7421b0"/>
        <path id="Trazado_101899" data-name="Trazado 101899" d="M577.75,541.43l-82.58,82.576.1.056a116.67,116.67,0,0,0,52.258,30.179h0l11.31-42.213h0Z" transform="translate(-460.987 -424.667)" fill="#3a48ba"/>
        <path id="Trazado_101900" data-name="Trazado 101900" d="M785.227,624.078l.107-.064-.02-.024h0L754.419,593.1h0L702.75,541.43l30.234,112.811h0a116.674,116.674,0,0,0,52.242-30.163Z" transform="translate(-585.987 -424.667)" fill="#d2298e"/>
        <path id="Trazado_101901" data-name="Trazado 101901" d="M531.991,541.43,419.18,571.665h0a116.657,116.657,0,0,0,30.163,52.246l.056.1h.024l30.895-30.895h0Z" transform="translate(-415.228 -424.667)" fill="#006fc4"/>
        <path id="Trazado_101902" data-name="Trazado 101902" d="M815.557,571.665h0l-42.213-11.31h0L702.75,541.43l82.584,82.576.06-.107A116.563,116.563,0,0,0,815.557,571.665Z" transform="translate(-585.987 -424.667)" fill="#ff2600"/>
        <path id="Trazado_101903" data-name="Trazado 101903" d="M819.511,495.664a116.813,116.813,0,0,0-3.95-30.234h0l-42.217,11.318h0L702.75,495.664,815.561,525.9h0A116.841,116.841,0,0,0,819.511,495.664Z" transform="translate(-585.987 -378.902)" fill="#fb6312"/>
        <path id="Trazado_101904" data-name="Trazado 101904" d="M526.008,495.664,413.2,465.43h0a117.615,117.615,0,0,0,0,60.469l42.213-11.31h0Z" transform="translate(-409.245 -378.902)" fill="#00c2af"/>
        <path id="Trazado_101905" data-name="Trazado 101905" d="M577.744,370.671l-18.916-70.586h0c-.143-.545-.282-1.054-.426-1.591l-1.114-4.157c-.505-1.894-.995-3.72-1.456-5.442l-1.361-5.072-.426-1.591-1.265-4.674c-.036-.127-.068-.247-.1-.37L547.51,257.86h0a116.582,116.582,0,0,0-52.246,30.171l-.1.056Z" transform="translate(-460.981 -253.908)" fill="#7fd200"/>
        <path id="Trazado_101906" data-name="Trazado 101906" d="M531.991,416.424,449.41,333.84l-.056.1A116.623,116.623,0,0,0,419.18,386.2l42.213,11.31h0Z" transform="translate(-415.228 -299.661)" fill="#00b500"/>
      </g>
      <path id="Trazado_101907" data-name="Trazado 101907" d="M526.011,247.93A116.761,116.761,0,1,0,642.772,364.691,116.759,116.759,0,0,0,526.011,247.93Zm0,213.571a96.81,96.81,0,1,1,96.81-96.81A96.809,96.809,0,0,1,526.011,461.5Z" transform="translate(60.799 15179.178)" opacity="0.3"/>
      <path id="Trazado_101908" data-name="Trazado 101908" d="M556.21,298.08a96.81,96.81,0,1,0,96.81,96.81A96.822,96.822,0,0,0,556.21,298.08Zm0,173.777a76.959,76.959,0,1,1,76.967-76.951A76.967,76.967,0,0,1,556.21,471.857Z" transform="translate(30.6 15148.979)" opacity="0.15"/>
      <path id="Trazado_101909" data-name="Trazado 101909" d="M616.289,397.85a57.119,57.119,0,1,0,57.119,57.119A57.119,57.119,0,0,0,616.289,397.85Zm0,94.4a37.276,37.276,0,1,1,37.276-37.276A37.276,37.276,0,0,1,616.289,492.245Z" transform="translate(-29.479 15088.899)" fill="#fff" opacity="0.5"/>
      <path id="Trazado_101910" data-name="Trazado 101910" d="M646.326,447.73A37.276,37.276,0,1,0,683.6,485.006,37.276,37.276,0,0,0,646.326,447.73Zm0,54.7a17.429,17.429,0,1,1,17.429-17.429,17.429,17.429,0,0,1-17.429,17.429Z" transform="translate(-59.516 15058.863)" fill="#fff" opacity="0.75"/>
      <path id="Trazado_818481" data-name="Trazado 818481" d="M17.429,0A17.429,17.429,0,1,1,0,17.429,17.429,17.429,0,0,1,17.429,0Z" transform="translate(569.381 15526.44)" fill="#fff"/>
      <path id="Trazado_101911" data-name="Trazado 101911" d="M660.733,217.432l-.692-1.361-2.63.334-.334,1.488-.6.08,1.369-5.939.664-.084,2.813,5.406Zm-3.183-1.563,2.256-.286-1.528-3Z" transform="translate(-88.077 15200.845)"/>
      <path id="Trazado_101912" data-name="Trazado 101912" d="M677.111,215.531l-.545.04-.748-4.814-1.591,4.993-.318.024-2.3-4.659-.02,4.838-.549.04v-5.729l.7-.056,2.268,4.571,1.536-4.857.712-.052Z" transform="translate(-96.845 15202.097)"/>
      <path id="Trazado_101913" data-name="Trazado 101913" d="M692.985,215.165l-.553-1.42-2.65.068-.481,1.456h-.6l1.961-5.768h.668l2.264,5.649Zm-3.027-1.886,2.272-.06-1.217-3.123Z" transform="translate(-107.479 15202.32)"/>
      <path id="Trazado_101914" data-name="Trazado 101914" d="M707.083,215.167l-1.42-2.626h-1.09l-.044,2.6h-.569l.092-5.713,1.838.028a1.655,1.655,0,0,1,1.237.465,1.591,1.591,0,0,1,.4,1.146,1.5,1.5,0,0,1-.354,1,1.448,1.448,0,0,1-.959.481l1.508,2.653Zm-2.471-5.243-.032,2.12,1.193.02a1.261,1.261,0,0,0,.9-.271,1.006,1.006,0,0,0,.31-.764,1.018,1.018,0,0,0-.291-.8,1.221,1.221,0,0,0-.887-.306Z" transform="translate(-116.668 15202.362)"/>
      <path id="Trazado_101915" data-name="Trazado 101915" d="M716.75,215.359,717,209.65l.569.024-.255,5.709Z" transform="translate(-124.37 15202.229)"/>
      <path id="Trazado_101916" data-name="Trazado 101916" d="M723.465,215.235l2.045.143-.036.521-2.614-.179.4-5.7.569.04Z" transform="translate(-128.05 15202.007)"/>
      <path id="Trazado_101917" data-name="Trazado 101917" d="M732.977,216l2.041.2-.052.525-2.606-.259.565-5.689.565.056Z" transform="translate(-133.771 15201.549)"/>
      <path id="Trazado_101918" data-name="Trazado 101918" d="M743.616,218.147a2.917,2.917,0,0,1-1.369-.537,2.551,2.551,0,0,1-.863-1.154,3.461,3.461,0,0,1,.434-3.107,2.546,2.546,0,0,1,1.146-.871,2.9,2.9,0,0,1,1.464-.143,2.936,2.936,0,0,1,1.062.35,2.71,2.71,0,0,1,.8.692,2.651,2.651,0,0,1,.469,1,3.341,3.341,0,0,1,.044,1.249,3.3,3.3,0,0,1-.4,1.193,2.526,2.526,0,0,1-.724.835,2.639,2.639,0,0,1-.963.446A2.916,2.916,0,0,1,743.616,218.147Zm-.772-.823a2.387,2.387,0,0,0,.847.282,2.3,2.3,0,0,0,.891-.04,2.085,2.085,0,0,0,.768-.354,2.033,2.033,0,0,0,.577-.68,3.035,3.035,0,0,0,.283-2.009,2.046,2.046,0,0,0-.374-.8,2.138,2.138,0,0,0-.641-.549,2.451,2.451,0,0,0-1.739-.243,2.129,2.129,0,0,0-.772.35,2.023,2.023,0,0,0-.581.676,2.747,2.747,0,0,0-.314.979,2.852,2.852,0,0,0,.032,1.03,1.989,1.989,0,0,0,1.022,1.365Z" transform="translate(-139.091 15200.635)"/>
      <path id="Trazado_101919" data-name="Trazado 101919" d="M649.941,176.951a1.989,1.989,0,0,1,1.591.4,2.12,2.12,0,0,1,.772,1.416,2.053,2.053,0,0,1-.358,1.559,1.989,1.989,0,0,1-1.416.8l-1.353.187.322,2.327-1.349.183-.891-6.485Zm.191,3.067a1,1,0,0,0,.708-.354.978.978,0,0,0,.147-.74.955.955,0,0,0-.342-.656.991.991,0,0,0-.8-.159l-1.126.155.263,1.91Z" transform="translate(-82.525 15221.939)"/>
      <path id="Trazado_101920" data-name="Trazado 101920" d="M666.566,181.7l-1.989-2.709-.4.036.275,2.872-1.357.127-.617-6.52,2.363-.223a2.785,2.785,0,0,1,.963.064,1.592,1.592,0,0,1,.7.354,1.825,1.825,0,0,1,.43.581,2.247,2.247,0,0,1,.195.752,1.612,1.612,0,0,1-.255,1.106,1.79,1.79,0,0,1-.971.656l2.24,2.753Zm-2.6-5.2.147,1.56.8-.076c.676-.064.991-.354.943-.875a.724.724,0,0,0-.3-.549,1.213,1.213,0,0,0-.8-.135Z" transform="translate(-91.69 15222.933)"/>
      <path id="Trazado_101921" data-name="Trazado 101921" d="M678.528,180.98l-.4-6.532,1.357-.088.4,6.536Z" transform="translate(-101.114 15223.48)"/>
      <path id="Trazado_101922" data-name="Trazado 101922" d="M693.7,180.154l-1.357.028-.533-4.925-1.555,4.969h-.879l-1.758-4.845-.334,4.941-1.357.028.426-6.56,1.941-.04,1.48,4.078,1.329-4.137,1.937-.04Z" transform="translate(-105.812 15223.907)"/>
      <path id="Trazado_101923" data-name="Trazado 101923" d="M712.132,180.486l-.43-1.368-2.749-.092-.521,1.333-1.392-.048,2.634-6.461,1.659.056,2.188,6.628Zm-2.721-2.6,1.949.064-.879-2.809Z" transform="translate(-118.523 15223.787)"/>
      <path id="Trazado_101924" data-name="Trazado 101924" d="M729.073,181.253l-1.472-2.992-.4-.032-.227,2.872-1.357-.1.517-6.528,2.367.187a2.715,2.715,0,0,1,.935.227,1.669,1.669,0,0,1,.625.469,1.805,1.805,0,0,1,.322.648,2.321,2.321,0,0,1,.064.772,1.619,1.619,0,0,1-.442,1.046,1.833,1.833,0,0,1-1.07.481l1.73,3.1Zm-1.663-5.57-.123,1.559.8.064c.676.056,1.038-.179,1.078-.7a.7.7,0,0,0-.2-.593,1.194,1.194,0,0,0-.752-.271Z" transform="translate(-129.712 15223.414)"/>
      <path id="Trazado_101925" data-name="Trazado 101925" d="M740.68,182.3l.724-6.508,1.349.151-.724,6.508Z" transform="translate(-138.781 15222.619)"/>
      <path id="Trazado_101926" data-name="Trazado 101926" d="M751,184.122a3.58,3.58,0,0,1-1.643-.66,2.988,2.988,0,0,1-1.006-1.345,3.859,3.859,0,0,1,.525-3.517,2.949,2.949,0,0,1,1.357-.983,3.815,3.815,0,0,1,3.4.505,2.948,2.948,0,0,1,1.006,1.341,3.847,3.847,0,0,1-.525,3.513,3,3,0,0,1-1.357.995A3.58,3.58,0,0,1,751,184.122Zm-1.15-2.013a1.929,1.929,0,0,0,1.333.8,1.909,1.909,0,0,0,1.5-.354,2.407,2.407,0,0,0,.458-3.055,2.081,2.081,0,0,0-2.833-.422,2.387,2.387,0,0,0-.457,3.051Z" transform="translate(-143.275 15221.635)"/>
      <path id="Trazado_101927" data-name="Trazado 101927" d="M987.167,677.743l2.98-.187.473-.983-2.347-1.13.247-.513,5.152,2.478-.8,1.655a1.655,1.655,0,0,1-.943.931,1.555,1.555,0,0,1-1.193-.1,1.519,1.519,0,0,1-.76-.744,1.46,1.46,0,0,1-.036-1.074l-3.043.263Zm5.8-.04-1.914-.923-.529,1.086a1.265,1.265,0,0,0-.131.931,1.007,1.007,0,0,0,.561.6,1.041,1.041,0,0,0,.831.064,1.249,1.249,0,0,0,.652-.676Z" transform="translate(-287.048 14922.049)"/>
      <path id="Trazado_101928" data-name="Trazado 101928" d="M981.985,689.086a2.924,2.924,0,0,1,.979-1.1,2.5,2.5,0,0,1,1.377-.4,3.433,3.433,0,0,1,2.785,1.472,2.543,2.543,0,0,1,.426,1.372,2.923,2.923,0,0,1-.366,1.424,3,3,0,0,1-.7.879,2.752,2.752,0,0,1-.927.521,2.582,2.582,0,0,1-1.1.091,3.544,3.544,0,0,1-2.172-1.158,2.6,2.6,0,0,1-.537-.967,2.681,2.681,0,0,1-.087-1.054A2.971,2.971,0,0,1,981.985,689.086Zm1.038-.442a2.305,2.305,0,0,0-.553.7,2.387,2.387,0,0,0-.271.847,2.143,2.143,0,0,0,.068.843,2.043,2.043,0,0,0,.442.8,3.04,3.04,0,0,0,1.79.955,2.032,2.032,0,0,0,.887-.072,2.084,2.084,0,0,0,.736-.4,2.34,2.34,0,0,0,.553-.7,2.449,2.449,0,0,0,.274-.851,2.163,2.163,0,0,0-.068-.847,2.023,2.023,0,0,0-.434-.8,2.787,2.787,0,0,0-.8-.633,2.819,2.819,0,0,0-.983-.322,2.056,2.056,0,0,0-.891.072A2.138,2.138,0,0,0,983.023,688.644Z" transform="translate(-283.884 14914.425)"/>
      <path id="Trazado_101929" data-name="Trazado 101929" d="M976.77,699.639a2.3,2.3,0,0,1,.863-.839l.294.465a1.564,1.564,0,0,0-.684.629.975.975,0,0,0-.1.863,1.38,1.38,0,0,0,.648.72l3.437,2.021-.29.489-3.513-2.065a1.73,1.73,0,0,1-.851-1.022A1.591,1.591,0,0,1,976.77,699.639Z" transform="translate(-280.797 14907.675)"/>
      <path id="Trazado_101930" data-name="Trazado 101930" d="M968.808,711.332a2.936,2.936,0,0,1,1.062-1.015,2.562,2.562,0,0,1,1.408-.3,3.473,3.473,0,0,1,2.637,1.7,2.534,2.534,0,0,1,.31,1.4,2.948,2.948,0,0,1-.485,1.388,3.019,3.019,0,0,1-.768.8,2.664,2.664,0,0,1-.967.442,2.6,2.6,0,0,1-1.106,0,3.581,3.581,0,0,1-2.069-1.333,2.618,2.618,0,0,1-.453-1.006,2.651,2.651,0,0,1,0-1.062A2.941,2.941,0,0,1,968.808,711.332Zm1.07-.354a2.514,2.514,0,0,0-.951,1.476,2.079,2.079,0,0,0,0,.843,2.02,2.02,0,0,0,.374.8,3.027,3.027,0,0,0,1.7,1.1,2.045,2.045,0,0,0,.891,0,2.205,2.205,0,0,0,.768-.35,2.392,2.392,0,0,0,.609-.652,2.343,2.343,0,0,0,.342-.824,2.17,2.17,0,0,0,0-.847,2.079,2.079,0,0,0-.37-.8,3,3,0,0,0-1.707-1.1,2.062,2.062,0,0,0-.9,0A2.191,2.191,0,0,0,969.879,710.978Z" transform="translate(-275.863 14900.923)"/>
      <path id="Trazado_101931" data-name="Trazado 101931" d="M1033.046,677.182a1.989,1.989,0,0,1-1.15,1.154,2.14,2.14,0,0,1-1.591-.06,2.077,2.077,0,0,1-1.158-1.1,1.99,1.99,0,0,1,.048-1.623l.529-1.257-2.164-.911.529-1.253,6.031,2.542Zm-2.737-1.4a1,1,0,0,0-.052.8.971.971,0,0,0,.553.505.994.994,0,0,0,.744.04.982.982,0,0,0,.529-.589l.442-1.046-1.774-.748Z" transform="translate(-311.533 14923.734)"/>
      <path id="Trazado_101932" data-name="Trazado 101932" d="M1018.268,688.857l3.334-.31.167-.358-2.606-1.229.581-1.229,5.919,2.785-1.014,2.148a2.742,2.742,0,0,1-.541.8,1.66,1.66,0,0,1-.664.418,1.823,1.823,0,0,1-.716.072,2.238,2.238,0,0,1-.748-.215,1.591,1.591,0,0,1-.82-.8,1.8,1.8,0,0,1-.072-1.17l-3.509.521Zm5.8.4-1.416-.664-.342.724c-.29.613-.2,1.034.271,1.253a.7.7,0,0,0,.629.02,1.194,1.194,0,0,0,.517-.6Z" transform="translate(-305.523 14915.545)"/>
      <path id="Trazado_101933" data-name="Trazado 101933" d="M1015.521,699.32l5.828,2.984-.621,1.193-5.828-2.984Z" transform="translate(-303.91 14907.361)"/>
      <path id="Trazado_101934" data-name="Trazado 101934" d="M1003.81,712.155l.668-1.193,4.507,2.053-3.477-3.871.434-.768,5.108.987-4.078-2.809.668-1.193,5.426,3.7-.955,1.687-4.261-.8,2.88,3.254-.955,1.691Z" transform="translate(-297.231 14903.724)"/>
      <path id="Trazado_101935" data-name="Trazado 101935" d="M994.928,728.059l1.392.326,1.484-2.315-.879-1.13.748-1.17,4.217,5.57-.9,1.4-6.811-1.5Zm3.62-1.038-1.054,1.643,2.864.676Z" transform="translate(-291.433 14892.638)"/>
      <path id="Trazado_101936" data-name="Trazado 101936" d="M986.435,742.2l3.338.271.227-.322-2.351-1.663.8-1.11,5.347,3.775-1.369,1.941a2.707,2.707,0,0,1-.672.688,1.634,1.634,0,0,1-.724.3,1.84,1.84,0,0,1-.72-.056,2.209,2.209,0,0,1-.7-.338,1.591,1.591,0,0,1-.672-.915,1.8,1.8,0,0,1,.131-1.166l-3.549-.088Zm5.641,1.4-1.277-.9-.465.656q-.585.835.052,1.281a.712.712,0,0,0,.613.131,1.192,1.192,0,0,0,.613-.513Z" transform="translate(-286.218 14883.238)"/>
      <path id="Trazado_101937" data-name="Trazado 101937" d="M982.8,751.64l5.227,3.946-.819,1.082-5.2-3.942Z" transform="translate(-284.098 14875.855)"/>
      <path id="Trazado_101938" data-name="Trazado 101938" d="M973.5,761.2a3.583,3.583,0,0,1,1.4-1.074,2.989,2.989,0,0,1,1.671-.183,3.58,3.58,0,0,1,1.651.8,3.521,3.521,0,0,1,1.1,1.46,2.965,2.965,0,0,1,.159,1.667,3.582,3.582,0,0,1-.772,1.591,3.532,3.532,0,0,1-1.4,1.074,2.954,2.954,0,0,1-1.663.179,3.5,3.5,0,0,1-1.655-.8,3.552,3.552,0,0,1-1.1-1.46,2.976,2.976,0,0,1-.159-1.671A3.545,3.545,0,0,1,973.5,761.2Zm2.315.04a2.076,2.076,0,0,0-1.81,2.216,2.387,2.387,0,0,0,2.387,1.953,2.077,2.077,0,0,0,1.81-2.22A2.387,2.387,0,0,0,975.817,761.237Z" transform="translate(-278.488 14870.885)"/>
      <path id="Trazado_101939" data-name="Trazado 101939" d="M428.766,710.131l-.919,1.237,1.448,2.22,1.48-.35.33.505-5.94,1.357-.366-.561,3.66-4.909Zm0,3.58-1.241-1.906-2.029,2.681Z" transform="translate(51.436 14901.152)"/>
      <path id="Trazado_101940" data-name="Trazado 101940" d="M421.7,702.374l-1.834-3.023.446-.27,2.212,3.632-.4.251-5.816-.485,1.782,2.936-.446.271-2.136-3.513.4-.255Z" transform="translate(57.029 14907.506)"/>
      <path id="Trazado_101941" data-name="Trazado 101941" d="M414.823,690.3a2.289,2.289,0,0,1,.291,1.019,1.767,1.767,0,0,1-.251.959,1.954,1.954,0,0,1-.776.724l-3.393,1.838-.274-.5,3.326-1.8a1.444,1.444,0,0,0,.772-.879,1.591,1.591,0,0,0-1-1.85,1.424,1.424,0,0,0-1.162.159l-3.322,1.8-.271-.5,3.4-1.838a1.815,1.815,0,0,1,1.512-.163,2.073,2.073,0,0,1,1.154,1.03Z" transform="translate(61.094 14913.473)"/>
      <path id="Trazado_101942" data-name="Trazado 101942" d="M410.535,679.869l-.907-1.834.469-.235,1.158,2.347-5.124,2.534-.251-.513Z" transform="translate(62.829 14920.32)"/>
      <path id="Trazado_101943" data-name="Trazado 101943" d="M412.894,762.453a1.989,1.989,0,0,1-.454-1.563,2.109,2.109,0,0,1,.831-1.38,2.077,2.077,0,0,1,1.524-.481,2.021,2.021,0,0,1,1.4.828l.843,1.07,1.842-1.448.843,1.066-5.148,4.038Zm2.546-1.714a.983.983,0,0,0-.664-.43.955.955,0,0,0-.708.243.971.971,0,0,0-.4.628,1,1,0,0,0,.259.748l.7.9,1.512-1.193Z" transform="translate(58.89 14871.412)"/>
      <path id="Trazado_101944" data-name="Trazado 101944" d="M408.764,742.151l-1.341,3.067.231.322,2.339-1.687.8,1.106-5.315,3.827-1.388-1.91a2.733,2.733,0,0,1-.434-.859,1.7,1.7,0,0,1-.044-.8,1.862,1.862,0,0,1,.286-.664,2.253,2.253,0,0,1,.549-.549,1.592,1.592,0,0,1,1.082-.338,1.782,1.782,0,0,1,1.058.505l1.241-3.326Zm-3.183,4.873,1.269-.915-.465-.652q-.6-.824-1.229-.37a.712.712,0,0,0-.322.537,1.194,1.194,0,0,0,.282.748Z" transform="translate(64.214 14882.354)"/>
      <path id="Trazado_101945" data-name="Trazado 101945" d="M403.612,737.134l-5.442,3.64-.76-1.126L402.844,736Z" transform="translate(67.929 14885.273)"/>
      <path id="Trazado_101946" data-name="Trazado 101946" d="M390.867,716.6l.708,1.154L387.6,720.7l5.068-1.158.462.748-3.338,3.978,4.432-2.208.712,1.158-5.868,2.956-1.014-1.651,2.785-3.342-4.241.947-1.014-1.651Z" transform="translate(75.053 14896.956)"/>
      <path id="Trazado_101947" data-name="Trazado 101947" d="M384.015,702.145l-.959,1.058,1.309,2.419,1.412-.223.664,1.221-6.906,1-.8-1.464,4.611-5.235Zm-.839,3.668-.931-1.719-1.989,2.18Z" transform="translate(79.172 14906.398)"/>
      <path id="Trazado_101948" data-name="Trazado 101948" d="M376.921,688.79l-1.85,2.785.171.354,2.594-1.253.593,1.221-5.9,2.86-1.034-2.136a2.836,2.836,0,0,1-.278-.919,1.694,1.694,0,0,1,.091-.8,1.839,1.839,0,0,1,.4-.6,2.28,2.28,0,0,1,.633-.445,1.591,1.591,0,0,1,1.126-.147,1.834,1.834,0,0,1,.955.68l1.8-3.059Zm-3.978,4.249,1.4-.68-.35-.72q-.442-.919-1.146-.581a.708.708,0,0,0-.4.477,1.165,1.165,0,0,0,.147.8Z" transform="translate(83.708 14914.582)"/>
      <path id="Trazado_101949" data-name="Trazado 101949" d="M373.02,683.271l-5.967,2.665L366.5,684.7l5.967-2.665Z" transform="translate(86.542 14917.773)"/>
      <path id="Trazado_101950" data-name="Trazado 101950" d="M367.435,668.243a3.582,3.582,0,0,1,.263,1.746,2.968,2.968,0,0,1-.652,1.547,3.84,3.84,0,0,1-3.3,1.325,2.985,2.985,0,0,1-1.536-.668,3.835,3.835,0,0,1-1.281-3.183,2.964,2.964,0,0,1,.648-1.544,3.851,3.851,0,0,1,3.3-1.325,3,3,0,0,1,1.539.668A3.512,3.512,0,0,1,367.435,668.243Zm-1.154,1.989a2.069,2.069,0,0,0-1.066-2.657,2.4,2.4,0,0,0-2.864,1.15,2,2,0,0,0,2.705,2.606,2.121,2.121,0,0,0,1.225-1.082Z" transform="translate(89.903 14927.352)"/>
      <path id="Trazado_101951" data-name="Trazado 101951" d="M363.31,415.469A3.183,3.183,0,0,1,362.22,417a1.989,1.989,0,0,1-1.623.35l.179-1.428a1.193,1.193,0,0,0,.927-.127,1.4,1.4,0,0,0,.581-.764,1.154,1.154,0,0,0,.056-.74.672.672,0,0,0-.465-.458.629.629,0,0,0-.537.052,1.463,1.463,0,0,0-.434.33c-.107.123-.267.326-.481.609-.028.036-.052.064-.064.084-.107.143-.2.259-.271.346s-.159.191-.274.314a2.87,2.87,0,0,1-.31.294,2.378,2.378,0,0,1-.33.215,1.267,1.267,0,0,1-.37.143,1.512,1.512,0,0,1-.4.02,1.593,1.593,0,0,1-.457-.1,1.747,1.747,0,0,1-.867-.641,1.885,1.885,0,0,1-.334-1,3,3,0,0,1,.195-1.193,3.844,3.844,0,0,1,.4-.768,2.854,2.854,0,0,1,.537-.617,1.806,1.806,0,0,1,.712-.4,2.033,2.033,0,0,1,.867-.056l-.143,1.349a1.058,1.058,0,0,0-1.281.8,1.249,1.249,0,0,0-.072.748.641.641,0,0,0,.442.466.664.664,0,0,0,.708-.251,6.337,6.337,0,0,0,.6-.748l.278-.362c.072-.091.167-.207.29-.342a2.945,2.945,0,0,1,.33-.318,3.855,3.855,0,0,1,.354-.239,1.4,1.4,0,0,1,.4-.163,1.731,1.731,0,0,1,.442-.028,1.592,1.592,0,0,1,.5.1,1.988,1.988,0,0,1,.652.374,1.611,1.611,0,0,1,.4.529,1.988,1.988,0,0,1,.175.64,2.463,2.463,0,0,1,0,.7A4.007,4.007,0,0,1,363.31,415.469Z" transform="translate(92.417 15080.709)"/>
      <path id="Trazado_101952" data-name="Trazado 101952" d="M369.714,400.472l.286.131-1.309,3.183a1.139,1.139,0,0,0,1.512-.668,1.113,1.113,0,0,0,.084-.633.966.966,0,0,0-.286-.537l.617-1.042a2.037,2.037,0,0,1,.7,1.17,2.411,2.411,0,0,1-.163,1.42,2.5,2.5,0,0,1-1.277,1.436,2.339,2.339,0,0,1-1.9-.048,2.363,2.363,0,0,1-1.392-1.3,2.439,2.439,0,0,1,.076-1.854,2.132,2.132,0,0,1,3.055-1.241Zm-2.2,1.591a1.034,1.034,0,0,0,.4,1.388l.8-1.989a.974.974,0,0,0-.74.044,1.043,1.043,0,0,0-.454.549Z" transform="translate(86.579 15087.468)"/>
      <path id="Trazado_101953" data-name="Trazado 101953" d="M376.552,391.036A2.478,2.478,0,0,1,375.2,392.4a2.546,2.546,0,0,1-3.183-1.44,2.785,2.785,0,0,1,1.17-3.107,1.989,1.989,0,0,1,1.472-.187l-.378,1.154a1.046,1.046,0,0,0-.716.1,1.194,1.194,0,0,0-.477.561,1.07,1.07,0,0,0,0,.935,1.508,1.508,0,0,0,.8.712,1.468,1.468,0,0,0,1.046.115,1.059,1.059,0,0,0,.7-.617,1.162,1.162,0,0,0,.107-.724,1.078,1.078,0,0,0-.4-.613l.617-1.042a2.033,2.033,0,0,1,.827,1.237A2.463,2.463,0,0,1,376.552,391.036Z" transform="translate(83.284 15095.074)"/>
      <path id="Trazado_101954" data-name="Trazado 101954" d="M377.588,375.006l.585-1.166,4.165,2.089-.553,1.106-.517-.227a1.778,1.778,0,0,1-.084,1.619,1.806,1.806,0,0,1-.951.963,1.556,1.556,0,0,1-1.269-.135l-2.785-1.4.585-1.17,2.554,1.277a.8.8,0,0,0,.676.08.9.9,0,0,0,.453-.45,1.05,1.05,0,0,0,.1-.8,1.122,1.122,0,0,0-.641-.648Z" transform="translate(80.713 15103.358)"/>
      <path id="Trazado_101955" data-name="Trazado 101955" d="M384.169,362.856a1.818,1.818,0,0,1,1-.911,1.552,1.552,0,0,1,1.261.195l2.729,1.548-.66,1.138-2.486-1.4a.8.8,0,0,0-.672-.115.879.879,0,0,0-.473.422,1.194,1.194,0,0,0-.143.37.985.985,0,0,0,0,.374.819.819,0,0,0,.191.374,1.589,1.589,0,0,0,.426.342l2.236,1.265-.641,1.138-4.054-2.3.641-1.134.45.255a1.806,1.806,0,0,1,.2-1.56Z" transform="translate(76.678 15110.555)"/>
      <path id="Trazado_101956" data-name="Trazado 101956" d="M389.48,345.884l.68-1.114,5.947,3.612-.64,1.054-.537-.286a1.317,1.317,0,0,1,.143.8,1.962,1.962,0,0,1-.29.843,2.252,2.252,0,0,1-.6.656,2.065,2.065,0,0,1-1.679.378,2.76,2.76,0,0,1-.963-.378,2.645,2.645,0,0,1-.951-.935,2.1,2.1,0,0,1-.3-1.134,2.287,2.287,0,0,1,.338-1.11,2.089,2.089,0,0,1,.585-.633,1.329,1.329,0,0,1,.716-.247Zm4.531,4.07a1.15,1.15,0,0,0,.139-.943,1.357,1.357,0,0,0-.648-.8,1.373,1.373,0,0,0-1.018-.2,1.165,1.165,0,0,0-.776.557,1.193,1.193,0,0,0-.147.947,1.381,1.381,0,0,0,.66.8,1.365,1.365,0,0,0,1.018.207A1.162,1.162,0,0,0,394.011,349.954Z" transform="translate(72.704 15120.863)"/>
      <path id="Trazado_101957" data-name="Trazado 101957" d="M403.7,339.362a4.427,4.427,0,0,0,1.01.533l.107.072-.672,1.014-.481-.191a1.519,1.519,0,0,1,0,.8,2.413,2.413,0,0,1-.342.8,2.144,2.144,0,0,1-.274.342,1.592,1.592,0,0,1-.33.251,1.253,1.253,0,0,1-.4.135.978.978,0,0,1-.426-.024,1.48,1.48,0,0,1-.469-.211,1.377,1.377,0,0,1-.374-.35,1.215,1.215,0,0,1-.191-.4,1.523,1.523,0,0,1-.028-.457,2.789,2.789,0,0,1,.092-.493,5.186,5.186,0,0,1,.183-.545l.278-.732a.855.855,0,0,0,.068-.37.3.3,0,0,0-.139-.215.477.477,0,0,0-.5-.056,1.059,1.059,0,0,0-.422.4.8.8,0,0,0,.092,1.15l-.8.851a1.591,1.591,0,0,1-.513-1.15,2.7,2.7,0,0,1,.521-1.412q1.082-1.631,2.482-.7Zm-.875,2.176a1.035,1.035,0,0,0,.163-.859,1.4,1.4,0,0,0-.66-.8l-.346,1.094a1.283,1.283,0,0,0-.1.493.453.453,0,0,0,.589.378A.705.705,0,0,0,402.828,341.538Z" transform="translate(66.863 15124.906)"/>
      <path id="Trazado_101958" data-name="Trazado 101958" d="M406.723,329.773a1.552,1.552,0,0,1-.1-.824,1.847,1.847,0,0,1,.334-.879l.951.672a1.738,1.738,0,0,0-.4,1.07,1.225,1.225,0,0,0,.613.859l1.854,1.309-.756,1.074-3.807-2.689.724-1.022Z" transform="translate(63.111 15130.92)"/>
      <path id="Trazado_101959" data-name="Trazado 101959" d="M408.191,322.268a.752.752,0,0,1-1.054.159.716.716,0,0,1-.29-.493.74.74,0,0,1,.139-.561.748.748,0,0,1,1.341.338A.724.724,0,0,1,408.191,322.268Zm3.911,3.72-3.744-2.785.8-1.054,3.744,2.785Z" transform="translate(62.252 15135.135)"/>
      <path id="Trazado_101960" data-name="Trazado 101960" d="M420.822,317.859a2.959,2.959,0,0,1-1.038.859,2.136,2.136,0,0,1-1.217.191,2.5,2.5,0,0,1-1.225-.545,2.279,2.279,0,0,1-.951-1.647,2.956,2.956,0,0,1,2.28-2.9A2.574,2.574,0,0,1,421.454,316,2.606,2.606,0,0,1,420.822,317.859Zm-.823-.633a1.194,1.194,0,0,0,.27-.959,1.615,1.615,0,0,0-1.591-1.245,1.193,1.193,0,0,0-.871.489,1.138,1.138,0,0,0-.251.939,1.615,1.615,0,0,0,1.591,1.241,1.154,1.154,0,0,0,.851-.473Z" transform="translate(56.5 15139.512)"/>
      <path id="Trazado_101961" data-name="Trazado 101961" d="M979.042,317.975a3.182,3.182,0,0,1-.72-1.742,2.013,2.013,0,0,1,.569-1.559l1.114.915a1.193,1.193,0,0,0-.4.847,1.459,1.459,0,0,0,.338.9,1.194,1.194,0,0,0,.6.442.68.68,0,0,0,.636-.151.632.632,0,0,0,.243-.481,1.482,1.482,0,0,0-.048-.545c-.048-.155-.135-.4-.259-.728l-.036-.1-.151-.4c-.036-.1-.076-.239-.119-.4a2.753,2.753,0,0,1-.084-.418,2.546,2.546,0,0,1,0-.4,1.166,1.166,0,0,1,.076-.4,1.618,1.618,0,0,1,.529-.692,1.75,1.75,0,0,1,1-.4,1.87,1.87,0,0,1,1.026.247,2.994,2.994,0,0,1,.9.8,3.732,3.732,0,0,1,.449.732,2.867,2.867,0,0,1,.235.8,1.825,1.825,0,0,1-.052.8,2.012,2.012,0,0,1-.4.76l-1.066-.839a1.062,1.062,0,0,0,0-1.5,1.285,1.285,0,0,0-.6-.462.648.648,0,0,0-.629.127.66.66,0,0,0-.167.732,6.516,6.516,0,0,0,.31.911c.068.175.119.318.159.43s.083.251.131.43a2.478,2.478,0,0,1,.1.45,3.537,3.537,0,0,1,0,.426,1.31,1.31,0,0,1-.08.43,1.633,1.633,0,0,1-.211.4,1.616,1.616,0,0,1-.354.366,1.954,1.954,0,0,1-.664.35,1.591,1.591,0,0,1-.66.056,2.1,2.1,0,0,1-.633-.191,2.7,2.7,0,0,1-.589-.4A3.549,3.549,0,0,1,979.042,317.975Z" transform="translate(-281.879 15140.19)"/>
      <path id="Trazado_101962" data-name="Trazado 101962" d="M991.026,331.648l-.262.171-1.989-2.809a1.138,1.138,0,0,0-.243,1.635,1.2,1.2,0,0,0,.489.4.983.983,0,0,0,.609.048l.553,1.074a2.03,2.03,0,0,1-1.365-.028,2.434,2.434,0,0,1-1.118-.9,2.526,2.526,0,0,1-.533-1.85,2.689,2.689,0,0,1,2.9-2.065,2.446,2.446,0,0,1,1.559,1.066,2.128,2.128,0,0,1-.581,3.246Zm-.167-2.705a1.026,1.026,0,0,0-1.384-.4l1.241,1.738a.98.98,0,0,0,.354-.648,1.011,1.011,0,0,0-.211-.692Z" transform="translate(-287.2 15131.375)"/>
      <path id="Trazado_101963" data-name="Trazado 101963" d="M995.3,342.4a2.506,2.506,0,0,1-.43-1.87,2.546,2.546,0,0,1,2.92-1.926,2.785,2.785,0,0,1,1.989,2.646,1.988,1.988,0,0,1-.629,1.345l-.772-.935a1.026,1.026,0,0,0,.294-.66,1.161,1.161,0,0,0-.219-.7,1.074,1.074,0,0,0-.8-.5,1.718,1.718,0,0,0-1.679,1.106,1.066,1.066,0,0,0,.147.923,1.193,1.193,0,0,0,.561.473,1.055,1.055,0,0,0,.724,0l.553,1.078a1.989,1.989,0,0,1-1.488.04A2.49,2.49,0,0,1,995.3,342.4Z" transform="translate(-291.825 15124.601)"/>
      <path id="Trazado_101964" data-name="Trazado 101964" d="M1006.8,351.2l.676,1.118-3.978,2.407-.64-1.058.465-.318a1.774,1.774,0,0,1-1.325-.931,1.806,1.806,0,0,1-.307-1.317,1.556,1.556,0,0,1,.8-1l2.685-1.619.676,1.122-2.455,1.472a.8.8,0,0,0-.426.529.879.879,0,0,0,.139.625,1.046,1.046,0,0,0,.609.493,1.129,1.129,0,0,0,.891-.195Z" transform="translate(-295.94 15118.629)"/>
      <path id="Trazado_101965" data-name="Trazado 101965" d="M1013.376,363.769a1.818,1.818,0,0,1,.243,1.333,1.564,1.564,0,0,1-.839.959l-2.765,1.488-.617-1.154,2.514-1.353a.8.8,0,0,0,.454-.509.883.883,0,0,0-.1-.629,1.292,1.292,0,0,0-.239-.314.988.988,0,0,0-.314-.2.8.8,0,0,0-.422-.04,1.649,1.649,0,0,0-.513.179l-2.264,1.217-.621-1.15L1012,361.39l.617,1.15-.454.243A1.81,1.81,0,0,1,1013.376,363.769Z" transform="translate(-299.688 15110.854)"/>
      <path id="Trazado_101966" data-name="Trazado 101966" d="M1023.149,376.854l.581,1.166-6.226,3.107-.553-1.106.529-.3a1.34,1.34,0,0,1-.736-.294,2.022,2.022,0,0,1-.557-.7,2.208,2.208,0,0,1-.239-.855,2.081,2.081,0,0,1,.577-1.623,2.874,2.874,0,0,1,.831-.613,2.637,2.637,0,0,1,1.3-.3,2.068,2.068,0,0,1,1.118.35,2.193,2.193,0,0,1,.756.875,2.04,2.04,0,0,1,.227.831,1.339,1.339,0,0,1-.171.736Zm-5.86,1.663a1.194,1.194,0,0,0,.728.621,1.353,1.353,0,0,0,1.026-.119,1.372,1.372,0,0,0,.716-.752,1.151,1.151,0,0,0-.06-.955,1.166,1.166,0,0,0-.724-.629,1.544,1.544,0,0,0-1.754.875A1.193,1.193,0,0,0,1017.289,378.517Z" transform="translate(-304.536 15102.456)"/>
      <path id="Trazado_101967" data-name="Trazado 101967" d="M1024.243,393.3a4.174,4.174,0,0,0-.991.573l-.115.052-.5-1.11.4-.306a1.477,1.477,0,0,1-.676-.4,2.431,2.431,0,0,1-.625-1.118,1.439,1.439,0,0,1-.036-.4,1.191,1.191,0,0,1,.088-.4,1.155,1.155,0,0,1,.247-.35,1.549,1.549,0,0,1,.43-.282,1.372,1.372,0,0,1,.493-.127,1.193,1.193,0,0,1,.438.052,1.456,1.456,0,0,1,.4.219,3.021,3.021,0,0,1,.37.338,5.4,5.4,0,0,1,.358.446l.474.629a.864.864,0,0,0,.278.255.3.3,0,0,0,.254,0,.481.481,0,0,0,.314-.4,1.086,1.086,0,0,0-.1-.561.8.8,0,0,0-1.026-.537l-.282-1.138a1.544,1.544,0,0,1,1.245.179,2.681,2.681,0,0,1,.915,1.193q.8,1.778-.728,2.474Zm-1.377-1.9a1.046,1.046,0,0,0,.641.593,1.4,1.4,0,0,0,1.038-.123l-.74-.879a1.372,1.372,0,0,0-.362-.346.4.4,0,0,0-.374,0,.434.434,0,0,0-.266.31.721.721,0,0,0,.063.446Z" transform="translate(-308.001 15094.42)"/>
      <path id="Trazado_101968" data-name="Trazado 101968" d="M1030.481,401.39a1.5,1.5,0,0,1,.752.35,1.865,1.865,0,0,1,.565.752l-1.078.446a1.766,1.766,0,0,0-.684-.923,1.234,1.234,0,0,0-1.054.064l-2.1.871-.505-1.193,4.3-1.786.477,1.154Z" transform="translate(-310.822 15087.623)"/>
      <path id="Trazado_101969" data-name="Trazado 101969" d="M1029.72,408.992l4.34-1.695.478,1.225-4.34,1.691Zm5.232-1.325a.748.748,0,1,1,1.388-.557.742.742,0,0,1-.974.967.712.712,0,0,1-.414-.41Z" transform="translate(-312.833 15083.613)"/>
      <path id="Trazado_101970" data-name="Trazado 101970" d="M1033.446,418.792a2.891,2.891,0,0,1-.171-1.337,2.107,2.107,0,0,1,.485-1.134,2.462,2.462,0,0,1,1.114-.744,2.28,2.28,0,0,1,1.9.072,2.956,2.956,0,0,1,1.241,3.477,2.57,2.57,0,0,1-3.338,1.193A2.629,2.629,0,0,1,1033.446,418.792Zm.975-.362a1.193,1.193,0,0,0,.668.744,1.619,1.619,0,0,0,1.894-.676,1.193,1.193,0,0,0,.048-.995,1.138,1.138,0,0,0-.66-.716,1.615,1.615,0,0,0-1.89.672,1.144,1.144,0,0,0-.06.967Z" transform="translate(-314.964 15078.329)"/>
      <path id="Trazado_101971" data-name="Trazado 101971" d="M752.452,887.92a3.183,3.183,0,0,1,1.874.223,2.021,2.021,0,0,1,1.082,1.253l-1.341.529a1.193,1.193,0,0,0-.553-.752,1.42,1.42,0,0,0-.951-.147,1.194,1.194,0,0,0-.676.306.672.672,0,0,0-.179.629.632.632,0,0,0,.3.445,1.4,1.4,0,0,0,.5.223q.239.055.764.131h.1l.434.072c.111.02.247.052.4.092a3.505,3.505,0,0,1,.4.131,3.388,3.388,0,0,1,.346.187,1.229,1.229,0,0,1,.3.258,1.539,1.539,0,0,1,.215.35,1.589,1.589,0,0,1,.131.45,1.743,1.743,0,0,1-.147,1.066,1.88,1.88,0,0,1-.716.772,2.946,2.946,0,0,1-1.134.4,3.953,3.953,0,0,1-.859.036,3.151,3.151,0,0,1-.8-.175,1.907,1.907,0,0,1-.684-.442,2.044,2.044,0,0,1-.461-.736l1.253-.517a1.062,1.062,0,0,0,1.3.748,1.315,1.315,0,0,0,.692-.294.648.648,0,0,0,.2-.613c-.036-.239-.223-.4-.557-.5a6.884,6.884,0,0,0-.947-.175l-.449-.068q-.171-.032-.442-.1a2.587,2.587,0,0,1-.437-.139,2.849,2.849,0,0,1-.378-.195,1.333,1.333,0,0,1-.338-.278,1.781,1.781,0,0,1-.239-.374,1.845,1.845,0,0,1-.147-.489,2.052,2.052,0,0,1,.02-.752,1.683,1.683,0,0,1,.275-.6,2.1,2.1,0,0,1,.477-.457,2.509,2.509,0,0,1,.625-.322A3.747,3.747,0,0,1,752.452,887.92Z" transform="translate(-144.565 14793.823)"/>
      <path id="Trazado_101972" data-name="Trazado 101972" d="M736.864,892.514V892.2l3.429-.378a1.194,1.194,0,0,0-.461-.8,1.162,1.162,0,0,0-.847-.2,1.122,1.122,0,0,0-.593.227.978.978,0,0,0-.338.509l-1.193-.044a2.047,2.047,0,0,1,.692-1.193,2.418,2.418,0,0,1,1.325-.537,2.5,2.5,0,0,1,1.874.438,2.335,2.335,0,0,1,.867,1.691,2.387,2.387,0,0,1-.477,1.846,2.45,2.45,0,0,1-1.687.839,2.132,2.132,0,0,1-2.554-2.093Zm2.443,1.174a1.03,1.03,0,0,0,1.026-1.014l-2.124.235a.979.979,0,0,0,.4.625,1.009,1.009,0,0,0,.7.155Z" transform="translate(-136.48 14792.687)"/>
      <path id="Trazado_101973" data-name="Trazado 101973" d="M725.33,891.045a2.471,2.471,0,0,1,1.842.537,2.542,2.542,0,0,1,.255,3.489,2.757,2.757,0,0,1-3.282.457,2.013,2.013,0,0,1-.871-1.193l1.193-.219a1.018,1.018,0,0,0,.434.581,1.145,1.145,0,0,0,.72.151,1.062,1.062,0,0,0,.82-.437,1.706,1.706,0,0,0-.143-1.989,1.074,1.074,0,0,0-.879-.322,1.2,1.2,0,0,0-.688.255,1.054,1.054,0,0,0-.346.641l-1.194-.044a1.99,1.99,0,0,1,.692-1.317A2.418,2.418,0,0,1,725.33,891.045Z" transform="translate(-128.249 14791.919)"/>
      <path id="Trazado_101974" data-name="Trazado 101974" d="M711.1,896.5l-1.3.044-.155-4.655,1.237-.044.048.561a1.774,1.774,0,0,1,1.46-.7,1.81,1.81,0,0,1,1.3.374,1.592,1.592,0,0,1,.489,1.193l.1,3.135-1.309.044-.1-2.852a.8.8,0,0,0-.255-.633.883.883,0,0,0-.612-.183,1.05,1.05,0,0,0-.728.29,1.142,1.142,0,0,0-.267.871Z" transform="translate(-120.089 14791.518)"/>
      <path id="Trazado_101975" data-name="Trazado 101975" d="M696.729,896.88a1.827,1.827,0,0,1-1.281-.437,1.548,1.548,0,0,1-.426-1.194l.048-3.139,1.313.024-.048,2.852a.8.8,0,0,0,.223.648.867.867,0,0,0,.6.215,1.217,1.217,0,0,0,.4-.056.978.978,0,0,0,.33-.175.854.854,0,0,0,.239-.35,1.509,1.509,0,0,0,.1-.537l.044-2.57,1.3.024-.084,4.655-1.3-.024V896.3A1.782,1.782,0,0,1,696.729,896.88Z" transform="translate(-111.284 14791.269)"/>
      <path id="Trazado_101976" data-name="Trazado 101976" d="M681.031,898.544l-1.3-.06.326-6.954,1.233.06v.609a1.312,1.312,0,0,1,.617-.5,1.988,1.988,0,0,1,.879-.147,2.328,2.328,0,0,1,.863.207,2.23,2.23,0,0,1,.688.509,2.144,2.144,0,0,1,.445.8,2.863,2.863,0,0,1,.131,1.026,2.672,2.672,0,0,1-.37,1.285,2.113,2.113,0,0,1-.851.8,2.235,2.235,0,0,1-1.134.235,2.092,2.092,0,0,1-.835-.211,1.322,1.322,0,0,1-.561-.509Zm1.408-5.928a1.166,1.166,0,0,0-.9.33,1.528,1.528,0,0,0-.091,1.949,1.145,1.145,0,0,0,.859.4,1.166,1.166,0,0,0,.9-.322,1.369,1.369,0,0,0,.4-.967,1.349,1.349,0,0,0-.306-.995,1.194,1.194,0,0,0-.867-.394Z" transform="translate(-102.078 14791.617)"/>
      <path id="Trazado_101977" data-name="Trazado 101977" d="M667.176,891.719a4.381,4.381,0,0,0,0-1.142v-.127l1.217.1.06.513a1.507,1.507,0,0,1,.688-.4,2.349,2.349,0,0,1,.851-.076,2.3,2.3,0,0,1,.43.076,1.465,1.465,0,0,1,.378.171,1.165,1.165,0,0,1,.3.271,1.089,1.089,0,0,1,.187.4,1.535,1.535,0,0,1,.036.513,1.365,1.365,0,0,1-.127.493,1.221,1.221,0,0,1-.259.358,1.334,1.334,0,0,1-.4.243,2.315,2.315,0,0,1-.477.159,5.077,5.077,0,0,1-.561.1l-.8.1a.881.881,0,0,0-.358.119.291.291,0,0,0-.119.223.478.478,0,0,0,.187.466,1.057,1.057,0,0,0,.541.183.8.8,0,0,0,.971-.628l1.134.306a1.591,1.591,0,0,1-.764,1,2.72,2.72,0,0,1-1.488.215c-1.3-.111-1.9-.728-1.806-1.842Zm2.331-.274a1.05,1.05,0,0,0-.831.271,1.4,1.4,0,0,0-.4.967l1.13-.219a1.3,1.3,0,0,0,.477-.147.4.4,0,0,0,.187-.322.425.425,0,0,0-.139-.4.713.713,0,0,0-.426-.131Z" transform="translate(-94.41 14792.268)"/>
      <path id="Trazado_101978" data-name="Trazado 101978" d="M658,893.649a1.468,1.468,0,0,1-.672.485,1.818,1.818,0,0,1-.931.127l.135-1.158a1.778,1.778,0,0,0,1.142-.147,1.241,1.241,0,0,0,.458-.951l.263-2.256,1.3.151-.541,4.627-1.241-.143Z" transform="translate(-88.029 14792.689)"/>
      <path id="Trazado_101979" data-name="Trazado 101979" d="M651.151,894a.728.728,0,0,1,.5.29.72.72,0,0,1,.143.557.7.7,0,0,1-.295.493.739.739,0,0,1-.557.143.72.72,0,0,1-.489-.291.712.712,0,0,1-.147-.553A.752.752,0,0,1,651.151,894Zm1.416-5.215-.641,4.615-1.3-.179.64-4.615Z" transform="translate(-84.355 14793.376)"/>
      <path id="Trazado_101980" data-name="Trazado 101980" d="M639.6,886.911a2.945,2.945,0,0,1,1.253.5,2.131,2.131,0,0,1,.752.979,2.481,2.481,0,0,1,.107,1.337,2.283,2.283,0,0,1-.995,1.623,2.956,2.956,0,0,1-3.64-.617,2.566,2.566,0,0,1,.593-3.489A2.61,2.61,0,0,1,639.6,886.911Zm-.159,1.026a1.193,1.193,0,0,0-.975.219,1.619,1.619,0,0,0-.334,1.989,1.193,1.193,0,0,0,.847.529,1.157,1.157,0,0,0,.943-.227,1.639,1.639,0,0,0,.338-1.989,1.146,1.146,0,0,0-.819-.509Z" transform="translate(-76.13 14794.435)"/>
      <path id="Trazado_101981" data-name="Trazado 101981" d="M549.91,866.974l.3-.676,1.5.664,2.287-5.172.736.326-2.288,5.172,1.5.664-.3.676Z" transform="translate(-23.903 14809.525)"/>
      <path id="Trazado_101982" data-name="Trazado 101982" d="M544.049,858.652l.1-.187,3.139,1.5a1.568,1.568,0,0,0,.107-1.193,1.388,1.388,0,0,0-.744-.8,1.32,1.32,0,0,0-.756-.127,1.353,1.353,0,0,0-.712.31l-.573-.438a1.99,1.99,0,0,1,1.1-.533,2.073,2.073,0,0,1,1.217.195,2.148,2.148,0,0,1,1.193,1.253,2.641,2.641,0,0,1-1.464,3.051,2.128,2.128,0,0,1-1.691-.123,2.01,2.01,0,0,1-1.106-1.162,2.279,2.279,0,0,1,.191-1.75Zm1.158,2.355a1.408,1.408,0,0,0,.975.115A1.456,1.456,0,0,0,547,860.5l-2.411-1.154a1.341,1.341,0,0,0-.044.995A1.273,1.273,0,0,0,545.207,861.007Z" transform="translate(-20.202 14812.31)"/>
      <path id="Trazado_101983" data-name="Trazado 101983" d="M535.925,856.64a1.346,1.346,0,0,1-.768.282,1.707,1.707,0,0,1-.867-.183l.338-.656a1.464,1.464,0,0,0,1.07.179,1.369,1.369,0,0,0,.8-.776l1.09-2.116.7.358-2.037,3.978-.68-.35Z" transform="translate(-14.497 14814.596)"/>
      <path id="Trazado_101984" data-name="Trazado 101984" d="M528.585,847.957a2.132,2.132,0,0,1,1.094,1.325,2.272,2.272,0,0,1-.247,1.77,2.3,2.3,0,0,1-1.353,1.166,2.331,2.331,0,0,1-2.653-1.166,1.957,1.957,0,0,1-.139-1.309l.7.246a1.361,1.361,0,0,0,.111.851,1.384,1.384,0,0,0,.589.6,1.32,1.32,0,0,0,1.126.092,1.763,1.763,0,0,0,.931-.859,1.727,1.727,0,0,0,.219-1.245,1.317,1.317,0,0,0-.688-.9,1.352,1.352,0,0,0-.823-.171,1.381,1.381,0,0,0-.776.366l-.585-.457a1.989,1.989,0,0,1,1.193-.589,2.163,2.163,0,0,1,1.3.274Z" transform="translate(-9.043 14818.027)"/>
      <path id="Trazado_101985" data-name="Trazado 101985" d="M517.6,848.613a.529.529,0,0,1,.187.724.49.49,0,0,1-.322.243.525.525,0,0,1-.4-.056.534.534,0,0,1-.239-.322.5.5,0,0,1,.056-.4.489.489,0,0,1,.322-.243A.5.5,0,0,1,517.6,848.613Zm3.135-4.539-2.26,3.839-.68-.4,2.26-3.835Z" transform="translate(-3.972 14820.431)"/>
      <path id="Trazado_101986" data-name="Trazado 101986" d="M513.847,838.1a1.52,1.52,0,0,1,.672.772,1.114,1.114,0,0,1-.155.979,1.264,1.264,0,0,1-.4.43.986.986,0,0,1-.521.155,2.393,2.393,0,0,1-.577-.06,5.193,5.193,0,0,1-.66-.223l-.676-.279a.4.4,0,0,0-.549.143.8.8,0,0,0-.115.712,1.15,1.15,0,0,0,.489.549,1.162,1.162,0,0,0,.7.195.856.856,0,0,0,.613-.358l.521.5a1.369,1.369,0,0,1-.975.521,2.081,2.081,0,0,1-1.193-.37,2.425,2.425,0,0,1-.509-.4,1.794,1.794,0,0,1-.326-.5,1.145,1.145,0,0,1-.076-.609,1.754,1.754,0,0,1,.271-.7l.967-1.563a.8.8,0,0,0,.159-.449.442.442,0,0,0-.239-.286l-.06-.04.3-.481.33.207a.744.744,0,0,1,.4.955l.028.02A1.7,1.7,0,0,1,513.847,838.1Zm-.485.442a1.193,1.193,0,0,0-1.042-.135,1.766,1.766,0,0,0-.927.8l1.122.426a1.615,1.615,0,0,0,.716.155.577.577,0,0,0,.446-.3.553.553,0,0,0,.076-.529A.922.922,0,0,0,513.361,838.538Z" transform="translate(0.07 14824.609)"/>
      <path id="Trazado_101987" data-name="Trazado 101987" d="M502.189,837.229a1.353,1.353,0,0,1-.8.195,1.644,1.644,0,0,1-.843-.274l.4-.617a1.471,1.471,0,0,0,1.046.294,1.392,1.392,0,0,0,.879-.688l1.3-1.989.656.43-2.451,3.72-.637-.418Z" transform="translate(5.82 14826.17)"/>
      <path id="Trazado_101988" data-name="Trazado 101988" d="M495.042,834.6a.5.5,0,0,1,.219.342.51.51,0,0,1-.08.4.489.489,0,0,1-.342.219.527.527,0,1,1,.2-.955Zm3.441-4.3-2.518,3.672-.641-.458,2.522-3.672Z" transform="translate(9.634 14828.759)"/>
      <path id="Trazado_101989" data-name="Trazado 101989" d="M490.867,824a2.339,2.339,0,0,1,.764.9,2.037,2.037,0,0,1,.175,1.126,2.523,2.523,0,0,1-.485,1.17,2.28,2.28,0,0,1-1.5.987,2.387,2.387,0,0,1-2.606-1.9,2.554,2.554,0,0,1,1.989-2.717A2.181,2.181,0,0,1,490.867,824Zm-.4.529a1.388,1.388,0,0,0-1.122-.251,1.941,1.941,0,0,0-1.416,1.949,1.44,1.44,0,0,0,1.7,1.233,1.953,1.953,0,0,0,1.416-1.949,1.369,1.369,0,0,0-.557-.995Z" transform="translate(13.856 14832.559)"/>
      <path id="Trazado_101990" data-name="Trazado 101990" d="M337.3,572.462l.732-.072.163,1.627,5.613-.553.08.8-5.613.557.159,1.631-.736.072Z" transform="translate(104.125 14983.796)"/>
      <path id="Trazado_101991" data-name="Trazado 101991" d="M343.558,561h.215l.243,3.469a1.559,1.559,0,0,0,1.106-.5,1.4,1.4,0,0,0,.326-1.042,1.33,1.33,0,0,0-.267-.72,1.356,1.356,0,0,0-.621-.465l.1-.716a1.989,1.989,0,0,1,1.007.692,2.1,2.1,0,0,1,.43,1.158,2.14,2.14,0,0,1-.509,1.643,2.315,2.315,0,0,1-1.647.728,2.292,2.292,0,0,1-1.727-.5,2.137,2.137,0,0,1-.732-1.532,2.033,2.033,0,0,1,.466-1.532A2.263,2.263,0,0,1,343.558,561Zm-1.472,2.172a1.368,1.368,0,0,0,.4.9,1.44,1.44,0,0,0,.947.4l-.187-2.661a1.3,1.3,0,0,0-.887.454,1.233,1.233,0,0,0-.279.9Z" transform="translate(101.615 14990.654)"/>
      <path id="Trazado_101992" data-name="Trazado 101992" d="M341.771,553.868a1.344,1.344,0,0,1-.621-.529,1.682,1.682,0,0,1-.271-.847l.74-.032a1.452,1.452,0,0,0,.37,1.022,1.391,1.391,0,0,0,1.07.314l2.387-.1.032.8-4.448.183-.032-.764Z" transform="translate(101.97 14995.797)"/>
      <path id="Trazado_101993" data-name="Trazado 101993" d="M345.278,542.359a2.152,2.152,0,0,1-.613,1.591,2.534,2.534,0,0,1-3.342.056,2.331,2.331,0,0,1-.3-2.884,1.989,1.989,0,0,1,1.07-.768l.131.732a1.336,1.336,0,0,0-.915,1.325,1.313,1.313,0,0,0,.473,1.026,1.759,1.759,0,0,0,1.193.4,1.739,1.739,0,0,0,1.193-.426,1.317,1.317,0,0,0,.438-1.038,1.365,1.365,0,0,0-.259-.8,1.325,1.325,0,0,0-.7-.489l.111-.736a1.957,1.957,0,0,1,1.09.736A2.133,2.133,0,0,1,345.278,542.359Z" transform="translate(102.103 15003.089)"/>
      <path id="Trazado_101994" data-name="Trazado 101994" d="M336.648,535.457a.513.513,0,0,1-.163.37.521.521,0,0,1-.378.151.5.5,0,0,1-.366-.163.521.521,0,0,1-.151-.378.529.529,0,0,1,.163-.366.521.521,0,0,1,.374-.151.529.529,0,0,1,.37.163A.517.517,0,0,1,336.648,535.457Zm5.494.485-4.456-.072v-.8l4.452.072Z" transform="translate(105.155 15006.359)"/>
      <path id="Trazado_101995" data-name="Trazado 101995" d="M345.481,524.821a1.512,1.512,0,0,1-.342.963,1.1,1.1,0,0,1-.927.346,1.3,1.3,0,0,1-.577-.143,1.015,1.015,0,0,1-.4-.4,2.215,2.215,0,0,1-.235-.533,4.786,4.786,0,0,1-.131-.684l-.091-.724c-.04-.263-.171-.4-.4-.4a.8.8,0,0,0-.672.255,1.289,1.289,0,0,0-.064,1.4.863.863,0,0,0,.613.354l-.175.7a1.349,1.349,0,0,1-.931-.593,2.066,2.066,0,0,1-.274-1.225,2.6,2.6,0,0,1,.1-.64,1.8,1.8,0,0,1,.271-.529,1.141,1.141,0,0,1,.493-.37,1.794,1.794,0,0,1,.74-.107l1.838.068a.7.7,0,0,0,.465-.083.438.438,0,0,0,.135-.346v-.072h.565v.4a.74.74,0,0,1-.633.819v.036A1.711,1.711,0,0,1,345.481,524.821Zm-.625-.207a1.193,1.193,0,0,0-.4-.971,1.766,1.766,0,0,0-1.166-.4l.183,1.194a1.592,1.592,0,0,0,.219.7.569.569,0,0,0,.477.243.561.561,0,0,0,.5-.195.935.935,0,0,0,.187-.557Z" transform="translate(101.976 15014.104)"/>
      <path id="Trazado_101996" data-name="Trazado 101996" d="M342.373,514.79a1.321,1.321,0,0,1-.561-.589,1.7,1.7,0,0,1-.179-.871l.736.048a1.492,1.492,0,0,0,.263,1.058,1.388,1.388,0,0,0,1.03.422l2.387.159-.052.8-4.448-.294.052-.768Z" transform="translate(101.566 15019.36)"/>
      <path id="Trazado_101997" data-name="Trazado 101997" d="M337.965,508.756a.513.513,0,0,1-.187.362.526.526,0,0,1-.863-.461.494.494,0,0,1,.183-.354.509.509,0,0,1,.4-.127.517.517,0,0,1,.358.191A.5.5,0,0,1,337.965,508.756Zm5.446.867-4.436-.378.068-.8,4.436.4Z" transform="translate(104.359 15022.466)"/>
      <path id="Trazado_101998" data-name="Trazado 101998" d="M347.538,497.532a2.388,2.388,0,0,1-.4,1.106,2.057,2.057,0,0,1-.9.708,2.508,2.508,0,0,1-1.257.155,2.272,2.272,0,0,1-1.591-.816,2.387,2.387,0,0,1,.362-3.206,2.566,2.566,0,0,1,3.342.4A2.192,2.192,0,0,1,347.538,497.532Zm-.648-.068a1.356,1.356,0,0,0-.338-1.1,1.694,1.694,0,0,0-1.15-.553,1.719,1.719,0,0,0-1.241.282,1.428,1.428,0,0,0-.235,2.085,1.961,1.961,0,0,0,2.387.271A1.357,1.357,0,0,0,346.89,497.464Z" transform="translate(100.73 15030.377)"/>
      <path id="Trazado_101999" data-name="Trazado 101999" d="M477.944,247.46l.454.585-1.3,1,3.441,4.468L479.9,254l-3.441-4.472-1.3,1-.449-.585Z" transform="translate(21.38 15179.461)"/>
      <path id="Trazado_102000" data-name="Trazado 102000" d="M491.765,247.762l.115.179-2.817,2.041a1.556,1.556,0,0,0,1.014.672,1.392,1.392,0,0,0,1.054-.275,1.353,1.353,0,0,0,.473-.6,1.381,1.381,0,0,0,.064-.776l.66-.294a2.025,2.025,0,0,1-.056,1.221,2.057,2.057,0,0,1-.752.979,2.164,2.164,0,0,1-1.663.438,2.642,2.642,0,0,1-1.989-2.741,2.117,2.117,0,0,1,.915-1.428,1.989,1.989,0,0,1,1.547-.418A2.264,2.264,0,0,1,491.765,247.762Zm-2.622-.1a1.393,1.393,0,0,0-.565.8,1.441,1.441,0,0,0,.155,1.018l2.164-1.567a1.333,1.333,0,0,0-.855-.513A1.25,1.25,0,0,0,489.144,247.659Z" transform="translate(13.459 15179.898)"/>
      <path id="Trazado_102001" data-name="Trazado 102001" d="M498.374,241.412a1.309,1.309,0,0,1,.119-.8,1.643,1.643,0,0,1,.573-.676l.418.609a1.468,1.468,0,0,0-.668.855,1.384,1.384,0,0,0,.3,1.074l1.341,1.965-.648.442-2.506-3.68.633-.43Z" transform="translate(7.777 15183.989)"/>
      <path id="Trazado_102002" data-name="Trazado 102002" d="M508.479,239.341a2.136,2.136,0,0,1-1.687.33,2.53,2.53,0,0,1-1.814-2.8,2.14,2.14,0,0,1,.991-1.4,2.168,2.168,0,0,1,1.3-.374,1.965,1.965,0,0,1,1.217.5l-.553.5a1.388,1.388,0,0,0-2.228.867,1.742,1.742,0,0,0,.314,1.229,1.715,1.715,0,0,0,.991.8,1.412,1.412,0,0,0,1.655-.824,1.341,1.341,0,0,0,.048-.851l.684-.3a1.961,1.961,0,0,1-.048,1.317A2.156,2.156,0,0,1,508.479,239.341Z" transform="translate(3.17 15186.912)"/>
      <path id="Trazado_102003" data-name="Trazado 102003" d="M512.941,227.572a.53.53,0,0,1-.724-.179.493.493,0,0,1-.056-.4.506.506,0,0,1,.239-.322.5.5,0,0,1,.4-.06.517.517,0,0,1,.4.64A.5.5,0,0,1,512.941,227.572Zm2.494,4.921-2.3-3.819.676-.4,2.3,3.819Z" transform="translate(-1.16 15192.024)"/>
      <path id="Trazado_102004" data-name="Trazado 102004" d="M523.43,230.376a1.488,1.488,0,0,1-1,.219,1.1,1.1,0,0,1-.8-.6,1.3,1.3,0,0,1-.183-.565,1.054,1.054,0,0,1,.115-.533,2.134,2.134,0,0,1,.33-.477,5.036,5.036,0,0,1,.505-.477l.569-.461a.4.4,0,0,0,.135-.553.8.8,0,0,0-.569-.438,1.289,1.289,0,0,0-1.221.692.843.843,0,0,0,.024.7l-.688.223a1.367,1.367,0,0,1,0-1.106,2.1,2.1,0,0,1,.9-.879,2.518,2.518,0,0,1,.6-.251,1.76,1.76,0,0,1,.593-.052,1.1,1.1,0,0,1,.573.227,1.763,1.763,0,0,1,.485.565l.911,1.591a.768.768,0,0,0,.318.35.45.45,0,0,0,.366-.068l.064-.036.278.489-.338.195a.74.74,0,0,1-1.03-.107l-.032.02a1.7,1.7,0,0,1-.907,1.329Zm-.159-.641a1.193,1.193,0,0,0,.617-.847,1.751,1.751,0,0,0-.271-1.193l-.911.8a1.591,1.591,0,0,0-.473.557.577.577,0,0,0,.044.537.569.569,0,0,0,.434.282A.887.887,0,0,0,523.271,229.735Z" transform="translate(-6.215 15192.495)"/>
      <path id="Trazado_102005" data-name="Trazado 102005" d="M531.776,221.274a1.357,1.357,0,0,1,.207-.8,1.655,1.655,0,0,1,.64-.609l.35.648a1.48,1.48,0,0,0-.756.8,1.4,1.4,0,0,0,.183,1.1l1.126,2.1-.692.37-2.1-3.927.676-.362Z" transform="translate(-12.354 15196.075)"/>
      <path id="Trazado_102006" data-name="Trazado 102006" d="M536.274,214.561a.489.489,0,0,1-.4.032.521.521,0,0,1-.338-.664.5.5,0,0,1,.263-.306.509.509,0,0,1,.4-.032.529.529,0,0,1,.338.664.5.5,0,0,1-.263.306Zm2.148,5.08-2.025-3.978.7-.358,2.029,3.978Z" transform="translate(-15.232 15199.872)"/>
      <path id="Trazado_102007" data-name="Trazado 102007" d="M547.43,217.653a2.343,2.343,0,0,1-1.15.243,1.989,1.989,0,0,1-1.074-.4,2.463,2.463,0,0,1-.8-.983,2.26,2.26,0,0,1-.155-1.786,2.387,2.387,0,0,1,2.912-1.388,2.558,2.558,0,0,1,1.444,3.035A2.192,2.192,0,0,1,547.43,217.653Zm-.286-.589a1.369,1.369,0,0,0,.756-.863,1.743,1.743,0,0,0-.139-1.269,1.7,1.7,0,0,0-.9-.9,1.432,1.432,0,0,0-1.894.9,1.953,1.953,0,0,0,1.038,2.172A1.341,1.341,0,0,0,547.143,217.065Z" transform="translate(-20.428 15200.069)"/>
      <path id="Trazado_102008" data-name="Trazado 102008" d="M847.05,204.2l-.295.68-1.5-.656L843,209.4l-.74-.322,2.26-5.172-1.5-.656.294-.676Z" transform="translate(-199.949 15206.492)"/>
      <path id="Trazado_102009" data-name="Trazado 102009" d="M853.5,215.8l-.1.191-3.147-1.488a1.591,1.591,0,0,0-.1,1.193,1.388,1.388,0,0,0,.748.8,1.337,1.337,0,0,0,.76.123,1.365,1.365,0,0,0,.708-.318l.577.438a2.024,2.024,0,0,1-1.094.541,2.089,2.089,0,0,1-1.221-.191,2.148,2.148,0,0,1-1.193-1.245,2.311,2.311,0,0,1,.171-1.794,2.283,2.283,0,0,1,1.277-1.265,2.124,2.124,0,0,1,1.691.111,1.989,1.989,0,0,1,1.11,1.158,2.236,2.236,0,0,1-.187,1.75Zm-1.17-2.347a1.408,1.408,0,0,0-.975-.111,1.449,1.449,0,0,0-.8.633l2.415,1.138a1.336,1.336,0,0,0,.04-.995A1.273,1.273,0,0,0,852.33,213.453Z" transform="translate(-204.208 15200.419)"/>
      <path id="Trazado_102010" data-name="Trazado 102010" d="M862.343,218.264a1.344,1.344,0,0,1,.764-.282,1.647,1.647,0,0,1,.871.179l-.334.656a1.468,1.468,0,0,0-1.074-.171,1.369,1.369,0,0,0-.8.8l-1.074,2.12-.7-.354,2.017-3.978.68.346Z" transform="translate(-210.632 15197.665)"/>
      <path id="Trazado_102011" data-name="Trazado 102011" d="M868.936,226.421a2.14,2.14,0,0,1-1.1-1.317,2.546,2.546,0,0,1,1.591-2.948,2.323,2.323,0,0,1,2.661,1.15,1.989,1.989,0,0,1,.147,1.309l-.7-.243a1.332,1.332,0,0,0-.115-.851,1.384,1.384,0,0,0-.593-.6,1.317,1.317,0,0,0-1.126-.084,1.989,1.989,0,0,0-1.134,2.112,1.3,1.3,0,0,0,.688.887,1.337,1.337,0,0,0,1.591-.2l.589.453a1.965,1.965,0,0,1-1.193.6,2.172,2.172,0,0,1-1.3-.267Z" transform="translate(-215.312 15194.748)"/>
      <path id="Trazado_102012" data-name="Trazado 102012" d="M877.7,228.3l2.24-3.851.68.4-2.236,3.851Zm3.111-4.555a.506.506,0,0,1-.243-.326.494.494,0,0,1,.052-.4.525.525,0,0,1,.963.131.509.509,0,0,1-.052.4.5.5,0,0,1-.322.243.493.493,0,0,1-.4-.048Z" transform="translate(-221.291 15194.334)"/>
      <path id="Trazado_102013" data-name="Trazado 102013" d="M883.788,235.046a1.513,1.513,0,0,1-.672-.768,1.094,1.094,0,0,1,.147-.979,1.271,1.271,0,0,1,.4-.434,1.019,1.019,0,0,1,.521-.159,2.2,2.2,0,0,1,.577.06,4.483,4.483,0,0,1,.664.223l.676.275a.4.4,0,0,0,.553-.143.8.8,0,0,0,.107-.712,1.142,1.142,0,0,0-.493-.549,1.194,1.194,0,0,0-.7-.191.859.859,0,0,0-.609.362l-.525-.5a1.364,1.364,0,0,1,.991-.533,2.049,2.049,0,0,1,1.193.362,2.3,2.3,0,0,1,.509.4,1.7,1.7,0,0,1,.33.493,1.153,1.153,0,0,1,.08.613,1.885,1.885,0,0,1-.263.7l-.963,1.567a.764.764,0,0,0-.155.45.445.445,0,0,0,.239.286l.06.04-.294.481-.33-.2a.744.744,0,0,1-.4-.955H885.4A1.7,1.7,0,0,1,883.788,235.046Zm.485-.446a1.193,1.193,0,0,0,1.038.131,1.779,1.779,0,0,0,.927-.8l-1.126-.422a1.592,1.592,0,0,0-.716-.151.577.577,0,0,0-.445.3.565.565,0,0,0-.072.529A.919.919,0,0,0,884.274,234.6Z" transform="translate(-224.519 15189.373)"/>
      <path id="Trazado_102014" data-name="Trazado 102014" d="M895.732,237.7a1.345,1.345,0,0,1,.8-.2,1.639,1.639,0,0,1,.843.271l-.4.617a1.46,1.46,0,0,0-1.046-.286,1.384,1.384,0,0,0-.875.692l-1.3,1.989-.664-.434,2.427-3.736.644.418Z" transform="translate(-230.558 15185.994)"/>
      <path id="Trazado_102015" data-name="Trazado 102015" d="M899.52,242.234l2.5-3.688.656.442-2.5,3.688Zm3.417-4.332a.5.5,0,0,1-.223-.338.509.509,0,0,1,.083-.4.533.533,0,1,1,.159.728Z" transform="translate(-234.43 15185.805)"/>
      <path id="Trazado_102016" data-name="Trazado 102016" d="M906.628,250.129a2.336,2.336,0,0,1-.768-.891,2.035,2.035,0,0,1-.183-1.126,2.52,2.52,0,0,1,.477-1.174,2.3,2.3,0,0,1,1.492-.995,2.387,2.387,0,0,1,2.622,1.882,2.558,2.558,0,0,1-1.965,2.729A2.173,2.173,0,0,1,906.628,250.129ZM907,249.6a1.377,1.377,0,0,0,1.122.243,1.926,1.926,0,0,0,1.4-1.953,1.357,1.357,0,0,0-.589-.987,1.337,1.337,0,0,0-1.114-.239,1.738,1.738,0,0,0-1.038.736,1.716,1.716,0,0,0-.366,1.217,1.361,1.361,0,0,0,.569.983Z" transform="translate(-238.128 15180.384)"/>
      <path id="Trazado_102017" data-name="Trazado 102017" d="M1058.864,503.672l-.728.084-.159-1.627-5.617.557-.079-.8,5.617-.557-.163-1.631.736-.072Z" transform="translate(-326.419 15027.61)"/>
      <path id="Trazado_102018" data-name="Trazado 102018" d="M1055.539,514.946h-.215l-.239-3.469a1.591,1.591,0,0,0-1.11.5,1.412,1.412,0,0,0-.322,1.042,1.279,1.279,0,0,0,.262.72,1.356,1.356,0,0,0,.621.466l-.1.716a2.021,2.021,0,0,1-1.007-.692,2.1,2.1,0,0,1-.429-1.158,2.164,2.164,0,0,1,.509-1.643,2.642,2.642,0,0,1,3.378-.231,2.133,2.133,0,0,1,.728,1.532,1.989,1.989,0,0,1-.466,1.532,2.263,2.263,0,0,1-1.611.684Zm1.476-2.168a1.42,1.42,0,0,0-.378-.9,1.448,1.448,0,0,0-.951-.4l.187,2.661a1.317,1.317,0,0,0,.887-.45A1.261,1.261,0,0,0,1057.015,512.778Z" transform="translate(-326.846 15020.946)"/>
      <path id="Trazado_102019" data-name="Trazado 102019" d="M1057.388,525.1a1.321,1.321,0,0,1,.621.529,1.618,1.618,0,0,1,.271.843l-.736.032a1.471,1.471,0,0,0-.374-1.022,1.4,1.4,0,0,0-1.07-.314l-2.387.1-.032-.8,4.448-.183.032.768Z" transform="translate(-327.262 15012.761)"/>
      <path id="Trazado_102020" data-name="Trazado 102020" d="M1053.847,533.587a2.135,2.135,0,0,1,.613-1.591,2.275,2.275,0,0,1,1.663-.66,2.219,2.219,0,0,1,1.977,3.485,1.988,1.988,0,0,1-1.07.768l-.131-.732a1.333,1.333,0,0,0,.684-.517,1.374,1.374,0,0,0,.235-.8,1.312,1.312,0,0,0-.477-1.022,1.715,1.715,0,0,0-1.193-.4,1.741,1.741,0,0,0-1.193.422,1.321,1.321,0,0,0-.438,1.038,1.341,1.341,0,0,0,.959,1.3l-.111.736a1.961,1.961,0,0,1-1.09-.74A2.161,2.161,0,0,1,1053.847,533.587Z" transform="translate(-327.361 15008.521)"/>
      <path id="Trazado_102021" data-name="Trazado 102021" d="M1054.06,544.815l4.456.072v.8l-4.456-.072Zm5.494.485a.513.513,0,0,1,.163-.37.521.521,0,0,1,.4-.151.513.513,0,0,1,.37.163.531.531,0,0,1,.147.378.537.537,0,0,1-.537.517.537.537,0,0,1-.521-.537Z" transform="translate(-327.491 15000.423)"/>
      <path id="Trazado_102022" data-name="Trazado 102022" d="M1053.636,551.333a1.512,1.512,0,0,1,.342-.967,1.1,1.1,0,0,1,.927-.346,1.285,1.285,0,0,1,.577.143,1.026,1.026,0,0,1,.4.4,2.2,2.2,0,0,1,.231.533,4.713,4.713,0,0,1,.135.684l.088.724c.04.263.171.4.4.4a.8.8,0,0,0,.676-.255,1.133,1.133,0,0,0,.235-.7,1.157,1.157,0,0,0-.175-.7.863.863,0,0,0-.613-.354l.175-.7a1.349,1.349,0,0,1,.931.593,2.066,2.066,0,0,1,.275,1.225,2.48,2.48,0,0,1-.1.644,1.8,1.8,0,0,1-.271.529,1.134,1.134,0,0,1-.493.366,1.783,1.783,0,0,1-.736.107l-1.842-.068a.764.764,0,0,0-.465.084.438.438,0,0,0-.135.346v.072h-.569v-.4a.729.729,0,0,1,.637-.82v-.036A1.707,1.707,0,0,1,1053.636,551.333Zm.628.2a1.194,1.194,0,0,0,.4.975,1.794,1.794,0,0,0,1.166.4l-.183-1.193a1.592,1.592,0,0,0-.219-.7.652.652,0,0,0-.975-.048A.919.919,0,0,0,1054.264,551.536Z" transform="translate(-327.226 14997.271)"/>
      <path id="Trazado_102023" data-name="Trazado 102023" d="M1056.936,563.842a1.32,1.32,0,0,1,.561.589,1.622,1.622,0,0,1,.179.871l-.736-.048a1.479,1.479,0,0,0-.262-1.054,1.368,1.368,0,0,0-1.03-.426l-2.387-.159.052-.8,4.444.294-.052.764Z" transform="translate(-327.009 14989.559)"/>
      <path id="Trazado_102024" data-name="Trazado 102024" d="M1052.768,570.54l4.436.4-.063.8-4.44-.4Zm5.446.867a.513.513,0,0,1,.187-.362.533.533,0,0,1,.4-.123.5.5,0,0,1,.358.187.533.533,0,0,1,.124.4.514.514,0,0,1-.187.358.5.5,0,0,1-.4.123.513.513,0,0,1-.362-.187.529.529,0,0,1-.119-.394Z" transform="translate(-326.672 14984.91)"/>
      <path id="Trazado_102025" data-name="Trazado 102025" d="M1051.589,578.036a2.318,2.318,0,0,1,.4-1.1,1.99,1.99,0,0,1,.891-.708,2.471,2.471,0,0,1,1.257-.159,2.27,2.27,0,0,1,1.591.8,2.387,2.387,0,0,1-.362,3.206,2.546,2.546,0,0,1-3.338-.4,2.176,2.176,0,0,1-.438-1.635Zm.648.068a1.369,1.369,0,0,0,.338,1.1,1.934,1.934,0,0,0,2.387.271,1.428,1.428,0,0,0,.235-2.085,1.961,1.961,0,0,0-2.387-.271,1.355,1.355,0,0,0-.573.987Z" transform="translate(-325.99 14981.595)"/>
      <path id="Trazado_102026" data-name="Trazado 102026" d="M909.077,832.588l-.43-.6,1.329-.955-3.286-4.583.656-.469,3.286,4.583,1.333-.955.43.6Z" transform="translate(-238.748 14831.09)"/>
      <path id="Trazado_102027" data-name="Trazado 102027" d="M897.051,834.816l-.111-.183,2.884-1.941a1.591,1.591,0,0,0-.987-.708,1.405,1.405,0,0,0-1.066.239,1.336,1.336,0,0,0-.493.589,1.372,1.372,0,0,0-.091.772l-.668.271a1.989,1.989,0,0,1,.1-1.217,2.093,2.093,0,0,1,.8-.951,2.144,2.144,0,0,1,1.675-.4,2.327,2.327,0,0,1,1.456,1.066,2.3,2.3,0,0,1,.434,1.742,2.133,2.133,0,0,1-.963,1.4,2.021,2.021,0,0,1-1.559.362A2.256,2.256,0,0,1,897.051,834.816Zm2.614.195a1.38,1.38,0,0,0,.593-.8,1.411,1.411,0,0,0-.123-1.022l-2.212,1.492a1.324,1.324,0,0,0,.835.541A1.253,1.253,0,0,0,899.665,835.011Z" transform="translate(-232.59 14827.914)"/>
      <path id="Trazado_102028" data-name="Trazado 102028" d="M892.451,840.517a1.343,1.343,0,0,1-.147.8,1.686,1.686,0,0,1-.6.656l-.4-.625a1.464,1.464,0,0,0,.7-.832,1.372,1.372,0,0,0-.262-1.082l-1.273-2.013.664-.4,2.387,3.763-.645.4Z" transform="translate(-228.981 14824.441)"/>
      <path id="Trazado_102029" data-name="Trazado 102029" d="M880.044,842.676a2.136,2.136,0,0,1,1.695-.271,2.538,2.538,0,0,1,1.723,2.868,2.315,2.315,0,0,1-2.351,1.695,1.942,1.942,0,0,1-1.193-.545l.569-.477a1.358,1.358,0,0,0,.8.338,1.381,1.381,0,0,0,.8-.2,1.312,1.312,0,0,0,.648-.923A1.989,1.989,0,0,0,881.5,843.1a1.391,1.391,0,0,0-1.762,1.619l-.692.271a1.988,1.988,0,0,1,.092-1.317A2.172,2.172,0,0,1,880.044,842.676Z" transform="translate(-222.056 14821.24)"/>
      <path id="Trazado_102030" data-name="Trazado 102030" d="M873.882,847.33l2.16,3.891-.688.4-2.164-3.895Zm2.319,5a.505.505,0,0,1,.4-.044.52.52,0,0,1,.362.648.521.521,0,0,1-.648.358.494.494,0,0,1-.314-.247.517.517,0,0,1-.048-.4.5.5,0,0,1,.251-.318Z" transform="translate(-218.575 14818.232)"/>
      <path id="Trazado_102031" data-name="Trazado 102031" d="M863.835,850.891a1.507,1.507,0,0,1,1.006-.183,1.1,1.1,0,0,1,.764.629,1.308,1.308,0,0,1,.163.573,1.03,1.03,0,0,1-.131.525,2.342,2.342,0,0,1-.346.469,4.986,4.986,0,0,1-.525.457l-.581.438a.4.4,0,0,0-.159.549.8.8,0,0,0,.557.457,1.121,1.121,0,0,0,.72-.139,1.193,1.193,0,0,0,.525-.505.876.876,0,0,0,0-.708l.7-.2a1.377,1.377,0,0,1-.052,1.106,2.056,2.056,0,0,1-.923.847,2.618,2.618,0,0,1-.609.231,1.868,1.868,0,0,1-.593.032,1.136,1.136,0,0,1-.565-.247,1.762,1.762,0,0,1-.465-.585l-.835-1.627a.765.765,0,0,0-.306-.362.442.442,0,0,0-.366.056l-.068.036-.263-.5.346-.183a.748.748,0,0,1,1.026.139h.032A1.7,1.7,0,0,1,863.835,850.891Zm.135.649a1.193,1.193,0,0,0-.644.823,1.747,1.747,0,0,0,.227,1.213l.935-.752a1.554,1.554,0,0,0,.5-.541.569.569,0,0,0-.028-.533.576.576,0,0,0-.418-.334A.9.9,0,0,0,863.97,851.54Z" transform="translate(-211.524 14816.211)"/>
      <path id="Trazado_102032" data-name="Trazado 102032" d="M858.919,859.416a1.368,1.368,0,0,1-.231.8,1.657,1.657,0,0,1-.668.589l-.322-.66a1.476,1.476,0,0,0,.8-.756,1.385,1.385,0,0,0-.143-1.1l-1.05-2.136.7-.346,1.965,3.978-.688.338Z" transform="translate(-209.007 14813.133)"/>
      <path id="Trazado_102033" data-name="Trazado 102033" d="M851.012,859.12l1.89,4.034-.716.334L850.3,859.47ZM853,864.292a.505.505,0,0,1,.4-.02.53.53,0,0,1,.3.274.506.506,0,0,1,0,.4.528.528,0,0,1-.975.044.521.521,0,0,1,0-.4.5.5,0,0,1,.259-.318Z" transform="translate(-204.792 14811.133)"/>
      <path id="Trazado_102034" data-name="Trazado 102034" d="M840.326,862.971a2.312,2.312,0,0,1,1.158-.2,1.99,1.99,0,0,1,1.062.422,2.5,2.5,0,0,1,.764,1.007,2.272,2.272,0,0,1,.088,1.794,2.387,2.387,0,0,1-2.956,1.285,2.566,2.566,0,0,1-1.341-3.083A2.187,2.187,0,0,1,840.326,862.971Zm.266.6a1.364,1.364,0,0,0-.8.839,1.929,1.929,0,0,0,.959,2.2,1.432,1.432,0,0,0,1.926-.836,1.71,1.71,0,0,0-.1-1.265,1.73,1.73,0,0,0-.863-.943,1.352,1.352,0,0,0-1.138,0Z" transform="translate(-197.977 14808.941)"/>
      <path id="Trazado_818475" data-name="Trazado 818475" d="M0,0H.4V33.17H0Z" transform="matrix(0.966, -0.259, 0.259, 0.966, 547.806, 15399.07)"/>
      <path id="Trazado_818476" data-name="Trazado 818476" d="M0,0H34.38V.4H0Z" transform="translate(616.869 15431.016) rotate(-73.79)"/>
      <path id="Trazado_818477" data-name="Trazado 818477" d="M0,0H33.5V.4H0Z" transform="translate(442.621 15583.342) rotate(-15.005)"/>
      <path id="Trazado_818478" data-name="Trazado 818478" d="M0,0H31.516V.4H0Z" transform="translate(481.18 15647.926) rotate(-43.38)"/>
      <path id="Trazado_818479" data-name="Trazado 818479" d="M0,0H.4V33.568H0Z" transform="translate(699.561 15574.288) rotate(-74.98)"/>
      <path id="Trazado_818480" data-name="Trazado 818480" d="M0,0H.4V35H0Z" transform="matrix(0.689, -0.725, 0.725, 0.689, 669.258, 15626.604)"/>
      <path id="Trazado_102035" data-name="Trazado 102035" d="M1023.889,238.076a4.493,4.493,0,0,1-.891-1.428,3.857,3.857,0,0,1-.271-1.536,3.76,3.76,0,0,1,.4-1.528,4.573,4.573,0,0,1,1.066-1.392,4.4,4.4,0,0,1,1.989-1.082,3.649,3.649,0,0,1,2.077.115,4.434,4.434,0,0,1,1.81,1.241,4.331,4.331,0,0,1,1.114,2.208,3.58,3.58,0,0,1-.362,2.3l-1.484-.8a2.228,2.228,0,0,0,.227-1.384,2.507,2.507,0,0,0-.645-1.3,2.386,2.386,0,0,0-1.719-.839,2.967,2.967,0,0,0-2.833,2.574,2.386,2.386,0,0,0,.664,1.79,2.453,2.453,0,0,0,1.229.764,2.208,2.208,0,0,0,1.4-.091l.633,1.551a3.613,3.613,0,0,1-2.323.139A4.269,4.269,0,0,1,1023.889,238.076Z" transform="translate(-308.622 15189.366)"/>
      <path id="Trazado_102036" data-name="Trazado 102036" d="M1037.02,256.712l.919-1.52-2.164-2.638-1.671.609-1.094-1.333,8.175-2.848,1.309,1.591-4.376,7.471Zm.159-4.67,1.536,1.874,1.9-3.123Zm7.535-2.327-1.989-.032-.633-.768,2.534-.175Z" transform="translate(-314.815 15178.69)"/>
      <path id="Trazado_102037" data-name="Trazado 102037" d="M1049.732,267.471l1.54,2.033-1.193.9-2.558-3.374L1054,262.12l1.018,1.345Z" transform="translate(-323.553 15170.633)"/>
      <path id="Trazado_102038" data-name="Trazado 102038" d="M1055.78,278.417l6.667-4.647.963,1.384-6.667,4.647Z" transform="translate(-328.527 15163.617)"/>
      <path id="Trazado_102039" data-name="Trazado 102039" d="M1061.22,286.237l6.763-4.507,1.635,2.447a4.566,4.566,0,0,1,.7,1.571,3.113,3.113,0,0,1,0,1.472,3.615,3.615,0,0,1-.664,1.309,5.793,5.793,0,0,1-2.765,1.842,3.557,3.557,0,0,1-1.464.111,3.112,3.112,0,0,1-1.365-.549,4.526,4.526,0,0,1-1.193-1.249Zm2.176.577.648.975a1.99,1.99,0,0,0,1.464,1,3.66,3.66,0,0,0,3.183-2.124,1.988,1.988,0,0,0-.362-1.734l-.648-.971Z" transform="translate(-331.803 15158.824)"/>
      <path id="Trazado_102040" data-name="Trazado 102040" d="M1076.111,308.724a4.445,4.445,0,0,1-.656-2.093,3.726,3.726,0,0,1,.5-2.025,4.462,4.462,0,0,1,1.615-1.591,4.4,4.4,0,0,1,2.172-.668,3.672,3.672,0,0,1,2.013.521,4.484,4.484,0,0,1,1.532,1.591,4.425,4.425,0,0,1,.656,2.089,3.654,3.654,0,0,1-.493,2.017,4.377,4.377,0,0,1-1.619,1.591,4.441,4.441,0,0,1-2.168.668,3.7,3.7,0,0,1-2.017-.521,4.379,4.379,0,0,1-1.532-1.579Zm1.03-2.681a2.572,2.572,0,0,0,1.822,3.051,2.984,2.984,0,0,0,3.29-1.965,2.582,2.582,0,0,0-1.822-3.051,2.98,2.98,0,0,0-3.29,1.965Z" transform="translate(-340.373 15146.41)"/>
      <path id="Trazado_102041" data-name="Trazado 102041" d="M1086.532,327.679a3.9,3.9,0,0,1-.513-2.284,2.486,2.486,0,0,1,1.015-1.786l1.193,1.349a1.465,1.465,0,0,0-.653.955,1.786,1.786,0,0,0,.223,1.193,1.443,1.443,0,0,0,.64.664.832.832,0,0,0,.8-.052.8.8,0,0,0,.4-.537,1.943,1.943,0,0,0,.056-.676c-.028-.2-.08-.517-.167-.947,0-.06,0-.1-.024-.127q-.06-.33-.1-.537c-.024-.135-.044-.306-.064-.517a3,3,0,0,1,.06-1.01,1.584,1.584,0,0,1,.175-.465,2.1,2.1,0,0,1,.318-.4,2.235,2.235,0,0,1,.473-.346,2.192,2.192,0,0,1,1.309-.267,2.3,2.3,0,0,1,1.193.517,3.723,3.723,0,0,1,.931,1.162,4.828,4.828,0,0,1,.4.991,3.756,3.756,0,0,1,.127,1.007,2.314,2.314,0,0,1-.235.983,2.506,2.506,0,0,1-.668.847l-1.126-1.249a1.32,1.32,0,0,0,.338-1.838,1.63,1.63,0,0,0-.637-.688.8.8,0,0,0-.8.028.824.824,0,0,0-.358.859,9.042,9.042,0,0,0,.191,1.193c.048.227.08.4.108.557s.052.33.071.553a3.692,3.692,0,0,1,.024.569,4.215,4.215,0,0,1-.06.513,1.741,1.741,0,0,1-.187.513,2.131,2.131,0,0,1-.338.43,2.064,2.064,0,0,1-.509.378,2.429,2.429,0,0,1-.887.286,1.932,1.932,0,0,1-.819-.068,2.5,2.5,0,0,1-.736-.366,3.218,3.218,0,0,1-.636-.6A4.774,4.774,0,0,1,1086.532,327.679Z" transform="translate(-346.728 15134.648)"/>
      <path id="Trazado_102042" data-name="Trazado 102042" d="M824.4,143.262a176.076,176.076,0,0,0-119-47.671V94a177.648,177.648,0,0,1,120.071,48.137Z" transform="translate(-117.536 15271.871)"/>
      <path id="Trazado_102043" data-name="Trazado 102043" d="M708.233,80.01l1.058,1.189-5.876,5.2,5.617,5.482-1.114,1.138-6.839-6.675Z" transform="translate(-114.935 15280.296)"/>
      <path id="Trazado_102044" data-name="Trazado 102044" d="M1092.246,522.41l-1.4-.764a177.031,177.031,0,0,0,7.714-153.265l1.468-.621A178.646,178.646,0,0,1,1092.246,522.41Z" transform="translate(-349.646 15107.02)"/>
      <path id="Trazado_102045" data-name="Trazado 102045" d="M1095.885,741.644l-.513-1.508-7.423,2.538-1.989-7.594-1.54.406,2.423,9.245Z" transform="translate(-345.773 14885.827)"/>
      <path id="Trazado_102046" data-name="Trazado 102046" d="M507.567,900.7A177.915,177.915,0,0,1,377.22,844.016l1.162-1.086a177.006,177.006,0,0,0,152.863,54.589l.215,1.591a178.085,178.085,0,0,1-23.893,1.591Z" transform="translate(80.086 14820.883)"/>
      <path id="Trazado_102047" data-name="Trazado 102047" d="M749.676,980.449l-1.225-1.014,5.021-6.031-6.381-4.567.931-1.3,7.77,5.565Z" transform="translate(-142.641 14745.845)"/>
      <path id="Trazado_102048" data-name="Trazado 102048" d="M274.811,524.111a178.758,178.758,0,0,1-6.719-139.831l1.492.553a177.179,177.179,0,0,0,6.66,138.574Z" transform="translate(152.488 15097.071)"/>
      <path id="Trazado_102049" data-name="Trazado 102049" d="M266.92,385.272l.724,1.42,6.986-3.576,3.055,7.228,1.468-.625-3.724-8.8Z" transform="translate(146.507 15099.095)"/>
      <path id="Trazado_102050" data-name="Trazado 102050" d="M347.656,820.506l1.961,2.387,1.428-1.17-1.695-2.065,1.134-.931,1.695,2.065,2.574-2.112,1.078,1.313-6.282,5.172-3.039-3.7Z" transform="translate(98.58 14835.485)"/>
      <path id="Trazado_102051" data-name="Trazado 102051" d="M344.069,798.993,342.5,802.84l.294.4,2.852-2.16,1.018,1.345-6.477,4.909-1.778-2.351a3.379,3.379,0,0,1-.565-1.054,1.989,1.989,0,0,1-.076-.967,2.184,2.184,0,0,1,.33-.831,2.737,2.737,0,0,1,.664-.7,1.99,1.99,0,0,1,1.333-.454,2.208,2.208,0,0,1,1.329.593l1.44-4.161Zm-3.787,6.138,1.547-1.193-.6-.8c-.509-.672-1.022-.8-1.536-.426a.883.883,0,0,0-.4.68,1.5,1.5,0,0,0,.37.919Z" transform="translate(103.861 14848.294)"/>
      <path id="Trazado_102052" data-name="Trazado 102052" d="M337.344,792.892l-6.7,4.595-.951-1.392,6.7-4.595Z" transform="translate(108.708 14851.853)"/>
      <path id="Trazado_102053" data-name="Trazado 102053" d="M327.11,776.683a4.375,4.375,0,0,1,.744,2.065,3.667,3.667,0,0,1-.4,2.041,4.774,4.774,0,0,1-3.688,2.419,3.7,3.7,0,0,1-2.033-.437,4.453,4.453,0,0,1-1.591-1.508,4.375,4.375,0,0,1-.748-2.061,3.692,3.692,0,0,1,.4-2.037,4.8,4.8,0,0,1,3.692-2.419,3.706,3.706,0,0,1,2.037.437A4.376,4.376,0,0,1,327.11,776.683Zm-.915,2.725a2.57,2.57,0,0,0-1.949-2.972,2.98,2.98,0,0,0-3.2,2.1,2.582,2.582,0,0,0,1.949,2.972A2.98,2.98,0,0,0,326.2,779.408Z" transform="translate(114.917 14861.948)"/>
      <path id="Trazado_102054" data-name="Trazado 102054" d="M316.2,759.425a3.942,3.942,0,0,1,.613,2.256,2.494,2.494,0,0,1-.943,1.83l-1.229-1.3a1.472,1.472,0,0,0,.609-.983,1.766,1.766,0,0,0-.271-1.162,1.447,1.447,0,0,0-.668-.641.84.84,0,0,0-.8.088.8.8,0,0,0-.37.553,1.887,1.887,0,0,0-.028.676c.032.2.1.517.207.943a.352.352,0,0,0,.028.123c.052.219.091.4.119.533s.056.306.083.513a3.384,3.384,0,0,1,.036.529,3.322,3.322,0,0,1-.052.485,1.593,1.593,0,0,1-.155.469,2.228,2.228,0,0,1-2.057,1.094,2.328,2.328,0,0,1-1.233-.438,3.772,3.772,0,0,1-.979-1.122,4.4,4.4,0,0,1-.438-.975,3.6,3.6,0,0,1-.171-1,2.294,2.294,0,0,1,.191-.995,2.5,2.5,0,0,1,.633-.871l1.194,1.193a1.325,1.325,0,0,0-.259,1.854,1.591,1.591,0,0,0,.664.656.8.8,0,0,0,.8-.056.831.831,0,0,0,.318-.875,8.522,8.522,0,0,0-.243-1.17c-.052-.227-.1-.4-.127-.553s-.064-.326-.1-.549a4.093,4.093,0,0,1-.044-.569,3.884,3.884,0,0,1,.052-.525,1.778,1.778,0,0,1,.163-.521,2.358,2.358,0,0,1,.322-.446,2.059,2.059,0,0,1,.493-.4,2.518,2.518,0,0,1,.871-.326,2.028,2.028,0,0,1,.824.036,2.623,2.623,0,0,1,.752.334,3.314,3.314,0,0,1,.66.569A4.774,4.774,0,0,1,316.2,759.425Z" transform="translate(121.464 14872.192)"/>
    </g>
  </g>
</svg>
