<svg xmlns="http://www.w3.org/2000/svg" width="261.5" height="316.705" viewBox="0 0 261.5 316.705">
  <g id="Grupo_1072333" data-name="Grupo 1072333" transform="translate(2506.5 8288.705)">
    <g id="Grupo_57748" data-name="Grupo 57748" transform="translate(-2922.778 -9273.279)">
      <path id="Trazado_103130" data-name="Trazado 103130" d="M507.174,1033.276A61.088,61.088,0,0,0,493.5,1006.64a48.375,48.375,0,0,0-24.984-14.991c-.421-.105-.84-.215-1.264-.309-2.278-.5-3.958-1.645-3.335-4.24.617-2.57,2.574-2.828,4.876-2.3a55.592,55.592,0,0,1,19.591,8.42c12.76,8.884,20.45,21.311,24.611,36.023.9,3.168,2.128,4.13,5.464,4.149,9.407.055,18.95-.241,28.192,1.2,32.8,5.1,58.76,34.264,60.056,67.442.68,17.43.272,34.9.25,52.359-.021,17.343.59,34.731-.418,52.021-2.511,43.089-38.109,79.325-81.047,83.147-18.308,1.629-36.563,1.183-53.593-6.756-35.183-16.4-54.236-44.108-55.185-83.037-.76-31.206-.353-62.447-.1-93.669a73.153,73.153,0,0,1,73.68-72.822C495.8,1033.278,501.3,1033.276,507.174,1033.276Zm-83.756,100.271c-.075.852-.146,1.278-.146,1.7,0,22-.233,44,.063,66,.448,33.228,22.013,63.826,52.9,76.145,14.583,5.817,29.7,6.7,45.066,5.8,43.118-2.537,77.747-37.986,78.793-81.154.535-22.1.157-44.214.172-66.323a13.959,13.959,0,0,0-.338-2.169Zm176.856-7.177c0-6.677.142-13.15-.024-19.615-.693-26.954-13.113-46.787-36.687-59.652-15.069-8.223-31.528-7.529-47.917-7.065-.174.005-.343.238-.764.547,0,3.267-.112,6.727.085,10.17a3.4,3.4,0,0,0,1.815,2.174c5.516,2.727,8.273,7.118,8.286,13.231.023,10.942-.03,21.885.025,32.827.033,6.491-2.6,11.237-8.568,14.066a3.035,3.035,0,0,0-1.639,1.974c-.161,3.739-.076,7.489-.076,11.344Zm-176.646.01h84.387c0-3.411-.088-6.632.033-9.845a3.554,3.554,0,0,0-2.406-3.947,12.707,12.707,0,0,1-7.814-12.13c-.094-11.816-.053-23.633.033-35.449.032-4.4,1.735-8.692,5.654-10.318,4.992-2.071,4.845-5.546,4.618-9.575a12.829,12.829,0,0,1,.01-2.275c.275-2.237-.6-3.062-2.9-3-5.851.154-11.716-.109-17.558.161-20.045.93-36.47,9.228-49.391,24.579C423.1,1082.627,422.073,1104.024,423.629,1126.38Zm80.875-43.458c0,5.527-.044,11.055.014,16.581.048,4.551,2.708,7.574,6.655,7.737,3.964.164,7.125-2.96,7.171-7.579q.168-16.741-.009-33.486c-.047-4.658-3.112-7.676-7.16-7.522-3.957.15-6.621,3.171-6.658,7.689C504.472,1071.868,504.506,1077.4,504.5,1082.922Z"/>
      <path id="Trazado_103131" data-name="Trazado 103131" d="M427.129,1213.611h176.5a13.962,13.962,0,0,1,.338,2.169c-.015,22.108.363,44.227-.172,66.323-1.045,43.168-35.675,78.618-78.793,81.154-15.366.9-30.483.021-45.066-5.8-30.882-12.32-52.448-42.917-52.9-76.145-.3-22-.064-44-.063-66C426.983,1214.889,427.054,1214.463,427.129,1213.611Z" transform="translate(-3.711 -80.064)" fill="#afafaf"/>
      <path id="Trazado_103132" data-name="Trazado 103132" d="M653.217,1156.045H567.753c0-3.855-.085-7.6.076-11.344a3.034,3.034,0,0,1,1.639-1.974c5.966-2.829,8.6-7.575,8.568-14.066-.055-10.942,0-21.884-.025-32.827-.013-6.113-2.77-10.5-8.286-13.231a3.405,3.405,0,0,1-1.815-2.174c-.2-3.442-.085-6.9-.085-10.169.422-.31.59-.542.764-.547,16.388-.464,32.848-1.158,47.917,7.065,23.574,12.865,35.994,32.7,36.687,59.652C653.359,1142.9,653.217,1149.368,653.217,1156.045Z" transform="translate(-52.943 -29.675)" fill="#b0c0d2"/>
      <path id="Trazado_103133" data-name="Trazado 103133" d="M427.294,1156.081c-1.555-22.356-.529-43.753,14.663-61.8,12.921-15.351,29.346-23.649,49.391-24.579,5.843-.271,11.708-.007,17.558-.161,2.305-.06,3.177.765,2.9,3a12.824,12.824,0,0,0-.01,2.275c.227,4.029.374,7.5-4.618,9.575-3.919,1.625-5.622,5.916-5.654,10.318-.085,11.816-.127,23.633-.033,35.449a12.707,12.707,0,0,0,7.814,12.13,3.554,3.554,0,0,1,2.406,3.947c-.122,3.213-.033,6.434-.033,9.845Z" transform="translate(-3.665 -29.7)" fill="#b0c0d2"/>
      <path id="Trazado_103134" data-name="Trazado 103134" d="M551.913,1122.733c0-5.527-.033-11.054.012-16.581.037-4.518,2.7-7.539,6.658-7.689,4.048-.154,7.113,2.864,7.16,7.522q.17,16.742.009,33.486c-.046,4.62-3.207,7.743-7.171,7.58-3.947-.163-6.607-3.186-6.655-7.737C551.867,1133.787,551.911,1128.26,551.913,1122.733Z" transform="translate(-47.408 -39.81)" fill="#727997"/>
    </g>
    <g id="Grupo_1072332" data-name="Grupo 1072332" transform="translate(-100 -88)">
      <rect id="Rectángulo_5438" data-name="Rectángulo 5438" width="174" height="153" rx="10" transform="translate(-2319 -8037)" fill="#fff"/>
      <g id="Grupo_1072591" data-name="Grupo 1072591">
        <path id="Trazado_818489" data-name="Trazado 818489" d="M10,0H133a10,10,0,0,1,10,10V47a10,10,0,0,1-10,10H10A10,10,0,0,1,0,47V10A10,10,0,0,1,10,0Z" transform="translate(-2303 -8020)" fill="#1425dd"/>
        <path id="Trazado_818490" data-name="Trazado 818490" d="M10,0H59A10,10,0,0,1,69,10V47A10,10,0,0,1,59,57H10A10,10,0,0,1,0,47V10A10,10,0,0,1,10,0Z" transform="translate(-2303 -7957)" fill="#f7df3f"/>
        <path id="Trazado_818491" data-name="Trazado 818491" d="M10,0H59A10,10,0,0,1,69,10V47A10,10,0,0,1,59,57H10A10,10,0,0,1,0,47V10A10,10,0,0,1,10,0Z" transform="translate(-2229 -7957)" fill="#05dbf3"/>
        <path id="Trazado_818492" data-name="Trazado 818492" d="M6.727,11.977a1.127,1.127,0,0,0-.426-.937,5.292,5.292,0,0,0-1.5-.7,14.353,14.353,0,0,1-1.75-.7A3.314,3.314,0,0,1,.844,6.664,2.676,2.676,0,0,1,1.395,5,3.562,3.562,0,0,1,2.953,3.871a6.065,6.065,0,0,1,2.266-.4,5.305,5.305,0,0,1,2.2.438A3.482,3.482,0,0,1,8.93,5.152,3.254,3.254,0,0,1,9.469,7H6.734a1.375,1.375,0,0,0-.426-1.078,1.66,1.66,0,0,0-1.152-.383A1.872,1.872,0,0,0,4,5.863.955.955,0,0,0,4.039,7.48a5.911,5.911,0,0,0,1.648.734,10.1,10.1,0,0,1,1.938.816,3.256,3.256,0,0,1,1.844,2.93A2.778,2.778,0,0,1,8.344,14.3a5,5,0,0,1-3.086.852,6.122,6.122,0,0,1-2.5-.5A3.775,3.775,0,0,1,1.066,13.3,3.542,3.542,0,0,1,.5,11.313H3.25a1.744,1.744,0,0,0,.473,1.348,2.234,2.234,0,0,0,1.535.434A1.765,1.765,0,0,0,6.332,12.8.967.967,0,0,0,6.727,11.977Zm6.6-4.523a2.635,2.635,0,0,1,2.156-1.062,2.627,2.627,0,0,1,2.109.828,3.721,3.721,0,0,1,.727,2.445V15H15.68V9.727a1.488,1.488,0,0,0-.273-.988,1.175,1.175,0,0,0-.93-.316,1.266,1.266,0,0,0-1.148.516V15H10.7V3h2.633ZM22.563,15H19.922V6.547h2.641Zm-2.8-10.641a1.186,1.186,0,0,1,.406-.927,1.719,1.719,0,0,1,2.109,0,1.186,1.186,0,0,1,.406.927,1.186,1.186,0,0,1-.406.927,1.719,1.719,0,0,1-2.109,0A1.186,1.186,0,0,1,19.766,4.359Zm5,10.641V8.375H23.539V6.547h1.227V5.875a2.921,2.921,0,0,1,.852-2.242,3.364,3.364,0,0,1,2.391-.8A5.235,5.235,0,0,1,29.242,3l.008,1.938a2.4,2.4,0,0,0-.648-.07q-1.2,0-1.2,1.031v.648h1.648V8.375H27.406V15ZM33.047,4.445v2.1h1.391V8.375H33.047v3.867a.987.987,0,0,0,.172.664.922.922,0,0,0,.68.188,3.862,3.862,0,0,0,.656-.047V14.93a4.859,4.859,0,0,1-1.484.227,2.758,2.758,0,0,1-2.008-.641,2.626,2.626,0,0,1-.648-1.945v-4.2H29.336V6.547h1.078v-2.1Z" transform="translate(-2251 -8001)" fill="#fff"/>
        <path id="Trazado_818493" data-name="Trazado 818493" d="M10.063,11.148a4.154,4.154,0,0,1-.641,2.1,3.866,3.866,0,0,1-1.645,1.41,5.6,5.6,0,0,1-2.418.5A4.467,4.467,0,0,1,1.828,13.7,6.032,6.032,0,0,1,.539,9.57V9.008a6.885,6.885,0,0,1,.582-2.926A4.41,4.41,0,0,1,2.8,4.145a4.676,4.676,0,0,1,2.531-.684,4.9,4.9,0,0,1,3.328,1.09,4.306,4.306,0,0,1,1.43,3H7.352a2.037,2.037,0,0,0-.523-1.492,2.153,2.153,0,0,0-1.5-.453,1.638,1.638,0,0,0-1.5.766,4.921,4.921,0,0,0-.5,2.445v.8a5.445,5.445,0,0,0,.457,2.6,1.672,1.672,0,0,0,1.574.781A2.106,2.106,0,0,0,6.8,12.563a1.89,1.89,0,0,0,.531-1.414Zm3.594-4.6.086.992a2.867,2.867,0,0,1,2.414-1.148,2.412,2.412,0,0,1,1.973.789A3.757,3.757,0,0,1,18.8,9.555V15H16.164V9.664a1.426,1.426,0,0,0-.258-.941,1.193,1.193,0,0,0-.937-.3,1.256,1.256,0,0,0-1.148.609V15H11.188V6.547Zm9.672-2.1v2.1h1.391V8.375H23.328v3.867a.987.987,0,0,0,.172.664.922.922,0,0,0,.68.188,3.862,3.862,0,0,0,.656-.047V14.93a4.859,4.859,0,0,1-1.484.227,2.758,2.758,0,0,1-2.008-.641A2.626,2.626,0,0,1,20.7,12.57v-4.2H19.617V6.547H20.7v-2.1ZM30.867,8.93,30,8.867a1.558,1.558,0,0,0-1.594.781V15H25.773V6.547h2.469l.086,1.086A2.039,2.039,0,0,1,30.18,6.391a2.567,2.567,0,0,1,.734.094ZM34.594,15H31.953V3h2.641Z" transform="translate(-2288 -7938)" fill="#12263f"/>
        <path id="Trazado_818494" data-name="Trazado 818494" d="M7.32,12.875H3.563L2.906,15H-.023L4.148,3.625H6.727L10.93,15H7.984Zm-3.1-2.117H6.664L5.438,6.813ZM14.414,15H11.773V3h2.641ZM19.1,4.445v2.1h1.391V8.375H19.1v3.867a.987.987,0,0,0,.172.664.922.922,0,0,0,.68.188,3.862,3.862,0,0,0,.656-.047V14.93a4.859,4.859,0,0,1-1.484.227,2.758,2.758,0,0,1-2.008-.641,2.626,2.626,0,0,1-.648-1.945v-4.2H15.391V6.547h1.078v-2.1Z" transform="translate(-2207 -7938)" fill="#12263f"/>
      </g>
    </g>
  </g>
</svg>
