<svg xmlns="http://www.w3.org/2000/svg" width="210" height="210" viewBox="0 0 210 210">
  <g id="Grupo_1072318" data-name="Grupo 1072318" transform="translate(-705 -14677.945)">
    <g id="Grupo_57657" data-name="Grupo 57657" transform="translate(315 12337)">
      <rect id="Rectángulo_5290" data-name="Rectángulo 5290" width="210" height="210" rx="10" transform="translate(390 2340.945)" fill="#fff"/>
    </g>
    <g id="Grupo_1072578" data-name="Grupo 1072578">
      <path id="Trazado_28992" data-name="Trazado 28992" d="M61.755,78.055A50.34,50.34,0,0,1,81.139,30.94a50.443,50.443,0,1,0-49.732,86.787A50.492,50.492,0,0,1,61.755,78.053" transform="translate(732.7 14697.813)" fill="#0099df"/>
      <path id="Trazado_28993" data-name="Trazado 28993" d="M61.755,78.055A50.34,50.34,0,0,1,81.139,30.94a50.443,50.443,0,1,0-49.732,86.787A50.492,50.492,0,0,1,61.755,78.055Z" transform="translate(732.7 14697.813)" fill="none" stroke="#000" stroke-miterlimit="10" stroke-width="0.25"/>
      <path id="Trazado_28994" data-name="Trazado 28994" d="M149.481,71.052A50.437,50.437,0,0,0,68.468,30.932a50.318,50.318,0,0,1,19.4,46.932,50.487,50.487,0,0,1,30.786,39.675,50.458,50.458,0,0,0,30.819-46.484" transform="translate(745.37 14697.821)" fill="#e93179"/>
      <path id="Trazado_28995" data-name="Trazado 28995" d="M149.481,71.052A50.437,50.437,0,0,0,68.468,30.932a50.318,50.318,0,0,1,19.4,46.932,50.487,50.487,0,0,1,30.786,39.675,50.458,50.458,0,0,0,30.822-46.486Z" transform="translate(745.37 14697.821)" fill="none" stroke="#000" stroke-miterlimit="10" stroke-width="0.25"/>
      <path id="Trazado_28996" data-name="Trazado 28996" d="M51.7,69.439a50.776,50.776,0,0,0,.494,6.994,50.549,50.549,0,0,1,38.788-.182A50.317,50.317,0,0,0,71.577,29.318,50.356,50.356,0,0,0,51.7,69.439" transform="translate(742.262 14699.436)" fill="#012072"/>
      <path id="Trazado_28997" data-name="Trazado 28997" d="M51.7,69.439a50.776,50.776,0,0,0,.494,6.994,50.549,50.549,0,0,1,38.788-.182A50.317,50.317,0,0,0,71.577,29.318,50.356,50.356,0,0,0,51.7,69.439Z" transform="translate(742.262 14699.436)" fill="none" stroke="#000" stroke-miterlimit="10" stroke-width="0.25"/>
      <path id="Trazado_28998" data-name="Trazado 28998" d="M76.324,97.008a50.444,50.444,0,0,1-49.734,6.545,50.445,50.445,0,1,0,99.926-.183,50.485,50.485,0,0,1-50.194-6.362" transform="translate(737.514 14711.985)" fill="#fef011"/>
      <path id="Trazado_28999" data-name="Trazado 28999" d="M76.324,97.009a50.444,50.444,0,0,1-49.734,6.545,50.445,50.445,0,1,0,99.926-.183,50.482,50.482,0,0,1-50.192-6.362Z" transform="translate(737.514 14711.984)" fill="none" stroke="#000" stroke-miterlimit="10" stroke-width="0.25"/>
      <path id="Trazado_29000" data-name="Trazado 29000" d="M76.246,102.19A50.391,50.391,0,0,1,56.862,69.065a50.5,50.5,0,0,0-30.348,39.672,50.435,50.435,0,0,0,49.732-6.547" transform="translate(737.593 14706.804)" fill="#178f48"/>
      <path id="Trazado_29001" data-name="Trazado 29001" d="M76.246,102.19A50.391,50.391,0,0,1,56.862,69.065a50.5,50.5,0,0,0-30.348,39.672,50.435,50.435,0,0,0,49.732-6.547Z" transform="translate(737.593 14706.804)" fill="none" stroke="#000" stroke-miterlimit="10" stroke-width="0.25"/>
      <path id="Trazado_29002" data-name="Trazado 29002" d="M87.874,68.907a50.389,50.389,0,0,1-19.406,33.308,50.479,50.479,0,0,0,50.194,6.364A50.488,50.488,0,0,0,87.876,68.9" transform="translate(745.37 14706.778)" fill="#eb2d16"/>
      <path id="Trazado_29003" data-name="Trazado 29003" d="M87.874,68.91a50.389,50.389,0,0,1-19.406,33.308,50.479,50.479,0,0,0,50.194,6.364A50.488,50.488,0,0,0,87.874,68.91Z" transform="translate(745.37 14706.775)" fill="none" stroke="#000" stroke-miterlimit="10" stroke-width="0.25"/>
      <path id="Trazado_29004" data-name="Trazado 29004" d="M52.114,69.683A50.386,50.386,0,0,0,71.5,102.808,50.387,50.387,0,0,0,90.9,69.5a50.537,50.537,0,0,0-38.79.182" transform="translate(742.341 14706.185)"/>
      <path id="Trazado_29005" data-name="Trazado 29005" d="M52.114,69.683A50.386,50.386,0,0,0,71.5,102.808,50.387,50.387,0,0,0,90.9,69.5a50.537,50.537,0,0,0-38.79.182Z" transform="translate(742.341 14706.185)" fill="none" stroke="#000" stroke-miterlimit="10" stroke-width="0.25"/>
      <path id="Rectángulo_4631" data-name="Rectángulo 4631" d="M0,0H162.323V178.945H0Z" transform="translate(732.677 14694)" fill="none"/>
      <path id="Verde" d="M4.9-5.6,2.824,0H2.1L.07-5.6H.8L2.352-1.16a2.637,2.637,0,0,1,.113.5H2.48a2.433,2.433,0,0,1,.129-.5L4.191-5.6ZM8.512-1.84H5.688A1.5,1.5,0,0,0,6.047-.809a1.239,1.239,0,0,0,.945.363A1.965,1.965,0,0,0,8.235-.891v.6A2.322,2.322,0,0,1,6.84.094,1.691,1.691,0,0,1,5.508-.451a2.23,2.23,0,0,1-.484-1.533,2.187,2.187,0,0,1,.529-1.521,1.7,1.7,0,0,1,1.314-.588,1.5,1.5,0,0,1,1.215.508,2.117,2.117,0,0,1,.43,1.41Zm-.656-.543a1.3,1.3,0,0,0-.268-.863.912.912,0,0,0-.732-.309,1.035,1.035,0,0,0-.77.324,1.471,1.471,0,0,0-.391.848Zm3.711-.969a.783.783,0,0,0-.484-.129.818.818,0,0,0-.686.387,1.788,1.788,0,0,0-.275,1.055V0H9.481V-4h.641v.824h.016a1.4,1.4,0,0,1,.418-.658.953.953,0,0,1,.629-.236,1.046,1.046,0,0,1,.383.055ZM15.676,0h-.641V-.68H15.02a1.479,1.479,0,0,1-1.375.773A1.494,1.494,0,0,1,12.44-.443a2.2,2.2,0,0,1-.451-1.463,2.4,2.4,0,0,1,.5-1.59,1.649,1.649,0,0,1,1.332-.6,1.282,1.282,0,0,1,1.2.648h.016V-5.922h.641Zm-.641-1.809V-2.4a1.144,1.144,0,0,0-.32-.82,1.074,1.074,0,0,0-.812-.336,1.106,1.106,0,0,0-.922.43,1.883,1.883,0,0,0-.336,1.188,1.693,1.693,0,0,0,.322,1.092,1.053,1.053,0,0,0,.865.4A1.094,1.094,0,0,0,14.7-.832,1.441,1.441,0,0,0,15.035-1.809Zm5.152-.031H17.364a1.5,1.5,0,0,0,.359,1.031,1.239,1.239,0,0,0,.945.363A1.965,1.965,0,0,0,19.91-.891v.6a2.322,2.322,0,0,1-1.395.383,1.691,1.691,0,0,1-1.332-.545A2.23,2.23,0,0,1,16.7-1.984a2.187,2.187,0,0,1,.529-1.521,1.7,1.7,0,0,1,1.314-.588,1.5,1.5,0,0,1,1.215.508,2.117,2.117,0,0,1,.43,1.41Zm-.656-.543a1.3,1.3,0,0,0-.268-.863.912.912,0,0,0-.732-.309,1.035,1.035,0,0,0-.77.324,1.471,1.471,0,0,0-.391.848Z" transform="translate(775.292 14804.933)" fill="#fff"/>
      <path id="Azul" d="M5.07,0H4.344L3.75-1.57H1.375L.816,0H.086L2.234-5.6h.68ZM3.535-2.16,2.656-4.547a2.285,2.285,0,0,1-.086-.375H2.555a2.092,2.092,0,0,1-.09.375L1.594-2.16ZM8.6-3.816,6.23-.547H8.574V0H5.289V-.2L7.656-3.453H5.512V-4H8.6ZM12.66,0H12.02V-.633H12A1.316,1.316,0,0,1,10.77.094q-1.43,0-1.43-1.7V-4h.637v2.289q0,1.266.969,1.266a.98.98,0,0,0,.771-.346,1.323,1.323,0,0,0,.3-.9V-4h.641Zm1.934,0h-.641V-5.922h.641Z" transform="translate(804.965 14761.148)" fill="#fff"/>
      <path id="Negro" d="M5.25,0h-.8L1.563-4.465a1.866,1.866,0,0,1-.18-.352H1.359a5.767,5.767,0,0,1,.031.77V0H.734V-5.6h.852l2.8,4.395q.176.273.227.375h.016a5.926,5.926,0,0,1-.039-.824V-5.6H5.25Zm4.6-1.84H7.023A1.5,1.5,0,0,0,7.383-.809a1.239,1.239,0,0,0,.945.363A1.965,1.965,0,0,0,9.57-.891v.6A2.322,2.322,0,0,1,8.176.094,1.691,1.691,0,0,1,6.844-.451a2.23,2.23,0,0,1-.484-1.533,2.187,2.187,0,0,1,.529-1.521A1.7,1.7,0,0,1,8.2-4.094a1.5,1.5,0,0,1,1.215.508,2.117,2.117,0,0,1,.43,1.41Zm-.656-.543a1.3,1.3,0,0,0-.268-.863.912.912,0,0,0-.732-.309,1.035,1.035,0,0,0-.77.324,1.471,1.471,0,0,0-.391.848ZM14.23-.32q0,2.2-2.109,2.2a2.832,2.832,0,0,1-1.3-.281V.961a2.663,2.663,0,0,0,1.289.375q1.477,0,1.477-1.57V-.672h-.016A1.5,1.5,0,0,1,12.2.094,1.5,1.5,0,0,1,11-.439a2.131,2.131,0,0,1-.455-1.432,2.49,2.49,0,0,1,.49-1.621,1.638,1.638,0,0,1,1.342-.6,1.3,1.3,0,0,1,1.2.648h.016V-4h.641ZM13.59-1.809V-2.4a1.144,1.144,0,0,0-.322-.816,1.061,1.061,0,0,0-.8-.34,1.112,1.112,0,0,0-.93.432A1.927,1.927,0,0,0,11.2-1.914a1.654,1.654,0,0,0,.322,1.068,1.041,1.041,0,0,0,.854.4,1.115,1.115,0,0,0,.877-.383A1.427,1.427,0,0,0,13.59-1.809Zm4.023-1.543a.783.783,0,0,0-.484-.129.818.818,0,0,0-.686.387,1.788,1.788,0,0,0-.275,1.055V0h-.641V-4h.641v.824h.016a1.4,1.4,0,0,1,.418-.658.953.953,0,0,1,.629-.236,1.046,1.046,0,0,1,.383.055ZM19.98.094a1.855,1.855,0,0,1-1.416-.561,2.076,2.076,0,0,1-.529-1.486,2.163,2.163,0,0,1,.551-1.574,1.98,1.98,0,0,1,1.488-.566,1.794,1.794,0,0,1,1.4.551,2.184,2.184,0,0,1,.5,1.527,2.149,2.149,0,0,1-.541,1.533A1.9,1.9,0,0,1,19.98.094Zm.047-3.648a1.219,1.219,0,0,0-.977.42,1.725,1.725,0,0,0-.359,1.158,1.631,1.631,0,0,0,.363,1.121,1.235,1.235,0,0,0,.973.41,1.171,1.171,0,0,0,.955-.4,1.746,1.746,0,0,0,.334-1.145,1.776,1.776,0,0,0-.334-1.156A1.166,1.166,0,0,0,20.027-3.555Z" transform="translate(800.726 14786.545)" fill="#fff"/>
      <path id="Rojo" d="M4.75,0H3.969L3.031-1.57a3.42,3.42,0,0,0-.25-.373A1.425,1.425,0,0,0,2.533-2.2a.859.859,0,0,0-.273-.143,1.124,1.124,0,0,0-.33-.045H1.391V0H.734V-5.6H2.406a2.383,2.383,0,0,1,.678.092,1.516,1.516,0,0,1,.539.279,1.3,1.3,0,0,1,.357.467,1.548,1.548,0,0,1,.129.654,1.576,1.576,0,0,1-.088.537,1.4,1.4,0,0,1-.25.436,1.515,1.515,0,0,1-.391.326,1.994,1.994,0,0,1-.514.209v.016a1.181,1.181,0,0,1,.244.143,1.344,1.344,0,0,1,.2.189,2.509,2.509,0,0,1,.186.248q.092.139.205.322ZM1.391-5.008v2.031h.891a1.351,1.351,0,0,0,.455-.074A1.054,1.054,0,0,0,3.1-3.264a.965.965,0,0,0,.238-.34,1.138,1.138,0,0,0,.086-.451.878.878,0,0,0-.291-.7,1.25,1.25,0,0,0-.842-.252ZM6.945.094A1.855,1.855,0,0,1,5.529-.467,2.076,2.076,0,0,1,5-1.953a2.163,2.163,0,0,1,.551-1.574,1.98,1.98,0,0,1,1.488-.566,1.794,1.794,0,0,1,1.4.551,2.184,2.184,0,0,1,.5,1.527A2.149,2.149,0,0,1,8.4-.482,1.9,1.9,0,0,1,6.945.094Zm.047-3.648a1.219,1.219,0,0,0-.977.42,1.725,1.725,0,0,0-.359,1.158A1.631,1.631,0,0,0,6.02-.855a1.235,1.235,0,0,0,.973.41,1.171,1.171,0,0,0,.955-.4,1.746,1.746,0,0,0,.334-1.145,1.776,1.776,0,0,0-.334-1.156A1.166,1.166,0,0,0,6.992-3.555ZM10.6-.168a2.507,2.507,0,0,1-.4,1.518,1.329,1.329,0,0,1-1.135.533,1.2,1.2,0,0,1-.531-.125v-.6a1.06,1.06,0,0,0,.547.176q.875,0,.875-1.4V-4H10.6Zm-.312-4.848A.406.406,0,0,1,10-5.133a.4.4,0,0,1-.121-.3.4.4,0,0,1,.121-.3.4.4,0,0,1,.293-.119.414.414,0,0,1,.3.119.4.4,0,0,1,.123.3.4.4,0,0,1-.123.293A.41.41,0,0,1,10.289-5.016ZM13.57.094a1.855,1.855,0,0,1-1.416-.561,2.076,2.076,0,0,1-.529-1.486,2.163,2.163,0,0,1,.551-1.574,1.98,1.98,0,0,1,1.488-.566,1.794,1.794,0,0,1,1.4.551,2.184,2.184,0,0,1,.5,1.527,2.149,2.149,0,0,1-.541,1.533A1.9,1.9,0,0,1,13.57.094Zm.047-3.648a1.219,1.219,0,0,0-.977.42,1.725,1.725,0,0,0-.359,1.158,1.631,1.631,0,0,0,.363,1.121,1.235,1.235,0,0,0,.973.41,1.171,1.171,0,0,0,.955-.4,1.746,1.746,0,0,0,.334-1.145,1.776,1.776,0,0,0-.334-1.156A1.166,1.166,0,0,0,13.617-3.555Z" transform="translate(829.431 14804.933)" fill="#fff"/>
      <path id="Magenta" d="M6.445,0H5.793V-3.758q0-.445.055-1.09H5.832a3.484,3.484,0,0,1-.168.543L3.75,0H3.43L1.52-4.273a3.348,3.348,0,0,1-.168-.574H1.336q.031.336.031,1.1V0H.734V-5.6H1.6L3.32-1.7a5,5,0,0,1,.258.672H3.6q.168-.461.27-.687L5.625-5.6h.82ZM10.7,0h-.641V-.625h-.016a1.341,1.341,0,0,1-1.23.719,1.315,1.315,0,0,1-.936-.316,1.1,1.1,0,0,1-.338-.84q0-1.121,1.32-1.3l1.2-.168q0-1.02-.824-1.02a1.969,1.969,0,0,0-1.3.492v-.656a2.479,2.479,0,0,1,1.359-.375q1.41,0,1.41,1.492Zm-.641-2.023-.965.133a1.567,1.567,0,0,0-.672.221.637.637,0,0,0-.227.561A.611.611,0,0,0,8.4-.631a.808.808,0,0,0,.557.186,1.028,1.028,0,0,0,.787-.334,1.193,1.193,0,0,0,.311-.846Zm5.262,1.7q0,2.2-2.109,2.2a2.832,2.832,0,0,1-1.3-.281V.961a2.663,2.663,0,0,0,1.289.375q1.477,0,1.477-1.57V-.672H14.66a1.5,1.5,0,0,1-1.375.766,1.5,1.5,0,0,1-1.2-.533,2.131,2.131,0,0,1-.455-1.432,2.49,2.49,0,0,1,.49-1.621,1.638,1.638,0,0,1,1.342-.6,1.3,1.3,0,0,1,1.2.648h.016V-4h.641Zm-.641-1.488V-2.4a1.144,1.144,0,0,0-.322-.816,1.061,1.061,0,0,0-.8-.34,1.112,1.112,0,0,0-.93.432,1.927,1.927,0,0,0-.336,1.209,1.654,1.654,0,0,0,.322,1.068,1.041,1.041,0,0,0,.854.4,1.115,1.115,0,0,0,.877-.383A1.427,1.427,0,0,0,14.676-1.809Zm5.152-.031H17a1.5,1.5,0,0,0,.359,1.031,1.239,1.239,0,0,0,.945.363,1.965,1.965,0,0,0,1.242-.445v.6a2.322,2.322,0,0,1-1.395.383,1.691,1.691,0,0,1-1.332-.545,2.23,2.23,0,0,1-.484-1.533,2.187,2.187,0,0,1,.529-1.521,1.7,1.7,0,0,1,1.314-.588,1.5,1.5,0,0,1,1.215.508,2.117,2.117,0,0,1,.43,1.41Zm-.656-.543a1.3,1.3,0,0,0-.268-.863.912.912,0,0,0-.732-.309,1.035,1.035,0,0,0-.77.324,1.471,1.471,0,0,0-.391.848ZM24.117,0h-.641V-2.281q0-1.273-.93-1.273a1.008,1.008,0,0,0-.795.361,1.339,1.339,0,0,0-.314.912V0H20.8V-4h.641v.664h.016a1.444,1.444,0,0,1,1.313-.758,1.224,1.224,0,0,1,1,.424,1.888,1.888,0,0,1,.348,1.225ZM27.18-.039a1.235,1.235,0,0,1-.6.125q-1.051,0-1.051-1.172V-3.453h-.687V-4h.688v-.977l.641-.207V-4H27.18v.547H26.172V-1.2a.934.934,0,0,0,.137.574.546.546,0,0,0,.453.172.674.674,0,0,0,.418-.133ZM30.9,0h-.641V-.625h-.016a1.341,1.341,0,0,1-1.23.719,1.315,1.315,0,0,1-.936-.316,1.1,1.1,0,0,1-.338-.84q0-1.121,1.32-1.3l1.2-.168q0-1.02-.824-1.02a1.969,1.969,0,0,0-1.3.492v-.656a2.479,2.479,0,0,1,1.359-.375q1.41,0,1.41,1.492Zm-.641-2.023-.965.133a1.566,1.566,0,0,0-.672.221.637.637,0,0,0-.227.561.611.611,0,0,0,.209.479.808.808,0,0,0,.557.186,1.028,1.028,0,0,0,.787-.334,1.193,1.193,0,0,0,.311-.846Z" transform="translate(843.523 14761.148)" fill="#fff"/>
      <path id="Amarillo" d="M5.07,0H4.344L3.75-1.57H1.375L.816,0H.086L2.234-5.6h.68ZM3.535-2.16,2.656-4.547a2.285,2.285,0,0,1-.086-.375H2.555a2.092,2.092,0,0,1-.09.375L1.594-2.16ZM11.488,0h-.641V-2.3a1.733,1.733,0,0,0-.205-.961.778.778,0,0,0-.689-.3.854.854,0,0,0-.7.375,1.435,1.435,0,0,0-.287.9V0H8.328V-2.375q0-1.18-.91-1.18a.843.843,0,0,0-.7.354,1.461,1.461,0,0,0-.273.92V0H5.809V-4h.641v.633h.016a1.359,1.359,0,0,1,1.242-.727,1.158,1.158,0,0,1,.715.229,1.15,1.15,0,0,1,.418.6,1.427,1.427,0,0,1,1.328-.828q1.32,0,1.32,1.629Zm4.074,0h-.641V-.625h-.016a1.341,1.341,0,0,1-1.23.719,1.315,1.315,0,0,1-.936-.316,1.1,1.1,0,0,1-.338-.84q0-1.121,1.32-1.3l1.2-.168q0-1.02-.824-1.02a1.969,1.969,0,0,0-1.3.492v-.656a2.479,2.479,0,0,1,1.359-.375q1.41,0,1.41,1.492Zm-.641-2.023-.965.133a1.567,1.567,0,0,0-.672.221.637.637,0,0,0-.227.561.611.611,0,0,0,.209.479.808.808,0,0,0,.557.186,1.028,1.028,0,0,0,.787-.334,1.193,1.193,0,0,0,.311-.846Zm3.934-1.328a.783.783,0,0,0-.484-.129.818.818,0,0,0-.686.387,1.788,1.788,0,0,0-.275,1.055V0H16.77V-4h.641v.824h.016a1.4,1.4,0,0,1,.418-.658.953.953,0,0,1,.629-.236,1.046,1.046,0,0,1,.383.055Zm1.023-1.664a.406.406,0,0,1-.293-.117.4.4,0,0,1-.121-.3.4.4,0,0,1,.121-.3.4.4,0,0,1,.293-.119.414.414,0,0,1,.3.119.4.4,0,0,1,.123.3.4.4,0,0,1-.123.293A.41.41,0,0,1,19.879-5.016ZM20.191,0h-.641V-4h.641Zm1.938,0h-.641V-5.922h.641Zm1.938,0h-.641V-5.922h.641Zm2.969.094a1.855,1.855,0,0,1-1.416-.561,2.076,2.076,0,0,1-.529-1.486,2.163,2.163,0,0,1,.551-1.574,1.98,1.98,0,0,1,1.488-.566,1.794,1.794,0,0,1,1.4.551,2.184,2.184,0,0,1,.5,1.527,2.149,2.149,0,0,1-.541,1.533A1.9,1.9,0,0,1,27.035.094Zm.047-3.648a1.219,1.219,0,0,0-.977.42,1.725,1.725,0,0,0-.359,1.158,1.631,1.631,0,0,0,.363,1.121,1.235,1.235,0,0,0,.973.41,1.171,1.171,0,0,0,.955-.4,1.746,1.746,0,0,0,.334-1.145,1.776,1.776,0,0,0-.334-1.156A1.166,1.166,0,0,0,27.082-3.555Z" transform="translate(796.61 14839.85)"/>
      <path id="Cian" d="M3.979-.205A2.875,2.875,0,0,1,2.625.082,2.183,2.183,0,0,1,.95-.591,2.485,2.485,0,0,1,.321-2.358a2.6,2.6,0,0,1,.708-1.9,2.4,2.4,0,0,1,1.794-.725,2.877,2.877,0,0,1,1.155.2v.612a2.343,2.343,0,0,0-1.162-.294A1.783,1.783,0,0,0,1.448-3.9,2.125,2.125,0,0,0,.923-2.393a2.022,2.022,0,0,0,.49,1.427A1.669,1.669,0,0,0,2.7-.434,2.414,2.414,0,0,0,3.979-.762Zm1.21-4.184a.355.355,0,0,1-.256-.1.346.346,0,0,1-.106-.26.352.352,0,0,1,.106-.261.352.352,0,0,1,.256-.1.362.362,0,0,1,.261.1.349.349,0,0,1,.108.261.346.346,0,0,1-.108.256A.359.359,0,0,1,5.188-4.389ZM5.462,0H4.9V-3.5h.561ZM9.1,0H8.542V-.547H8.528A1.174,1.174,0,0,1,7.451.082a1.151,1.151,0,0,1-.819-.277.959.959,0,0,1-.3-.735q0-.981,1.155-1.142l1.049-.147q0-.892-.721-.892a1.723,1.723,0,0,0-1.142.431v-.574a2.169,2.169,0,0,1,1.189-.328Q9.1-3.582,9.1-2.276ZM8.542-1.771,7.7-1.654a1.371,1.371,0,0,0-.588.193.557.557,0,0,0-.2.49.534.534,0,0,0,.183.419.707.707,0,0,0,.487.162A.9.9,0,0,0,8.27-.682a1.044,1.044,0,0,0,.272-.74ZM13.063,0H12.5V-2q0-1.114-.813-1.114a.882.882,0,0,0-.7.316,1.172,1.172,0,0,0-.275.8V0h-.561V-3.5h.561v.581h.014a1.263,1.263,0,0,1,1.148-.663,1.071,1.071,0,0,1,.878.371,1.652,1.652,0,0,1,.3,1.072Z" transform="translate(753.747 14760.148)" fill="#fff"/>
      <path id="Colores_pigmento" data-name="Colores pigmento" d="M6.82-.352A4.928,4.928,0,0,1,4.5.141,3.742,3.742,0,0,1,1.629-1.014,4.259,4.259,0,0,1,.551-4.043,4.464,4.464,0,0,1,1.764-7.3,4.117,4.117,0,0,1,4.84-8.543,4.932,4.932,0,0,1,6.82-8.2v1.049a4.016,4.016,0,0,0-1.992-.5,3.057,3.057,0,0,0-2.347.967,3.642,3.642,0,0,0-.9,2.584,3.465,3.465,0,0,0,.841,2.446,2.861,2.861,0,0,0,2.206.911A4.139,4.139,0,0,0,6.82-1.307Zm4.09.492A2.783,2.783,0,0,1,8.786-.7,3.114,3.114,0,0,1,7.992-2.93a3.244,3.244,0,0,1,.826-2.361,2.97,2.97,0,0,1,2.232-.85,2.691,2.691,0,0,1,2.095.826A3.276,3.276,0,0,1,13.9-3.023a3.223,3.223,0,0,1-.812,2.3A2.844,2.844,0,0,1,10.91.141Zm.07-5.473a1.828,1.828,0,0,0-1.465.63,2.587,2.587,0,0,0-.539,1.737,2.447,2.447,0,0,0,.545,1.682,1.852,1.852,0,0,0,1.459.615,1.757,1.757,0,0,0,1.433-.6,2.619,2.619,0,0,0,.5-1.717,2.664,2.664,0,0,0-.5-1.734A1.749,1.749,0,0,0,10.98-5.332ZM16.395,0h-.961V-8.883h.961Zm4.453.141A2.783,2.783,0,0,1,18.724-.7,3.114,3.114,0,0,1,17.93-2.93a3.244,3.244,0,0,1,.826-2.361,2.97,2.97,0,0,1,2.232-.85,2.691,2.691,0,0,1,2.095.826,3.276,3.276,0,0,1,.753,2.291,3.223,3.223,0,0,1-.812,2.3A2.844,2.844,0,0,1,20.848.141Zm.07-5.473a1.828,1.828,0,0,0-1.465.63,2.587,2.587,0,0,0-.539,1.737,2.447,2.447,0,0,0,.545,1.682,1.852,1.852,0,0,0,1.459.615,1.757,1.757,0,0,0,1.433-.6,2.619,2.619,0,0,0,.5-1.717,2.664,2.664,0,0,0-.5-1.734A1.749,1.749,0,0,0,20.918-5.332Zm7.582.3a1.175,1.175,0,0,0-.727-.193,1.226,1.226,0,0,0-1.028.58,2.682,2.682,0,0,0-.413,1.582V0h-.961V-6h.961v1.236h.023a2.1,2.1,0,0,1,.627-.987,1.43,1.43,0,0,1,.943-.354,1.569,1.569,0,0,1,.574.082ZM34.365-2.76H30.129a2.244,2.244,0,0,0,.539,1.547,1.858,1.858,0,0,0,1.418.545,2.948,2.948,0,0,0,1.863-.668v.9a3.482,3.482,0,0,1-2.092.574,2.536,2.536,0,0,1-2-.817,3.346,3.346,0,0,1-.727-2.3,3.281,3.281,0,0,1,.794-2.282A2.546,2.546,0,0,1,31.9-6.141a2.256,2.256,0,0,1,1.822.762,3.176,3.176,0,0,1,.645,2.115Zm-.984-.814a1.955,1.955,0,0,0-.4-1.295,1.368,1.368,0,0,0-1.1-.463,1.552,1.552,0,0,0-1.154.486,2.207,2.207,0,0,0-.586,1.271ZM35.455-.217V-1.248a2.844,2.844,0,0,0,1.729.58q1.266,0,1.266-.844a.732.732,0,0,0-.108-.407,1.08,1.08,0,0,0-.293-.3,2.255,2.255,0,0,0-.434-.231q-.249-.1-.536-.214a6.9,6.9,0,0,1-.7-.319,2.115,2.115,0,0,1-.5-.363,1.352,1.352,0,0,1-.3-.46,1.627,1.627,0,0,1-.1-.6,1.434,1.434,0,0,1,.193-.747,1.715,1.715,0,0,1,.516-.545,2.4,2.4,0,0,1,.735-.331,3.262,3.262,0,0,1,.853-.111,3.442,3.442,0,0,1,1.395.27V-4.9a2.718,2.718,0,0,0-1.523-.434,1.781,1.781,0,0,0-.486.062,1.191,1.191,0,0,0-.372.173.8.8,0,0,0-.24.267.7.7,0,0,0-.085.343.822.822,0,0,0,.085.393.864.864,0,0,0,.249.281,1.9,1.9,0,0,0,.4.223q.234.1.533.217a7.421,7.421,0,0,1,.715.313,2.452,2.452,0,0,1,.539.363,1.42,1.42,0,0,1,.343.466,1.5,1.5,0,0,1,.12.627,1.478,1.478,0,0,1-.2.773,1.682,1.682,0,0,1-.524.545,2.4,2.4,0,0,1-.756.322,3.732,3.732,0,0,1-.9.105A3.4,3.4,0,0,1,35.455-.217Zm9.727-.65h-.023V2.76H44.2V-6h.961v1.055h.023a2.272,2.272,0,0,1,2.074-1.2,2.2,2.2,0,0,1,1.811.806,3.337,3.337,0,0,1,.65,2.159,3.719,3.719,0,0,1-.732,2.411,2.439,2.439,0,0,1-2,.905A2.007,2.007,0,0,1,45.182-.867Zm-.023-2.42v.838a1.784,1.784,0,0,0,.483,1.263,1.605,1.605,0,0,0,1.228.519,1.608,1.608,0,0,0,1.368-.668,3.064,3.064,0,0,0,.5-1.857,2.419,2.419,0,0,0-.463-1.57,1.532,1.532,0,0,0-1.254-.568,1.7,1.7,0,0,0-1.348.583A2.141,2.141,0,0,0,45.158-3.287Zm6.586-4.236A.609.609,0,0,1,51.3-7.7a.593.593,0,0,1-.182-.445.6.6,0,0,1,.182-.448.6.6,0,0,1,.439-.179.621.621,0,0,1,.448.179.6.6,0,0,1,.185.448.594.594,0,0,1-.185.439A.615.615,0,0,1,51.744-7.523ZM52.213,0h-.961V-6h.961Zm7.066-.48q0,3.3-3.164,3.3A4.248,4.248,0,0,1,54.17,2.4V1.441A4,4,0,0,0,56.1,2q2.215,0,2.215-2.355v-.656h-.023A2.247,2.247,0,0,1,56.232.141a2.252,2.252,0,0,1-1.8-.8,3.2,3.2,0,0,1-.683-2.147,3.735,3.735,0,0,1,.735-2.432,2.457,2.457,0,0,1,2.013-.9,1.956,1.956,0,0,1,1.8.973h.023V-6h.961Zm-.961-2.232V-3.6a1.717,1.717,0,0,0-.483-1.225,1.591,1.591,0,0,0-1.2-.51,1.669,1.669,0,0,0-1.395.647,2.89,2.89,0,0,0-.5,1.813,2.481,2.481,0,0,0,.483,1.6,1.562,1.562,0,0,0,1.28.6,1.673,1.673,0,0,0,1.315-.574A2.14,2.14,0,0,0,58.318-2.713ZM69.744,0h-.961V-3.445a2.6,2.6,0,0,0-.308-1.441,1.167,1.167,0,0,0-1.034-.445A1.281,1.281,0,0,0,66.4-4.77a2.152,2.152,0,0,0-.431,1.348V0H65V-3.562q0-1.77-1.365-1.77A1.265,1.265,0,0,0,62.6-4.8a2.192,2.192,0,0,0-.41,1.38V0h-.961V-6h.961v.949h.023a2.038,2.038,0,0,1,1.863-1.09,1.737,1.737,0,0,1,1.072.343,1.724,1.724,0,0,1,.627.9,2.141,2.141,0,0,1,1.992-1.242q1.98,0,1.98,2.443Zm6.639-2.76H72.146a2.244,2.244,0,0,0,.539,1.547A1.858,1.858,0,0,0,74.1-.668a2.948,2.948,0,0,0,1.863-.668v.9a3.482,3.482,0,0,1-2.092.574,2.536,2.536,0,0,1-2-.817,3.346,3.346,0,0,1-.727-2.3,3.281,3.281,0,0,1,.794-2.282,2.546,2.546,0,0,1,1.972-.882,2.256,2.256,0,0,1,1.822.762,3.176,3.176,0,0,1,.645,2.115ZM75.4-3.574A1.955,1.955,0,0,0,75-4.869a1.368,1.368,0,0,0-1.1-.463,1.552,1.552,0,0,0-1.154.486,2.207,2.207,0,0,0-.586,1.271ZM82.816,0h-.961V-3.422q0-1.91-1.395-1.91a1.513,1.513,0,0,0-1.192.542A2.009,2.009,0,0,0,78.8-3.422V0h-.961V-6H78.8v1h.023a2.166,2.166,0,0,1,1.969-1.137,1.836,1.836,0,0,1,1.506.636,2.832,2.832,0,0,1,.521,1.837ZM87.41-.059a1.853,1.853,0,0,1-.9.188q-1.576,0-1.576-1.758V-5.18H83.906V-6h1.031V-7.465l.961-.311V-6H87.41v.82H85.9V-1.8a1.4,1.4,0,0,0,.205.861.818.818,0,0,0,.68.258,1.01,1.01,0,0,0,.627-.2Zm3.791.2A2.783,2.783,0,0,1,89.077-.7a3.114,3.114,0,0,1-.794-2.229,3.244,3.244,0,0,1,.826-2.361,2.97,2.97,0,0,1,2.232-.85,2.691,2.691,0,0,1,2.095.826,3.276,3.276,0,0,1,.753,2.291,3.223,3.223,0,0,1-.812,2.3A2.844,2.844,0,0,1,91.2.141Zm.07-5.473a1.828,1.828,0,0,0-1.465.63,2.587,2.587,0,0,0-.539,1.737,2.447,2.447,0,0,0,.545,1.682,1.852,1.852,0,0,0,1.459.615,1.757,1.757,0,0,0,1.433-.6,2.619,2.619,0,0,0,.5-1.717,2.664,2.664,0,0,0-.5-1.734A1.749,1.749,0,0,0,91.271-5.332Z" transform="translate(761.306 14703.963)"/>
      <path id="Rectángulo_4631-2" data-name="Rectángulo 4631" d="M0,0H162.323V178.945H0Z" transform="translate(732.677 14694)" fill="none"/>
    </g>
  </g>
</svg>
